<svg xmlns="http://www.w3.org/2000/svg" viewBox="0 0 751.23 1599.66"><defs><style>.cls-1{fill:none;}.cls-2{fill:#8a5b32;}.cls-3{fill:#422b1a;}.cls-4{fill:#ae8052;}.cls-5{fill:#2e3191;}.cls-6{fill:#7d4e29;}.cls-7{fill:#c98496;}.cls-8{fill:#fff;}</style></defs><title>AIREDALE TERRIER 1</title><g id="Layer_2" data-name="Layer 2"><g id="Layer_1-2" data-name="Layer 1"><path class="cls-1" d="M539.49,8.52a55.15,55.15,0,0,1,6.25.77A26.57,26.57,0,0,0,539.49,8.52Z"/><path class="cls-1" d="M347,393.71c1.22-4.66,2.51-9.29,3.84-13.81-12.47-2.89-11.4-11.79-24.3-12.6C315,366.58,338,386.31,347,393.71Z"/><path class="cls-1" d="M353,372.6c1.06-3.42,2.13-6.75,3.2-9.94a37.83,37.83,0,0,0-8.49-6.84C331.83,347,338,364.65,353,372.6Z"/><path class="cls-1" d="M741,1134.34c-6.07-12.15-9.05,12-4.81,40.67C741,1160.69,745.3,1143,741,1134.34Z"/><path class="cls-1" d="M359.18,354c.86-2.45,1.71-4.79,2.52-7C353.75,345.77,349,345.53,359.18,354Z"/><path class="cls-1" d="M521.48,1405.52c.58,2.85,1.43,6,2.38,9.13,1-2.14,1.94-4.19,2.73-6.1C524.93,1407.53,523.22,1406.52,521.48,1405.52Z"/><path class="cls-2" d="M447.65,1340c1.77-13.33,1.94-27.08-3.59-32C432.29,1297.53,438.57,1312.86,447.65,1340Z"/><path class="cls-2" d="M524.91,1395.47c-4.61-2-4.86,3-3.43,10,1.74,1,3.45,2,5.11,3C529.09,1402.43,529.88,1397.68,524.91,1395.47Z"/><path class="cls-2" d="M209.43,1399.45c15.91-47.72,15.91-37.12,13.26-58.32s-13.26,17.23-13.26,17.23,0-23.86,10.6-71.58,8-39.77,5.3-68.93,14.58-26.51,11.93-55.67-5.3,4-5.3,4-6.63-19.88-4-62.3c.32-5.15.82-9.67,1.45-13.7-29.89-23.73-35.19-50.56-38.56-76.44-4-30.49-9.28-49-15.91-57-21.21-18.56-59.65-26.51-59.65-26.51s4,5.3,15.91,9.28-4,2.65-37.12,9.28-63.63,39.77-63.63,39.77l13.26-2.65c13.26-2.65-1.33,6.63-19.88,25.19S0,1090.6,0,1090.6A155.24,155.24,0,0,0,8,1076c5.3-10.6-5.3,25.19-4,57s25.19,102.07,25.19,102.07-2.65-15.91,0-25.19,0,5.3,18.56,47.72S106,1315.94,106,1315.94s10.6-6.63,21.21,6.63,1.33,8-30.49,30.49-61,94.11-25.19,131.23,105.91,4,133.8-11.89C202.28,1452.41,200.92,1425,209.43,1399.45Z"/><path class="cls-2" d="M522.26,1330.52c2.65-19.88-10.6,11.93-10.6,11.93s-2.65-22.53,2.65-33.14,5.3-19.88,2.65-42.42-5.3,14.58-5.3,14.58-1.33-5.3-8-35.79c-.24-1.12-.44-2.2-.62-3.26-7.29,13.38-13.2,22.37-16.62,24.47-7.24,4.46-21.28,9.61-36,10.16,2.22,6,4.55,12.4,6.83,19,7,20.33.24,42.49-6.52,57.26a106.68,106.68,0,0,1-.76,30.37c8.45,3.09,16.59,8.44,29.81,7.81,10.58-.5,23.45,4.35,35.34,10.57a82.49,82.49,0,0,1-3.53-19.85C510.33,1354.38,519.61,1350.41,522.26,1330.52Z"/><path class="cls-3" d="M229.44,1090.16c4.53-29.14,15.78-32.26,15.78-57.88,0-29.16-10.6,25.19-10.6,25.19s-1.33-18.56-2.65-50.37,10.6-31.81,19.88-47.72-10.6,9.28-10.6,9.28,9.28-27.84,23.86-42.42,14.58-26.51,8-53c-5.84-23.34-12.7-91.91-2.49-157.73-12.05,25.58-28.9,64.64-34.63,94.11-9.28,47.72-19.88,99.42-42.42,119.3S168.34,948.77,175,956.72s11.93,26.51,15.91,57C194.25,1039.6,199.55,1066.43,229.44,1090.16Z"/><path class="cls-3" d="M503.09,1242.43c-4.55-27.72,14.16-34.63,21.82-55.06,8-21.21-14.58,17.23-14.58,17.23v-38.44c0-30.49,26.51-38.44,31.81-59.65s-18.56,15.91-18.56,8,13.26-31.81,21.21-57,1.33-33.14-6.63-8S511.66,1084,511.66,1084s14.58-50.37-9.28-61,8,26.51,8,26.51-9.28-6.63-25.19-15.91-14.58-43.74-18.56-21.21-26.51,39.77-26.51,39.77,0-9.28-6.63-23.86-4,21.21,10.6,57,1.33,57,1.33,57-2.65-6.63-6.63-19.88-1.33,51.7,9.28,79.53,4,51.7,4,51.7-1.33-5.3-10.6-13.26c-7.5-6.43-.27,11.4,9.07,36.67,14.72-.55,28.75-5.71,36-10.16C489.89,1264.8,495.8,1255.81,503.09,1242.43Z"/><path class="cls-4" d="M738.32,1406.08c6.63,17.23,9.28,22.53,9.28,22.53s8-23.86-2.65-55.67-5.3-35.79-1.33-29.16a46.65,46.65,0,0,1,5.3,13.26s4-43.74-10.6-72.9-8-51.7-2.65-39.77,5.3,18.56,5.3,18.56,13.26-23.86,1.33-61a161.42,161.42,0,0,1-4.62-18.13c7.73-12,16.53-31.29,12.58-53.45-6.63-37.12-38.44-82.18-23.86-68.93S743.63,1080,743.63,1080s-6.63-41.09-23.86-61-34.46-80.86-26.51-66.28,10.6,18.56,10.6,18.56,0-39.77-14.58-53-6.63-43.74,1.33-37.12l8,6.63s15.91-140.51-2.65-200.16c-7.65-24.59-14.85-45.35-21.51-61.72.63,13.11.3,22.4.3,22.4s-1.77-5.3-5.3-13.26-13.26-3.54-9.72,10.6,2.65,33.58,2.65,33.58-7.07-9.72-22.09-15.91,11.49,20.33,11.49,20.33l-13.26,1.77c-13.26,1.77-22.09-9.72-41.53-18.56S604,682.78,604,682.78s-8,3.53-22.09,3.53-39.77-28.28-33.58-15a25.44,25.44,0,0,1-.88,23.86s.88-6.19-3.53-17.67-19.44-17.67-17.67-3.54-4.42,26.51-4.42,26.51-.88-8-8.84-22.09-21.21-16.79-20.33,0-13.26,27.39-13.26,27.39.88-21.21-8.84-30.93-7.07,28.28-7.07,28.28S460,690.73,441.4,678.36s-19.44-21.21-22.09-9.72-18.56,15-18.56,15l.88-11.49c.88-11.49-7.07-7.07-21.21,12.37s-47.72,8.84-47.72,8.84a129.19,129.19,0,0,0,10.6-14.14c4.42-7.07,1.77-13.26-8.84,1.77s-28.28,14.14-28.28,14.14,3.53,0,4.42-34.46c.75-29.34-13.86-27.31-14.4-45.14-4.81,13.71-11.81,36.65-20.5,73.42-2.06,8.71-3.75,17.59-5.14,26.52-10.21,65.82-3.35,134.39,2.49,157.73,6.63,26.51,6.63,38.44-8,53s-23.86,42.42-23.86,42.42,19.88-25.19,10.6-9.28-21.21,15.91-19.88,47.72,2.65,50.37,2.65,50.37,10.6-54.35,10.6-25.19c0,25.62-11.25,28.74-15.78,57.88-.63,4-1.13,8.54-1.45,13.7-2.65,42.42,4,62.3,4,62.3s2.65-33.14,5.3-4-14.58,26.51-11.93,55.67,5.3,21.21-5.3,68.93-10.6,71.58-10.6,71.58,10.6-38.44,13.26-17.23,2.65,10.6-13.26,58.32c-8.51,25.53-7.15,53-4.05,72.95a189.15,189.15,0,0,0,6.7,29.12s-4-38.44,4-19.88-4,25.19,2.65,53,22.53,63.63,83.51,65,82.18-21.21,88.81-45.07,13.26-10.6,13.26-10.6,17.23-6.63,13.26-42.42,0-47.72,6.63-38.44,8,13.26,8,13.26,9.28-37.12,4-58.32-1.33-30.49,2.65-25.19a78.34,78.34,0,0,1,6.63,10.6,128,128,0,0,0,4.65-19.74,106.68,106.68,0,0,0,.76-30.37c6.76-14.77,13.56-36.93,6.52-57.26-2.29-6.6-4.62-13-6.83-19-9.35-25.27-16.57-43.1-9.07-36.67,9.28,8,10.6,13.26,10.6,13.26s6.63-23.86-4-51.7-13.26-92.79-9.28-79.53,6.63,19.88,6.63,19.88,13.26-21.21-1.33-57-17.23-71.58-10.6-57,6.63,23.86,6.63,23.86,22.53-17.23,26.51-39.77,2.65,11.93,18.56,21.21,25.19,15.91,25.19,15.91-31.81-37.12-8-26.51,9.28,61,9.28,61,18.56-9.28,26.51-34.46,14.58-17.23,6.63,8-21.21,49-21.21,57,23.86-29.16,18.56-8-31.81,29.16-31.81,59.65v38.44s22.53-38.44,14.58-17.23c-7.66,20.43-26.38,27.34-21.82,55.06.17,1.06.37,2.14.62,3.26,6.63,30.49,8,35.79,8,35.79s2.65-37.12,5.3-14.58,2.65,31.81-2.65,42.42-2.65,33.14-2.65,33.14,13.26-31.81,10.6-11.93-11.93,23.86-10.6,51.7a82.49,82.49,0,0,0,3.53,19.85,105,105,0,0,0,6.75,16.78c-2.87,6.43-5.47,13.49-5,20.37,1.33,18.56,9.28,37.12,9.28,37.12s5.3-27.84,9.28-8-8,45.07-8,45.07,18.56-15.91,19.88,1.33,54.35,86.16,128.58,55.67,74.23-59.65,74.23-91.46S731.7,1388.85,738.32,1406.08ZM447.65,1340c-9.07-27.12-15.36-42.45-3.59-32C449.58,1312.9,449.42,1326.65,447.65,1340Zm73.83,65.54c-1.42-7-1.18-12.1,3.43-10,5,2.21,4.18,7,1.67,13.08-.78,1.91-1.73,4-2.73,6.1C522.91,1411.52,522.06,1408.37,521.48,1405.52ZM741,1134.34c4.33,8.66,0,26.34-4.81,40.67C731.92,1146.38,734.9,1122.2,741,1134.34Z"/><path class="cls-3" d="M364.52,463.62c-4.69,2.74-1.6,10.65,3.3,18.63C370.48,469.94,371.35,459.64,364.52,463.62Z"/><path class="cls-3" d="M384.85,522.83c-.9,3.6,1,7.32,4.23,10.86,8.11-6.88,14.68-13.59,14.33-17.05C402.52,507.81,388.38,508.69,384.85,522.83Z"/><path class="cls-5" d="M661.38,534.08l.06.24S661.42,534.23,661.38,534.08Z"/><path class="cls-3" d="M310.62,660.69c-.88,34.46-4.42,34.46-4.42,34.46s17.67.88,28.28-14.14,13.26-8.84,8.84-1.77a129.19,129.19,0,0,1-10.6,14.14s33.58,10.6,47.72-8.84,22.09-23.86,21.21-12.37l-.88,11.49s15.91-3.53,18.56-15,3.53-2.65,22.09,9.72S463.5,703.1,463.5,703.1s-2.65-38,7.07-28.28,8.84,30.93,8.84,30.93,14.14-10.6,13.26-27.39,12.37-14.14,20.33,0,8.84,22.09,8.84,22.09,6.19-12.37,4.42-26.51,13.26-8,17.67,3.54,3.53,17.67,3.53,17.67a25.44,25.44,0,0,0,.88-23.86c-6.19-13.26,19.44,15,33.58,15S604,682.78,604,682.78s-26.51-24.74-7.07-15.91,28.28,20.32,41.53,18.56l13.26-1.77s-26.51-26.51-11.49-20.33,22.09,15.91,22.09,15.91.88-19.44-2.65-33.58,6.19-18.56,9.72-10.6,5.3,13.26,5.3,13.26.33-9.29-.3-22.4c-.82-17.16-3.29-40.87-10.31-58.9-12.37-31.81-14.14-46-8.84-41.53,4.59,3.82,5.87,7.64,6.13,8.6-.71-2.83-8.56-33-22-43.07-14.14-10.6-16.79-19.44-8-15.91s11.49,3.54,11.49,3.54-23-25.63-30.93-43.3-2.65-22.09-1.77-18.56,7.07-18.56-.88-34.46S604,354,606.65,360.23s4.42,9.72,4.42,9.72,1.77-15-5.3-37.12a72.92,72.92,0,0,0-7.18-15.19,51.22,51.22,0,0,1-5.19,16.07l-.88-8.84c-.88-8.84-10.6,11.49-.88,36.23s-4.42,78.65-4.42,78.65-3.53-19.44-16.79-24.74,8,17.67,8,17.67-22.09,2.65-28.28.88c-2.82-.81-5.1,3.18-7.07,8.42.39,18.8-7.3,27.27-13.53,31,.58,5.31,1,11,1.16,17.09.88,38-44.18,45.07-44.18,45.07s21.21-8.84,30-26.51.88-30-20.32-41.53-8,2.65-10.6,25.63S463.5,519.3,463.5,519.3s10.6-15.91,4.42-27.39-5.3,3.53-15,21.21S428.15,537,428.15,537s4.42-1.77,6.19-14.14S437,505.16,422,521.06c-5.71,6-16,12.48-26.62,18.13,10.48,7.79,24.85,13.68,24.85,13.68l-15-4.42a58.64,58.64,0,0,1-14.11-7c-15.82,8.1-31,14.1-31,14.1s13.05-8.88,24.83-18.4c-13-9.85-25-23.86-22.18-34.62,1.27-4.81,2.82-10.56,4.15-16.18-6.43-8-12-17.66-10.33-26.24,3.53-18.56,11.49-20.33,14.14-36.23s.88-14.14-9.72-34.46a32.19,32.19,0,0,1-3-8.65c-1.05,0-2.12-.07-3.22-.19a32.63,32.63,0,0,1-4-.66c-1.33,4.52-2.62,9.15-3.84,13.81,2.07,1.7,3.4,2.75,3.4,2.75a20.67,20.67,0,0,1-4.07-.13c-3.58,14.09-6.4,28.38-7.42,40.78-3.53,43.3-28.28,76.88-29.16,93.67s-2.65,20.33-2.65,20.33,9.72-16.79,7.07-5.3-10.6,27.39-16.79,58.32a50.56,50.56,0,0,0-1.15,11.41C296.76,633.37,311.37,631.34,310.62,660.69Z"/><path class="cls-4" d="M516.35,321.83c3-10.35,5.28-25.06-1.6-34.06-11.49-15-20.33-7.07-10.6,3.53C510.06,297.76,515,308.8,516.35,321.83Z"/><path class="cls-4" d="M317.69,233s10.6-22.09,30.93-30,26.51-2.65,33.58-8-17.67,1.77-17.67,1.77,2.65-4.42,18.56-8,31.81,14.14,31.81,14.14,9.72-12.37,29.16-12.37c15.13,0,26.51,12.37,26.51,12.37l-12.37-2.65c-12.37-2.65-18.56,0-23.86,3.53s15.91-3.53,41.53,11.49S498,243.58,498,243.58l-8.84-6.19c-8.84-6.19-12.37,6.19,2.65,10.6s24.74,19.44,31.81,40.65c4.7,14.1-1.93,29.37-6.9,38a69.4,69.4,0,0,1-.33,9.47c5,8.26,5.53,18.84,12.53,37.34,6.25,16.53,6.18,28.54,4.58,36.38,4.92,9.34,9.24,20.39,9.55,31.67,0,.16,0,.31,0,.47,2-5.24,4.24-9.23,7.07-8.42,6.19,1.77,28.28-.88,28.28-.88s-21.21-23-8-17.67,16.79,24.74,16.79,24.74,14.14-53.9,4.42-78.65,0-45.07.88-36.23l.88,8.84a51.22,51.22,0,0,0,5.19-16.07,37,37,0,0,0-3.42-22.81c-9.72-18.56,14.14-40.65,10.6-73.35s-8.84-40.65-1.77-38a111.07,111.07,0,0,0,10.6,3.54s1.49-7.48-7.9-23.13c-4.77,3.81-6.79.72-16.84-13.11-14.14-19.44-23-77.76-23-110.46,0-22.57-13.05-29.14-21.14-31a55.15,55.15,0,0,0-6.25-.77s-47.72-8-77.76,0-91,.88-95.44-.88c0,0-28.28,17.67-33.58,51.25-4.34,27.46-3.36,57.28-11.55,79.32-.13,5.43-.52,15.83-1.7,29.38-1.77,20.33,0,26.51,0,26.51s12.37-15,7.07-5.3-12.37,22.09-14.14,31.81c-.82,4.51-.69,14.71,0,24.45,5.9-5.45,12.24-9.24,17.72-14.73C339.78,220.61,317.69,233,317.69,233Z"/><path class="cls-3" d="M528.89,434.46c-8.34-5.13-4.11,6.51-.82,27.8C532.12,451.81,535.54,438.55,528.89,434.46Z"/><path class="cls-4" d="M520.94,385c-6.18-2.85.44,4.54,8,16.94C528.11,394.52,526,387.29,520.94,385Z"/><path class="cls-6" d="M357.26,374.42a29.77,29.77,0,0,0,9.35,1.5,100.59,100.59,0,0,0-8.89-11.66A58.42,58.42,0,0,0,357.26,374.42Z"/><path class="cls-6" d="M366.41,347.78l-4.55-.73c-.75,2.18-1.52,4.67-2.21,7.37a45.63,45.63,0,0,1,10.58,14.41v-.05A51.34,51.34,0,0,1,366.41,347.78Z"/><path class="cls-6" d="M533.47,409.86c1.6-7.84,1.67-19.84-4.58-36.38-7-18.51-7.5-29.08-12.53-37.34a69.46,69.46,0,0,1-2.49,12.6C506.8,372.6,490,388.51,490,388.51s17.67-25.63,14.14-43.3-7.07-4.42-12.37,15-17.67,25.63-17.67,25.63,8-15,7.07-30.93c-.28-5-.82-8.46-1.55-10.54.07,12.85-2.15,28.56-9.05,40.14a26.11,26.11,0,0,1-7.94,8.18c-7.21,36.2-43.88,46.58-73.36,28.06-12.75-8-17.54-23.32-18.77-38.67q-.81-1.36-1.69-2.76A38.28,38.28,0,0,1,358,380.75a32.19,32.19,0,0,0,3,8.65c10.6,20.33,12.37,18.56,9.72,34.46s-10.6,17.67-14.14,36.23c-1.63,8.57,3.9,18.28,10.33,26.24-1.33,5.62-2.88,11.37-4.15,16.18-2.83,10.76,9.21,24.77,22.18,34.62-11.78,9.52-24.83,18.4-24.83,18.4s15.13-6,31-14.1a58.64,58.64,0,0,0,14.11,7l15,4.42s-14.38-5.89-24.85-13.68c10.59-5.65,20.91-12.08,26.62-18.13,15-15.91,14.14-10.6,12.37,1.77S428.15,537,428.15,537s15-6.19,24.74-23.86,8.84-32.7,15-21.21-4.42,27.39-4.42,27.39,19.44-3.53,22.09-26.51-10.6-37.12,10.6-25.63,29.16,23.86,20.32,41.53-30,26.51-30,26.51,45.07-7.07,44.18-45.07c-.14-6.06-.58-11.78-1.16-17.09,6.23-3.77,13.92-12.25,13.53-31,0-.16,0-.31,0-.47C542.71,430.25,538.4,419.2,533.47,409.86Zm-169,53.76c6.82-4,6,6.32,3.3,18.63C362.92,474.28,359.83,466.36,364.52,463.62Zm24.55,70.07c-3.27-3.54-5.13-7.26-4.23-10.86,3.53-14.14,17.67-15,18.56-6.19C403.75,520.1,397.19,526.81,389.08,533.69Zm139.81-99.23c6.65,4.09,3.23,17.35-.82,27.8C524.78,441,520.55,429.33,528.89,434.46Zm-8-49.49c5,2.32,7.18,9.54,8,16.94C521.37,389.52,514.75,382.12,520.94,385Z"/><path d="M370.23,368.78a168.44,168.44,0,0,1,2-20.24c-1.9-.18-3.87-.46-5.79-.76A51.34,51.34,0,0,0,370.23,368.78Z"/><path d="M465.26,340.79c1.89-8.17.18-12.29-3.5-10.82a121.93,121.93,0,0,1,2.42,15.12C464.56,343.69,464.93,342.25,465.26,340.79Z"/><path d="M463.5,387.18c-.21,1.91-.52,3.74-.87,5.52a26.11,26.11,0,0,0,7.94-8.18c6.9-11.58,9.12-27.29,9.05-40.14-1.57-4.48-4-2.58-6.4,3.47-1.67,4.18-5.12,7.75-8.29,10.37A229.56,229.56,0,0,1,463.5,387.18Z"/><path class="cls-7" d="M389.27,420.76c29.48,18.53,66.15,8.14,73.36-28.06.36-1.79.66-3.61.87-5.52a229.56,229.56,0,0,0,1.43-29,47,47,0,0,1-6.73,4.65,161.1,161.1,0,0,0,6-17.79A121.93,121.93,0,0,0,461.77,330c-1.49.6-3.3,2.08-5.34,4.63-7.07,8.84-19.44,7.07-19.44,7.07s3.54-.88,7.07-7.07,0-7.07-8.84.88S413.13,339,413.13,339s1.77-.88,2.65-8-5.3-8-7.07,1.77A18.52,18.52,0,0,1,399,346.09s0-9.72-9.72-11.49-.88,14.14-.88,14.14H376c-1.21,0-2.49-.08-3.8-.2a168.44,168.44,0,0,0-2,20.24v.05c1.06,2.16,2,4.35,2.84,6.52a38.63,38.63,0,0,0,10.9-3.63,41.28,41.28,0,0,1-10.08,5.87,103.27,103.27,0,0,1,4.78,19.76s-3.18-6.92-8.16-15.25C371.72,397.44,376.51,412.75,389.27,420.76Z"/><path class="cls-2" d="M350.38,396.46s-1.33-1.05-3.4-2.75c-9-7.4-32-27.13-20.46-26.41,12.9.81,11.83,9.7,24.3,12.6a32.63,32.63,0,0,0,4,.66c1.09.11,2.16.17,3.22.19a38.28,38.28,0,0,0,10.79-1.41q.87,1.4,1.69,2.76c5,8.33,8.16,15.25,8.16,15.25a103.27,103.27,0,0,0-4.78-19.76A41.28,41.28,0,0,0,384,371.72a38.63,38.63,0,0,1-10.9,3.63c-.83-2.17-1.77-4.36-2.84-6.52a45.63,45.63,0,0,0-10.58-14.41l-.43-.38,0,0c-10.16-8.48-5.43-8.24,2.52-7l.15,0,4.55.73c1.92.3,3.89.58,5.79.76,1.32.12,2.6.2,3.8.2h12.37s-8.84-15.91.88-14.14S399,346.09,399,346.09a18.52,18.52,0,0,0,9.72-13.26c1.77-9.72,8-8.84,7.07-1.77s-2.65,8-2.65,8,13.26,4.42,22.09-3.53,12.37-7.07,8.84-.88-7.07,7.07-7.07,7.07,12.37,1.77,19.44-7.07c2-2.55,3.85-4,5.34-4.63,3.68-1.47,5.38,2.65,3.5,10.82-.34,1.45-.7,2.9-1.08,4.3a161.1,161.1,0,0,1-6,17.79,47,47,0,0,0,6.73-4.65c3.17-2.62,6.62-6.19,8.29-10.37,2.42-6,4.83-7.95,6.4-3.47.73,2.07,1.27,5.51,1.55,10.54.88,15.91-7.07,30.93-7.07,30.93s12.37-6.19,17.67-25.63,8.84-32.7,12.37-15S490,388.51,490,388.51s16.79-15.91,23.86-39.77a69.84,69.84,0,0,0,2.82-22.07c5-8.65,11.6-23.92,6.9-38-7.07-21.21-16.79-36.23-31.81-40.65s-11.49-16.79-2.65-10.6l8.84,6.19s3.54-13.26-22.09-28.28-46.84-8-41.53-11.49,11.49-6.19,23.86-3.53l12.37,2.65s-11.38-12.37-26.51-12.37c-19.44,0-29.16,12.37-29.16,12.37S399,185.26,383.08,188.8s-18.56,8-18.56,8,24.74-7.07,17.67-1.77-13.26,0-33.58,8-30.93,30-30.93,30,22.09-12.37,12.37-2.65c-5.49,5.49-11.82,9.29-17.72,14.73A50.7,50.7,0,0,0,300,262.14c-8,17.67-26.51,46.84-16.79,76s21.21,32.7,21.21,32.7-28.28-46.84-8-40.65-2.65,30.93,17.67,49.49c14.16,12.93,26.17,16,32.16,16.66A20.67,20.67,0,0,0,350.38,396.46Zm5.84-33.81q.76.78,1.5,1.6a100.59,100.59,0,0,1,8.89,11.66,29.77,29.77,0,0,1-9.35-1.5A28,28,0,0,1,353,372.6h0c-15-8-21.2-25.62-5.3-16.79A37.83,37.83,0,0,1,356.22,362.66Zm158.53-74.89c6.88,9,4.56,23.71,1.6,34.06-1.36-13-6.29-24.07-12.21-30.52C494.42,280.7,503.26,272.75,514.75,287.77Z"/><path class="cls-2" d="M366.29,7.64C346.85-5.62,258.48,51.82,241.69,70.38s-8.84,27.39,9.72,46.84,29.16,42.42,27.39,56.56,19.44,0,35.35-22.09a56.74,56.74,0,0,0,7-13.47c8.19-22,7.22-51.86,11.55-79.32C338,25.31,366.29,7.64,366.29,7.64Z"/><path class="cls-2" d="M545.75,9.29c8.09,1.9,21.14,8.47,21.14,31,0,32.7,8.84,91,23,110.46,10.05,13.83,12.07,16.92,16.84,13.11,1.94-1.55,4.33-4.23,7.9-7.8,12.37-12.37,82.18-55.67,77.77-84.83S536.84-23.29,539.49,8.52A26.57,26.57,0,0,1,545.75,9.29Z"/><path d="M398.32,305.22s-45.73-7.29-37.78-43.08,35.13-31.15,57-29.16S450,244.91,450,258.16s-2,31.15-19.88,37.12S403,311.19,398.32,305.22Z"/><path d="M534.85,116.33s-9.94-17.89-24.52-19.88-23.2,15.91-11.27,29.16S529.55,128.93,534.85,116.33Z"/><path d="M365.85,101.75s9.94,10.6-3.31,21.21-23.86,0-23.86,0S340,86.51,365.85,101.75Z"/><circle class="cls-8" cx="348.62" cy="109.04" r="3.98"/><circle class="cls-8" cx="361.37" cy="112.52" r="2.15"/><circle class="cls-8" cx="507.79" cy="106.31" r="5.13" transform="translate(193.26 518.89) rotate(-64.5)"/><circle class="cls-8" cx="520.7" cy="117.44" r="2.78" transform="translate(190.57 536.88) rotate(-64.5)"/></g></g></svg>