<svg xmlns="http://www.w3.org/2000/svg" viewBox="0 0 770.85 1684.29"><defs><style>.cls-1{fill:none;}.cls-2{fill:#7e5f52;}.cls-3{fill:#3a3939;}.cls-4{fill:#c08a55;}.cls-5{fill:#c9ac88;}.cls-6{fill:#1d1d1d;}.cls-7{fill:#e1c6a0;}.cls-8{fill:#606060;}.cls-9{fill:#d39f67;}.cls-10{fill:#351212;}.cls-11{fill:#c98496;}.cls-12{fill:#fff;}</style></defs><title>AUSTRALIAN</title><g id="Layer_2" data-name="Layer 2"><g id="Layer_1-2" data-name="Layer 1"><path class="cls-1" d="M194.69,245.42c3.81-2.29,8.51-3.54,14.63-3.54a9.44,9.44,0,0,0,3.86-1.12C205.57,240.34,198.82,241.64,194.69,245.42Z"/><path class="cls-2" d="M569.14,245.61c-3.74-16.19,5-32.37,5-32.37a97.87,97.87,0,0,0,5,11.21c3.74,7.47,18.68-13.7,18.68-28.64s-36.11-3.74-49.8,10,6.23,8.72,6.23,8.72l-11.21,10a35.38,35.38,0,0,1-8.28,5.35,23.51,23.51,0,0,1,2.05,7.1s-18.68,7.47-1.25,12.45c10.63,3,23.55,13.93,30.34,21.41C568.69,263,570.95,253.42,569.14,245.61Z"/><path class="cls-2" d="M331.33,124.84s6.23,10,13.7,7.47-22.41-38.6-37.35-46.07-11.21,52.29-8.72,68.48c.58,3.76-.13,8.34-1.54,13.13,12.88-9.54,24.82-16,33.92-15.62.94,0,1.86.05,2.76.06a62.34,62.34,0,0,1-4-10C326.35,129.82,331.33,124.84,331.33,124.84Z"/><path class="cls-2" d="M338,103a10.82,10.82,0,0,0,2.77,3.94C339.86,105.62,338.93,104.3,338,103Z"/><path class="cls-3" d="M770.85,1538s-29.88-36.11-38.6-56,16.19-1.25,16.19-1.25-26.15-32.37-26.15-67.23a188.07,188.07,0,0,0-2.2-27,169.69,169.69,0,0,1-22.58,33.77s20.54-52.29,13.07-43-3.24,24.36-25.65,48.64c-20.28,22-27.2,33.16-28.33,35.1a53.8,53.8,0,0,0,12.9,50.73l-19.43-13.61s3.1,3.92,6.24,12.63a181.65,181.65,0,0,1,51,32.21c7.56-2.3,13.91-5.55,18.75-7.49,12.45-5,12.45,23.66,12.45,23.66s12.45-22.41,8.72-29.88S770.85,1538,770.85,1538Z"/><path class="cls-3" d="M656.6,1461a165.54,165.54,0,0,0,10.14-22.61A76.41,76.41,0,0,0,656.6,1461Z"/><path class="cls-4" d="M119.73,1495.84c-14.85,3.52-33.53,8.24-51.11,13.52-37.35,11.21-79.68,53.54-66,66s73.46,12.45,103.34,2.49c27.89-9.3,75.28-12.09,91.61-23.55-9.14-9.8-19.63-24.29-32.31-38.79C146.6,1494.16,134.59,1502.34,119.73,1495.84Z"/><path class="cls-4" d="M660.16,1524.84c3.73,18.68-7.47,5.6-35.48,9.34s-31.75,39.22-41.09,54.16c0,0,42.82,21.88,80.18,23.12s72.21-3.74,68.48-31.13c-1.6-11.76-11.48-25.12-25-37.34a181.65,181.65,0,0,0-51-32.21A98.06,98.06,0,0,1,660.16,1524.84Z"/><path class="cls-5" d="M210.12,1466.76c-2.06-3.36-3.29-11-3.29-24.64,0-2.33,0-4.72-.1-7.16-15.54,18.52-19,71.19-19,71.19s-11.21-24.28-7.47-50.42-28,22.41-28,22.41-1.87-18.67,11.21-31.75,5.6-29.88-14.94-14.94a113.2,113.2,0,0,1-43,18.68s5.6-5.6,22.41-29.88S161.54,1369.83,141,1353s-26.15,76.57-26.15,76.57-3.73-44.82,3.74-87.77S98,1366.1,98,1366.1s0-63.5,11.21-85.91S85,1297,85,1297l14.94-29.88c.1-.2.23-.39.33-.59a245,245,0,0,0-26.48,17.4c-14.94,22.41-14.94,37.35-14.94,37.35s22.41-31.75,11.21-7.47-3.74,72.83-3.74,72.83S83.1,1353,77.5,1377.3s-3.73,65.36,22.41,100.85c7.47,10.14,13.88,15.09,19.82,17.69,14.86,6.5,26.87-1.68,45.54,19.66,12.69,14.5,23.17,29,32.31,38.79a57,57,0,0,0,10.71,9.43c1.34-12.64,1-27.19,2.27-45.64C211.64,1502.48,211.09,1483.41,210.12,1466.76Z"/><path class="cls-5" d="M624.68,1534.18c28-3.73,39.22,9.34,35.48-9.34a98.06,98.06,0,0,0-3.85-14.06c-3.14-8.71-6.24-12.63-6.24-12.63l19.43,13.61A53.8,53.8,0,0,1,656.6,1461l0,0-.15.26.15-.26,0,0a76.41,76.41,0,0,1,10.14-22.61c8.31-22.35,17.75-59.19,12.09-102.21-9.34-71,3.74-87.77-13.07-95.24s-5.6,28-5.6,28-8.41-21.47-23.23-31.41c.28.51.56,1,.82,1.53,26.15,52.29,22.41,143.8,22.41,143.8l-1.87-20.54c-1.87-20.54-28-71-16.81-29.88s0,52.29,0,52.29-28-44.82-18.68-3.74-1.87,41.09-1.87,41.09S585.46,1371.7,594.8,1396s9.34,85.91,9.34,85.91-7.47-28-29.88-56,9.34,33.62,9.34,33.62L550,1438.93a67.31,67.31,0,0,1-8.3-6c-3.65,52-11.23,126.3-8.64,146.15.41,3.17,1,6.48,1.67,9.86,16.75,4.41,42.69,9.31,48.89-.61C592.93,1573.39,596.67,1537.91,624.68,1534.18Z"/><path class="cls-6" d="M235.46,194.56s8.72-1.25,13.7-3.74-3.74-12.45-3.74-12.45,8.72,3.74,16.19,0-1.25-26.15-1.25-26.15l11.21,5s-3.74-23.66-2.49-37.35,6.23,10,6.23,10-1.25-21.17,5-33.62c5.47-10.95,4.21-22.85,3.82-25.57a3,3,0,0,1-.09-.58s0,.2.09.58c.31,1.27,1.77,4.14,8.63,3.16,8.72-1.25,2.49-22.41,2.49-22.41a231.86,231.86,0,0,0,27.39,29.88C335.18,92.92,336.1,98.77,338,103c1,1.32,1.89,2.64,2.77,3.94l.56.47c6.23,5,0-11.21,0-11.21a144.14,144.14,0,0,1,17.43,22.41c5.92,9.3,4.37,21.46,2.77,28.31,8.45-4.31,10.92-9.64,10.92-9.64a51.37,51.37,0,0,1,1.25,11.21c0,3.77,7.78,1.6,13.9-.7,3-7.73,5.19-15.49,5.19-15.49s-16.6,8.3-12.45,2.49,5.81-21.58,7.47-26.56-2.49,6.64-5.81,9.13S376.16,95,365.37,66.73,330.5-10.46,297.3,2s-44,109.57-44.82,120.36-4.15-10-4.15-12.45-2.49,8.3-8.3,26.56,1.66,22.41,0,29.88-7.47-5.81-7.47-5.81S230.9,176.3,235,182.11s-11.62,3.32-11.62,3.32l7.47,10.79a115.09,115.09,0,0,1,11,21c3.15-3,6.42-6.06,9.78-9.24C251.33,199.45,235.46,194.56,235.46,194.56Z"/><path class="cls-6" d="M509.38,195.8c0-.11,0-.21,0-.32-3.43-.45-9.78-1.31-14.93-2.17-7.12-1.19-4,7.81,15.68,16.21Q509.76,203.3,509.38,195.8Z"/><path class="cls-6" d="M509.35,194.27c-.27-23.88,21.2-35.82,21.2-35.82s-3.74,13.7,5,17.43,11.21-11.21,11.21-11.21,2.49,16.19,10,14.94,19.92-17.43,19.92-17.43l-3.74,10s24.9-22.41,39.84-24.9,18.68,26.15,17.43,48.56S609,239.38,600.27,250.59s-5,14.94,3.74,24.9,2.49,10-10,10H563.88c.58,2.6,1.52,5.88,2.78,10,5,16.19,29.88,32.37,29.88,32.37s-30.64-10.6-17.39,12.91c9.44,3.58,28.59-1.7,28.59-1.7s-5.81-.83,0-7.47,6.64-13.28,10.79-31.54,30.71-78,30.71-78,10-45.65,13.28-74.7,14.11-63.91-14.11-71.38-59.76,11.62-74.7,25.73-39,46.48-49.8,52.29-7.47-5.81-7.47-5.81-10.79,13.28-13.28,14.11,1.66-11.62,1.66-11.62-12.45,4.15-18.26,10.79a37.83,37.83,0,0,0-6.14,11.13C487.4,180.38,503.19,190.48,509.35,194.27Z"/><path class="cls-4" d="M155.93,1250.31c-16.75-3-38.7,6.56-55.69,16.22-.11.2-.23.39-.33.59L85,1297s35.48-39.22,24.28-16.81S98,1366.1,98,1366.1s28-67.23,20.54-24.28-3.74,87.77-3.74,87.77,5.6-93.38,26.15-76.57,3.73,43-13.07,67.23-22.41,29.88-22.41,29.88a113.2,113.2,0,0,0,43-18.68c20.54-14.94,28,1.87,14.94,14.94s-11.21,31.75-11.21,31.75,31.75-48.56,28-22.41,7.47,50.42,7.47,50.42,3.51-52.67,19-71.19c-1.17-47.11-13.44-113.82-27.32-176A78.75,78.75,0,0,0,155.93,1250.31Z"/><path class="cls-4" d="M615.34,1233.51c-20.73,5.53-35.32,19.25-49.83,45.67-9.51,45.29-18.27,92-22,111.09.25,9.49-.54,24.76-1.8,42.67a67.31,67.31,0,0,0,8.3,6l33.62,20.54s-31.75-61.63-9.34-33.62,29.88,56,29.88,56,0-61.63-9.34-85.91,26.15,26.15,26.15,26.15,11.21,0,1.87-41.09,18.68,3.74,18.68,3.74,11.21-11.21,0-52.29,14.94,9.34,16.81,29.88l1.87,20.54s3.74-91.51-22.41-143.8c-.26-.53-.55-1-.82-1.53C630.79,1233.46,623.55,1231.32,615.34,1233.51Z"/><path class="cls-4" d="M594,285.45c12.45,0,18.68,0,10-10s-12.45-13.7-3.74-24.9,28.64-32.37,29.88-54.78-2.49-51-17.43-48.56-39.84,24.9-39.84,24.9l3.74-10s-12.45,16.19-19.92,17.43-10-14.94-10-14.94-2.49,14.94-11.21,11.21-5-17.43-5-17.43-21.47,11.95-21.2,35.82c1.58,1,2.52,1.53,2.52,1.53l-2.5-.32c0,.11,0,.21,0,.32q.37,7.48.74,13.72c1,.41,2,.82,3,1.23,13.14,5.11,19,13.21,21.6,19a35.38,35.38,0,0,0,8.28-5.35l11.21-10s-19.92,5-6.23-8.72,49.8-24.9,49.8-10-14.94,36.11-18.68,28.64a97.87,97.87,0,0,1-5-11.21s-8.72,16.19-5,32.37c1.8,7.81-.46,17.36-3.27,25.15,4.35,4.79,6.19,8.19,3.27,7.22-5.59-1.86-7-.24-5.27,7.47Z"/><path class="cls-4" d="M358.73,118.61A144.14,144.14,0,0,0,341.3,96.2s6.23,16.19,0,11.21l-.56-.47A10.82,10.82,0,0,1,338,103c-1.87-4.22-2.79-10.06-15.35-21.73a231.86,231.86,0,0,1-27.39-29.88s6.23,21.17-2.49,22.41c-6.86,1-8.31-1.89-8.63-3.16.39,2.72,1.65,14.62-3.82,25.57-6.23,12.45-5,33.62-5,33.62s-5-23.66-6.23-10,2.49,37.35,2.49,37.35l-11.21-5s8.72,22.41,1.25,26.15-16.19,0-16.19,0,8.72,10,3.74,12.45-13.7,3.74-13.7,3.74,15.87,4.89,16.17,13.45c14.58-13.81,30.82-29.08,45.78-40.16,1.41-4.8,2.12-9.37,1.54-13.13-2.49-16.19-6.23-75.95,8.72-68.48S352.5,129.82,345,132.31s-13.7-7.47-13.7-7.47-5,5-1.25,17.43a62.34,62.34,0,0,0,4,10c12.8.12,21.54-2.38,27.41-5.36C363.1,140.07,364.64,127.91,358.73,118.61Z"/><path class="cls-4" d="M284.11,70.63c-.05-.37-.09-.58-.09-.58A3,3,0,0,0,284.11,70.63Z"/><path class="cls-6" d="M417.25,1569.12a46.87,46.87,0,0,0-2.49-19.92c-3.74-10,10-29.88,14.94-39.84.44-.87.93-1.88,1.46-3-.48-3.93,2-15.39,3.11-21.9s3.18-20.12,4.54-29c-.13-.29-.25-.58-.39-.86-4.44-8.89-3.06-19.39-.63-27.56,1.42-9.66,4.66-25.33,9.35-43.41,6.72-25.91,4.56-85.82,2.08-114.8-8.06-30.72-.91-100.2-5.81-75.7-4.27,21.36-20.45,30.81-25,35.42-.74,1.88-1.19,2.67-1.19,1.93a3.3,3.3,0,0,1,1.19-1.93c3-7.62,11-33.38,15-50.36,5-21.17-8.72-31.13-17.43-2.49s-27.39,53.54-27.39,53.54,5-17.43,12.45-42.33-10-22.41-18.68,7.47a135.37,135.37,0,0,1-27.39,49.8s-3.74-22.41-19.92-39.84,1.25,12.45,1.25,12.45-27.39-29.88-34.86-39.84,0,28.64-1.25,58.52c-.21,5-.51,10-.86,15,1.07,26.47,2,99.09-4.82,141.87,8.62,38.78,13.41,89.06,14.39,109.54,1.25,26.15,8.72,42.33,13.7,69.72a102.37,102.37,0,0,1,1,22.07c22.79,1.72,60.45,4.25,89.33,4.64,2.81-8.18,7.42-16.81,10.51-24.22C429.7,1559.16,417.25,1569.12,417.25,1569.12Z"/><path class="cls-6" d="M582.84,1204.32c-5.41,20-11.5,47.14-17.32,74.86,14.51-26.42,29.1-40.14,49.83-45.67,8.2-2.19,15.45,0,21.59,4.07,14.83,9.94,23.23,31.41,23.23,31.41s-11.21-35.48,5.6-28,3.74,24.28,13.07,95.24c5.66,43-3.78,79.86-12.09,102.21A165.54,165.54,0,0,1,656.6,1461l0,0,0,0c1.13-1.93,8.06-13.13,28.33-35.1,22.41-24.28,18.18-39.3,25.65-48.64s-13.07,43-13.07,43a169.69,169.69,0,0,0,22.58-33.77c5.16-10.46,9.17-22.19,9.17-33.46,0-31.75-11.21-59.76-28-76.57s14.94-1.87,14.94-1.87-24.28-69.1-52.29-89.64c-23.07-16.91-28.4-57.87-31.65-88.5a121.58,121.58,0,0,1-8.32,19.46C604,1150.78,599,1144.55,582.84,1204.32Z"/><path class="cls-6" d="M656.58,1461.08l-.15.26Z"/><path class="cls-6" d="M155.93,1250.31a78.75,78.75,0,0,1,23.48,8.61c-3.39-15.21-6.88-30.15-10.33-44.47a154.56,154.56,0,0,1-28.08-7.09s11.21,11.21-14.94,16.81-43,24.28-43,24.28,22.41-9.34,13.07,1.87-22.41,33.62-22.41,33.62a245,245,0,0,1,26.48-17.4C117.24,1256.88,139.18,1247.36,155.93,1250.31Z"/><path class="cls-7" d="M541.68,1432.93c1.26-17.91,2-33.18,1.8-42.67-.83,4.21-1.42,7.09-1.72,8.29-2.49,10-23.66,51-43.58,44.82s5-21.17-3.74-19.92-11.21,5-18.68-6.23-31.13,18.68-37.35,19.92a2.31,2.31,0,0,1-.72,0,.3.3,0,0,1-.47-.14c-.82-.46-.77-2-.13-4.34.13-1.54.36-3.45.69-5.68-2.42,8.16-3.81,18.67.63,27.56.14.28.26.57.39.86.75-4.88,1.27-8.33,1.27-8.33s17.43-6.64,28.22-12.45,0,11.62-9.13,23.24-5,16.6-5,31.54-2.49,9.13-7.47,4.15-4.15-.83-11.62,10.79c-2.59,4-3.68,4.06-3.94,2-.53,1.12-1,2.13-1.46,3-5,10-18.68,29.88-14.94,39.84a46.87,46.87,0,0,1,2.49,19.92s12.45-10,6.23,5c-3.09,7.4-7.7,16-10.51,24.22-2.11,6.16-3.2,12.06-1.85,17,.39-.91.77-1.79,1.15-2.62,6.23-13.7,22.41-29.88,37.35-29.88s1.25,8.72,1.25,8.72,21.17,1.25,38.6,8.72-1.25,7.47,26.15,11.21a47.37,47.37,0,0,1,30.67,18.12c-4-11.41-8.75-26.6-11.57-40.63-.68-3.38-1.25-6.69-1.67-9.86C530.45,1559.23,538,1484.95,541.68,1432.93ZM509,1459.07a37,37,0,0,1,2.49-2.83s5,7.47,3.32,12.45-2.49,6.64-8.3,2.49C502.56,1468.38,506.19,1462.56,509,1459.07Zm10,70.21c-.83,5.81-2.49-5.81-12.45-6.64s-8-12.18-3.32-18.26C513.95,1490.27,519.76,1523.47,518.93,1529.28Zm-40.67-54.78c-3.32-12.45-1.14-11.66,4.15-17.43,9.13-10,16.6,12.45,21.58,26.56s-5-1.66-12.45-2.49,4.15,15.77,0,19.92-13.28,2.49-21.58-5S481.57,1486.95,478.25,1474.5Zm-35.69,94.63s-.83,10.79-10,2.49-.83-25.73,1.66-24.07,4.15,0,12.45,2.49S442.56,1569.12,442.56,1569.12Zm-16.6-34c-14.94-.83-1.66-6.64,8.3-13.28s10.79-4.15,13.28-13.28,16.6,10.79,16.6,10.79,5-3.32,14.94-2.49,6.64,14.11,10,18.26,7.47,1.66,10,9.13-5.81,3.32-13.28-3.32-14.11-6.64-17.43-4.15-9.13,7.47-15.77,1.66S440.9,1535.92,426,1535.09Zm72.21,55.61c-2.49,3.32-7.47,0-12.45-4.15s-6.64-10.79-22.41-14.11-2.49-5.81-2.49-14.11,10.79-1.66,13.28-1.66c0,0,10,13.28,18.26,17.43S500.67,1587.38,498.18,1590.7Zm27.39,1.66c-.83,10-4.15,0-8.3-6.64s-4.15-10.79-14.94-20.75,5-11.62,5-11.62,11.62-2.49,12.45,13.28S526.4,1582.4,525.57,1592.36Zm1.66-65.57c-3.32,1.66,0-25.73-6.64-33.2s0-19.09,0-19.09-.83-17.43,10-30.71-1.66,10.79,0,25.73S530.55,1525.13,527.23,1526.79Z"/><path class="cls-7" d="M322.62,1571.61c-5-27.39-12.45-43.58-13.7-69.72-1-20.48-5.77-70.76-14.39-109.54-.88,5.52-1.89,10.56-3,14.92-1.35,5.11-13.7-56-21.17-39.84s-10,51-11.21,32.37c-.09-1.3-.28-3.06-.56-5.17A82.83,82.83,0,0,1,247.91,1416c-4.5,6.3-11.11,20.06-17.71,32a24.85,24.85,0,0,0,1.53,3.3c3.32,5.81,2.49-10,9.13-5s-8.3,27.39-8.3,27.39l.83,34s-3.32-7.47-9.13-23.24a57.13,57.13,0,0,1-3.74-21.16c-4.21,5.34-7.92,7.53-10.4,3.47,1,16.64,1.52,35.72.45,51.31-1.27,18.45-.92,33-2.27,45.64-1.29,12.09-4.12,22.45-11.43,32.8-3.69,5.22-7.22,10.14-10.34,14.69a45.66,45.66,0,0,1,5.36-2.24c36.11-12.45,98.36-12.45,97.12-5s3.74,18.68,11.21,24.9c3.2,2.67,7.3,9,9.69,16.12.55-7.44,1.11-13.19,2.76-7.4,2.49,8.72,2.49,12.45,2.49,12.45s7.32-30,8.49-56.37A102.37,102.37,0,0,0,322.62,1571.61Zm-61.84-88c17.43,6.64,5.81,23.24,1.66,23.24s-5.81,0-13.28-5S254.11,1481.09,260.78,1483.63Zm21.58,103.76c-3.32,8.3-18.26,5-22.41,1.66s-8.3-3.32-15.77.83-3.32-19.09-3.32-19.09-16.6,19.92-29.05,16.6,15.77-24.9,21.58-35.69-5-14.94.83-29.05,2.49,13.28,6.64,24.9,8.3-4.15,18.26,3.32,15.77,16.6,19.92,5.81S285.68,1579.08,282.36,1587.38Zm-7.47-45.65s-.83-5.81-9.13-14.94,5.81-14.94,5.81-14.94l.83,5.81c.83,5.81,1.66,3.32,10,0S274.89,1541.73,274.89,1541.73Zm10.79-66.4c-2.49-9.13-5.81-6.64-9.13-14.11s-11.62,7.47-13.28,10.79-10-11.62-7.47-21.58,8.3-4.15,16.6-13.28,2.5-14.4,7.47-14.11c14.11.83,9.13,16.6,10,26.56s0,10.79,6.64,17.43,2.49,20.75-4.15,26.56S288.17,1484.46,285.68,1475.33ZM308.92,1570c-1.66-5-5.81-15.77-13.28-18.26s.83-13.28,5.81-15.77a59.54,59.54,0,0,1,9.13,10C314.73,1551.69,310.58,1574.93,308.92,1570Z"/><path class="cls-3" d="M475.44,151.91c.21-.59.32-.93.32-.93S475.62,151.32,475.44,151.91Z"/><path class="cls-3" d="M418.43,1228.53a3.3,3.3,0,0,0-1.19,1.93C417.25,1231.2,417.69,1230.41,418.43,1228.53Z"/><path class="cls-3" d="M206.73,1435c.06,2.43.1,4.83.1,7.16,0,13.66,1.23,21.28,3.29,24.64,2.49,4.06,6.19,1.87,10.4-3.47a43.64,43.64,0,0,1,3.74-17c3.39-7.47,4-3.28,5.94,1.68,6.61-11.91,13.22-25.68,17.71-32a82.83,82.83,0,0,0,10.65-21.36c-3.68-28.24-22.67-122.81-16.88-119.33,6.23,3.74,17.43,11.21,17.43-8.72s2.49-69.72,6.23-52.29,14.94,73.46,19.92,58.52,12.45-47.31,13.7-29.88c.12,1.72.26,4.29.39,7.56.34-5,.65-10,.86-15,1.25-29.88-6.23-68.48,1.25-58.52s34.86,39.84,34.86,39.84-17.43-29.88-1.25-12.45S355,1244.16,355,1244.16a135.37,135.37,0,0,0,27.39-49.8c8.72-29.88,26.15-32.37,18.68-7.47s-12.45,42.33-12.45,42.33,18.68-24.9,27.39-53.54,22.41-18.68,17.43,2.49c-4,17-12,42.75-15,50.36,4.51-4.61,20.69-14.06,25-35.42,4.9-24.5-2.25,45,5.81,75.7-.4-4.62-.8-8.46-1.18-11.25a26.37,26.37,0,0,0-.9-4.69s10,11.21,12.45,23.66,12.45-5,23.66-29.88-2.49,56-10,98.36-31.13,85.08-34.86,91.31a2.48,2.48,0,0,1-.72.86,2.31,2.31,0,0,0,.72,0c6.23-1.25,29.88-31.13,37.35-19.92s10,7.47,18.68,6.23-16.19,13.7,3.74,19.92,41.09-34.86,43.58-44.82c.3-1.2.89-4.08,1.72-8.29,3.77-19.07,12.53-65.8,22-111.09,5.82-27.72,11.92-54.9,17.32-74.86,16.19-59.76,21.17-53.54,41.09-88.4a121.58,121.58,0,0,0,8.32-19.46c17.78-51.11,35.49-158.35,29-188.46-7.47-34.86-8.72-46.07-2.49-34.86s10,18.68,10,18.68-7.47-41.09-23.66-75.95-12.45-88.4-5-73.46,11.21,16.19,11.21,16.19-5-49.8-2.49-56S671.24,723.72,670,720s-2.49-38.6-23.66-66-16.19-26.15-8.72-22.41,8.72,5,7.47,3.74-16.19-26.15-38.6-44.82-16.19-24.9-7.47-18.68l8.72,6.23s-14.94-13.7-24.9-42.33-11.21-61-5-82.17,7.47-44.82,7.47-44.82-10,12.45-11.21,2.49,2.49-22.41,2.49-22.41l11.21-2.49s8.72-17.43-7.47-43.58c-.44-.71-.83-1.38-1.2-2-13.25-23.51,17.39-12.91,17.39-12.91s-24.9-16.19-29.88-32.37c-1.25-4.08-2.19-7.36-2.78-10-1.73-7.71-.32-9.33,5.27-7.47,2.92,1,1.08-2.43-3.27-7.22-6.79-7.49-19.72-18.38-30.34-21.41-17.43-5,1.25-12.45,1.25-12.45a23.51,23.51,0,0,0-2.05-7.1c-2.6-5.83-8.46-13.94-21.6-19-1-.41-2-.82-3-1.23-19.72-8.39-22.8-17.39-15.68-16.21,5.16.86,11.5,1.72,14.93,2.17l2.5.32s-.95-.56-2.52-1.53c-6.15-3.79-21.95-13.89-28.93-21.79a22.21,22.21,0,0,1-5-20.57c-1.43,3.94-7.68,19.15-19.6,20.24-13.7,1.25-27.39-7.47-44.82-10s-16.19-17.43-16.19-17.43-3.28,1.54-7.26,3c-6.13,2.3-13.9,4.47-13.9.7a51.37,51.37,0,0,0-1.25-11.21s-2.47,5.33-10.92,9.64c-5.86,3-14.6,5.48-27.41,5.36-.9,0-1.82,0-2.76-.06-9.1-.34-21,6.09-33.92,15.62-15,11.08-31.2,26.35-45.78,40.16-3.36,3.18-6.63,6.28-9.78,9.24-7.54,7.08-14.36,13.3-20,17.72,27-6.22,41.93-2.43,51.36.27,11.62,3.32,33.2,3.32,26.56,8.3s-19.09,4.15-10,6.64,14.11-.83,23.24,9.13,16.6,29.05,16.6,29.05-18.26-15.77-14.94-10,.83,8.3,13.28,18.26S343,322.39,343,322.39s-11.62-15.77-5-2.49c5.16,10.32,24.36,15.63,42,29.18a227.14,227.14,0,0,0,39.75,18.55c28.64,10,46.07,21.17,64.74,39.84s-2.49-21.17-5-33.62,3.74-18.68,18.68-1.25c5.18,6,9.29,11,12.48,15,6.64,6.19,14.2,12.44,24,13.67,13.28,1.66,19.92-3.32,18.26-.83s-5.81,5.81-19.09,6.64-3.32,19.92,10.79,15.77a149,149,0,0,0,22.41-8.3s-3.32,11.62-11.62,28.22S538.85,471,548,462.67s19.09-17.43,17.43-14.94S557.94,485.91,538,510s-1.66,15.77-1.66,15.77,5.81-2.49-19.92,24.07c-20.47,21.13-34.63,38-50,45.76C471.57,606,477,615.4,477,615.4s-24.9-19.92-21.17-3.74-7.47,43.58-7.47,43.58-8.72-11.21-21.17-26.15-2.49,16.19-2.49,16.19-24.9-16.19-26.15-11.21-19.92,37.35-19.92,37.35-5-23.66-7.47-7.47S350,692.59,350,692.59v-13.7c0-13.7-5-22.41-13.7-6.23s-27.39,17.43-27.39,17.43,3.74-18.68-5-19.92-26.15,13.7-26.15,13.7,1.25-5,0-28.64-8.72,13.7-8.72,13.7-13.7-28.64-14.94-43.58-10,2.49-11.21,6.23,3.74-22.41-2.49-21.17-22.41,8.72-26.15,10S228,606.68,230.48,588s-14.94,6.23-14.94,6.23a137.37,137.37,0,0,1,5-33.62c5-17.43-16.19-6.23-16.19-6.23s17.43-11.21,5-19.92-27.39-28.64-27.39-28.64S203.09,520.77,214.3,517c4.36-1.45,3.06-4.6-.14-7.9-1.38-.18-12.7-2.2-30.57-22.4-19.09-21.58-14.94-40.67-7.47-49S214.3,455.2,237.54,461c18.19,4.55,37.91,5.54,52.78,11.72,0-.17-.06-.34-.08-.52-1.25-11.21,26.15,18.68,68.48,10S411,462.25,406,439.84,358.73,408.71,325.11,405s-46.07-11.21-63.5-48.56S248.8,313,250.41,302.88c1.44-9.11,6.57-14.14,13-16.12.31-8.46-.77-21-8.41-29.12-7.84-8.36-26.53-16.06-41.79-16.89a9.44,9.44,0,0,1-3.86,1.12c-6.12,0-10.82,1.25-14.63,3.54a12.4,12.4,0,0,0-2,2.27c-10,14.94-19.92,43.16-14.94,58.93s10,20.75,5.81,31.54-12.45,18.26-8.3,25.73,11.62,14.94,5.81,10.79a66.76,66.76,0,0,1-8.44-6.5,29.48,29.48,0,0,0,5.54,9.41c12.45,13.7-3.74,5-3.74,5s7.47,17.43,0,14.94-18.68-17.43-18.68-17.43,13.7,33.62,13.7,41.09-10,10-10,10,19.92-3.74,12.45,3.74-21.17,46.07-21.17,46.07,22.41,0,8.72,17.43-24.9,27.39-24.9,27.39S154.53,517,157,513.3s10,27.39-6.23,32.37S111,539.45,111,539.45s6.23,14.94,21.17,19.92,8.72,18.68,0,14.94-18.68-7.47-18.68-7.47,1.25,13.7,12.45,18.68,5,19.92-6.23,12.45-14.94-6.23-14.94-6.23,5,17.43,16.19,24.9-3.74,7.47-14.94,26.15S91,670.18,91,670.18s29.88-23.66,23.66-13.7S101,700.06,101,700.06s18.68-27.39,10-10S91,727.45,91,727.45s16.19-16.19,17.43,3.74S111,778.5,111,774.76s17.43-28.64,16.19-1.25S104.73,840.75,115.94,908s34.86,134.47,33.62,165.59S142.08,1106,162,1185.64c2.31,9.22,4.68,18.87,7.07,28.81,3.45,14.32,6.94,29.26,10.33,44.47C193.29,1321.15,205.56,1387.86,206.73,1435ZM299,195.8s-21.17-3.74-12.45-14.94S316.39,177.13,299,195.8Zm102.1,19.92c-3.74,3.74-28.64-1.25-28.64-11.21s14.94-6.23,14.94-6.23C403.55,199.54,404.79,212,401.06,215.73Zm99.61,1001c-3.74,6.23,0-11.21-1.25-16.19s-3.74-17.43-10-6.23-6.23-19.92,0-29.88c0,0,2.49-27.39,12.45-34.86s6.23,0,2.49,21.17,12.45-1.25,23.66,1.25S504.4,1210.54,500.67,1216.77Zm72.21-95.87c-13.7,12.45-8.72,2.49,0-13.7s-5-11.21-1.25-29.88,23.66-24.9,23.66-24.9C618.95,1027.52,586.58,1108.44,572.88,1120.9Zm41.09-452c33.62,28.64,13.7,71,13.7,71s-5-39.84-16.19-48.56c-8-6.23-3.93,9.81-1,19.46a31.12,31.12,0,0,1,2.2,6.69s-1-2.84-2.2-6.69c-3.2-7.22-10.72-18.35-27.68-23.2-19.61-5.6-26.15-24.9-26.15-24.9S580.35,640.3,614,668.93ZM477,771s7.47,8.72,26.15,29.88,41.09,22.41,43.58,3.74-21.17-49.8-21.17-49.8S539.26,766,560.43,781,540.51,743.64,533,737.41s26.15,12.45,52.29,46.07S599,847,599,847l-8.72-13.7c-8.72-13.7-28.64-34.86-19.92-14.94s8.72,49.8,8.72,49.8-3.74-2.49-29.88-16.19-7.47,12.45-3.74,14.94-16.19-2.49-31.13-12.45-10-6.23-13.7,7.47-29.88-69.72-29.88-69.72,21.17,23.66,22.41,17.43S477,771,477,771Zm-46.07,87.16c19.92,13.7,1.25-8.72-1.25-16.19S472,885.58,472,885.58s-10-3.74-23.66-12.45-5,10,1.25,21.17-16.19-12.45-29.88-22.41-10-7.47-14.94,6.23-8.72-32.37-8.72-32.37l-1.25-21.17S411,844.49,430.94,858.18Zm-71.79,95.31c-.26-3.24,1.72-7.76,8.29-13.13,13.7-11.21,33.62-16.19,33.62-16.19s-19.92,22.41-7.47,16.19,26.15-24.9,26.15-24.9-12.45,33.62-3.74,36.11,19.92-1.25,19.92-1.25-8.72,17.43,2.49,13.7,26.15-16.19,26.15-16.19,21.17,18.68,27.39,13.7,21.17-14.94,21.17-14.94,22.41,13.7,19.92,1.25,18.68-38.6,18.68-38.6,7.47,21.17,11.21,10,18.68-28.64,18.68-28.64-2.49,29.88,7.47,46.07S596.54,979,596.54,979s-12.45-17.43-10-2.49-5,46.07-5,46.07-5-36.11-7.47-17.43-5,42.33-5,42.33-3.74-31.13-11.21-16.19-12.45,27.39-12.45,38.6-13.7,26.15-13.7,26.15,3.74-32.37-2.49-24.9-5,23.66-5,23.66-16-17.77-20.21-29.29a27.85,27.85,0,0,1-3.45,3.15s2.49-21.17-6.23-26.15-2.49,6.23-2.49,6.23-18.68-10-31.13-32.37-10-3.74-10-3.74-11.21,0-28.64-21.17-29.88-24.9-39.84-24.9-24.9-11.21-24.9-11.21S358.08,954.57,359.15,953.49ZM245.42,1194.36c-8.72-3.74-6.23-3.74-12.45,10-2.12,4.67-8.72-17.43-12.45-28.64s-5-7.47-17.43-3.74-11.21-16.19-7.47-28.64c0,0,14.94-5,24.9,8.72s7.47-1.25,16.19-12.45,11.21,31.13,17.43,54.78S254.14,1198.09,245.42,1194.36ZM138.35,756.09c6.23-27.39-12.45,1.25-12.45,1.25s-6.23-39.84,3.74-57.27c8.06-14.11-8.35-7-14.89-3.79-2.24,2.16-2.54,1.3-2.54,1.3s1-.54,2.54-1.3c2.42-2.32,7.1-8.15,16.14-22.36C148.31,646.52,147.06,598,147.06,598a433.42,433.42,0,0,1,2.49,62.25c-1.25,32.37-5,44.82-2.49,63.5s16.19-10,16.19-10-6.23,22.41,1.25,29.88S191.89,720,191.89,720s-1.25,31.13,11.21,46.07,1.25-16.19,1.25-16.19,11.21,12.45,29.88,39.84,34.86,67.23,33.62,71S252.9,840.75,241.69,832s5,24.9,5,24.9-33.62-22.41-38.6-41.09-19.92,8.72-19.92,8.72-1.25-10,1.25-32.37-28.64,14.94-28.64,14.94L162,784.73c1.25-22.41-34.86,8.72-34.86,8.72S132.12,783.48,138.35,756.09Zm28.26,268.53c-4.93,1.42-12,12.89-12,12.89s-17.74-43-13.92-75.5,31.59-57.2,31.59-57.2-1.82,18.75,5.29,8.53c6-8.62,26.25-39.91,30.31-46.43a4,4,0,0,1,.39-.77c.56-.8.36-.44-.39.77-2.57,6.33,3.76,28,.35,32.87-3.55,5.11,5.2,6,9.78-5.33s6-7.69,6-7.69,17.25,29.28,23.11,19.11,10.57-17.82,10.57-17.82,19.24,15.51,32.13,27.5,17.2,28,17.2,28l-.21-.1c1,2.93-.35,4.33-.35,4.33s-10-3.74-31.13,0-19.92,10-32.37,19.92-21.17-2.49-21.17-2.49,0,16.19-6.23,21.17-24.9-1.25-24.9-1.25l5,22.41s-12.45-13.7-7.47,0a34.75,34.75,0,0,1,2,15.79c.77,5.8,7.33,12.71,2.18,24-5.78,12.67-10.57,17.82-10.57,17.82s6.35-31.37-.89-24.89-7,12.71-7,12.71S171.55,1023.2,166.61,1024.62Zm9.09,164.75c1.25-10,14.94-1.25,26.15,5s11.21,28.64,10,44.82-14.94-38.6-22.41-31.13S175.24,1193.08,175.7,1189.37Z"/><path class="cls-3" d="M437.09,1432.7c-.65,2.37-.69,3.88.13,4.34C436.94,1436.51,436.9,1435,437.09,1432.7Z"/><path class="cls-7" d="M175.29,363.89c-4.15-7.47,4.15-14.94,8.3-25.73s-.83-15.77-5.81-31.54,5-44,14.94-58.93a12.4,12.4,0,0,1,2-2.27c4.13-3.78,10.88-5.08,18.49-4.66,15.26.83,34,8.53,41.79,16.89,7.64,8.15,8.71,20.65,8.41,29.12,10.23-3.17,23.71,1.47,30.61,9.9A82.54,82.54,0,0,1,308.92,324l-10-7.47c-10-7.47-14.94-6.23-13.7-1.25s2.49,19.92,2.49,19.92-16.19-14.94-11.21-6.23,5,22.41,5,22.41-2.49-3.74-11.21-11.21,8.72,28.64,22.41,39.84,18.68,5,36.11,8.72,18.68,1.25,7.47-12.45-8.72-36.11-8.72-36.11,13.7,13.7,26.15,17.43-6.23-16.19-6.23-16.19,27.39,19.92,34.86,19.92-12.45-18.68-12.45-18.68,3.69,2.6,10.06,6.35c-17.65-13.54-36.85-18.86-42-29.18-6.64-13.28,5,2.49,5,2.49s-2.49-15.77-14.94-25.73-10-12.45-13.28-18.26,14.94,10,14.94,10-7.47-19.09-16.6-29.05-14.11-6.64-23.24-9.13,3.32-1.66,10-6.64-14.94-5-26.56-8.3c-9.43-2.7-24.33-6.48-51.36-.27A201.4,201.4,0,0,0,201,241c-40.67,14.11-51.46,66.4-44.82,94.63,4.21,17.89,10.75,27.1,16.46,32.51a66.76,66.76,0,0,0,8.44,6.5C186.91,378.83,179.44,371.36,175.29,363.89Zm121.19,6.64c-9.13-.83-7.47-10.79-7.47-10.79,0-6.64,19.09,5.81,20.75,13.28S305.6,371.36,296.47,370.53Zm11.62-22.41c-5,2.49-10.79-12.45-10.79-12.45s10.79,0,13.28,2.49S313.07,345.63,308.09,348.12Zm10,13.28c0-11.62,8.3,3.32,9.13,11.62S318.05,366.24,318.05,361.4Zm-7.47-54.78c5,1.66,11.62,7.47,19.92,13.28s-6.64.83-9.13.83C321.37,320.73,305.6,305,310.58,306.62Zm-22.41-32.37c3.32-1.66,19.09,7.47,17.43,10.79s-5-3.32-10.79,0-9.13-6.64-9.13-6.64S284.85,275.91,288.17,274.24Z"/><path class="cls-7" d="M514.36,408.71c10,14.94,5,31.13,5,31.13s-22.41-11.21-11.21,1.25,8.72,24.9,8.72,24.9l-11.21-3.74c-11.21-3.74-22.41,18.68-13.7,18.68h21.17s-18.68,8.72-29.88,18.68,21.17,7.47,21.17,7.47l-18.68,11.21c-18.68,11.21-6.23,26.15-6.23,26.15H468.29c-11.21,0,19.92,12.45,19.92,12.45s-18.68,11.21-28.64,11.21c-5.52,0,.44,14.54,6.84,27.49,15.38-7.71,29.55-24.63,50-45.76,25.73-26.56,19.92-24.07,19.92-24.07S518.1,534.05,538,510s25.73-59.76,27.39-62.25-8.3,6.64-17.43,14.94-.83-3.32,7.47-19.92,11.62-28.22,11.62-28.22a149,149,0,0,1-22.41,8.3c-14.11,4.15-24.07-14.94-10.79-15.77s17.43-4.15,19.09-6.64-5,2.49-18.26.83c-9.84-1.23-17.4-7.48-24-13.67,6,7.44,8.68,11.18,8.68,11.18S504.4,393.77,514.36,408.71Z"/><path class="cls-7" d="M274.06,512.05c24.9,0,32.37-5,31.13-18.68-1.23-13.48-13.29-10.09-14.86-20.65-14.87-6.19-34.59-7.18-52.78-11.72-23.24-5.81-54-31.54-61.42-23.24s-11.62,27.39,7.47,49c17.86,20.19,29.19,22.22,30.57,22.4-5-5.19-14.8-10.77-14.8-10.77S249.16,512.05,274.06,512.05Z"/><path class="cls-7" d="M381.14,945.34l12.45,3.74s-17.43,6.23,0,8.72S434.68,969,434.68,969s-11.21,13.7,5,10,21.17-1.25,21.17-1.25-14.94,5,7.47,16.19,36.11,23.66,36.11,23.66-26.15-10-13.7,0,33.62,23.66,33.62,23.66-7.47-3.74-11.21,8.72a38.88,38.88,0,0,1-9,15.53c4.21,11.52,20.21,29.29,20.21,29.29s-1.25-16.19,5-23.66,2.49,24.9,2.49,24.9,13.7-14.94,13.7-26.15,5-23.66,12.45-38.6,11.21,16.19,11.21,16.19,2.49-23.66,5-42.33,7.47,17.43,7.47,17.43,7.47-31.13,5-46.07,10,2.49,10,2.49,2.49-26.15-7.47-42.33-7.47-46.07-7.47-46.07S566.65,908,562.92,919.19s-11.21-10-11.21-10-21.17,26.15-18.68,38.6-19.92-1.25-19.92-1.25-14.94,10-21.17,14.94-27.39-13.7-27.39-13.7S449.62,960.28,438.41,964s-2.49-13.7-2.49-13.7-11.21,3.74-19.92,1.25,3.74-36.11,3.74-36.11-13.7,18.68-26.15,24.9,7.47-16.19,7.47-16.19-19.92,5-33.62,16.19c-6.57,5.38-8.55,9.89-8.29,13.13C362.72,949.9,371.56,942.47,381.14,945.34ZM548,946c-3.11-5,22.41-.62,31.75,5.6s3.74,7.47-4.36,8.09-11.83-.62-13.07,10-16.19-13.7-16.19-13.7S551.09,950.94,548,946Zm-1.25,35.48c1.87,10,3.74,6.85.62,15.56s-1.87-2.49-8.72-15.56-9.34-18.05-9.34-18.05S544.87,971.49,546.73,981.45Zm-27.39,2.49c.62-1.87,3.74,5.6,8.72,13.7s1.87-5,6.85-3.74,5.6,11.83,6.85,21.79-2.49,9.34-3.74,3.11-5.6-11.21-13.7-16.19S519.34,983.94,519.34,983.94Zm-46.07-18.68s13.7,9.34,10.58,4.36,9.34,5,16.19,13.7,7.47,14.94,1.87,11.83-10-9.34-22.41-13.07-5-10-5-13.7Z"/><path class="cls-7" d="M208.28,866.15a4,4,0,0,0-.39.77C208.64,865.71,208.84,865.35,208.28,866.15Z"/><path class="cls-7" d="M180.88,1040.31c7.24-6.49.89,24.89.89,24.89s4.8-5.16,10.57-17.82c5.14-11.28-1.41-18.19-2.18-24a25.64,25.64,0,0,1-2,7.87S185.66,1020,172,1012.57s-21.17-24.9-21.17-24.9,18.68,8.72,13.7,3.74S145.82,974,149.55,947.83s47.31-31.13,47.31-31.13-23.66,16.19-32.37,19.92S157,959,163.25,967.75s17.43,14.94,21.17,6.23-11.21-21.17-11.21-21.17,16.19,7.47,24.9,11.21-1.25-22.41-1.25-22.41,3.74,2.49,17.43,0,7.47-24.9,7.47-24.9,5,7.47,16.19,7.47-2.49-18.68-2.49-18.68,16.19,13.7,28.64,21.17,1.25-12.45,1.25-12.45L289,927.91c12.44,7.2,16.61,12.34,17.78,15.59l.21.1s-4.31-16-17.2-28-32.13-27.5-32.13-27.5-4.71,7.64-10.57,17.82S224,886.77,224,886.77s-1.38-3.69-6,7.69-13.33,10.44-9.78,5.33c3.4-4.89-2.92-26.54-.35-32.87-4.06,6.52-24.31,37.81-30.31,46.43-7.11,10.22-5.29-8.53-5.29-8.53S144.52,929.48,140.7,962s13.92,75.5,13.92,75.5,7.06-11.47,12-12.89,7.25,28.4,7.25,28.4S173.64,1046.79,180.88,1040.31ZM216.17,908c3.11-.62,1.87,1.25-2.49,10.58s-4.36,6.85-8.09,13.7-10.58,4.36-13.7,5a36.58,36.58,0,0,1-8.72,1.87c-5.6.62,9.34-12.45,18.68-15.56S213.05,908.61,216.17,908Z"/><path class="cls-8" d="M528.06,1152c-11.21-2.49-27.39,19.92-23.66-1.25s7.47-28.64-2.49-21.17-12.45,34.86-12.45,34.86c-6.23,10-6.23,41.09,0,29.88s8.72,1.25,10,6.23-2.49,22.41,1.25,16.19S539.26,1154.51,528.06,1152Z"/><path class="cls-8" d="M595.29,1052.42s-19.92,6.23-23.66,24.9,10,13.7,1.25,29.88-13.7,26.15,0,13.7S618.95,1027.52,595.29,1052.42Z"/><path class="cls-8" d="M236.71,1139.57c-8.72,11.21-6.23,26.15-16.19,12.45s-24.9-8.72-24.9-8.72c-3.74,12.45-5,32.37,7.47,28.64s13.7-7.47,17.43,3.74S230.85,1209,233,1204.32c6.23-13.7,3.74-13.7,12.45-10s14.94,23.66,8.72,0S245.42,1128.37,236.71,1139.57Z"/><path class="cls-8" d="M189.4,1208.05c7.47-7.47,21.17,47.31,22.41,31.13s1.25-38.6-10-44.82-24.9-14.94-26.15-5C175.24,1193.08,181.93,1215.52,189.4,1208.05Z"/><path class="cls-8" d="M404.79,878.11c5-13.7,1.25-16.19,14.94-6.23s36.11,33.62,29.88,22.41-14.94-29.88-1.25-21.17S472,885.58,472,885.58s-44.82-51-42.33-43.58,21.17,29.88,1.25,16.19-36.11-33.62-36.11-33.62l1.25,21.17S399.81,891.8,404.79,878.11Z"/><path class="cls-8" d="M470.78,792.2s26.15,83.42,29.88,69.72-1.25-17.43,13.7-7.47,34.86,14.94,31.13,12.45-22.41-28.64,3.74-14.94,29.88,16.19,29.88,16.19,0-29.88-8.72-49.8,11.21,1.25,19.92,14.94L599,847s12.45-29.88-13.7-63.5S525.57,731.19,533,737.41,581.6,795.93,560.43,781s-34.86-26.15-34.86-26.15,23.66,31.13,21.17,49.8-24.9,17.43-43.58-3.74S477,771,477,771s17.43,32.37,16.19,38.6S470.78,792.2,470.78,792.2Z"/><path class="cls-8" d="M162,784.73l-1.25,22.41s31.13-37.35,28.64-14.94-1.25,32.37-1.25,32.37,14.94-27.39,19.92-8.72,38.6,41.09,38.6,41.09-16.19-33.62-5-24.9,24.9,32.37,26.15,28.64-14.94-43.58-33.62-71-29.88-39.84-29.88-39.84S215.54,781,203.09,766,191.89,720,191.89,720,172,751.11,164.49,743.64s-1.25-29.88-1.25-29.88-13.7,28.64-16.19,10,1.25-31.13,2.49-63.5A433.42,433.42,0,0,0,147.06,598s1.25,48.56-16.19,75.95c-9,14.21-13.72,20-16.14,22.36,6.55-3.22,23-10.32,14.89,3.79-10,17.43-3.74,57.27-3.74,57.27s18.68-28.64,12.45-1.25-11.21,37.35-11.21,37.35S163.25,762.31,162,784.73Z"/><path class="cls-8" d="M114.74,696.27c-1.54.76-2.54,1.3-2.54,1.3S112.5,698.43,114.74,696.27Z"/><path class="cls-8" d="M582.84,687.61c17,4.85,24.48,16,27.68,23.2-3-9.65-7.06-25.69,1-19.46,11.21,8.72,16.19,48.56,16.19,48.56s19.92-42.33-13.7-71-57.27-6.23-57.27-6.23S563.23,682,582.84,687.61Z"/><path class="cls-8" d="M610.52,710.81c1.19,3.85,2.2,6.69,2.2,6.69A31.12,31.12,0,0,0,610.52,710.81Z"/><path class="cls-9" d="M387.36,198.3s-14.94-3.74-14.94,6.23,24.9,14.94,28.64,11.21S403.55,199.54,387.36,198.3Z"/><path class="cls-9" d="M286.51,180.86C277.8,192.07,299,195.8,299,195.8,316.39,177.13,295.23,169.66,286.51,180.86Z"/><path class="cls-9" d="M382.38,361.4c-7.47,0-34.86-19.92-34.86-19.92s18.68,19.92,6.23,16.19-26.15-17.43-26.15-17.43-2.49,22.41,8.72,36.11,10,16.19-7.47,12.45-22.41,2.49-36.11-8.72-31.13-47.31-22.41-39.84,11.21,11.21,11.21,11.21,0-13.7-5-22.41,11.21,6.23,11.21,6.23-1.25-14.94-2.49-19.92,3.74-6.23,13.7,1.25l10,7.47A82.54,82.54,0,0,0,294,296.66c-6.89-8.42-20.38-13.07-30.61-9.9-6.4,2-11.53,7-13,16.12-1.6,10.14-6.23,16.19,11.21,53.54s29.88,44.82,63.5,48.56,75.95,12.45,80.93,34.86-5,33.62-47.31,42.33S289,461,290.25,472.21c0,.18.05.35.08.52,1.57,10.56,13.64,7.17,14.86,20.65,1.25,13.7-6.23,18.68-31.13,18.68s-74.7-13.7-74.7-13.7,9.76,5.58,14.8,10.77c3.2,3.3,4.5,6.45.14,7.9-11.21,3.74-32.37-11.21-32.37-11.21s14.94,19.92,27.39,28.64-5,19.92-5,19.92,21.17-11.21,16.19,6.23a137.37,137.37,0,0,0-5,33.62S233,569.33,230.48,588s-19.92,33.62-16.19,32.37,19.92-8.72,26.15-10,1.25,24.9,2.49,21.17,10-21.17,11.21-6.23,14.94,43.58,14.94,43.58,7.47-37.35,8.72-13.7,0,28.64,0,28.64,17.43-14.94,26.15-13.7,5,19.92,5,19.92,18.68-1.25,27.39-17.43,13.7-7.47,13.7,6.23v13.7s18.68-12.45,21.17-28.64,7.47,7.47,7.47,7.47,18.68-32.37,19.92-37.35,26.15,11.21,26.15,11.21-10-31.13,2.49-16.19,21.17,26.15,21.17,26.15,11.21-27.39,7.47-43.58S477,615.4,477,615.4s-5.44-9.4-10.59-19.82c-6.41-13-12.36-27.49-6.84-27.49,10,0,28.64-11.21,28.64-11.21s-31.13-12.45-19.92-12.45H479.5s-12.45-14.94,6.23-26.15l18.68-11.21s-32.37,2.49-21.17-7.47,29.88-18.68,29.88-18.68H491.95c-8.72,0,2.49-22.41,13.7-18.68L516.85,466s2.49-12.45-8.72-24.9,11.21-1.25,11.21-1.25,5-16.19-5-31.13,5-10,5-10-2.68-3.74-8.68-11.18c-3.19-3.95-7.3-8.92-12.48-15-14.94-17.43-21.17-11.21-18.68,1.25s23.66,52.29,5,33.62-36.11-29.88-64.74-39.84A227.14,227.14,0,0,1,380,349.08c-6.37-3.75-10.06-6.35-10.06-6.35S389.85,361.4,382.38,361.4Z"/><path class="cls-9" d="M422.23,991.41c17.43,21.17,28.64,21.17,28.64,21.17s-2.49-18.68,10,3.74,31.13,32.37,31.13,32.37-6.23-11.21,2.49-6.23,6.23,26.15,6.23,26.15a27.85,27.85,0,0,0,3.45-3.15,38.88,38.88,0,0,0,9-15.53c3.74-12.45,11.21-8.72,11.21-8.72s-21.17-13.7-33.62-23.66,13.7,0,13.7,0-13.7-12.45-36.11-23.66-7.47-16.19-7.47-16.19-5-2.49-21.17,1.25-5-10-5-10-23.66-8.72-41.09-11.21,0-8.72,0-8.72l-12.45-3.74c-9.58-2.87-18.41,4.56-22,8.15-1.07,1.08-1.67,1.81-1.67,1.81s14.94,11.21,24.9,11.21S404.79,970.24,422.23,991.41Z"/><path class="cls-9" d="M289,927.91l-23.66-13.7s11.21,19.92-1.25,12.45-28.64-21.17-28.64-21.17,13.7,18.68,2.49,18.68-16.19-7.47-16.19-7.47,6.23,22.41-7.47,24.9-17.43,0-17.43,0,10,26.15,1.25,22.41-24.9-11.21-24.9-11.21,14.94,12.45,11.21,21.17-14.94,2.49-21.17-6.23-7.47-27.39,1.25-31.13,32.37-19.92,32.37-19.92-43.58,5-47.31,31.13,10,38.6,14.94,43.58-13.7-3.74-13.7-3.74,7.47,17.43,21.17,24.9,16.19,18.68,16.19,18.68a25.64,25.64,0,0,0,2-7.87,34.75,34.75,0,0,0-2-15.79c-5-13.7,7.47,0,7.47,0l-5-22.41s18.68,6.23,24.9,1.25,6.23-21.17,6.23-21.17,8.72,12.45,21.17,2.49,11.21-16.19,32.37-19.92,31.13,0,31.13,0,1.39-1.4.35-4.33C305.62,940.25,301.44,935.11,289,927.91Z"/><path class="cls-9" d="M438.41,1436.31c3.74-6.23,27.39-49,34.86-91.31s21.17-123.26,10-98.36-21.17,42.33-23.66,29.88-12.45-23.66-12.45-23.66a26.37,26.37,0,0,1,.9,4.69c.38,2.78.78,6.62,1.18,11.25,2.48,29,4.64,88.89-2.08,114.8-4.69,18.08-7.93,33.75-9.35,43.41-.33,2.23-.56,4.13-.69,5.68-.19,2.32-.16,3.81.13,4.34a.3.3,0,0,0,.47.14A2.48,2.48,0,0,0,438.41,1436.31Z"/><path class="cls-9" d="M285.27,1272.79c-5,14.94-16.19-41.09-19.92-58.52s-6.23,32.37-6.23,52.29-11.21,12.45-17.43,8.72c-5.79-3.48,13.2,91.1,16.88,119.33.28,2.12.47,3.87.56,5.17,1.25,18.68,3.74-16.19,11.21-32.37s19.81,44.95,21.17,39.84c1.16-4.36,2.16-9.4,3-14.92,6.82-42.78,5.89-115.4,4.82-141.87-.13-3.27-.27-5.84-.39-7.56C297.72,1225.48,290.25,1257.85,285.27,1272.79Z"/><path class="cls-9" d="M515.61,1611.46c-27.39-3.74-8.72-3.74-26.15-11.21s-38.6-8.72-38.6-8.72,13.7-8.72-1.25-8.72-31.13,16.19-37.35,29.88c-.38.83-.76,1.71-1.15,2.62-6,14.19-12.21,38,12.36,49.67,26.15,12.45,124.51,13.7,130.73-3.74,3.29-9.21,0-21.54-7.93-31.68A47.37,47.37,0,0,0,515.61,1611.46Z"/><path class="cls-9" d="M300.21,1628.89c-7.47-6.23-12.45-17.43-11.21-24.9s-61-7.47-97.12,5a45.66,45.66,0,0,0-5.36,2.24c-29.31,14.49-17,51.3-17,51.3,19.92,36.11,118.28,18.68,134.47,8.72,9.26-5.7,9.14-16.68,6-26.21C307.51,1637.87,303.41,1631.55,300.21,1628.89Z"/><path class="cls-9" d="M296.47,1467c-6.64-6.64-5.81-7.47-6.64-17.43s4.15-25.73-10-26.56c-5-.29.83,5-7.47,14.11s-14.11,3.32-16.6,13.28,5.81,24.9,7.47,21.58,10-18.26,13.28-10.79,6.64,5,9.13,14.11,0,24.07,6.64,18.26S303.11,1473.67,296.47,1467Z"/><path class="cls-9" d="M249.16,1501.89c7.47,5,9.13,5,13.28,5s15.77-16.6-1.66-23.24C254.11,1481.09,241.69,1496.91,249.16,1501.89Z"/><path class="cls-9" d="M301.45,1535.92c-5,2.49-13.28,13.28-5.81,15.77S307.26,1565,308.92,1570s5.81-18.26,1.66-24.07A59.54,59.54,0,0,0,301.45,1535.92Z"/><path class="cls-9" d="M282.36,1517.66c-8.3,3.32-9.13,5.81-10,0l-.83-5.81s-14.11,5.81-5.81,14.94,9.13,14.94,9.13,14.94S290.66,1514.34,282.36,1517.66Z"/><path class="cls-9" d="M279,1556.67c-4.15,10.79-10,1.66-19.92-5.81s-14.11,8.3-18.26-3.32-.83-39-6.64-24.9,5,18.26-.83,29.05-34,32.37-21.58,35.69,29.05-16.6,29.05-16.6-4.15,23.24,3.32,19.09,11.62-4.15,15.77-.83,19.09,6.64,22.41-1.66S283.19,1545.88,279,1556.67Z"/><path class="cls-9" d="M224.26,1446.28a43.64,43.64,0,0,0-3.74,17,57.13,57.13,0,0,0,3.74,21.16c5.81,15.77,9.13,23.24,9.13,23.24l-.83-34s14.94-22.41,8.3-27.39-5.81,10.79-9.13,5a24.85,24.85,0,0,1-1.53-3.3C228.27,1443,227.65,1438.81,224.26,1446.28Z"/><path class="cls-9" d="M431.16,1506.36c.25,2.08,1.35,2,3.94-2,7.47-11.62,6.64-15.77,11.62-10.79s7.47,10.79,7.47-4.15-4.15-19.92,5-31.54,19.92-29.05,9.13-23.24-28.22,12.45-28.22,12.45-.52,3.45-1.27,8.33c-1.36,8.9-3.47,22.59-4.54,29S430.67,1502.43,431.16,1506.36Z"/><path class="cls-9" d="M470,1496.08c8.3,7.47,17.43,9.13,21.58,5s-7.47-20.75,0-19.92,17.43,16.6,12.45,2.49-12.45-36.52-21.58-26.56c-5.29,5.77-7.47,5-4.15,17.43S461.65,1488.61,470,1496.08Z"/><path class="cls-9" d="M530.55,1443.79c-10.79,13.28-10,30.71-10,30.71s-6.64,11.62,0,19.09,3.32,34.86,6.64,33.2,5-42.33,3.32-57.27S541.34,1430.5,530.55,1443.79Z"/><path class="cls-9" d="M468.29,1536.75c3.32-2.49,10-2.49,17.43,4.15s15.77,10.79,13.28,3.32-6.64-5-10-9.13,0-17.43-10-18.26-14.94,2.49-14.94,2.49-14.11-19.92-16.6-10.79-3.32,6.64-13.28,13.28-23.24,12.45-8.3,13.28,19.92-2.49,26.56,3.32S465,1539.24,468.29,1536.75Z"/><path class="cls-9" d="M492.36,1574.1c-8.3-4.15-18.26-17.43-18.26-17.43-2.49,0-13.28-6.64-13.28,1.66s-13.28,10.79,2.49,14.11,17.43,10,22.41,14.11,10,7.47,12.45,4.15S500.67,1578.25,492.36,1574.1Z"/><path class="cls-9" d="M507.31,1553.35s-15.77,1.66-5,11.62,10.79,14.11,14.94,20.75,7.47,16.6,8.3,6.64-5-10-5.81-25.73S507.31,1553.35,507.31,1553.35Z"/><path class="cls-9" d="M503.16,1504.38c-4.65,6.08-6.64,17.43,3.32,18.26s11.62,12.45,12.45,6.64S513.95,1490.27,503.16,1504.38Z"/><path class="cls-9" d="M446.71,1550c-8.3-2.49-10-.83-12.45-2.49s-10.79,15.77-1.66,24.07,10-2.49,10-2.49S455,1552.52,446.71,1550Z"/><path class="cls-9" d="M506.48,1471.18c5.81,4.15,6.64,2.49,8.3-2.49s-3.32-12.45-3.32-12.45a37,37,0,0,0-2.49,2.83C506.19,1462.56,502.56,1468.38,506.48,1471.18Z"/><path class="cls-9" d="M289,359.74s-1.66,10,7.47,10.79,14.94,10,13.28,2.49S289,353.1,289,359.74Z"/><path class="cls-9" d="M297.3,335.67s5.81,14.94,10.79,12.45,5-7.47,2.49-10S297.3,335.67,297.3,335.67Z"/><path class="cls-9" d="M294.81,285c5.81-3.32,9.13,3.32,10.79,0s-14.11-12.45-17.43-10.79-2.49,4.15-2.49,4.15S289,288.36,294.81,285Z"/><path class="cls-9" d="M330.5,319.9c-8.3-5.81-14.94-11.62-19.92-13.28s10.79,14.11,10.79,14.11C323.86,320.73,338.81,325.71,330.5,319.9Z"/><path class="cls-9" d="M318.05,361.4c0,4.84,10,19.92,9.13,11.62S318.05,349.78,318.05,361.4Z"/><path class="cls-9" d="M479.5,982.07c12.45,3.74,16.81,10,22.41,13.07s5-3.11-1.87-11.83-19.3-18.68-16.19-13.7-10.58-4.36-10.58-4.36l1.25,3.11C474.52,972.11,467,978.33,479.5,982.07Z"/><path class="cls-9" d="M547.36,997c3.11-8.72,1.25-5.6-.62-15.56s-17.43-18.05-17.43-18.05,2.49,5,9.34,18.05S544.24,1005.73,547.36,997Z"/><path class="cls-9" d="M524.32,1002.61c8.09,5,12.45,10,13.7,16.19s5,6.85,3.74-3.11-1.87-20.54-6.85-21.79-1.87,11.83-6.85,3.74-8.09-15.56-8.72-13.7C519.34,983.94,516.23,997.63,524.32,1002.61Z"/><path class="cls-9" d="M562.3,969.62c1.25-10.58,5-9.34,13.07-10s13.7-1.87,4.36-8.09S544.87,941,548,946s-1.87,10-1.87,10S561.05,980.2,562.3,969.62Z"/><path class="cls-9" d="M183.17,939.11a36.58,36.58,0,0,0,8.72-1.87c3.11-.62,10,1.87,13.7-5s3.74-4.36,8.09-13.7,5.6-11.21,2.49-10.58-5,12.45-14.32,15.56S177.57,939.74,183.17,939.11Z"/><path class="cls-10" d="M239.2,426.77s24.9,28,51.67,38.6,103.34,3.11,107.08-10-.62-23.66-11.21-30.5-43-11.21-52.92-13.07-32.37-9.34-41.71-6.23S239.2,426.77,239.2,426.77Z"/><path d="M249.16,375.72c2.49-1.87-40.67-33.41-44-38.39a238.57,238.57,0,0,0-21.58,11.62c-12.45,7.47-6.64,21.58,5,23.24s14.94-4.15,14.94,7.47S196.87,412,201,417,249.16,375.72,249.16,375.72Z"/><path d="M180.06,431.75s-10.58,21.79,5.19,35.9,68.06-1.66,82.17,8.3,81.34,14.11,107.08,3.32,40.67-19.09,35.69-37.35-17.43-25.73-34-26.56-71.59-9.13-71.59-9.13,41.71,10,62.46,17.43,34,18.26,21.58,32.37-25.73-2.49-44,0-13.28-11.62-31.54-9.13-40.26-9.55-40.26-9.55,3.74,8.72-22.83,3.74S180.06,431.75,180.06,431.75Z"/><path class="cls-11" d="M304.57,406.22s-14.32-1.25-33-13.7-22.41-16.81-22.41-16.81-38,11.83-60.39,46.69c0,0-5.6,1.25-8.72,9.34s2.49,20.54,13.07,26.15,40.46,5.6,52.92-8.09,21.79-13.7,31.75-27.39S304.57,406.22,304.57,406.22Z"/><path class="cls-12" d="M180.06,431.75s5-6.85,8.72-9.34-9.34-23-12.45-17.43S180.06,431.75,180.06,431.75Z"/><path class="cls-12" d="M246,449.8s7.47-13.7,9.34-22.41,4.36-3.74,3.11,8.72S251,449.8,246,449.8Z"/><path class="cls-12" d="M272.82,437.35s8.09.62,11.21,5,23.66,6.23,34.24,6.85,19.92-5.6,19.92-8.09,14.32,0,18.05-6.85-3.11-20.54-9.34-18.05-8.09,10-12.45,8.09-6.23,1.87-8.09,4.36S319.51,438,312,438s-5-11.21-10.58-5-10,11.21-13.07,6.23-4.36-8.09-8.09-6.85S272.82,437.35,272.82,437.35Z"/><path d="M197.65,313.25s-34.07-14.14-22.5-43.07,28.93-33.43,58.5-25.07,35.36,18,32.14,35.36-19.93,25.07-38.57,30.86S197.65,317.11,197.65,313.25Z"/><path d="M238,231.91s21.17,1.66,23.66-3.32,10.58-12.24,1.87-16.6S237.33,209.5,238,231.91Z"/><path d="M434.05,278s-8.72-28.64-22.41-35.48-26.77.62-26.15,16.81S423.47,279.23,434.05,278Z"/><circle class="cls-12" cx="247.29" cy="217.91" r="3.11"/><circle class="cls-12" cx="256.63" cy="225.69" r="1.87"/><circle class="cls-12" cx="400.13" cy="251.21" r="4.67"/><circle class="cls-12" cx="414.13" cy="262.88" r="2.8"/></g></g></svg>