<svg xmlns="http://www.w3.org/2000/svg" viewBox="0 0 860.55 1643.37"><defs><style>.cls-1{fill:none;}.cls-2{fill:#eedfd9;}.cls-3{fill:#8e4d21;}.cls-4{fill:#9b5525;}.cls-5{fill:#e1c9c0;}.cls-6{fill:#b67459;}.cls-7{fill:#fff;}</style></defs><title>BASENJI</title><g id="Layer_2" data-name="Layer 2"><g id="Layer_1-2" data-name="Layer 1"><path class="cls-1" d="M721.16,486.74c11.81-17.52,21.91-35.51,21.91-35.51a330.21,330.21,0,0,0-21.76,32.39C721.29,484.65,721.24,485.69,721.16,486.74Z"/><path class="cls-2" d="M705.21,500.92c-21.3,18.93-33.13,22.09-35.5,10.25s9.47-39.44.79-80.46-48.91-39.44-53.64-49.7-6.31-19.72-13.41-2.37c0,0,0,11.83-17.35,20.51s-34.71,42.6-21.3,60,16.57,35.5,11,48.91-14.2,5.52-32.34-4.73c-16.9-9.55-24.23-2-46.19-25.16.31.75.65,1.52,1,2.33,12.3,10.25,53.47,42.27,99.61,52.81,55.22,12.62,79.67-5.52,96.24-15,7.31-4.17,17.68-17.71,27-31.54.07-1,.13-2.08.15-3.13C718.17,488.6,715.37,491.89,705.21,500.92Z"/><path class="cls-2" d="M222.43,1526.43s-32.34,13.41-41.81,33.92,7.89,29.19,7.89,29.19c33.92,16.57,108.07,20.12,127,4.73s7.1-20.79,7.1-20.79-3.55-14.2-23.07-39S222.43,1526.43,222.43,1526.43Z"/><path class="cls-3" d="M616.52,1371.13c1.65,10,3.27,19.63,4.86,28.79,5.79-7.54,12.52-17,19.54-28.11,20.12-31.95,23.67-65.08,13-89.93s-42-45.63-42-45.63,35.5,46.15,39,71C653.24,1323.21,632.83,1345.76,616.52,1371.13Z"/><path class="cls-4" d="M29.16,1458.2,19.7,1444s16.57,9.47,18.93,16.57,13-11.83,7.1-28.4l-5.92-16.57s31.95,11.83,39,21.3S86,1431,86,1431s6.54,0,13.3,6.14a84.93,84.93,0,0,0-34.6-29.8c-29.58-14.2-45,10.65-58,27.22s17.75,72.18,31.95,80.46a4.8,4.8,0,0,0,2.65.6c-.85-1.89-1.73-4-2.65-6.51C30.35,1486.59,38.63,1472.39,29.16,1458.2Z"/><path class="cls-2" d="M860.39,1605.43c-5.32-19.52-26.62-55-63.89-69.22s-49.7-173.93-44.37-246.7,37.27-126,40.82-177.48c2.69-39.07-6.88-73-11.65-87.1-1.62,3.85-4.1,9.58-7.88,17.88C764.55,1062.33,674,1167,674,1167c0,12.42,3.55,273.32,10.65,292.85s17.75,117.14,33.72,138.44S865.72,1625,860.39,1605.43Z"/><path class="cls-5" d="M426,1144.63c-8.68,23.67,7.89,35.5-23.67,27.61s-84.41,3.16-76.52,13.41,67.84,24.45,60.74,66.26-32.34,20.51-30,43.39,6.31,11-29.19,57.59-151.46,136.47-165.66,153-7.1,15,15,16.57,45.75,3.94,45.75,3.94,57.59-16.84,77.11,8,23.07,39,23.07,39,110,14.2,133.11-30.17c0,0,23.07,19.52,69.22,17.75,11.08-.43,26,.12,42.49,1C532.16,1426.31,471.71,1132,471.71,1132S434.63,1121,426,1144.63Z"/><path class="cls-5" d="M693.38,1561.93c8.87-12.42,13.21-47.73-34.71-65.47-6.49-2.4-12.41-4.86-17.83-7.42,10.79,33.42,23,59.08,40.24,77C687.53,1565.3,691.9,1564,693.38,1561.93Z"/><path class="cls-5" d="M748.6,587.7s0,0,0,.09S748.6,587.73,748.6,587.7Z"/><path class="cls-5" d="M781.3,1024.93c2.18-5.2,2.77-7,2.77-7s49.7-120.69,55-184.58-26.62-94.07-33.72-113.59a420.41,420.41,0,0,1-12.21-41.37s-.39-1.18-4.73-15.78-23.27-21.69-35.1-40.63-4.73-34.32-4.73-34.32c0-17.36-5.52-136.47-5.52-136.47s-10.1,18-21.91,35.51c-9.32,13.83-19.69,27.37-27,31.54-16.57,9.47-41,27.61-96.24,15-46.14-10.55-87.31-42.56-99.61-52.81a116.18,116.18,0,0,0,23.88,33.88c23.67,23.67,37.08,28.4,22.88,26.82s-31.55-7.89-24.45,15,42.6,55.22,25.24,60.74-42.6-17.35-45.75-6.31-15-7.89-20.51,2.37S448,669.74,467,700.5s6.31,52.85-3.16,66.26c-2.77,3.93.55,10.84,6.83,20.68,22.43-24.93,51.49-36.81,80.92-39.27,63.89-5.32,120.69,104.71,95.84,193.46,0,0-74.54,115.36-67.44,177.48,4.65,40.7,21.5,160.66,36.55,252,16.31-25.37,36.72-47.92,34.44-63.88-3.55-24.85-39-71-39-71L674,1167s90.52-104.72,99.39-124.24C777.2,1034.5,779.69,1028.78,781.3,1024.93Z"/><path class="cls-5" d="M44.94,1513.81c26.28-13.14,50.05-47.6,58-72.72a31,31,0,0,0-3.66-4C92.5,1431,86,1431,86,1431s0,15.38-7.1,5.92-39-21.3-39-21.3l5.92,16.57c5.92,16.57-4.73,35.5-7.1,28.4S19.7,1444,19.7,1444l9.47,14.2c9.47,14.2,1.18,28.4,9.47,50.88.91,2.48,1.8,4.63,2.65,6.51l0,.09Q43.11,1514.73,44.94,1513.81Z"/><path class="cls-2" d="M580,1119.12c-7.1-62.12,67.44-177.48,67.44-177.48,24.85-88.74-31.95-198.78-95.84-193.46-29.44,2.45-58.49,14.33-80.92,39.27,15.15,23.76,47.55,64.65,53.12,122.1,7.89,81.25-48.12,76.52-64.69,101.76s-11.83,56-3.94,70.21S471.71,1132,471.71,1132s60.46,294.31,95.73,430.07c9.55,36.75,17.25,61.89,21.41,66.42,19.52,21.3,106.49,16,122.46,7.1s8.87-39-17.75-58.57a96.16,96.16,0,0,1-12.49-11c-17.22-17.92-29.44-43.59-40.24-77q-2.07-6.4-4.07-13.18c-3.88-13.09-9.34-41-15.39-75.94-1.58-9.16-3.21-18.81-4.86-28.79C601.47,1279.78,584.62,1159.83,580,1119.12Z"/><path class="cls-3" d="M180.62,1560.35c9.47-20.51,41.81-33.92,41.81-33.92s-23.67-2.37-45.75-3.94-29.19,0-15-16.57,130.16-106.5,165.66-153,31.55-34.71,29.19-57.59,22.88-1.58,30-43.39-52.85-56-60.74-66.26,45-21.3,76.52-13.41,15-3.94,23.67-27.61S471.71,1132,471.71,1132s-8.68-36.29-16.57-50.49-12.62-45,3.94-70.21,72.57-20.51,64.69-101.76c-5.58-57.45-38-98.33-53.12-122.1-6.28-9.84-9.6-16.76-6.83-20.68,9.47-13.41,22.09-35.5,3.16-66.26s7.1-77.31,12.62-87.56,17.35,8.68,20.51-2.37,28.4,11.83,45.75,6.31S527.72,579,520.62,556.14s10.26-16.57,24.45-15,.79-3.16-22.88-26.82a116.18,116.18,0,0,1-23.88-33.88c-.37-.81-.7-1.58-1-2.33-1.61-1.7-3.3-3.55-5.08-5.6-4.24-4.89-8-9.48-11.21-13.91-.35,27.67,8.05,61.79,8.05,70.71,0,9.47-24.45,59.16-37.08,104.92s-32.34,85.2-67.84,127S230.32,980.54,199.55,1031s-96.24,205.1-107.28,259.53S104.1,1401,105.68,1423.88c.33,4.73-.68,10.66-2.75,17.21-7.94,25.12-31.71,59.58-58,72.72q-1.83.92-3.62,1.87c-31.19,16.55-52.51,40.61-35,58.08,18.14,18.14,182.23,15.78,182.23,15.78S171.16,1580.86,180.62,1560.35Z"/><path class="cls-4" d="M753.33,622c11.83,18.93,30.77,26,35.1,40.63s4.73,15.78,4.73,15.78-.39-26.43-22.48-50.88c-21.16-23.43-22-38.52-22.09-39.75,0-.05,0-.09,0-.09S741.5,603.08,753.33,622Z"/><path class="cls-4" d="M492.22,472.52c1.78,2.05,3.47,3.9,5.08,5.6,22,23.15,29.29,15.61,46.19,25.16,18.14,10.25,26.82,18.14,32.34,4.73s2.37-31.55-11-48.91,3.94-51.28,21.3-60,17.35-20.51,17.35-20.51c7.1-17.35,8.68-7.89,13.41,2.37s45,8.68,53.64,49.7-3.16,68.63-.79,80.46,14.2,8.68,35.5-10.25c10.16-9,13-12.32,16.11-17.31a330.21,330.21,0,0,1,21.76-32.39c27.61-37.08,14.2-42.6,15-68.63s7.1-66.26,2.37-78.89,3.94-32.34,3.94-32.34a36.56,36.56,0,0,0,10.25-21.3c1.58-13.41,16.57-25.24,21.3-56s-1.58-46.54-1.58-46.54c11-34.71-7.89-132.53-45-146.73s-102.55,168-108.07,173.55-96.24,10.25-101,1.58-103.34-138-142-142S380.2,150.67,386.51,172s.79,22.88,4.73,45,32.34,44.18,37.86,52.85,3.94,7.89,16.57,16.57,15.78,60,15,98.61c-.66,32.35,3.66,50.89,20.35,73.65C484.26,463,488,467.63,492.22,472.52Z"/><path d="M552.17,507.63s12.42,7.49,31.36,5.13,36.09-15.38,36.09-15.38,32.54,11.83,49.11,7.69,26-11.24,30.17-21.89,5.32-23.67,7.1-15.38,0,21.3-17.75,33.13-34.32,11.83-49.7,7.1-18.34-5.32-18.34-5.32S579.39,530.7,552.17,507.63Z"/><path d="M614.29,484.36s-28.4-1.18-34.91-26,2.37-42,27.81-45.56,39,2.37,47.92,13.61,5.32,27.81-4.14,40.82S619.62,487.31,614.29,484.36Z"/><path d="M667,318.7s-5.92-29,11.24-33.13,31.95,5.92,32.54,11.83S704.82,335.85,667,318.7Z"/><path d="M545.25,327.52s3.5-29.38-13.94-32.09S500,304,499.86,309.92,508.94,347.76,545.25,327.52Z"/><path class="cls-6" d="M717,199.58l2.37-9.47s-11,1.58-7.1-3.94A56.61,56.61,0,0,1,721,176.7s-15,3.94-22.09-9.47,15.78-99.4,35.5-120.69,34.71,48.12,35.5,83.62-1.58,44.18-4.73,56.8-6.31,22.88-11.83,20.51-5.52-11-5.52-11-.79,4.73-9.47,6.31S717,199.58,717,199.58Z"/><path class="cls-6" d="M505.63,200.37c.88,2.2,9.47-37.86-32.34-86s-62.32-59.16-71-37.08S413.33,168,429.11,198s38.65,37.86,36.29,29.19L463,218.51s11,7.89,15,7.1-5.52-15.78-5.52-15.78,25.24,10.26,19.72-.79-22.09-25.24-22.09-25.24S502.47,192.48,505.63,200.37Z"/><circle class="cls-7" cx="518.45" cy="308.64" r="6.11"/><circle class="cls-7" cx="532.45" cy="319.09" r="3.16"/><circle class="cls-7" cx="681.74" cy="299.17" r="6.11"/><circle class="cls-7" cx="695.74" cy="309.62" r="3.16"/></g></g></svg>