<svg xmlns="http://www.w3.org/2000/svg" viewBox="0 0 1283.25 1494.51"><defs><style>.cls-1{fill:none;}.cls-2{fill:#e5cdc7;}.cls-3{fill:#f3dfd8;}.cls-4{fill:#f8ede8;}.cls-5{fill:#100f10;}.cls-6{fill:#8e4d21;}.cls-7{fill:#c88484;}.cls-8{fill:#fff;}</style></defs><title>BASSET HOUND 1</title><g id="Layer_2" data-name="Layer 2"><g id="Layer_1-2" data-name="Layer 1"><path class="cls-1" d="M1080.22,1152.68c-19.1,24.3-36,42-36,42S1064.48,1176.22,1080.22,1152.68Z"/><path class="cls-2" d="M461.1,1169.16s6.73,27.89,6.93,57.14c10.57-2.55,20.26-3.95,28.74-3.62,45.14,1.74,72.71-14.1,93.22-25.41-11.9-3.81-28.82-6.25-55.32-14.73C478.94,1164.7,461.1,1169.16,461.1,1169.16Z"/><path class="cls-2" d="M943.08,1200.58c-1.49-23.79,35.68-53.52,20.81-78.79-6.69-11.37-8.86-32.36-9.23-52-13.71,30.95-39.26,60.38-53.21,74.32-19.33,19.33,14.87-63.92,10.41-89.2S895.51,979.08,892.53,985s-22.3,11.89-29.73,5.95-38.65,31.22-52,34.19c0,0,11.55,37-17.43,68.18s-58,89.19-62.43,133.79c-.79,7.91-1.14,16-1.14,24.29,50,15,150.31-11.9,205.54-29.21C940.44,1214.19,943.49,1207.21,943.08,1200.58Z"/><path class="cls-2" d="M350,1130.86c-69.6,18.27-143.27,69.36-156.46,80.66-15.61,13.38-15.61,42.37,58,64.66,25.59,7.75,56,3.37,87.29-5.55a74,74,0,0,0,8.6-21.21C355.68,1212.07,358,1170.42,350,1130.86Z"/><path class="cls-3" d="M793.34,1093.35c29-31.22,17.43-68.18,17.43-68.18-10.26,2.28,7.44-64.46,18.27-96.4a23,23,0,0,1-7.87,7.21c-14.87,7.43-20.81-49.06-49.06-98.12S654.68,772.44,636.84,766.5s-19.33-5.95-10.41-34.19,5.95-31.22-10.41-66.9c-7-15.17-7.71-27.64-6-37.55q-13.33,12.2-28.23,25.66C506,721.9,430.2,674.33,416.82,577.7c-4.41-31.89,1.86-70.73,12.4-108.52-8-.48-18.12-5.56-28.59-12.71-5,7.26-12.19,16-20.48,20.65C364.3,486,329.61,492,299.88,468.19c-21.69-17.35-23.33-38.38-22.64-48.49-6.21,3.23-7.46,7-11.55,1.88,7,25.9,20.29,88.26-.5,126.39-13.18,24.16-31.41,42.54-52.55,50.73-4.71,39.17-11.58,86.44-16.88,115.59-8.92,49.06,4.46,153.86,35.68,191.76s55.74,100.34,91.42,156.08c13.54,21.15,22.25,44.55,27.13,68.73,8,39.55,5.7,81.21-2.6,118.57a74,74,0,0,1-8.6,21.21c-28.94,49.52-111.75,86.57-127.42,108.12C193.53,1403.29,227,1430,305,1430s129.33-49.06,142.71-69.12-2.23-55.74,13.38-91.42c5.36-12.25,7-27.91,6.93-43.2-.2-29.25-6.93-57.14-6.93-57.14s17.84-4.46,73.58,13.38c26.5,8.48,43.41,10.92,55.32,14.73,13.14,4.21,20.17,10.09,27.18,27.64,13.38,33.45-13.38,102.57-26.76,138.25s-31.22,95.88,17.84,120.41,115.95,4.46,147.17-26.76,6.69-49.06-6.69-91.42c-11-34.85-19-75.72-19-114,0-8.25.35-16.38,1.14-24.29C735.36,1182.54,764.35,1124.56,793.34,1093.35Z"/><path class="cls-4" d="M1097.68,1112.87c5.95-38.65-4.46-44.6-16.35-68.38s-8.92-32.71-1.49-55,32.71-25.27,31.22-46.08,23.79-5.95,29.73-40.14-8.92-4.46-35.68-7.43-29.73-4.46-47.57-4.46-38.65,22.3-52,34.19c-5.38,4.78-7.39,5-7.39,2-10.88,23.54-33.11,75.16-34.23,106.53-.41,11.59-3.94,23.75-9.23,35.68.37,19.66,2.54,40.66,9.23,52,14.87,25.27-22.3,55-20.81,78.79.41,6.63-2.64,13.61-7.77,21.64C922,1243,894.82,1270.84,877.67,1318c-23.79,65.41-11.89,102.58,28.25,105.55s66.9-11.89,78.79-55,37.16-96.63,50.54-113,8.92-61,8.92-61,17-17.66,36-42C1088.56,1140.19,1095.62,1126.27,1097.68,1112.87Z"/><path class="cls-5" d="M829,928.76c-10.83,31.95-28.53,98.68-18.27,96.4,13.38-3,44.6-40.14,52-34.19s26.76,0,29.73-5.95,14.87,44.6,19.33,69.87-29.73,108.52-10.41,89.2c13.95-13.95,39.5-43.38,53.21-74.32,5.29-11.94,8.82-24.1,9.23-35.68,1.12-31.37,23.35-83,34.23-106.53,0-4.46,4.44-16,8.88-30.23,7.43-23.79,55-77.3,83.25-89.2,24.88-10.48,37.08-5.95,58.94,9.51-6.34-13.31-18.4-31.66-41.1-55.59-55-58-154.61-113-220-141.23A335.2,335.2,0,0,0,787.24,595c20.85,37,26.39,78.17,45.83,172.93C852.8,864.18,841.84,911.26,829,928.76Z"/><path class="cls-6" d="M610.06,627.86c-1.75,9.91-1,22.38,6,37.55,16.35,35.68,19.33,38.65,10.41,66.9S619,760.55,636.84,766.5s107,22.3,135.28,71.36S806.31,943.4,821.18,936a23,23,0,0,0,7.87-7.21c12.8-17.5,23.76-64.58,4-160.78-19.44-94.76-25-135.91-45.83-172.93a202.61,202.61,0,0,0-16.61-24.78c-17.77-23-28.9-41.48-37.8-54.48C704.52,539,668.35,574.49,610.06,627.86Z"/><path class="cls-4" d="M1121.47,1282.34c10.41-7.43,16.35-23.79,7.43-32.71s-40.14-5.95-40.14-5.95,22.3-8.92,29.73-22.3-23.79-1.49-23.79-1.49,1.41-5.62,19.23-21c-16.51,4.35-40.49,13.23-50.45,25.41-13.38,16.35-10.41,35.68-10.41,31.22s23.79-23.79,13.38-5.95-31.22,19.33-31.22,19.33,50.54,3,28.25,11.89-46.08,13.38-43.11,17.84c2.74,4.1,42,9.46,72.56,1-2.69.33-4.17.47-4.17.47S1111.06,1289.78,1121.47,1282.34Z"/><path class="cls-5" d="M265.19,548c20.8-38.13,7.47-100.49.5-126.39a58.68,58.68,0,0,1-4.47-6.91c-10.9-18.83-24.78-60.46-15.86-78.29a52.67,52.67,0,0,1,5.44-8.66c-3.81-11-7.31-25.78-4.94-38.42,4.46-23.79,3-74.33-1.49-108.52-4.3-33-11.35-101.89,26.83-133.42-15.51-2.81-37.64,7.7-81.83,23.41C122.48,94.55,8,292.27.57,333.9S60,445.39,76.39,476.61s13.38,74.33,63.92,110c25.65,18.11,50.54,20.51,72.32,12.08C233.78,590.51,252,572.13,265.19,548Z"/><path class="cls-5" d="M529.8,274.43c-25.27,49.06-32.71,46.08-50.54,99.6-14.87,44.61-11.17,72.67-30.18,79.93-2.56,8.83-7.63,14.54-17.39,15.22a19.3,19.3,0,0,1-2.47,0c-10.54,37.79-16.81,76.64-12.4,108.52,13.38,96.63,89.2,144.2,165,75.82q14.94-13.48,28.23-25.66c58.29-53.36,94.45-88.82,122.77-112.07l.64-.53c32.71-26.76,5.95-169.47-20.81-240.83S672.52,154,617.51,122.8C565.42,93.23,560,39.67,534.3,50.51c22.13,29.6,19.06,62.58,25.23,84.18C568.45,165.91,555.07,225.37,529.8,274.43Z"/><path class="cls-5" d="M1270.13,1101c-17.84-28.25-8.92-50.54-31.22-59.46-12.92-5.17-27.33-14.32-39.19-21.11-.08,20-1.39,41.85-8.38,61.25-4.36,12.1-7.76,20.56-10.79,27.36,5.68,14.7,17,49.09-1.1,64.81-22.3,19.33-44.6,7.43-63.92,23.79l-1.58,1.35c-17.83,15.33-19.23,21-19.23,21s31.22-11.89,23.79,1.49-29.73,22.3-29.73,22.3,31.22-3,40.14,5.95,3,25.27-7.43,32.71-32.71,17.84-32.71,17.84,1.48-.14,4.17-.47c21.87-2.69,123.61-17.77,159.35-69.4C1292.43,1172.34,1288,1129.23,1270.13,1101Z"/><path class="cls-6" d="M244.38,180.78c4.46,34.19,5.95,84.74,1.49,108.52-2.37,12.64,1.14,27.38,4.94,38.42,8.42-10.95,18.65-16.23,24.29-34,6.94-21.8,19.82-48.56,44.6-66.4s48.56-36.67,56.49-52.53,27.75-75.32,38.65-108,43.61-55.5,30.72-34.69S402,156,418.8,184.74s49.55,67.39,48.56,114S454.48,340.34,451.51,381c-2,26.83,2.55,55.82-2.43,73,19-7.25,15.31-35.32,30.18-79.93,17.84-53.52,25.27-50.54,50.54-99.6s38.65-108.52,29.73-139.74c-6.17-21.6-3.1-54.58-25.23-84.18-9.86-13.18-24.71-25.7-47.61-36.23-74.33-34.19-168,0-211.1,29.73-1.53,1.06-3,2.18-4.39,3.34C233,78.88,240.07,147.8,244.38,180.78Z"/><path class="cls-6" d="M1199.72,1020.4c.08-18.35-.88-35.19.54-47.27,3-25.27-13.38-127.85-41.62-148.66-3.36-2.48-6.49-4.76-9.44-6.85-21.86-15.46-34.06-20-58.94-9.51C1062,820,1014.43,873.53,1007,897.32c-4.44,14.22-8.88,25.77-8.88,30.23,0,3,2,2.8,7.39-2,13.38-11.89,34.19-34.19,52-34.19s20.81,1.49,47.57,4.46,41.62-26.76,35.68,7.43-31.22,19.33-29.73,40.14-23.79,23.79-31.22,46.08-10.41,31.22,1.49,55,22.3,29.73,16.35,68.38c-2.06,13.39-9.12,27.32-17.47,39.81-15.74,23.54-36,42-36,42s105.55-22.3,117.44-47.57c8-17,12.66-24,18.94-38,3-6.8,6.44-15.26,10.79-27.36C1198.32,1062.26,1199.63,1040.43,1199.72,1020.4Z"/><path class="cls-4" d="M341.5,402.77S307.8,414.67,288,416.65a29,29,0,0,0-10.75,3c-.7,10.12,1,31.14,22.64,48.49C329.61,492,364.3,486,380.15,477.1c8.29-4.66,15.49-13.38,20.48-20.65C372.4,437.16,341.5,402.77,341.5,402.77Z"/><path class="cls-4" d="M431.69,469.18c9.76-.67,14.83-6.39,17.39-15.22,5-17.17.47-46.15,2.43-73,3-40.63,14.87-35.68,15.86-82.26s-31.71-85.23-48.56-114S432.68,52.93,445.56,32.12s-19.82,2-30.72,34.69-30.72,92.17-38.65,108-31.71,34.69-56.49,52.53S282,272,275.1,293.76c-5.64,17.73-15.87,23-24.29,34a52.67,52.67,0,0,0-5.44,8.66c-8.92,17.84,5,59.46,15.86,78.29a58.68,58.68,0,0,0,4.47,6.91c4.09,5.11,5.33,1.34,11.55-1.88a29,29,0,0,1,10.75-3c19.82-2,53.52-13.87,53.52-13.87s30.9,34.39,59.13,53.68c10.47,7.16,20.57,12.24,28.59,12.71A19.3,19.3,0,0,0,431.69,469.18Z"/><path class="cls-7" d="M329.61,144.11s2.48,10.65-7.93,12.14-14.12,5.95-21.56,9.66-20.07-7.43-21.56-18.58a239.26,239.26,0,0,1-1.49-26Z"/><path class="cls-7" d="M481.24,173.84s-5.95,19.82,2,22.79S503,206.54,507,208.53s15.86-1,17.84-7.93,5.95-26.76,5.95-26.76Z"/><path d="M346.46,382s-32.71-9.91-45.59-41.62S287,288.8,319.7,279.88s91.18,8.92,103.07,32.71S404.93,367.1,382.13,377,346.46,382,346.46,382Z"/><path d="M481.24,173.84S487.19,157,502.05,155s28.74,18.83,28.74,18.83S506,215.46,481.24,173.84Z"/><path d="M329.61,144.11s4-22.79-13.87-31.71-38.65,8.92-38.65,8.92,5,19.82,17.84,25.77S329.61,144.11,329.61,144.11Z"/><path d="M277.08,409s31.22,3.72,46.83-.74l15.61-4.46S373.71,435,387.09,443.9,407.9,458,407.9,458s-44.6,5.95-79.53-13.38S277.08,409,277.08,409Z"/><circle class="cls-8" cx="299.38" cy="122.8" r="6.69"/><circle class="cls-8" cx="314.99" cy="135.43" r="3.72"/><circle class="cls-8" cx="497.1" cy="168.14" r="6.69"/><circle class="cls-8" cx="512.71" cy="180.78" r="3.72"/></g></g></svg>