<svg xmlns="http://www.w3.org/2000/svg" viewBox="0 0 754.61 1666.41"><defs><style>.cls-1{fill:none;}.cls-2{fill:#9b7d5a;}.cls-3{fill:#bd9d74;}.cls-4{fill:#ad8d68;}.cls-5{fill:#161616;}.cls-6{fill:#222120;}.cls-7{fill:#050505;}.cls-8{fill:#c98496;}.cls-9{fill:#fff;}.cls-10{fill:#765c57;}</style></defs><title>BELGIAN MALINOIS</title><g id="Layer_2" data-name="Layer 2"><g id="Layer_1-2" data-name="Layer 1"><path class="cls-1" d="M497,1226.54c26.71,5.49,51.22,15.63,73.18,23.82-15.32-60.75-31.49-116.8-31.49-127,0-5.1-.67-9.54-2-12.47-3.22,12.86-7.49,29-12.64,46.55S509.3,1200.13,497,1226.54Z"/><path class="cls-1" d="M558.16,1556.64c17.3-1.24,36.47-3.72,52.43-5.24-4.16-24.65-7.29-50.95-9.47-75.74-29.75,20.3-77,42-77,42S524.08,1559.08,558.16,1556.64Z"/><path class="cls-2" d="M477.82,1559.08c4.87-24.34,38.95-41.38,46.25-41.38,0,0,47.29-21.73,77-42-2.73-31-4-59.57-4-79.69,0-32.31-13.13-90.87-26.94-145.61-22-8.19-46.47-18.33-73.18-23.82-16.61,35.65-38.17,73.66-60.55,98.83-33,37.17-101.09,62.07-121,68.77,2.29,39.53,4.14,73.53,4.14,89.46,0,26.54,2.57,85.22,2.11,125.59,92.86-.4,178-1.43,178-1.43C475.39,1595.59,473,1583.42,477.82,1559.08Z"/><path class="cls-2" d="M232,1359.46c-.36-4.19-.8-8.56-1.3-13.08-19.33-17.81-38.43-42-45-55.08-12.17-24.34-7.3-24.34-19.47-12.17s-56,97.37-41.38,168-21.91,107.11-21.91,148.5a58.19,58.19,0,0,1-1.08,11.56c20.79,1.33,63.17,1.94,112.84,2.13,7.67-13.67,16.65-29.08,19.7-45.34C241.69,1525,239.26,1444.66,232,1359.46Z"/><path class="cls-2" d="M220.69,1278.8c-13.92-81.13-34.34-173-32.55-194.42,2.43-29.21-4.87-43.82-29.21-90.07-5.09-9.67-7.72-22.53-8.67-37.24-5,28.75-17.38,88.82-8.37,124.88,11.57,46.28-9.86,70.57-35,97.95q4-.46,8.23-.57C173.84,1177.73,205.66,1237.21,220.69,1278.8Z"/><path class="cls-3" d="M558.16,1556.64c-34.08,2.43-34.08-38.95-34.08-38.95-7.3,0-41.38,17-46.25,41.38s-2.43,36.52,21.91,48.69c15.64,7.82,80.54,6.6,124.94,4.72-5.61-17.38-10.27-38.54-14.08-61.08C594.62,1552.92,575.45,1555.41,558.16,1556.64Z"/><path class="cls-3" d="M124.84,1447.1c-14.61-70.6,29.21-155.8,41.38-168s7.3-12.17,19.47,12.17c6.52,13,25.63,37.27,45,55.08-2.24-20.13-5.81-43.37-10-67.58-15-41.58-46.85-101.07-105.58-99.48q-4.19.11-8.23.57C22.82,1189.4-11,1307.94,3.12,1371.63c2,8.82,4.23,17.06,6.68,24.81,15.77,50,38.92,79.57,34.71,109.08-1.21,8.47-6,19.18-11.87,30.74-17.69,35-44.81,77.57-10,88.55,41.49,13.1,73.16,12.47,79.25-17.66a58.19,58.19,0,0,0,1.08-11.56C102.93,1554.21,139.45,1517.69,124.84,1447.1Z"/><path class="cls-3" d="M436.44,1325.38c22.37-25.17,43.93-63.19,60.55-98.83,12.31-26.41,21.91-51.53,27.09-69.14s9.42-33.69,12.64-46.55c-3.64-8.26-12.24-4.62-24.81,29.51-17,46.25-46.25,77.9-46.25,77.9s0-7.3,4.87-21.91,2.43-31.65-21.91,12.17-60.86,73-60.86,73,0-17-19.47-43.82-58.42-116.85-60.86-141.19-2.43,68.16,0,143.63c1.37,42.55,5.07,102.89,8,154C335.35,1387.45,403.4,1362.54,436.44,1325.38Z"/><path class="cls-4" d="M752.91,1637c-14.61-26.78-41.38-56-53.56-104.68S658,1262.08,658,1184.19s-17-126.59-24.34-138.76,26.78-41.38,12.17-155.8-85.2-245.87-90.07-275.08c-2.62-15.74-5.25-35.71-11.31-50.8.73,18.65.35,36.19.35,36.19s-1.22-3.65-3.65-17,0,0-12.17,30.43-41.38,45-41.38,45l2.43-11c2.43-11-1.22-6.09-18.26,23.13s-58.42,51.12-58.42,51.12l3.65-11c3.65-11,2.43-9.74-15.82,11s-49.9,31.65-49.9,31.65,1.22-6.09,3.65-17-12.17,18.26-12.17,18.26-23.13-9.74-24.34-28-11,14.61-11,14.61-32.86-36.52-40.17-45-13.39,3.65-13.39,3.65a457.69,457.69,0,0,0-26.78-47.47,166.45,166.45,0,0,1-12.43-23.56c-14.52,42.6-40.1,120.93-43.56,153.8-3.85,36.59-24.45,118.86-20.85,174.55,1,14.71,3.59,27.58,8.67,37.24,24.34,46.25,31.65,60.86,29.21,90.07-1.78,21.39,18.63,113.29,32.55,194.42,4.15,24.21,7.73,47.45,10,67.58.5,4.52.94,8.9,1.3,13.08,7.3,85.2,9.74,165.54,2.43,204.49-3,16.26-12,31.66-19.7,45.34-10.7,19.09-18.83,34.81-4.65,44.74,24.34,17,104.68,17,109.55-9.74,1.33-7.32,1.93-19.91,2.11-35.08.46-40.37-2.11-99-2.11-125.59,0-15.93-1.85-49.93-4.14-89.46-3-51.09-6.65-111.43-8-154-2.43-75.47-2.43-168,0-143.63S348.8,1211,368.28,1237.74s19.47,43.82,19.47,43.82,36.52-29.21,60.86-73,26.78-26.78,21.91-12.17-4.87,21.91-4.87,21.91,29.21-31.65,46.25-77.9c12.57-34.13,21.17-37.77,24.81-29.51,1.29,2.93,2,7.37,2,12.47,0,10.24,16.16,66.29,31.49,127,13.81,54.74,26.94,113.3,26.94,145.61,0,20.12,1.27,48.73,4,79.69,2.19,24.79,5.31,51.09,9.47,75.74,3.8,22.54,8.47,43.7,14.08,61.08,6.54,20.27,14.35,35.39,23.56,41.53C684.74,1678.36,767.51,1663.75,752.91,1637Z"/><path class="cls-3" d="M253.86,699.75s6.09-12.17,13.39-3.65,40.17,45,40.17,45,9.74-32.86,11-14.61,24.34,28,24.34,28,14.61-29.21,12.17-18.26-3.65,17-3.65,17,31.65-11,49.9-31.65,19.47-21.91,15.82-11l-3.65,11s41.38-21.91,58.42-51.12,20.69-34.08,18.26-23.13l-2.43,11s29.21-14.61,41.38-45,9.74-43.82,12.17-30.43,3.65,17,3.65,17,.38-17.54-.35-36.19c-.58-14.67-1.84-30-4.52-38.06-6.09-18.26,8.52-3.65,8.52-3.65s6.09-51.12,1.22-85.2,0-42.6,1.22-35.3c1.08,6.46-2.61-58.45-7.68-86.19-4.78,5-4.38-1.41-7.33-13.21-3.25-13-38.95-63.29-44.63-90.88s-39.76-47.06-39.76-47.06c-10.11.61-18,1.29-24.16,2l4.69,2.09c20.29,8.93,38.14,58.42,40.57,65.73s-8.11-6.49-21.1-24.34-38.14-23.53-51.12-23.53-20.29,21.1-28.4,31.65-10.55-34.08-10.55-34.08,2.43-12.17-26.78-5.68-48.69,25.15-54.37,33.27,9.74-26.78,31.65-38.95a90.45,90.45,0,0,1,15.62-6.84,70.94,70.94,0,0,1-13.19-11.82c4.06,4.06-19.47,7.3-47.88,43.82s-44.63,100.62-44.63,100.62a5.57,5.57,0,0,1-3.87.27c-1.53,6.09-3.91,15.08-6.68,24.08-4.87,15.82-6.09,21.91-6.09,21.91s9.74-8.52,4.87,1.22-9.74,28-9.74,52.34,9.74,52.34,6.09,73-8.52,25.56-3.65,25.56,11,9.74,8.52,20.69-8.52,35.3-11,52.34c-1.75,12.27,4.7,37.15,14.35,59.21a166.45,166.45,0,0,0,12.43,23.56A457.69,457.69,0,0,1,253.86,699.75ZM234.79,374.36l4.87,11.36c1.77,4.12,5.45,7.6,9.44,10.36-3.78-12.08-8.51-30.16-6.19-41.19,3.25-15.42,4.06-8.11,1.62-31.65s1.62-79.52,34.89-98.19,47.88-2.43,49.5,4.87,6.49,12.17,6.49,5.68a76.58,76.58,0,0,1,.81-11.36,103.78,103.78,0,0,1,3.25,30.83c-.81,17,0,29.21,10.55,36.52s32.46-7.3,34.08-21.1,7.3-39.76,16.23-43.82l8.93-4.06s-4.87,9.74-.81,6.49,31.65-10.55,43.82,1.62,24.34,23.53,30.83,42.2,4.06,21.1,8.93,37.33,17.85,40.57,11.36,34.08-8.93-21.91-15.42-15.42-10.55,22.72-3.25,37.33a96.77,96.77,0,0,1,8,24.53,2.5,2.5,0,0,1,1,.62c7.3,8.93,6.49,26.78,4.06,37.33s16.23-8.11,16.23-8.11,3.25-.81-4.87,34.08-66.54,104.68-69.79,112,5.68-.81,13.8-10.55-5.68,20.29-14.61,43-54.37,57.61-54.37,57.61A47.16,47.16,0,0,0,380,646.19c-3.25-6.49-7.3,19.47-7.3,19.47S368.68,659.18,350,634s-38.95-34.08-43.82-43-4.87,1.62-4.87,4.06-4.87-10.55-15.42-28.4-10.55-25.15-13-44.63S238,466,234,440.08,234.79,374.36,234.79,374.36Z"/><path class="cls-5" d="M272.93,522c2.43,19.47,2.43,26.78,13,44.63s15.42,30.84,15.42,28.4,0-13,4.87-4.06,25.16,17.85,43.82,43,22.72,31.65,22.72,31.65,4.06-26,7.3-19.47a47.16,47.16,0,0,1,4.06,10.55s45.44-34.89,54.37-57.61,22.72-52.74,14.61-43-17,17.85-13.8,10.55,61.67-77.09,69.79-112,4.87-34.08,4.87-34.08-18.66,18.66-16.23,8.11,3.25-28.4-4.06-37.33a2.5,2.5,0,0,0-1-.62c.73,3.85,1,6.3,1,6.3s-2.43,23.53-18.66,39.76S440.9,477.41,422.24,488s-125,17-125,17S278.61,488.77,275.37,466s-26.78-35.7-27.59-48.69-1.62-15.42-1.62-15.42,8.93,12.17,6.49,4.87c-.69-2.08-2-5.93-3.55-10.74-4-2.76-7.67-6.24-9.44-10.36l-4.87-11.36s-4.87,39.76-.81,65.73S270.5,502.57,272.93,522Z"/><path class="cls-6" d="M246.15,401.95s.81,2.43,1.62,15.42,24.34,26,27.59,48.69S297.27,505,297.27,505s106.3-6.49,125-17,36.52-34.89,52.75-51.12,18.66-39.76,18.66-39.76-.25-2.45-1-6.3a96.77,96.77,0,0,0-8-24.53c-7.3-14.61-3.25-30.84,3.25-37.33s8.93,8.93,15.42,15.42-6.49-17.85-11.36-34.08-2.43-18.66-8.93-37.33-18.66-30-30.83-42.2-39.76-4.87-43.82-1.62.81-6.49.81-6.49l-8.93,4.06c-8.93,4.06-14.61,30-16.23,43.82s-23.53,28.4-34.08,21.1-11.36-19.47-10.55-36.52a103.78,103.78,0,0,0-3.25-30.83,76.58,76.58,0,0,0-.81,11.36c0,6.49-4.87,1.62-6.49-5.68s-16.23-23.53-49.5-4.87-37.33,74.65-34.89,98.19,1.62,16.23-1.62,31.65c-2.32,11,2.42,29.12,6.19,41.19,1.5,4.8,2.85,8.66,3.55,10.74C255.08,414.12,246.15,401.95,246.15,401.95Z"/><path class="cls-6" d="M280.23,211.25c5.68-8.11,25.15-26.78,54.37-33.27s26.78,5.68,26.78,5.68,2.43,44.63,10.55,34.08,15.42-31.65,28.4-31.65,38.14,5.68,51.12,23.53S475,241.28,472.55,234s-20.29-56.8-40.57-65.73l-4.69-2.09c-17.94-8-31.93-14.57-52.11-10.09-16.58,3.68-31.77,4.12-47.67,9.39a90.45,90.45,0,0,0-15.62,6.84C290,184.48,274.55,219.37,280.23,211.25Z"/><path class="cls-6" d="M221.81,298.08S238,234,266.44,197.46s51.93-39.76,47.88-43.82-22.72-28.4-33.27-51.93S214.51-5.4,193.41.28s-21.1,123.34-17,145.25,13,37.33,8.11,50.31,9.74,37.33,18.66,47.06,5.68,19.47.81,15.42l-4.87-4.06a23.35,23.35,0,0,0,6.49,17c7.3,7.3,11.36,17,4.87,13.79s-7.3-4.87-7.3-4.87,7.14,16,14.79,18.12A5.57,5.57,0,0,0,221.81,298.08Z"/><path class="cls-6" d="M491.21,211.25c5.68,27.59,41.38,77.9,44.63,90.88,3,11.8,2.55,18.24,7.33,13.21.48-.5,1-1.11,1.6-1.85,6.49-8.11,15.42-27.59,15.42-27.59s-7.3-10.55-.81-14.61,24.34-34.89,29.21-56.8,21.1-45.44,26-87.64S624.29,36.79,604,28.68s-51.93,21.1-70.6,45.44-57.61,70.6-62.48,73.84-19.47,16.23-19.47,16.23S485.53,183.66,491.21,211.25Z"/><path class="cls-7" d="M378,548.82c1.67-1,13.39,1.83,17-15.21s11-25,18.26-31,50.51-75.47,49.9-88.25-12.78-6.69-25.56,11-11.77,32.86-43,48.08-86.62,0-86.62,0-12.17-1.83-18.87-11.56-9.74-26.17-11-19.47,6.69,35.91,16.43,51.73S373.75,551.25,378,548.82Z"/><path class="cls-8" d="M308,473.35s19.27,7.3,34.69-2.43c0,0,26,15.42,51.93,2.43,0,0,7.3,47.88-13.79,78.71s-47.88,26.78-68.16,8.11-17.85-56.8-12.17-66.54A68.68,68.68,0,0,0,308,473.35Z"/><path class="cls-7" d="M335,463.62c-1.18-.3-28.4-6.9-38.14-29.21s-.81-36.11,19.88-39.36,58.42.81,67.76,13,.81,23.94-11,38.14S338.25,464.43,335,463.62Z"/><path class="cls-7" d="M465.25,286.72s-8.52-15.42-21.91-13.79-18.66,13.39-9.33,25.56S462.81,301.73,465.25,286.72Z"/><path class="cls-7" d="M266.19,274.55s8.52-15.42,21.91-13.79,18.66,13.39,9.33,25.56S268.63,289.56,266.19,274.55Z"/><circle class="cls-9" cx="281.25" cy="271.5" r="4.26"/><circle class="cls-9" cx="292" cy="279.01" r="2.84"/><circle class="cls-9" cx="442.52" cy="283.88" r="4.26"/><circle class="cls-9" cx="453.28" cy="291.38" r="2.84"/><path class="cls-10" d="M502.57,226.67s0,11.36,11.36,9.74,14.61-1.62,14.61-1.62S526.1,247,531,244.52s11.36-.81,17.85-11.36,8.93-11.36,8.93-11.36-2.43,14.61,0,11.36,3.25-8.93,2.43-27.59,38.14-116,22.72-111.17-45.44,35.7-58.42,53.56-29.21,34.89-21.1,34.08,21.91-7.3,21.91-7.3-10.55,9.74-19.47,15.42-7.3,13,0,10.55a48.63,48.63,0,0,1,13.79-2.43s-13,4.06-13,8.93,12.17,4.06,20.29-.81,10.55-5.68,10.55-5.68S519.61,222.61,502.57,226.67Z"/><path class="cls-10" d="M255.89,191.78c2.18,1.09-4.06-1.62-8.11-16.23l-4.06-14.61s8.93,13,8.11,2.43-6.49-21.1-6.49-21.1,13,13,10.55,2.43-11.36-33.27-30-61.67-21.1-45.44-26.78-28.4,0,83.58,4.87,115.23,19.47,50.31,21.1,43S222.62,195,222.62,195s10.55,17,11.36,5.68-16.23-38.14-16.23-38.14,17.85,26,21.91,29.21S238,179.61,238,179.61A91.83,91.83,0,0,0,255.89,191.78Z"/></g></g></svg>