<svg xmlns="http://www.w3.org/2000/svg" viewBox="0 0 849.48 1744.16"><defs><style>.cls-1,.cls-6{fill:none;}.cls-2{fill:#261d1f;}.cls-3{fill:#121111;}.cls-4{fill:#020202;}.cls-5{fill:#0d0c0c;}.cls-6{stroke:#020202;stroke-linecap:round;stroke-linejoin:round;stroke-width:0;}.cls-7{fill:#c98496;}.cls-8{fill:#fff;}</style></defs><title>BELGIAN SHEPHERD</title><g id="Layer_2" data-name="Layer 2"><g id="Layer_1-2" data-name="Layer 1"><path class="cls-1" d="M809.44,447.75c-11.39-12.81-9.14,7.1-5,33.61C810.64,468.64,815.32,454.37,809.44,447.75Z"/><path class="cls-1" d="M406.61,232.21s-10.41-14.86-44.59,0c-10.39,4.52-14.87,14.12-16.08,25.29a134.74,134.74,0,0,1,33.92-14.88Z"/><path class="cls-1" d="M321.89,318.43c-6.32.7-10.64,15.65-13.45,31.24C319.35,333.55,328.55,317.69,321.89,318.43Z"/><path class="cls-2" d="M671.2,138.57c-11.89,16.35-20.81,13.38,7.43,8.92,11.88-1.88,24.81,1.25,35.8,5.5a252.14,252.14,0,0,0-4.09-34.89C699,120.92,679.43,127.25,671.2,138.57Z"/><path class="cls-2" d="M714.63,163c-5.57-.37-12.09-.61-19.65-.61-32.7,0-34.19,19.32,11.89,25.27,1.7.22,3.31.49,4.87.79l.08-.29C713.68,181.45,714.56,172.7,714.63,163Z"/><path class="cls-2" d="M675.7,125.17c11.94-7.33,25.56-9,34.23-9.2q-.52-2.6-1.08-5.14C705.64,96.35,690.82,108.56,675.7,125.17Z"/><path class="cls-2" d="M480.94,202.49c11.89-4.46,0-25.27-25.27-47.57a44.75,44.75,0,0,0-5.2-3.94c-1,7.06-2,14.56-2.82,22.1C464.22,182.12,471,206.2,480.94,202.49Z"/><path class="cls-2" d="M452.94,136.35c10.95,2.59,22,7.31,31,15.59,20.81,19.32,19.32,1.49,4.46-22.3A77.24,77.24,0,0,0,463,104.84c-2.23,4-4.48,9.85-6.84,17.88C455,126.63,453.94,131.26,452.94,136.35Z"/><path class="cls-2" d="M463.1,230.73c17.84-3,8.92-16.35-4.46-34.19A43.77,43.77,0,0,0,446.31,186c-1.29,13.51-2.25,26.42-2.91,36.39C449.81,227.73,455.84,231.94,463.1,230.73Z"/><path class="cls-2" d="M467.22,99.22a47.56,47.56,0,0,1,23.44,14.15,28.64,28.64,0,0,0-3.77-5.53C479,99.36,473,94.23,467.22,99.22Z"/><path class="cls-3" d="M446.75,1503.11c-1.49-8.92-20.81-5.95-20.81-5.95s-3.73-15.74-6.81-32.78c-6-2.46-10.83-4-14-4.38-25.27-3-80.27,41.62-102.56,59.46-9.39,7.52-22.74,10.54-35,11.53.67,23.34,9.78,37.53,9.78,37.53a93.9,93.9,0,0,1,5.95-19.32c4.46-10.41,10.41,23.78,10.41,23.78s40.13-8.92,4.46,8.92-55,35.67-55,35.67,26.76,0,17.84,4.46-63.92-3-63.92-3,58,29.73,118.91,22.3,86.21-19.32,105.54-17.84-41.62,19.32-41.62,19.32,38.65,4.46,80.27-19.32a65.92,65.92,0,0,0,16.66-13.42c-1-12.69-1.91-23.66-3.28-31.17C467.56,1546.22,448.23,1512,446.75,1503.11Z"/><path class="cls-4" d="M643,1309.88c7.43-35.67-14.86,47.57-14.86,47.57s-7.43-84.73,4.46-108.51-16.35,10.41-20.81,10.41,0,0,28.24-56.48,43.11-135.27,41.62-154.59-8.92-22.3-14.86,31.22S653.36,1136,653.36,1136s-1.49-5.95,1.49-20.81-4.46-4.46-25.27,40.13S582,1198.39,582,1198.39s5.95-20.81,11.89-38.65,1.49-22.3-10.41,4.46-22.3,28.24-22.3,28.24,1.49-46.08-11.89-14.86,37.16,310.66,46.08,382c37.16,19.32,60.94,22.3,63.92-5.95s-37.16-59.46-63.92-77.29-1.49-31.22,1.49-25.27l3,5.95s14.86-17.84,19.32-31.22,7.43-5.95,7.43-1.49,14.86,0,28.24-44.59l.37-1.21c-4.18,4.08-7.8,19-7.8,19S635.52,1345.55,643,1309.88Z"/><path class="cls-4" d="M405.13,1460c3.18.37,8,1.92,14,4.38-2.76-15.25-5-31.55-3.6-38.57,3-14.86-25.27-31.22-25.27-31.22s4.46-7.43,5.95-29.73-10.41-3-10.41-3-11.89-62.43-8.92-87.7-10.41,1.49-10.41,1.49-10.41-37.16-8.92-63.92-13.38-7.43-13.38-7.43,8.92-13.38,11.89-44.59-11.89,11.89-11.89,11.89-10.41-65.4-1.49-83.24-11.89-29.73-11.89-29.73,7.43,1.49,17.84-1.49-47.57-87.7-60.94-227.42A590.62,590.62,0,0,1,285.48,747c-28.89,25.46-64.24,87-61.7,85.69,3-1.49,26.76-28.24,17.84-8.92s-10.41,20.81-29.73,44.59-10.41,52-10.41,52,16.35-25.27,11.89-7.43-28.24,47.57-28.24,47.57,22.3-13.38,16.35,1.49,7.43,40.13-22.3,66.89c-21.33,19.2-41.89,42.22-51.81,65.77,38.89-21.39,73.53-6.72,102.35,4.09,35.67,13.38,74.32,78.78,83.24,111.48,0,0,19.32,20.81,16.35,92.16S290.67,1411,290.67,1411s10.41-31.22-1.49-25.27-4.46,20.81-28.24,55-50.54,29.73-50.54,29.73,26.76-11.89,14.86-16.35-40.13,16.35-28.24,29.73c10.07,11.33,41.48,22.67,56.27,47.57a136,136,0,0,0,14.22-.37c12.31-1,25.66-4,35-11.53C324.86,1501.62,379.86,1457,405.13,1460Z"/><path class="cls-5" d="M843.62,1691.89c-19.32-23.78-59.46-117.43-65.4-150.13s4.46-225.94,7.43-288.37,8.92-165,4.46-200.67S836.19,861,833.22,828.27s4.46-17.84,4.46-17.84,0-23.78-5.95-43.11,5.95-8.92,5.95-8.92-4.46-41.62-14.86-69.86,11.89-4.46,11.89-4.46,3-38.65-14.86-63.92c-9.25-13.11-20.51-31-35.42-46.24-6.8,27.47-24,58.13-24,58.13s0-5.95,1.49-20.81-4.46,1.49-35.67,44.59-72.84,63.92-72.84,63.92,0-4.46,5.95-16.35-4.46-8.92-14.86,3-52,23.78-52,23.78,5.95-5.95,13.38-20.81-8.92-5.95-17.84,1.49S527,727.2,527,727.2s11.89-26.76,5.95-23.78-32.7,14.86-32.7,14.86,1.49-14.86-3-28.24-13.38,26.76-13.38,26.76A192.14,192.14,0,0,0,472,679.63c-8.92-20.81-13.38,3-13.38,3s-26.76-28.24-34.19-46.08S412.56,644,412.56,644s-7.43-11.89-25.27-34.19S360.53,574.09,359,563.69s-10.41,13.38-10.41,13.38-4.76-10.21-8.77-21.42c-6.69,8.4-12.87,17.12-16.5,24.4-8.17,16.35-33.77,74.9-37.89,167a590.62,590.62,0,0,0,2.22,82.72c13.38,139.72,71.35,224.45,60.94,227.42s-17.84,1.49-17.84,1.49,20.81,11.89,11.89,29.73,1.49,83.24,1.49,83.24,14.86-43.11,11.89-11.89-11.89,44.59-11.89,44.59,14.86-19.32,13.38,7.43,8.92,63.92,8.92,63.92,13.38-26.76,10.41-1.49,8.92,87.7,8.92,87.7,11.89-19.32,10.41,3-5.95,29.73-5.95,29.73,28.24,16.35,25.27,31.22c-1.4,7,.84,23.32,3.6,38.57,3.08,17,6.81,32.78,6.81,32.78s19.32-3,20.81,5.95,20.81,43.11,26.76,75.81c1.37,7.51,2.26,18.48,3.28,31.17,3.42,42.53,8.23,104.42,36.85,120.45,37.16,20.81,101.08,7.43,102.56-16.35s-11.89-83.24-20.81-154.59-59.46-350.8-46.08-382,11.89,14.86,11.89,14.86,10.41-1.49,22.3-28.24,16.35-22.3,10.41-4.46S582,1198.39,582,1198.39s26.76,1.49,47.57-43.11,28.24-55,25.27-40.13-1.49,20.81-1.49,20.81,7.43-3,13.38-56.48,13.38-50.54,14.86-31.22-13.38,98.1-41.62,154.59-32.7,56.48-28.24,56.48,32.7-34.19,20.81-10.41-4.46,108.51-4.46,108.51,22.3-83.24,14.86-47.57,4.46,87.7,4.46,87.7,3.61-15,7.8-19c2.92-2.85,6.11-.41,8.55,16.07,5.95,40.13,19.32,181.34,32.7,251.21s52,80.27,93.65,95.13S862.95,1715.67,843.62,1691.89Z"/><path class="cls-4" d="M452.94,136.35c1-5.1,2.07-9.72,3.22-13.64,2.36-8,4.61-13.83,6.84-17.88a66.92,66.92,0,0,0-13.28-6.4,41.45,41.45,0,0,1,17.5.79c5.76-5,11.78.14,19.66,8.63a28.64,28.64,0,0,1,3.77,5.53,68.49,68.49,0,0,1,11.09,16.27c19.32,38.65,11.89,22.3,8.92-17.84s-34.19-89.19-34.19-89.19l17.84,20.81A93.78,93.78,0,0,1,515.12,88l-3.6-30.61c-1.23-3.1-2.5-6.11-3.83-9C486.88,2.81,474-4.13,457.15,1.82S417.51,77.13,415.53,92s-11.89-1-11.89-1a48.1,48.1,0,0,0-4,19.82c0,11.89-7.93,2-7.93,2s-5.95,10.9-5,23.78c.27,3.48.46,6.66.5,9.41.08-.06,13.41-10.4,28.23-11.89A118.09,118.09,0,0,1,452.94,136.35Z"/><path class="cls-4" d="M443.41,222.41c.66-10,1.61-22.88,2.91-36.39-15.32-9.33-36.89-14.44-44.61-14.88-3.07.43-4.09.65-2.52.12a8,8,0,0,1,2.52-.12,174.63,174.63,0,0,1,34.64-1.36,26.55,26.55,0,0,1,11.3,3.3c.83-7.54,1.77-15,2.82-22.1-25.5-16.61-63-5-63.17-5,.12,7.41-.85,11.58-4.47,9.42-5-3-17.84-27.75-17.84-27.75s2,24.77,11.89,34.68,22.79,20.81,5,13.87-35.67-1-35.67-1,45.58,11.89,36.67,15.86-18.83,2-25.77,11.89-9.91,14.86-9.91,14.86S363,201,378.87,205a68.66,68.66,0,0,1,10.1,3.56,95.32,95.32,0,0,1,19.13-3.06C424,204.58,434.08,214.67,443.41,222.41Z"/><path class="cls-4" d="M635.52,137.08C640,149,638.5,119.25,665.25,94s55-26.76,55-26.76-17.84,10.41-40.13,29.73-29.73,32.7-31.22,41.62,7.43-1.49,26.76-13.38l0,0c15.12-16.61,29.94-28.82,33.15-14.34q.56,2.54,1.08,5.14a66.52,66.52,0,0,1,8.83.31s-3.39.57-8.42,1.82A252.14,252.14,0,0,1,714.44,153a140.94,140.94,0,0,1,26.63,13.82s-7.92-2.63-26.43-3.85c-.07,9.74-1,18.49-2.8,25.16l-.08.29c21.5,4.09,30.13,15.21,33.48,24.82,9.18-3.85,20.48-4.07,30.59-3a40.11,40.11,0,0,1,6.37-3.3c20.49-8.38,23.47-8,23.76-7.94-.55-.18-15.08-4.85-27.72,0-12.88,5-9.91-4,8.92-11.89s25.77-9.91,25.77-9.91-31.71-2-47.57,5,12.88-7.93,20.81-19.82l7.93-11.89s-14.86,15.85-25.76,20.81,5.95-15.85,13.87-25.77l7.93-9.91s-23.78,6.94-29.73,10.9,15.85-15.86,15.85-15.86-11.89,4-11.89-10.9-3-19.82-3-19.82-2,17.84-5.95,11.89S748.49,94,748.49,94s0,14.86-4,7.93-13.87-82.25-39.64-87.2c-19.66-3.78-40.47,22.45-56.71,58.86a113.91,113.91,0,0,1-2.25,13C640,111.81,631.06,125.19,635.52,137.08Z"/><path class="cls-6" d="M806,199h0"/><path class="cls-4" d="M737.09,218.08c-5.72-5.05-13.33-9.61-21.3-8.16C699.7,212.84,716.72,233,737.09,218.08Z"/><path class="cls-3" d="M359,563.69c1.49,10.41,10.41,23.78,28.24,46.08S412.56,644,412.56,644s4.46-25.27,11.89-7.43,34.19,46.08,34.19,46.08,4.46-23.78,13.38-3a192.14,192.14,0,0,1,11.89,37.16s8.92-40.13,13.38-26.76,3,28.24,3,28.24S527,706.39,533,703.41,527,727.2,527,727.2s52-8.92,60.94-16.35,25.27-16.35,17.84-1.49-13.38,20.81-13.38,20.81,41.62-11.89,52-23.78,20.81-14.86,14.86-3-5.95,16.35-5.95,16.35S695,699,726.2,655.85s37.16-59.46,35.67-44.59-1.49,20.81-1.49,20.81,17.24-30.66,24-58.13a81.8,81.8,0,0,0,2.72-19.16c0-29.73,0-34.19,5.95-25.27s7.43,13.38,7.43,13.38,6.83-22.76,5.55-47.37c8.68-8.41,17.52-23.07,16.75-47.76-1.49-47.57,4.46-63.92,7.43-49.05S836.19,424,836.19,424,846.6,395.72,825.79,360,793.09,314,805,324.37s25.27,22.3,25.27,22.3S819.84,315.45,799,293.16s-16.35-28.24-1.49-14.86,20.81,13.38,20.81,13.38-14.86-25.27-35.67-37.16,29.73-4.46,29.73-4.46-14.86-17.84-38.65-22.3S802,215.86,802,215.86a133.51,133.51,0,0,0-26.19-5.62c-10.11-1.08-21.41-.86-30.59,3-3.35-9.61-12-20.73-33.48-24.82-1.56-.3-3.17-.57-4.87-.79-46.08-5.95-44.59-25.27-11.89-25.27,7.56,0,14.08.24,19.65.61,18.51,1.22,26.43,3.85,26.43,3.85A140.94,140.94,0,0,0,714.44,153c-11-4.25-23.92-7.37-35.8-5.5-28.24,4.46-19.32,7.43-7.43-8.92,8.23-11.32,27.84-17.64,39.15-20.47,5-1.26,8.42-1.82,8.42-1.82a66.52,66.52,0,0,0-8.83-.31c-8.67.2-22.3,1.87-34.23,9.2l0,0c-19.32,11.89-28.24,22.3-26.76,13.38s8.92-22.3,31.22-41.62,40.13-29.73,40.13-29.73S692,68.71,665.25,94,640,149,635.52,137.08s4.46-25.27,10.41-50.54a113.91,113.91,0,0,0,2.25-13A123,123,0,0,0,647.42,39s-3,31.22-17.84,60.94-3-19.32-3-19.32-13.38,20.81-14.86,43.11S593.9,85.06,593.9,85.06s0,28.24,7.43,47.57,11.89,35.67,1.49,19.32-26.76-44.59-26.76-44.59,10.41,35.67,16.35,56.48-22.3,35.67-25.27,16.35-11.89-46.08-11.89-46.08-3,32.7-7.43,22.3,3-16.35-4.46-41.62-11.89-32.7-11.89-32.7,3,49.05-1.49,31.22,0-34.19-10.41-55L509.18,37.49l2.34,19.93L515.12,88a93.78,93.78,0,0,0-20.81-44.59L476.48,22.63s31.22,49.05,34.19,89.19,10.41,56.48-8.92,17.84a68.49,68.49,0,0,0-11.09-16.27,47.56,47.56,0,0,0-23.44-14.15,41.45,41.45,0,0,0-17.5-.79,66.92,66.92,0,0,1,13.28,6.4,77.24,77.24,0,0,1,25.37,24.81c14.86,23.78,16.35,41.62-4.46,22.3-8.92-8.28-20-13-31-15.59a118.09,118.09,0,0,0-37.41-2.24c-14.82,1.48-28.16,11.82-28.23,11.89h0c.15,0,37.66-11.63,63.17,5a44.75,44.75,0,0,1,5.2,3.94c25.27,22.3,37.16,43.11,25.27,47.57-9.9,3.71-16.72-20.37-33.29-29.41a26.55,26.55,0,0,0-11.3-3.3,174.63,174.63,0,0,0-34.64,1.36c7.73.44,29.3,5.55,44.61,14.88a43.77,43.77,0,0,1,12.33,10.51c13.38,17.84,22.3,31.22,4.46,34.19-7.26,1.21-13.29-3-19.69-8.32-9.33-7.74-19.44-17.83-35.3-17A95.32,95.32,0,0,0,389,208.52c-20,5.33-38,17.12-44.79,34.1-1.88,4.69-2.36,10.71-2,17.27-2.33,1.55-4.66,3.22-6.95,5-20.81,16.35-19.32,26.76-19.32,26.76s29.73-23.78,22.3-13.38S313,294.64,302.56,318.43c-5.4,12.33-4.79,29.85-3,43.87-8,11.15-14.87,20-14.87,20a93.89,93.89,0,0,1,16-12.55c1.57,9.16,3.32,15.52,3.32,15.52s.53-7.82,1.78-18.11c4.92-2.06,9.71-2.62,13.08.27,10.41,8.92-10.41,7.43-17.84,38.65s-8.92,38.65-8.92,38.65,32.7-35.67,23.78-20.81-17.84,53.51-17.84,53.51,14.86-28.24,19.32-19.32-5.95,26.76-5.95,26.76,11.89-13.38,8.92-1.49,0,34.19,0,34.19,13.38-14.86,11.89-4.46-10.41,26.76-10.41,26.76,10.41-14.86,13.38,0a118.23,118.23,0,0,0,4.61,15.74c4,11.21,8.77,21.42,8.77,21.42S357.56,553.28,359,563.69ZM809.44,447.75c5.89,6.62,1.21,20.89-5,33.61C800.29,454.85,798,434.93,809.44,447.75ZM715.79,209.92c8-1.45,15.59,3.11,21.3,8.16C716.72,233,699.7,212.84,715.79,209.92ZM308.44,349.66c2.81-15.59,7.14-30.53,13.45-31.24C328.55,317.69,319.35,333.55,308.44,349.66ZM362,232.21c34.19-14.86,44.59,0,44.59,0l-26.76,10.41a134.74,134.74,0,0,0-33.92,14.88C347.15,246.33,351.63,236.73,362,232.21Z"/><path class="cls-3" d="M399.18,171.27c-1.57.52-.55.31,2.52-.12A8,8,0,0,0,399.18,171.27Z"/><path class="cls-5" d="M197,1483.79c-11.89-13.38,16.35-34.19,28.24-29.73s-14.86,16.35-14.86,16.35,26.76,4.46,50.54-29.73,16.35-49.05,28.24-55,1.49,25.27,1.49,25.27,35.67-37.16,38.65-108.51S313,1210.28,313,1210.28c-8.92-32.7-47.57-98.1-83.24-111.48-28.82-10.81-63.46-25.48-102.35-4.09a127.31,127.31,0,0,0-28.46,21.93c-50.54,50.54-50.54,90.67-50.54,90.67l5.95-8.92c5.95-8.92,19.32-5.95-4.46,29.73s-28.24,102.56-31.22,107,7.43-8.92,16.35-16.35S20.14,1353,8.25,1408,.82,1497.17.82,1497.17l7.43-16.35c7.43-16.35-1.49,29.73-4.46,34.19s86.21,0,129.32,37.16,81.75,55,104.05,50.54,31.22-20.81,22.3-56.48a55.16,55.16,0,0,0-6.16-14.86C238.51,1506.46,207.1,1495.12,197,1483.79Z"/><path class="cls-5" d="M497.72,620.17C496,618.51,466,581.53,462.17,557s-17-23-18.54-23.78,9.27,4.46-.77-32.7-13.91-56.48-17-49.05a99.73,99.73,0,0,0-4.64,14.12s-10-43.85.77-68.38,9.27-46.08,3.09-40.88l-6.18,5.2s-5.41-75.81,23.18-103.31,33.23-39.39,33.23-39.39,7.73,3.72,13.14-6.69,40.18-31.22,40.18-31.22-7.73,14.86-3.86,14.86,17-11.89,17-11.89,8.5,26.76,15.45,18.58,10.82-15.61,11.59-13.38,12.36,19.32,21.64,17.09,15.45-11.15,15.45-11.15,17,29.73,27,26.76,17-4.46,17-4.46,3.86,26,12.36,20.81S675.44,224,675.44,224s1.55,19.32,5.41,30.47,17.77,14.86,24,33.44,10,32.7,10,32.7-17-13.38-8.5-2.23,23.18,23,27.82,43.11,4.64,40.88,5.41,38.65-4.64-26.76-4.64-4.46-7,42.36-22.41,56.48-16.23,43.85-16.23,43.85,2.32-28.24-6.18-5.2-17,46.08-30.91,66.15-29.36,49.05-29.36,57.23,10,39.39-27,63.17-81.13,7.43-91.18-9.66S508.53,630.58,497.72,620.17Z"/><path class="cls-3" d="M624.38,386.8c-2-3.19-12.63-18.58-3-40.88S634,320.66,634,320.66s-2.23,10.41,6.69,3S669,319.91,669,319.91s-15.61,4.46-8.18,6.69,19.32,21.55,19.32,21.55-10.41-3-5.95,1.49,10.41,17.84,10.41,17.84-10.41-2.23-20.81,11.15-29,8.18-28.24,15.61S631.06,397.21,624.38,386.8Z"/><path class="cls-3" d="M521.81,375.65c2.23-2.23,8.92-3.72,5.95-29.73s-16.35-39.39-16.35-39.39,10.41,17.09-1.49,8.18-32-6.69-29.73-5.95,20.81,12.63,8.18,11.89-32,17.09-29,23,7.43,24.53,24.53,30.47,26.76,4.46,30.47,11.15S521.81,375.65,521.81,375.65Z"/><path d="M522.06,590.94s-8.42,2.48-20.81-13.87-17.84-38.65-20.81-31.71,12.88,40.13,23.29,50,13.87,17.84,14.86,32.21,13.87,41.12,41.62,44.59,42.61-9.91,49.55-25.27,7.93-26.26,13.87-34.68a422.68,422.68,0,0,0,25.27-39.64c10.9-19.32,16.85-41.62,11.4-34.68s-10.41,31.22-27.75,44.59-23.29,13.38-23.29,13.38l-57,15.36Z"/><path class="cls-7" d="M522.06,590.94s1,31.71,8.92,46.57,42.61,25.27,56.48,16.85,21.8-58.47,21.8-58.47-31.22,3-41.12-2C568.14,593.91,536.92,602.83,522.06,590.94Z"/><path class="cls-8" d="M536.92,630.58S531,611.25,526,612.74s-1,17.84,3,28.74,18.33,23.29,44.59,20.81,31.22-15.36,36.17-31.71,4-19.82-1-14.86-10.9,15.36-14.37,20.81-9.91,9.91-9.91,9.91-5.95-2.48-9.41,2.48c0,0-6.94-2.48-10.41,0,0,0-3.47-5.45-10.41-2.48,0,0-4.46-6.44-9.41-4.46,0,0-5-2-6.94-4S538.41,632.06,536.92,630.58Z"/><path d="M561.2,578.55c-3.45-.33-24.77-2.48-32.7-20.81s-6.94-38.65,17.34-44.1,56,2,65.9,13.38,7.43,24.28-4.46,35.67S576.56,580,561.2,578.55Z"/><path d="M673.18,357.07s-6.94-13.87-22.3-15.36S630.07,368,636.52,375.41,667.23,377.88,673.18,357.07Z"/><path d="M472.33,353.11s6.94-13.87,22.3-15.36S515.44,364,509,371.44,478.28,373.92,472.33,353.11Z"/><circle class="cls-8" cx="489.11" cy="348.9" r="5.2"/><circle class="cls-8" cx="498.77" cy="361.04" r="2.48"/><circle class="cls-8" cx="648.65" cy="353.85" r="5.2"/><circle class="cls-8" cx="658.32" cy="365.99" r="2.48"/></g></g></svg>