<svg xmlns="http://www.w3.org/2000/svg" viewBox="0 0 1038.63 1730.51"><defs><style>.cls-1{fill:#eedfd9;}.cls-2{fill:#472915;}.cls-3{fill:#e5d1ca;}.cls-4{fill:#372012;}.cls-5{fill:#645a57;}.cls-6{fill:#fff;}</style></defs><title>BORDER COLLIE 1</title><g id="Layer_2" data-name="Layer 2"><g id="Layer_1-2" data-name="Layer 1"><path class="cls-1" d="M786.21,1447.5c2.64-17.13-2.51-3.15-3.95,10.38,1.2.42,2.46.84,3.78,1.26A39.58,39.58,0,0,1,786.21,1447.5Z"/><path class="cls-1" d="M940,1427c-36.37-4.51-84.08-35.52-120.71-64.7a62.25,62.25,0,0,1-8,10.18A124.42,124.42,0,0,1,797,1384.4c-3.73,14.45-7.27,27.6-7.27,36.31,0,11.8,2.71,28.46,5.14,41.06,18,5.08,43,11.19,70.39,22.86,53.73,22.88,173.58,52.5,173.32,11.42S981.08,1432.11,940,1427Z"/><path class="cls-2" d="M562.95,1561.81c-10.72,1.79-10.72-23.22-14.29-78.59-.77-12-.13-26.49,1.45-42.53-9.68-7.58-17.52-16.46-17.52-25.34,0-23.22-10.72-12.5-19.65,19.65s-39.29,53.58-39.29,53.58,8.93-23.22,16.07-44.65,3.57-66.08-25-23.22-76.8,44.65-76.8,44.65,7.14-8.93,33.94-33.94,19.65-80.37,8.93-60.73-46.44,55.37-46.44,55.37l14.29-28.58c10.72-21.43-7.14-12.5-32.15,28.58s-78.59,50-78.59,50,5.36-5.36,16.07-35.72,5.36-53.58-16.07-14.29-48.22,51.8-48.22,51.8,30.36-71.44,1.79-26.79c-9,14-21.32,26.13-35.07,36.11-3.79,55-6.37,98.71-13.16,110.34a26.2,26.2,0,0,0-1.81,3.79c28-25.31,62.39-26.06,59-3.79-3.57,23.22-44.65,23.22-44.65,23.22s25,10.72,60.73-16.07,57.15-17.86,44.65,1.79-44.65,30.36-44.65,30.36,37.51-7.14,58.94-19.65,30.36-44.65,28.58-30.36,0,48.22,0,48.22,30.36-50,60.73-37.51-21.43,32.15-21.43,32.15S454,1619,462.93,1608.25s3.57,25,3.57,25,25-25,48.22-33.94-23.22,26.79-23.22,26.79,5.36-3.57,46.44-23.22c11-5.25,20.56-14.34,28.84-24.76C566.59,1567.82,566,1561.3,562.95,1561.81Z"/><path class="cls-1" d="M107.5,1454.64c16.07-35.72-10.72,1.79-10.72,1.79s-5.36-58.94,14.29-85.73-23.22-8.93-23.22-8.93,5.36-7.14,26.79-57.15c2.4-5.6,4.71-11.4,7-17.35-18.79,4.27-39.27,14.85-48.55,39.78-19.32,51.92,14.81,83.85-6.53,98.28s-80,61.23-63.75,87.92c12.8,21,57.57,10.81,83.83,2.86a129.16,129.16,0,0,1-32.71-15S91.43,1490.37,107.5,1454.64Z"/><path class="cls-2" d="M697.11,1118.18c11.33,9.52,22.84,26.2,46.23,47.13,33.94,30.36,37.51,62.51,37.51,62.51l-7.14-10.72c-7.14-10.72-28.58-17.86,0,19.65,27,35.43,46,93.16,51.05,104,1,1.6,1.32,2.28.74,1.41a11.75,11.75,0,0,1-.74-1.41c-5-8.36-26.68-42.21-20.69-18.23,4.24,17-1.58,40.83-7,61.92a124.42,124.42,0,0,0,14.16-11.91,62.25,62.25,0,0,0,8-10.18c11.85-18.33,22.13-50.81,13.39-91.63-10.72-50-32.15-60.73-48.22-82.16s8.93-8.93,8.93-8.93-3.57-8.93-39.29-50c-26.43-30.39-43.08-33.41-50-32.92-3.22,9.91-5.42,16.85-5.42,16.85S698.13,1115.18,697.11,1118.18Z"/><path class="cls-2" d="M698.69,1113.51s.06-.35.12-1.06C698.73,1113.14,698.69,1113.51,698.69,1113.51Z"/><path class="cls-3" d="M561.16,1218.88c-5.36,21.44,2.79,62.83,10.17,92.5,3.78-19.91,7.21-38.23,9.48-53.21C589.74,1199.24,570.09,1183.16,561.16,1218.88Z"/><path class="cls-3" d="M797,1384.4c5.44-21.09,11.26-45,7-61.92-6-24,15.67,9.87,20.69,18.23-5-10.81-24.06-68.54-51.05-104-28.58-37.51-7.14-30.36,0-19.65l7.14,10.72s-3.57-32.15-37.51-62.51c-23.39-20.93-34.9-37.61-46.23-47.13-5.06,14.9-21.48,62.7-37.34,102.36-19,47.48-18.24,259.51-4.08,306.86a111.08,111.08,0,0,0,14.42,7.62c37.51,16.07,35.72,10.72,35.72,10.72s-19.65-19.65,7.14-12.5,62.51,7.14,62.51,7.14-21.43-41.08-1.79-28.58,25,14.29,25,14.29-12.5-42.87-16.07-55.37c-.94-3.28-.89-8-.38-12.84,1.44-13.53,6.58-27.51,3.95-10.38a39.58,39.58,0,0,0-.16,11.64c2.08,14.63,12.67,20.51,12.67,20.51s-1.8-7.59-3.79-17.88c-2.43-12.6-5.14-29.26-5.14-41.06C789.78,1412,793.32,1398.85,797,1384.4Z"/><path class="cls-3" d="M241.46,1451.07c28.58-44.65-1.79,26.79-1.79,26.79s26.79-12.5,48.22-51.8S314.69,1410,304,1440.36s-16.07,35.72-16.07,35.72,53.58-8.93,78.59-50,42.87-50,32.15-28.58l-14.29,28.58s35.72-35.72,46.44-55.37,17.86,35.72-8.93,60.73-33.94,33.94-33.94,33.94,48.22-1.79,76.8-44.65,32.15,1.79,25,23.22-16.07,44.65-16.07,44.65S504,1467.15,512.94,1435s19.65-42.87,19.65-19.65c0,8.88,7.84,17.76,17.52,25.34,3.52-35.89,11.7-79.29,19.1-118.14-9-19.62-20.73-49.43-25.9-80.45-8.93-53.58-14.29-16.07-33.94,21.43S404,1336.76,404,1336.76s64.3-30.36,91.09-89.3-19.65,12.5-39.29,30.36-48.22,37.51-48.22,37.51,33.94-25,39.29-53.58-21.43-10.72-46.44,16.07-60.73,50-60.73,50,46.44-44.65,53.58-64.3-37.51-48.22-58.94-5.36-1.79,105.38-1.79,105.38-33.94-44.65-26.79-92.88,53.58-105.38,33.94-94.66-42.87,75-42.87,75-10.72-53.58,12.5-83.94-17.86-33.94-25-14.29-17.86,78.59-17.86,78.59-8.93-37.51-1.79-64.3-25,60.73-42.87,169.68c-8.17,49.82-12.23,104.11-15.42,150.42C220.14,1477.2,232.47,1465.11,241.46,1451.07Z"/><path class="cls-3" d="M137.87,1347.48c-2-13.76-5.13-45.55-7.91-82.48-2.81,7.59-5.54,15-8.32,22.26-2.28,5.95-4.59,11.76-7,17.35-21.43,50-26.79,57.15-26.79,57.15s42.87-17.86,23.22,8.93-14.29,85.73-14.29,85.73,26.79-37.51,10.72-1.79-53.58,46.44-53.58,46.44a129.16,129.16,0,0,0,32.71,15,112.09,112.09,0,0,0,17.08,3.75C123.49,1453.46,141.45,1372.55,137.87,1347.48Z"/><path class="cls-3" d="M824.75,1340.71a11.75,11.75,0,0,0,.74,1.41C826.07,1343,825.72,1342.31,824.75,1340.71Z"/><path class="cls-1" d="M659.77,1220.54c15.86-39.66,32.29-87.46,37.34-102.36,1-3,1.58-4.67,1.58-4.67s0-.36.12-1.06c.46-4.93,1.42-27.6-12.63-77.53-16.07-57.15,8.93-132.17,8.93-132.17s12.5,42.87,8.93,12.5-12.5-46.44,3.57-80.37,37.51-57.15,39.29-105.38,3.57-58.94,3.57-58.94,9.31-7.31,4.55-40.65c-1.7-11.87-4-23.12-6.25-32.7-6.25,4.4-16.81,11.6-33,22-29.77,19.05-56,17.86-79.78,11.91-21.54-5.38-5.09,11.63,1.77,14.05,2,0,2.73,0,1.8.24a3.32,3.32,0,0,1-1.8-.24c-8.28-.17-38.75-1.74-68.46-29.53-26.72-25-39.71-60-43.95-80.1-.83-.26-1.67-.54-2.49-.87a16.32,16.32,0,0,1-6.11-4.11c-21.06,11.11-69.5,17.46-111.41-13.14-4,5.8-10.62,12.45-21.8,19.63-33.34,21.43-29.77,63.11-29.77,63.11s-19.05-16.67-23.82-36.91l-.24-1c-.74,3.1-1.58,6.17-2.53,9.18.17,4,.39,7.31.39,7.31s-.59-1.4-1.53-3.89a89.94,89.94,0,0,1-6,13.58c-1.06,1.94-2.1,3.85-3.08,5.72,1,16.41,5.44,38.47,18.92,63.18,28.58,52.39,29.77,90.5,29.77,90.5s-22.62-15.48-8.34,2.38,27.39,25,27.39,81c0,52.47-23,103.89-25.9,113.05.82-6.44,2.51-30.94-7.44-13-11.91,21.43,3.57,44.06-46.44,78.59s-82.16,56-92.88,91.69c-5.81,19.37-9.51,33.84-12.65,42.45-.29,12.26-2,22.87-6.17,30.33-17.85,32.14-39.28,42.86-53.57,19.64-9.39-15.26-13.38-56-13-97.33-5,30.32-1.38,106.6,3.28,168.46,2.78,36.94,5.95,68.72,7.91,82.48,3.58,25.07-14.38,106-34.15,172.36-9.81,32.94-20.07,62.3-28.36,79.47-25,51.8-30.36,103.59-12.5,125s85.73-17.86,112.52-42.87c25.28-23.59,7.63-58.31,16.05-80.16a26.2,26.2,0,0,1,1.81-3.79c6.79-11.63,9.36-55.37,13.16-110.34,3.2-46.31,7.25-100.6,15.42-150.42,17.86-108.95,50-196.47,42.87-169.68s1.79,64.3,1.79,64.3,10.72-58.94,17.86-78.59,48.22-16.07,25,14.29-12.5,83.94-12.5,83.94,23.22-64.3,42.87-75-26.79,46.44-33.94,94.66,26.79,92.88,26.79,92.88-19.65-62.51,1.79-105.38,66.08-14.29,58.94,5.36-53.58,64.3-53.58,64.3,35.72-23.22,60.73-50,51.8-44.65,46.44-16.07-39.29,53.58-39.29,53.58,28.58-19.65,48.22-37.51,66.08-89.3,39.29-30.36-91.09,89.3-91.09,89.3,85.73-35.72,105.38-73.23,25-75,33.94-21.43c5.17,31,16.92,60.84,25.9,80.45-7.4,38.85-15.58,82.25-19.1,118.14-1.57,16-2.22,30.57-1.45,42.53,3.57,55.37,3.57,80.37,14.29,78.59,3.07-.51,3.65,6,3.83,16.32.46,25.71-1.52,75,26.53,98,39.29,32.15,112.52,19.65,119.67,0s-42.87-101.81-57.15-148.24c0-.15-.09-.32-.14-.47C641.53,1480,640.78,1268,659.77,1220.54Zm-301-276.32c-.17,1.27-.3,1.83-.3,1.25A4.79,4.79,0,0,1,358.8,944.22Zm202.36,274.67c8.93-35.72,28.58-19.65,19.65,39.29-2.27,15-5.69,33.3-9.48,53.21C564,1281.72,555.8,1240.33,561.16,1218.88Z"/><path class="cls-2" d="M139.66,1193.87c14.29,23.22,35.72,12.5,53.57-19.64,4.14-7.45,5.88-18.06,6.17-30.33,3.13-8.61,6.83-23.08,12.65-42.45,10.72-35.72,42.87-57.16,92.88-91.69s34.53-57.16,46.44-78.59c10-17.91,8.26,6.58,7.44,13,2.87-9.16,25.9-60.59,25.9-113.05,0-56-13.1-63.11-27.39-81s8.34-2.38,8.34-2.38-1.19-38.1-29.77-90.5c-13.48-24.71-18-46.77-18.92-63.18,1-1.87,2-3.77,3.08-5.72a89.94,89.94,0,0,0,6-13.58c-3.49-9.28-11.82-33.87-12.76-59.22-1.19-32.15-1.19-51.2-6-34.53s-6,21.43-6,21.43-14.29-20.24-8.34-51.2S307.3,396.53,295.4,418s-19.05,22.62-19.05,22.62a68,68,0,0,1,5.82-33.2C242.57,438.2,229,490.17,229,490.17A78.53,78.53,0,0,0,245,488.38c7.14-1.79,16.08,5.36-3.57,21.43S218.23,558,218.23,558l14.29-8.93c14.29-8.93,14.29,3.57-8.93,26.79S193.23,633.06,195,627.7s26.79,0,10.72,12.5-28.57,39.3-28.57,39.3,19.64,10.72,23.21,26.79-17.85-1.79-17.85-1.79,5.35,28.57-12.5,62.5-29.62,76.45-28.58,82.16c1,5.56,0,0,3.57-8.93s5.36,7.14-5.36,42.87-14.29,121.45-14.29,121.45,5.36-16.08,14.29-35.72-1.79,12.5-8.93,66.09a519.67,519.67,0,0,0-4.05,61.62C126.27,1137.88,130.26,1178.62,139.66,1193.87Z"/><path class="cls-2" d="M327.15,571.41c.95-3,1.79-6.08,2.53-9.18C326.62,549.79,326.77,562.42,327.15,571.41Z"/><path class="cls-4" d="M746.7,192.9l-17.86,3.57c-17.86,3.57-16.67,23.82-6,13.1s39.3-1.19,39.3-1.19-7.14,2.38-21.43,10.72-19.05,21.43,2.38,14.29,56-1.19,56-1.19-10.72,1.19-33.34,8.34S721.69,257.21,751.46,256s38.1,17.86,38.1,17.86-8.34-7.14-19.05-3.57-36.91,4.76-27.39,15.48,9.53,17.86,11.91,21.43-4.76-3.57-8.34-4.76-16.67-8.34-7.14,6,15.48,35.72,16.67,39.3-16.67-17.86-31-23.82,6,19.05,6,19.05h-8.34c-8.34,0-14.29-1.19-23.82,35.72s-28.58,23.82-22.62,34.53,11.91,31,11.91,31l-6-3.57c-6-3.57-13.1-11.91-7.14,2.38s15.48,48.82,15.48,48.82l-15.48-16.67c-15.48-16.67-28.58-27.39-35.72-28.58s9.53,19.05,9.53,19.05-10.72-10.72-16.67-13.1-25,20.24-41.68,45.25c-16.09,24.14-42.17,44.94-65.38,37.79,4.23,20.12,17.23,55.1,43.95,80.1C599,643.42,629.45,645,637.73,645.16c-6.86-2.42-23.31-19.44-1.77-14.05,23.82,6,50,7.14,79.78-11.91,16.23-10.39,26.79-17.58,33-22,5.22-3.67,7.44-5.4,7.44-5.4s-16.67-27.39-2.38-14.29S770.51,599,770.51,599s9.53-53.58,1.19-88.12-4.76-45.25,2.38-33.34,7.14,9.53,7.14,11.91,6-31,0-48.82,19.05,9.53,19.05,9.53,8.34-14.29,4.76-31,15.48,1.19,15.48,1.19,3.57-8.34-6-25,0-14.29,9.53-9.53l9.53,4.76S830,381,825.29,370.33s13.1-25,32.15-9.53a44.36,44.36,0,0,1,16.67,36.91s7.14-22.62-4.76-48.82-6-26.2,6-10.72,13.1,23.82,11.91,19.05-8.34-31-15.48-41.68,20.24,7.14,23.82,10.72a59.75,59.75,0,0,1,7.14,9.53s-19.05-34.53-9.53-32.15S914.59,312,914.59,312s0-13.1-1.19-20.24,2.38-7.14,16.67-1.19l14.29,6s16.67,0,4.76-32.15-25-46.44-17.86-47.63,14.29-7.14,14.29-7.14-32.15-4.76-16.67-10.72c10-3.86,16-5.71,19-6.54-6.23,1.45-24.3,4.87-50,3-32.15-2.38-76.21-17.86-61.92-19.05s21.43-3.57,21.43-3.57-35.72-16.67-66.68-8.34S805,156,805,156s-17.86-6-36.91,0,1.19-13.1,1.19-13.1-9.53-3.57-20.24,3.57,7.14-14.29,7.14-14.29S725.26,156,711,175c-5.1,6.8-9.29,15.57-12.56,24C726.12,183.78,746.7,192.9,746.7,192.9Z"/><path class="cls-4" d="M947.92,192.32c1.57-.36,2.39-.61,2.39-.61S949.56,191.87,947.92,192.32Z"/><path class="cls-4" d="M639.53,645.4c.93-.23.21-.19-1.8-.24A3.32,3.32,0,0,0,639.53,645.4Z"/><path class="cls-4" d="M276.34,440.58s7.14-1.19,19.05-22.62S299,420.34,293,451.3s8.34,51.2,8.34,51.2,1.19-4.76,6-21.43,4.76,2.38,6,34.53c.94,25.35,9.27,49.94,12.76,59.22.94,2.49,1.53,3.89,1.53,3.89s-.22-3.29-.39-7.31c-.39-9-.54-21.62,2.53-9.18l.24,1c4.76,20.24,23.82,36.91,23.82,36.91s-3.57-41.68,29.77-63.11c11.18-7.19,17.79-13.83,21.8-19.63-1.32-1-2.63-2-3.94-3-46.44-36.91-21.43-108.36-21.43-108.36-6-13.1-7.14-64.3,17.86-133.37s69.06-94.07,86.93-100-27.39-14.29-31-14.29,20.24-4.76,42.87-1.19-25-31-29.77-34.53,0,0,17.86,4.76,20.24,9.53,31,14.29-8.34-17.86-8.34-17.86,9.53,9.53,28.58,15.48c13.89,4.34,25.24,15,30.38,20.47,13.67-15.84,10.68-26.37,12.49-30,2.38-4.76,0,0-10.72,2.38S551.41,131,565.7,116.7,577.61,81,577.61,81l-9.53,7.14c-9.53,7.14-9.53,6-13.1-6s-9.53-28.58-9.53-28.58-2.38,13.1-7.14,19.05-19.05-23.82-19.05-23.82,0,16.67-9.53,9.53S491.87,38.1,491.87,38.1s4.76,16.67-9.53-1.19S435.91,0,435.91,0l6,11.91c6,11.91-13.1-6-34.53-3.57s-47.63,0-63.11,10.72-19.05,19.05-2.38,31,10.72,14.29,19.05,29.77-25-16.67-25-16.67,1.19,14.29,15.48,34.53,16.67,31,8.34,29.77S343,129.79,343,129.79s27.39,11.91,21.43,23.82-20.24,6-20.24,6,14.29,9.53,4.76,9.53-33.34-6-33.34-6,3.57,1.19,13.1,13.1,32.15,16.67,21.43,17.86-22.62,2.38-22.62,2.38,38.1,1.19,23.82,7.14-34.53,21.43-34.53,21.43,28.58-10.72,47.63-8.34-2.38,3.57-34.53,26.2-35.72,56-35.72,56,19.05-31,39.3-48.82,38.1-6,9.53,13.1-41.68,58.35-41.68,58.35,6-2.38,17.86-17.86,35.72-13.1,13.1,8.34-27.39,52.39-27.39,52.39,8.34-2.38,17.86-13.1-7.14,19.05-28.58,39.3a54.56,54.56,0,0,0-12,16.81A68,68,0,0,0,276.34,440.58Z"/><path class="cls-2" d="M707.62,834.88c-16.07,33.94-7.14,50-3.57,80.37s-8.93-12.5-8.93-12.5-25,75-8.93,132.17c14,49.93,13.09,72.59,12.63,77.53-.07.71-.12,1.06-.12,1.06s2.19-6.94,5.42-16.85c3.91-12,9.34-28.39,14.23-42.09,8.93-25,5.36,30.36,5.36,30.36L738,1054.57c14.29-30.36,5.36-37.51,5.36-58.94s10.72,10.72,10.72,10.72,12.5-39.29,8.93-76.8,1.79-30.36,12.5-53.58,8.93-37.51,8.93-35.72-8.93,12.5-7.14-26.79-26.79-142.88-26.79-142.88-1.79,10.72-3.57,58.94S723.69,800.95,707.62,834.88Z"/><path class="cls-5" d="M358.8,944.22a4.79,4.79,0,0,0-.3,1.25C358.51,946.05,358.64,945.49,358.8,944.22Z"/><path class="cls-3" d="M436.25,472.53h0Z"/><polygon class="cls-3" points="434.5 470.6 434.5 470.61 434.5 470.61 434.5 470.6"/><path class="cls-3" d="M438.93,471.53l0,.16a.54.54,0,0,0,0-.1.87.87,0,0,0,0-.21Z"/><path class="cls-3" d="M526.4,182.19c-19.05,10.72-1.19,45.25-2.38,81s-58.35,69.06-97.64,94.07-46.44,48.82-46.44,48.82-25,71.45,21.43,108.36c1.3,1,2.62,2,3.94,3,41.91,30.6,90.35,24.25,111.41,13.14a15.9,15.9,0,0,1-3.62-7c-1.75-.39-3.48-.87-5.2-1.39-3.2-1-6.31-2.2-9.4-3.49a152.74,152.74,0,0,1-17.84-9.16,262.89,262.89,0,0,1-32.75-23c-2.56-2.17-5.08-4.38-7.52-6.75-1.22-1.19-2.41-2.41-3.57-3.78a16.6,16.6,0,0,1-1.7-2.36,6.65,6.65,0,0,1-.36-.73h0l-2.34.78c-1.59.53-3.2,1-4.82,1.51a96.92,96.92,0,0,1-9.84,2.32,137.22,137.22,0,0,1-20,2.15,91.43,91.43,0,0,1-10-.17c-3.32-.32-6.72-.68-9.78-2a19.75,19.75,0,0,0,4.88.71c1.64.1,3.29.07,4.93,0,3.29-.12,6.56-.41,9.82-.84A176.28,176.28,0,0,0,417,473.94q4.76-1.17,9.39-2.67c1.55-.51,3.07-1,4.61-1.62l2.35-.87c.41-.15.82-.29,1.29-.44a7.89,7.89,0,0,1,.82-.2,3.83,3.83,0,0,1,.57-.08,3.56,3.56,0,0,1,.37,0,4.24,4.24,0,0,1,.57.07,2.65,2.65,0,0,1,1.63,1.1l.16.25.09.2a3.34,3.34,0,0,1,.13.43,2.39,2.39,0,0,1,.07.64,3.21,3.21,0,0,1,0,.46,1.22,1.22,0,0,0,.11.2,12.66,12.66,0,0,0,1.24,1.65c1,1.15,2.13,2.29,3.29,3.4,2.34,2.22,4.82,4.36,7.34,6.44,5,4.22,10.24,8.23,15.53,12.13s10.7,7.68,16.15,11.37,11.07,7.1,16.87,10.19c2.89,1.57,5.84,3,8.85,4.36,1.5.66,3,1.29,4.55,1.86-3.65-17.09,11.58-46.8,20.63-70.32,11.91-31,11.91-51.2,20.24-85.74s10.72-42.87,7.14-71.45,33.34-69.06,64.3-94.07c10.73-8.67,22.6-11.47,33.54-11.43-11.91-3.12-50.41-15.83-68.07-23.1-6.65-2.74-14.83-4.31-22.83-5.2.91,1,1.39,1.63,1.39,1.63S545.46,171.47,526.4,182.19ZM439.08,452.09s-27.78-3.18-31.75-31,5.56-50,31.75-52.39,61.13,14.29,67.48,34.14-8.73,34.93-29.37,46S439.08,452.09,439.08,452.09Z"/><path class="cls-2" d="M625.24,201.24c-31,25-67.87,65.49-64.3,94.07s1.19,36.91-7.14,71.45-8.34,54.78-20.24,85.74c-9,23.52-24.27,53.23-20.63,70.32h0a40.05,40.05,0,0,0,4.72,1.51,35.91,35.91,0,0,1-4.57-.75,15.9,15.9,0,0,0,3.62,7,16.32,16.32,0,0,0,6.11,4.11c.83.33,1.66.62,2.49.87,23.21,7.15,49.29-13.65,65.38-37.79,16.67-25,35.72-47.63,41.68-45.25s16.67,13.1,16.67,13.1-16.67-20.24-9.53-19.05,20.24,11.91,35.72,28.58l15.48,16.67S681.2,457.25,675.25,443s1.19-6,7.14-2.38l6,3.57s-6-20.24-11.91-31,13.1,2.38,22.62-34.53,15.48-35.72,23.82-35.72h8.34s-20.24-25-6-19.05,32.15,27.39,31,23.82-7.14-25-16.67-39.3,3.57-7.14,7.14-6,10.72,8.34,8.34,4.76-2.38-10.72-11.91-21.43,16.67-11.91,27.39-15.48,19.05,3.57,19.05,3.57-8.34-19.05-38.1-17.86-8.34-8.34,14.29-15.48,33.34-8.34,33.34-8.34-34.53-6-56,1.19-16.67-6-2.38-14.29,21.43-10.72,21.43-10.72-28.58-9.53-39.3,1.19-11.91-9.53,6-13.1l17.86-3.57s-20.58-9.13-48.29,6.18c-.57.32-1.14.63-1.72,1,0,0-17.29-10.17-37.91-10.24C647.84,189.77,636,192.57,625.24,201.24ZM597.85,333s6.35-19.05,22.23-22.23,31,28.58,31,28.58S624,371.12,597.85,333Z"/><path class="cls-2" d="M535.93,139.32c-19.05-6-28.58-15.48-28.58-15.48s19.05,22.62,8.34,17.86-13.1-9.53-31-14.29-22.62-8.34-17.86-4.76,52.39,38.1,29.77,34.53-46.44,1.19-42.87,1.19,48.82,8.34,31,14.29-61.92,31-86.93,100S374,393,379.94,406.05c0,0,7.14-23.82,46.44-48.82s96.45-58.35,97.64-94.07-16.67-70.26,2.38-81,42.87-19.05,42.87-19.05-.49-.61-1.39-1.63c-.43-.48-1-1.06-1.57-1.72C561.17,154.32,549.82,143.66,535.93,139.32ZM444.64,295.71c-10.32-4.76-11.91-20.64-11.91-20.64s2.38-14.29,21.43-15.08,21.43,28.58,21.43,28.58S455,300.47,444.64,295.71Z"/><path d="M620.08,310.79C604.2,314,597.85,333,597.85,333c26.2,38.1,53.19,6.35,53.19,6.35S636,307.61,620.08,310.79Zm-1.62,19.78a5.92,5.92,0,1,1,5.92-5.92A5.92,5.92,0,0,1,618.46,330.57Zm12.28,13.16a3.29,3.29,0,1,1,3.29-3.29A3.29,3.29,0,0,1,630.74,343.73Z"/><path d="M454.16,260c-19.05.79-21.43,15.08-21.43,15.08s1.59,15.88,11.91,20.64,31-7.14,31-7.14S473.22,259.19,454.16,260Zm-3.37,15.48a5.36,5.36,0,1,1,5.36-5.36A5.36,5.36,0,0,1,450.79,275.46Zm11.11,11.91a3,3,0,1,1,3-3A3,3,0,0,1,461.9,287.37Z"/><path d="M477.19,448.92c20.64-11.11,35.72-26.2,29.37-46s-41.28-36.52-67.48-34.14-35.72,24.61-31.75,52.39,31.75,31,31.75,31S456.55,460,477.19,448.92Z"/><path d="M512.95,522.82h0c-1.54-.57-3.05-1.19-4.55-1.86-3-1.33-6-2.79-8.85-4.36-5.8-3.09-11.4-6.56-16.87-10.19S471.77,499,466.5,495,456,487.12,451,482.89c-2.52-2.09-5-4.22-7.34-6.44-1.16-1.11-2.3-2.25-3.29-3.4a12.66,12.66,0,0,1-1.24-1.65,1.22,1.22,0,0,1-.11-.2,3.21,3.21,0,0,0,0-.46,2.39,2.39,0,0,0-.07-.64,3.34,3.34,0,0,0-.13-.43l-.09-.2-.16-.25a2.65,2.65,0,0,0-1.63-1.1,4.24,4.24,0,0,0-.57-.07,3.56,3.56,0,0,0-.37,0,3.83,3.83,0,0,0-.57.08,7.89,7.89,0,0,0-.82.2c-.48.14-.89.29-1.29.44l-2.35.87c-1.54.57-3.06,1.11-4.61,1.62q-4.64,1.5-9.39,2.67a176.28,176.28,0,0,1-19.37,3.45c-3.26.43-6.54.72-9.82.84-1.64,0-3.29.07-4.93,0a19.75,19.75,0,0,1-4.88-.71c3.06,1.37,6.47,1.73,9.78,2a91.43,91.43,0,0,0,10,.17,137.22,137.22,0,0,0,20-2.15,96.92,96.92,0,0,0,9.84-2.32c1.62-.47,3.23-1,4.82-1.51l2.34-.78h0a6.65,6.65,0,0,0,.36.73,16.6,16.6,0,0,0,1.7,2.36c1.16,1.37,2.35,2.59,3.57,3.78,2.44,2.37,5,4.59,7.52,6.75a262.89,262.89,0,0,0,32.75,23,152.74,152.74,0,0,0,17.84,9.16c3.09,1.29,6.2,2.51,9.4,3.49,1.71.52,3.45,1,5.2,1.39a35.91,35.91,0,0,0,4.57.75A40.05,40.05,0,0,1,512.95,522.82ZM434.5,470.6h0Zm1.75,1.93h0Zm2.65-.84,0-.16,0-.15a.87.87,0,0,1,0,.21A.54.54,0,0,1,438.9,471.69Z"/><circle class="cls-6" cx="450.79" cy="270.11" r="5.36"/><circle class="cls-6" cx="461.9" cy="284.39" r="2.98"/><circle class="cls-6" cx="618.46" cy="324.65" r="5.92"/><circle class="cls-6" cx="630.74" cy="340.44" r="3.29"/></g></g></svg>