<svg xmlns="http://www.w3.org/2000/svg" viewBox="0 0 1104.66 1573.37"><defs><style>.cls-1{fill:#9e5a3c;}.cls-2{fill:#6e4e44;}.cls-3{fill:#af6b48;}.cls-4{fill:#eedfd9;}.cls-5{fill:#e5d1ca;}.cls-6{fill:#524946;}.cls-7{fill:#fff;}.cls-8{fill:#ae7b7c;}</style></defs><title>BULL DOG 1</title><g id="Layer_2" data-name="Layer 2"><g id="Layer_1-2" data-name="Layer 1"><path class="cls-1" d="M748.79,1472.4a82,82,0,0,0-.61-9.43c-23.87,18.12-51.46,33.45-83,48.78q-4.9,2.38-9.74,4.51c17,14.83,60.47,46.93,103.49,31.73C747.44,1526.72,748.79,1490.71,748.79,1472.4Z"/><path class="cls-1" d="M327.67,1493c-9.37-9-22.6-17.94-41.28-25.55-65.35-26.63-125.93-12.76-167.69-5.28-9.76,23.13-13.45,72.76,12.74,84,23.94,10.26,126.35,8.63,186.55.07C312.75,1531.85,319.19,1512.43,327.67,1493Z"/><path class="cls-2" d="M416.06,71.5c-10-7.68-26.21-17.25-51-15.83-43,2.46-78.71,36.89-88.55,67.64-3.29,10.27-4.65,24.66-5.88,39,7.67,9.83,19.54,26,28,42.21,6.38,12.18,12.49,28.47,17.94,40.86C336.82,179.62,374.17,110.79,416.06,71.5Z"/><path class="cls-3" d="M748.19,1463c-2.48-21.45-10.69-42.91,12.9-64.36,27.06-24.6,14.76-78.71,39.35-113.14S839.8,1123.14,830,1083.78s-46.73,2.46-78.71,83.63-137.74,231.2-179.55,246,2.46-81.17-2.46-142.66-41.81-44.27-78.71-63.95-2.46-44.27-22.14-110.68-41.81-27.06-59-17.22,27.06,105.76,29.52,150,39.35,108.22,63.95,159.87C526.94,1439.41,570,1509,567,1539.48a278.59,278.59,0,0,0,88.42-23.21q4.84-2.14,9.74-4.51C696.73,1496.43,724.32,1481.09,748.19,1463Z"/><path class="cls-3" d="M286.38,1467.48c18.68,7.61,31.91,16.58,41.28,25.55,9.94-22.74,22.67-45.43,22.67-60,0-32-56.57-108.22-63.95-132.82-3.83-12.76-3.68-12.28.77-6.81-27.3-35.93-107-145.64-109-204.72-.53-15.26-.15-30.07.62-44.37-16.84,4.2-31.27,9.11-42.43,14.85-86.09,44.27-145.12,167.25-135.28,246s73.79,164.79,115.6,157.42l2-.36C160.45,1454.72,221,1440.86,286.38,1467.48Z"/><path class="cls-1" d="M1073.46,906.69c-2.46-59-54.11-231.2-86.09-285.31s-51.65-110.68-83.63-152.5a15.76,15.76,0,0,0-1.81-2c-16.35,38.3-42.66,63.33-56,70.83-19.43,10.93-14.88,48.24-21.88,58.63-.52,11.47-4.7,16.8-10.4,21.07-3.73,3.82-8.47,8.18-13.22,12.53-4.37,4-12.43,7.79-22.13,10.47,18.8,20.73,38.13,47.38,66.4,37.49,49.19-17.22,125.44,22.14,127.9,86.09s4.92,83.63,32,137.74-27.06,145.12-29.52,186.93,61.49,91,61.49,91,46.73-29.52,63.95-103.3S1075.92,965.72,1073.46,906.69Z"/><path class="cls-1" d="M1036.57,1179.71l-26.92,35.89C1025.61,1203.53,1036.57,1179.71,1036.57,1179.71Z"/><path class="cls-1" d="M368.78,627.53a17.28,17.28,0,0,0,7.06,2.2C371.4,628.39,368.78,627.53,368.78,627.53Z"/><path class="cls-1" d="M178.16,1088.7c2,59.08,81.7,168.79,109,204.72,4.13,5.08,12,14.46,23.82,21.57,24.6,14.76,22.14-2.46,71.33-22.14s22.14-59,12.3-140.2-22.14-125.44-41.81-167.25-44.27-68.87-46.73-123,32-34.43,71.33-78.71,44.27-24.6,100.84-46.73c27.39-10.72,34.6-28.35,35.31-44.53-18.55-6.86-37.63-19.66-49.72-29.93-18.65,8.77-47.21,3.49-63.06-1.79-15.32-5.11-34-28.86-34.28-33.25-1.21-1.55-2.9-5.5-5.07-14.72-3-12.83-.94-42.31,2-68.3-18.47-14.26-37.19-39.06-46.84-69.36-67.66,67.05-113.66,205.33-128.52,252-17.22,54.11-24.6,140.2-9.84,184.47,11.6,34.8,3.45,80.24.62,132.73C178,1058.63,177.64,1073.44,178.16,1088.7Z"/><path class="cls-1" d="M365.09,55.67c24.76-1.41,41,8.15,51,15.83,15-14.08,30.6-24.37,46.19-29.36,9-2.87,17-5,24.24-6.62-20.23-20.75-81-48.19-131.23-29C303.6,26.15,237.19,103.63,238.42,124.54s-11.07,79.94,12.3,88.55c15.56,5.73,17.49-22.34,19.94-50.82,1.23-14.29,2.6-28.68,5.88-39C286.38,92.56,322,58.13,365.09,55.67Z"/><path class="cls-1" d="M902.52,58.13c73.79,54.11,95.92,108.22,76.25,125.44-7.91,6.92-13,8.68-17.95,10.06,6.61,22.34,13.25,38.74,17.95,30.53,9.84-17.22,35.66-73.79,29.52-92.24S891.45,7.7,841,8.93,775.85,37.22,753.71,44.6q-2.79.93-5.37,1.93A152,152,0,0,1,782,61C801.29,44.89,847,17.44,902.52,58.13Z"/><path class="cls-2" d="M902.52,58.13C847,17.44,801.29,44.89,782,61c29.52,17.13,55.57,45,83.62,85.66,22,31.83,34.83,71.75,42.15,112.75,5.28-13.08,11.74-32.57,24.26-46.34,14.7-16.17,21.5-17.41,28.79-19.46,4.9-1.38,10-3.13,17.95-10.06C998.44,166.35,976.31,112.24,902.52,58.13Z"/><path class="cls-4" d="M975.08,1088.7c2.46-41.81,56.57-132.82,29.52-186.93S975.08,828,972.62,764s-78.71-103.3-127.9-86.09c-28.27,9.89-47.6-16.76-66.4-37.49A109,109,0,0,1,752,644.32c-11.57,17.92-32.87,36.48-43.81,53.31-16,24.6-100.84,11.07-114.37,0s-33.2,4.92-66.41-1.23a85.08,85.08,0,0,1-13.89-3.95c-.71,16.18-7.92,33.81-35.31,44.53-56.57,22.14-61.49,2.46-100.84,46.73s-73.79,24.6-71.33,78.71,27.06,81.17,46.73,123,32,86.09,41.81,167.25,36.89,120.52-12.3,140.2S335.58,1329.74,311,1315c-11.84-7.1-19.69-16.49-23.82-21.57-4.45-5.47-4.6-5.95-.77,6.81,7.38,24.6,63.95,100.84,63.95,132.82,0,14.55-12.73,37.25-22.67,60-8.48,19.39-14.92,38.82-9.69,53.23,2.11,5.82,6.13,10.83,12.68,14.69,41.81,24.6,231.2,9.84,236.12-19.68.1-.58.17-1.18.23-1.8,3-30.52-40.06-100.06-64.18-150.7-24.6-51.65-61.49-115.6-63.95-159.87s-46.73-140.2-29.52-150,39.35-49.19,59,17.22-14.76,91,22.14,110.68,73.79,2.46,78.71,63.95-39.35,157.42,2.46,142.66,147.58-164.79,179.55-246,68.87-123,78.71-83.63S825,1251,800.44,1285.47s-12.3,88.55-39.35,113.14c-23.6,21.45-15.39,42.91-12.9,64.36a82,82,0,0,1,.61,9.43c0,18.31-1.35,54.32,10.12,75.6,3.94,7.31,9.39,12.89,16.93,15.4,29.52,9.84,226.28,17.22,223.82-14.76s-76.25-73.79-81.17-115.6,14.76-115.6,51.65-164.79l39.49-52.65,26.92-35.89S972.62,1130.52,975.08,1088.7Z"/><path class="cls-5" d="M708.21,628.76c-14.72-18.18-15.41-33.94-12.39-54.11-14.11-4.57-26.36-10.73-33.11-16-11.07-8.61-39.35,1.23-45.5-3.69L611.05,550s-14.76,8.61-43,2.46-38.12-7.38-49.19,12.3S490.53,566,493,586.94c2.21,18.83,9.4,35.66-7.15,49.6-2.36,7.13-7.15,14.36-13.76,20.5a32.14,32.14,0,0,1-8.27,5.48c12.1,10.27,31.18,23.07,49.72,29.93a85.08,85.08,0,0,0,13.89,3.95c33.2,6.15,52.88-9.84,66.41,1.23s98.38,24.6,114.37,0c10.94-16.83,32.24-35.39,43.81-53.31C734.9,644.67,717.8,640.6,708.21,628.76Z"/><path class="cls-3" d="M613.51,79c12.3,12.3-11.07,27.06-3.69,41.81,7.09,14.18,43.66,39.7,44.35,74.39,58.63,22.42,103.51,62.88,129.05,131,29.52,78.71,20.91,179.55,34.43,230,5,18.69,6.81,31.28,6.41,40.19,7-10.4,2.44-47.7,21.88-58.63,13.33-7.5,39.64-32.53,56-70.83A175.34,175.34,0,0,0,916,403.7c1.36-40.86.82-93.41-8.27-144.28-7.33-41-20.2-80.92-42.15-112.75C837.58,106,811.52,78.15,782,61a152,152,0,0,0-33.66-14.48A181.34,181.34,0,0,0,707,39.68C640.57,36,622.12,52,616,49.52,604.9,53.21,601.21,66.73,613.51,79Z"/><path class="cls-3" d="M363.37,544.47c1.83-16.37,4-31.37,5.42-39.92,3.69-22.14,3.69-152.5,51.65-222.59,24.68-36.07,59.13-65.63,96.65-83.14A56.25,56.25,0,0,1,510.21,175c-1.23-25.83,7.38-33.2,9.84-56.57s-22.14-18.45-7.38-32S531.12,34.76,542.18,36c0,0-13.48-9.85-55.7-.48-7.22,1.6-15.26,3.75-24.24,6.62-15.59,5-31.18,15.28-46.19,29.36-41.89,39.29-79.24,108.12-99.44,173.83q-1.66,5.41-3.18,10.8c-25.83,92.24-11.07,167.25,1.23,212.76.57,2.1,1.2,4.17,1.85,6.23C326.18,505.4,344.9,530.21,363.37,544.47Z"/><path class="cls-5" d="M512.67,86.41c-14.76,13.53,9.84,8.61,7.38,32S509,149.13,510.21,175a56.25,56.25,0,0,0,6.87,23.85c35.39-16.52,73.51-22.33,108.73-12.78a297,297,0,0,1,28.36,9.21c-.7-34.69-37.26-60.22-44.35-74.39-7.38-14.76,16-29.52,3.69-41.81S604.9,53.21,616,49.52,553.25,37.22,542.18,36,527.43,72.88,512.67,86.41Z"/><path class="cls-4" d="M493,586.94c-2.46-20.91,14.76-2.46,25.83-22.14s20.91-18.45,49.19-12.3,43-2.46,43-2.46L617.2,555c6.15,4.92,34.43-4.92,45.5,3.69,6.75,5.25,19,11.42,33.11,16,1.27-8.48,3.19-17.73,5-28.28,6.15-35.66-1.23-59-4.92-87.32s-30.75-66.41-45.5-54.11-19.68-9.84-33.2-11.07,2.46,16-8.61,35.66-14.76-4.92-16-14.76-9.84-2.46-19.68,1.23-9.84-11.07-17.22-11.07-12.3,9.84-19.68-1.23-14.76,13.53-18.45,19.68-14.14-1.23-26.44-12.3-44.89,146.35-44.89,163.56,11.07,23.37,29.52,33.2c11.36,6.06,13.85,17.25,10.07,28.69C502.4,622.6,495.21,605.77,493,586.94Z"/><path class="cls-4" d="M817.66,556.2c-13.53-50.42-4.92-151.27-34.43-230-25.54-68.1-70.42-108.57-129.05-131A297,297,0,0,0,625.81,186c-35.22-9.55-73.34-3.74-108.73,12.78-37.52,17.52-72,47.07-96.65,83.14-48,70.1-48,200.46-51.65,222.59-1.43,8.56-3.59,23.55-5.42,39.92-2.91,26-5,55.48-2,68.3,2.17,9.22,3.86,13.17,5.07,14.72-.05-.89.64-1,2.31,0,0,0,2.62.86,7.06,2.2,7.23.87,16.2-.86,21.53-2.17,2.81-.69,4.61-1.26,4.61-1.26s4.92-2.46,16-14.76,17.22-54.11,20.91-92.24-3.69-43-19.68-75,17.22-22.14,17.22-41.81,1.23-34.43,27.06-41.81S486.84,345.9,493,333.6s-4.92-6.15-13.53-13.53,24.6-23.37,23.37-28.29-8.61-3.69,8.61-14.76,79.94-22.14,124.21-16,40.58,9.84,46.73,16-2.46,7.38-14.76,11.07,4.92,8.61-7.38,13.53,12.3,30.75,19.68,41.81-6.15,3.69-14.76,6.15,3.69,12.3,13.53,13.53,6.15,16,8.61,35.66S689.76,438.14,707,459s12.3,70.1,35.66,109.45S798,607.85,814,605.39c10.84-1.67,7.54,4-.3,12.06,5.7-4.27,9.88-9.6,10.4-21.07C824.47,587.48,822.67,574.88,817.66,556.2Z"/><path class="cls-6" d="M814,605.39c-16,2.46-48,2.46-71.33-36.89S724.2,479.95,707,459s-17.22-40.58-19.68-60.26,1.23-34.43-8.61-35.66S656.56,352,665.16,349.59s22.14,4.92,14.76-6.15-32-36.89-19.68-41.81-4.92-9.84,7.38-13.53,20.91-4.92,14.76-11.07-2.46-9.84-46.73-16-107,4.92-124.21,16-9.84,9.84-8.61,14.76-32,20.91-23.37,28.29S499.14,321.3,493,333.6s-3.69,19.68-29.52,27.06-27.06,22.14-27.06,41.81-33.2,9.84-17.22,41.81,23.37,36.89,19.68,75S429,599.24,418,611.54s-16,14.76-16,14.76-1.8.57-4.61,1.26c-5.33,1.31-14.3,3-21.53,2.17a17.28,17.28,0,0,1-7.06-2.2c-1.67-1-2.36-.93-2.31,0,.26,4.38,19,28.14,34.28,33.25,15.85,5.28,44.41,10.55,63.06,1.79a32.14,32.14,0,0,0,8.27-5.48c6.61-6.14,11.4-13.37,13.76-20.5,3.78-11.44,1.29-22.63-10.07-28.69-18.45-9.84-24.6-14.14-24.6-31.36s24-172.79,36.28-161.72,26.44,14.76,30.13,8.61S528.66,392.63,536,403.7s12.3,1.23,19.68,1.23,7.38,14.76,17.22,11.07,18.45-11.07,19.68-1.23,4.92,34.43,16,14.76-4.92-36.89,8.61-35.66,18.45,23.37,33.2,11.07,41.81,25.83,45.5,54.11,11.07,51.65,4.92,87.32c-1.82,10.55-3.74,19.81-5,28.28-3,20.18-2.33,35.93,12.39,54.11,9.59,11.85,26.69,15.92,43.81,15.56a109,109,0,0,0,26.29-3.86c9.7-2.68,17.76-6.46,22.13-10.47,4.75-4.36,9.5-8.71,13.22-12.53C821.51,609.41,824.81,603.72,814,605.39Z"/><path class="cls-7" d="M543,343.85s37.71-7,60.26,0,42.22,20.09,42.22,20.09,17.63-28.7,12.3-33.61-26.24,13.12-27.88,15.17-7.79-11.89-14.35-6.56-7.79,2.87-12.3-1.64-11.89-4.51-13.94-1.23-5.74.82-11.07-.41-6.56,1.23-6.56,1.23-3.69-4.1-8.2-1.64-5.74,3.28-5.74,3.28-4.92-6.56-9.43-3.69S543,343.85,543,343.85Z"/><path class="cls-8" d="M743.46,215.13s-12.71,18.86-9,27.88,10.25,6.56,25.42,17.22,32,18.86,41,15.17,19.27-40.58,19.27-40.58Z"/><path class="cls-8" d="M381.08,222.51s-8.2,8.61-5.33,17.22,4.1,17.63,5.74,27.88,7,11.89,20.09,9.43,32.79-14.76,38.12-26.24-.82-29.52-5.33-34.43-51.65,6.15-51.65,6.15Z"/><path d="M406.29,639.82s36.89-11.07,40-49.81,25.83-160.49,41.2-190.62,37.92-49.6,55.55-55.55,71.12-7.17,103.71,22.34,50.42,63.95,54.73,92.85,11.68,94.08,25.83,114.37,34.43,25.21,43,36.28,3.07,36.28-2.46,25.21S756.79,609.08,750,606.62s-24.6-14.76-30.75-29.52-9.84-57.19-13.53-73.79-3.69-68.25-31.36-100.84-25.21-43.66-79.32-55.34S513.9,357,494.22,396.94s-30.75,99.61-33.82,121.75-3.69,69.48-8,92.24,1.84,49.19-6.76,43.66-1.84,2.46-17.22,3.07S406.29,639.82,406.29,639.82Z"/><path d="M743.46,215.13s10.66-15.58,32.79-13.12,43.86,32.79,43.86,32.79-16.81,27.06-43,24.6S743.46,215.13,743.46,215.13Z"/><path d="M436,220.46s-4.1-18.45-23-19.27-32,21.32-32,21.32-.82,20.91,9.84,29.93S439.29,262.27,436,220.46Z"/><circle class="cls-7" cx="396.45" cy="222.3" r="7.38"/><circle class="cls-7" cx="419.82" cy="236.45" r="4.3"/><circle class="cls-7" cx="769.08" cy="221.69" r="7.38"/><circle class="cls-7" cx="792.45" cy="235.83" r="4.3"/><path d="M570.47,289.33S542.18,282,536,276.42s-23.37-4.92-23.37-16,14.76-47.35,56-46.73S625.2,222.3,640,236.45s11.07,24-1.23,27.67-16,1.84-30.13,11.07S577.23,293,570.47,289.33Z"/></g></g></svg>