<svg xmlns="http://www.w3.org/2000/svg" viewBox="0 0 1180.2 1711.01"><defs><style>.cls-1{fill:none;}.cls-2{fill:#1a1614;}.cls-3{fill:#231e1b;}.cls-4{fill:#2d2824;}.cls-5{fill:#c98496;}.cls-6{fill:#fff;}</style></defs><title>CHINESE SHAR PEI 1</title><g id="Layer_2" data-name="Layer 2"><g id="Layer_1-2" data-name="Layer 1"><path class="cls-1" d="M744,1205.06c3.61,52.38-30.71,93.92-14.45,95.73s36.12-9,65,12.64c12.27,9.2,31.72,8.31,53.9,6-15.48-49-62.93-201.89-62.93-217.36a18.23,18.23,0,0,1,.75-4.56c-5.84,5.4-20.23,18.5-39.13,34.36C752.93,1144.48,741.24,1165.49,744,1205.06Z"/><path class="cls-2" d="M908.34,1416.38c-10.84-3.61-45.16-50.57-57.8-90.31l-2.1-6.61c-22.18,2.28-41.62,3.17-53.9-6-28.9-21.67-48.77-10.84-65-12.64s18.06-43.35,14.45-95.73c-2.73-39.57,9-60.57,3.17-73.16-34.6,29-84.27,67.19-124.19,84-68.64,28.9-104.76,149.92-72.25,171.59s74.06,28.9,151.72,36.12c26.3,2.45,55.71,4.48,83.17,8.62,46.45-2.36,95.85-5,129-8.56C912.1,1419.56,910,1416.94,908.34,1416.38Z"/><path class="cls-3" d="M305.06,981.08c18.06-36.12,7.22-74.06,5.42-88.5s-25.29-68.64,5.42-187.85c16.64-64.62,22.67-130.29,30.46-179.48-87.89,42.66-63.21,123.25-144.25,197.54C115.4,802.27,45,997.34,12.45,1075S23.29,1217.7,7,1279.11s10.84,103,50.57,158.95,45.16,110.18,166.17,146.3c58.61,17.5,125.28,8.72,183.16-4.36-1.09-27.85-5.18-57.47-15.19-84.14C364.66,1423.61,287,1017.21,305.06,981.08Z"/><path class="cls-3" d="M550.7,1387.48c-32.51-21.67,3.61-142.69,72.25-171.59,39.91-16.81,89.59-55,124.19-84,18.9-15.85,33.29-29,39.13-34.36,5.45-20.11,39.08-67.88,19.12-91.17-21.67-25.29-50.57,16.26-90.31,3.61s-162.56,16.26-180.62,68.64-19.87,345-7.22,431.69a179.13,179.13,0,0,0,10.64,39.48,35.3,35.3,0,0,1,3.81.26c41.54,5.42,52.38-9,79.47-10.84s45.16,18.06,88.5,16.26,101.15,28.9,131.85,30.71,47-21.67,45.16-86.7c-1.19-43-47.42-59.14-101.06-67.24-27.46-4.14-56.87-6.18-83.17-8.62C624.76,1416.38,583.22,1409.16,550.7,1387.48Z"/><path class="cls-4" d="M1157.59,1490.44c-19.87-23.48-99.34-21.67-139.08-92.12s-50.57-202.3-65-278.16-1.81-144.5-7.22-209.52,23.48-169.78,19.87-252.87-72.25-128.24-54.19-186c13.63-43.61-9.76-142.74-22.06-188.78.75,37.09-1.14,105.94-28,154.43-12.52,39.13-48.34,94.45-79.4,116.84a190.46,190.46,0,0,1-49.67,25.64c-15.49,36.4-49.28,60-97.23,51.43-54.19-9.63-60.21-36.12-74.66-21.67s-40.94,30.1-69.84,3.61-33.71-48.14-31.31-72.2c-22.17-12.51-29.93-23.06-32.51-30.15-4.37-12-41.43-17.1-60.87-54.79-9.49,13.47-15.13,38-20.06,69.18-7.79,49.19-13.82,114.86-30.46,179.48-30.71,119.21-7.22,173.4-5.42,187.85s12.64,52.38-5.42,88.5,59.61,442.52,86.7,514.77c10,26.67,14.09,56.29,15.19,84.14,1.87,47.6-5,90-6.16,103.71-1.81,21.67,148.11,47,182.43,3.61,28.71-36.26-20.95-75.06-45.35-137.53a179.13,179.13,0,0,1-10.64-39.48c-12.64-86.7-10.84-379.31,7.22-431.69S675.33,997.34,715.07,1010s68.64-28.9,90.31-3.61c20,23.29-13.67,71.06-19.12,91.17a18.23,18.23,0,0,0-.75,4.56c0,15.47,47.45,168.39,62.93,217.36l2.1,6.61c12.64,39.74,47,86.7,57.8,90.31,1.67.56,3.77,3.17,6.22,7.29,13.48,22.64,37.69,90.8,60.61,113.72,27.09,27.09,195.07,9,202.3-3.61S1177.46,1513.92,1157.59,1490.44Z"/><path class="cls-4" d="M382.73,244.75s10.84-31.31,18.06-39.74,16.86,8.43,10.84,16.86a26.53,26.53,0,0,1-2.53,2.95c24.2-15.31,48.18-24.08,54.31-25.83,0,0,26.49-14.45,78.27-3.61s118,79.47,151.72,128.84,102.35,78.27,154.13,71c20.72-2.89,22.72,16,14.37,42.11,26.85-48.49,28.74-117.33,28-154.43-.06-2.9-.13-5.61-.21-8.1-1.2-37.33-27.7-72.25-15.65-89.11s9.63-49.37,0-66.23C869.2,130.35,857.16,87,840.3,85.8s-47,16.86-79.47,2.41S719.89,16,719.89,16s9.29-9.9,31.84-10.62c-27.87-9.07-59.27-3.82-76.39-3.82-21.67,0-87.9,19.27-118,8.43-25.34-9.12-53.23,11.61-66.46,22a18.68,18.68,0,0,1,2.34,7.2c.88,6.47-41.59,62.41-68.83,76.93-4.57,6.87-8.23,12.72-10.34,16.69-10.84,20.47-80.68,69.84-81.88,146.91-.62,39.88,9.72,71.35,20.34,92.46C352.76,320.4,363.16,262.74,382.73,244.75ZM638,154.44s3.61,7.22,22.88,14.45S723.5,193,721.09,213.44s-12,26.49-22.88,33.72-12,12-32.51-4.82-48.17-32.51-51.78-42.15C612.23,195.68,638,154.44,638,154.44Z"/><path class="cls-3" d="M427.28,510.86c2.58,7.09,10.34,17.63,32.51,30.15v0c2.41-24.08,20.47-118,16.86-125.23s-12-4.82-12-4.82,4.82,16.86-7.22,50.57-20.47,40.94-21.67,36.12-13.25-47-27.7-69.84S368.28,329,376.7,291.71s38.53-87.9,108.37-79.47,89.11,42.15,73.45,60.21-28.9-4.82-14.45,49.37,2.41,85.49-9.63,101.15,18.06,54.19,38.53,67.43,43.35,36.12,83.09,16.86,54.19-49.37,78.27-63.82,16.86-4.82,14.45,14.45,1.2,62.62-10.84,107.17a113.34,113.34,0,0,1-5.12,14.8,190.46,190.46,0,0,0,49.67-25.64c31.06-22.39,66.88-77.71,79.4-116.84,8.35-26.1,6.34-45-14.37-42.11-51.78,7.22-120.41-21.67-154.13-71s-99.94-118-151.72-128.84S463.4,199,463.4,199c-6.13,1.75-30.11,10.52-54.31,25.83-8.22,8.46-26.37,19.93-26.37,19.93-19.56,18-30,75.65-30.23,127.38-.14,27.87,2.66,54,8.56,71.31a93.39,93.39,0,0,0,5.36,12.65C385.85,493.77,422.91,498.85,427.28,510.86Z"/><path class="cls-2" d="M719.89,16s8.43,57.8,40.94,72.25,62.62-3.61,79.47-2.41,28.9,44.55,33.72,33.72S908.94,81,871.61,70.15s-39.74-47-86.7-60.21c-13.3-3.75-24.27-4.89-33.18-4.6C729.17,6.06,719.89,16,719.89,16Z"/><path class="cls-2" d="M493.21,39.14a18.68,18.68,0,0,0-2.34-7.2C482.15,17.48,454,35.82,439,47.57c-16.86,13.25-44.55,15.65-60.21,31.31s13.25,48.17,39.74,39.74a35.52,35.52,0,0,0,5.82-2.54C451.62,101.55,494.09,45.61,493.21,39.14Z"/><path class="cls-2" d="M748.79,457.88c2.41-19.27,9.63-28.9-14.45-14.45S695.8,488,656.07,507.25s-62.62-3.61-83.09-16.86S522.41,438.62,534.45,423s24.08-47,9.63-101.15-1.2-31.31,14.45-49.37-3.61-51.78-73.45-60.21-99.94,42.15-108.37,79.47S393.56,404.9,408,427.78s26.49,65,27.7,69.84,18.06,1.51,30.1-32.21-1.2-54.49-1.2-54.49a56.67,56.67,0,0,1,9.33,12.94c3.61,7.22-11.74,93-14.15,117.1v0c-2.4,24.07,2.43,45.73,31.31,72.2s55.39,10.84,69.84-3.61,20.47,12,74.66,21.67c48,8.52,81.74-15,97.23-51.43a113.34,113.34,0,0,0,5.12-14.8C750,520.5,746.38,477.15,748.79,457.88Z"/><path class="cls-2" d="M665.7,242.34c20.47,16.86,21.67,12,32.51,4.82s20.47-13.25,22.88-33.72-40.94-37.33-60.21-44.55S638,154.44,638,154.44s-25.77,41.25-24.08,45.76C617.53,209.83,645.23,225.48,665.7,242.34Z"/><path class="cls-2" d="M400.79,205c-7.22,8.43-18.06,39.74-18.06,39.74s18.15-11.47,26.37-19.93a26.53,26.53,0,0,0,2.53-2.95C417.65,213.44,408,196.58,400.79,205Z"/><path d="M546.19,493.4s-29.8-28.9-55.09-56l-25.29-27.09s-1.81,52.38-9.93,69.54,58.7,34.32,88.5,34.32,56,6.32,82.18,13.55,88.5-8.13,105.66-34.32,18.06-41.54,26.19-50.57,24.38-18.06,10.84-12.64a202,202,0,0,0-75,50.57c-30.71,32.51-65,33.42-96.63,31.61S546.19,493.4,546.19,493.4Z"/><path class="cls-5" d="M509.16,466.31s-33.42-13.55-47,6.32S427,505.14,426.07,520.5s7.22,34.32,32.51,30.71,33.42-18.06,56.9-22.58,39.74-20.77,30.71-35.22S509.16,466.31,509.16,466.31Z"/><path d="M440.52,371.48c-2.67-1-44.25-10.84-53.28-42.45s9.93-54.19,46.06-54.19,80.38,12.64,78.57,42.45S452.26,376,440.52,371.48Z"/><path d="M626.57,199s9.93-24.38,21.67-17.16,32.51,20.77,32.51,20.77S650,225.18,626.57,199Z"/><circle class="cls-6" cx="655.16" cy="200.49" r="2.11"/><circle class="cls-6" cx="641.32" cy="190.86" r="4.52"/><path class="cls-3" d="M435.71,205a1.94,1.94,0,0,0,1.54.32,10.27,10.27,0,0,0,1.6-.28,27.07,27.07,0,0,0,3.12-1,62.15,62.15,0,0,0,6-2.62,99.24,99.24,0,0,0,11.31-6.54,81.31,81.31,0,0,0,19.11-17,45.81,45.81,0,0,0,6.25-10.63,32.24,32.24,0,0,0,1.71-5.76c.1-.49.16-1,.25-1.47l.24-1.64.48-3.3c.67-4.41,1.44-8.79,2.43-13.24s2.09-9,5.06-13.59a15.53,15.53,0,0,1,6.46-5.44,23.88,23.88,0,0,1,7.47-1.82c1.28-.16,2.16-.2,3.15-.37s2-.35,3-.59c2-.47,4-1.12,6.09-1.76s4.18-1.37,6.5-2a23.76,23.76,0,0,1,3.8-.71,8.59,8.59,0,0,1,5.09.88,6.35,6.35,0,0,1,2.3,2.22,8,8,0,0,1,1,2.48,11.82,11.82,0,0,1,.28,2.18l0,1,0,.87c-.1,2.34-.32,4.51-.46,6.67a48,48,0,0,0,.6,12.52,44.07,44.07,0,0,0,4.23,11.87c3.92,7.64,9.52,14.53,15.5,21.06A80.39,80.39,0,0,1,541.17,158a47.44,47.44,0,0,1-5.77-12.55,49.59,49.59,0,0,1-1.63-13.8c0-2.25.09-4.49,0-6.57v-.79l0-.65a5.63,5.63,0,0,0-.18-1.09,1.75,1.75,0,0,0-.24-.58c-.08-.06,0,0-.07,0a3.47,3.47,0,0,0-1.37,0,17.86,17.86,0,0,0-2.68.63c-1.93.59-4,1.37-6.09,2.12a69,69,0,0,1-6.6,2.05c-1.15.29-2.32.55-3.52.75s-2.52.32-3.43.45a17.11,17.11,0,0,0-5.34,1.32,8.37,8.37,0,0,0-3.47,3c-1.94,2.82-3.15,7-4.14,11.1s-1.74,8.48-2.57,12.77l-.6,3.24-.3,1.63c-.12.6-.23,1.2-.37,1.79a38.62,38.62,0,0,1-2.32,6.85,45.76,45.76,0,0,1-7.74,11.76,76.67,76.67,0,0,1-21.63,16.47,89.94,89.94,0,0,1-12.35,5.34,60.66,60.66,0,0,1-6.47,1.82,27.86,27.86,0,0,1-3.33.49,10.66,10.66,0,0,1-1.69,0A2.05,2.05,0,0,1,435.71,205Z"/><path class="cls-3" d="M535.65,113.5a59.68,59.68,0,0,1,1.79-20.21c1.8-6.61,4.95-13.24,10.32-18.3a28.22,28.22,0,0,1,9.3-5.94,35.19,35.19,0,0,1,10.76-2.29l2.72-.07,2.61.16c1.73.14,3.48.18,5.19.41l5.14.74c1.72.24,3.38.68,5.07,1a124.63,124.63,0,0,1,19.53,6.29,148.62,148.62,0,0,1,18.24,9c2.94,1.67,5.81,3.46,8.65,5.29s5.58,3.8,8.28,5.82a129.11,129.11,0,0,1,15.22,13.23c-5.66-3.61-11.34-7.06-17.16-10.26s-11.67-6.27-17.61-9.1c-3-1.44-6-2.69-9-4.07-3-1.22-6-2.53-9.14-3.58s-6.14-2.17-9.23-3.19c-1.55-.47-3.12-.87-4.69-1.3-.78-.21-1.56-.44-2.35-.63l-2.37-.5c-1.57-.33-3.14-.78-4.72-1l-4.76-.77c-1.59-.25-3.18-.3-4.77-.46l-2.38-.19c-.76,0-1.52,0-2.28,0a28.65,28.65,0,0,0-8.81,1.4,25.89,25.89,0,0,0-7.78,4.24c-4.68,3.79-8.24,9.25-10.69,15.22A78.87,78.87,0,0,0,535.65,113.5Z"/><path class="cls-3" d="M707.85,262.81a.22.22,0,0,1,.29-.21,1.16,1.16,0,0,1,.35.21,5.85,5.85,0,0,1,.58.56c.36.4.7.81,1,1.23.66.84,1.29,1.69,1.92,2.55l3.61,5.23,7,10.53q7,10.55,14.23,20.8c4.93,6.77,9.87,13.5,15.29,19.77a119,119,0,0,0,17.4,17.24,51.05,51.05,0,0,0,10,6.31c.87.4,1.75.77,2.64,1.09.44.16.89.31,1.34.45l1.52.49c2,.66,4.08,1.26,6.08,2,8,2.84,16,5.89,23.74,9.46a251.4,251.4,0,0,1,22.71,11.62c7.27,4.37,14.64,8.8,20.78,14.71-7.09-4.61-14.75-8.1-22.4-11.55s-15.43-6.58-23.25-9.56S797,360,789,357.55l-6-1.82-1.5-.46c-.55-.17-1.12-.34-1.67-.54-1.1-.38-2.17-.81-3.22-1.28a57.33,57.33,0,0,1-11.48-7c-13.76-11.15-23.86-25.22-32.92-39.58-4.53-7.21-8.65-14.63-12.6-22.12-1.93-3.77-3.87-7.53-5.73-11.33l-2.82-5.67c-.47-.95-.94-1.89-1.44-2.81-.25-.46-.51-.92-.79-1.36a5.71,5.71,0,0,0-.46-.63C708.27,262.74,707.94,262.46,707.85,262.81Z"/><path class="cls-3" d="M641.62,46.06a546.45,546.45,0,0,1,57.16,57.27c17.66,20.46,33.89,42.32,47.24,66.09,7.64,14,12.65,24.95,16.65,37.42l1.53,4.91,1.38,4.87,2.74,9.73q2.72,9.74,5.2,19.54c1.66,6.53,3.33,13.06,4.89,19.61l4.71,19.62c1.55,6.53,3.21,13,5.36,19.33a50,50,0,0,0,9.69,17.36,43.39,43.39,0,0,1-6.66-7.65c-1-1.37-1.76-2.91-2.65-4.37s-1.53-3-2.24-4.59a191.81,191.81,0,0,1-6.91-19.11c-4-12.89-7.75-25.8-11.61-38.68s-7.69-25.84-11.91-38.4a218.09,218.09,0,0,0-16.47-36.08,372.86,372.86,0,0,0-21.25-33.84c-7.55-11-15.71-21.64-24-32.17C677.75,85.95,660,65.8,641.62,46.06Z"/><path class="cls-3" d="M380.32,234.51a17.67,17.67,0,0,1-.71-5.07c-.05-1.71,0-3.42,0-5.12.13-3.41.47-6.8.84-10.19A184.22,184.22,0,0,1,384.14,194c3.22-13.26,7.67-26.37,14.91-38.45.88-1.52,2-2.94,2.94-4.41s2.11-2.87,3.37-4.19a37,37,0,0,1,8.29-7.3,27.66,27.66,0,0,1,5.16-2.55l2.82-.83,2.53-.51c3.35-.71,6.75-1.25,10.15-1.66s6.81-.78,10.23-1,6.82-.25,10.19-.29c6.72-.05,13.4.08,19.51-3.1a23.79,23.79,0,0,1-9.14,4.69,83.28,83.28,0,0,1-10.1,1.95c-6.7.89-13.26,1.91-19.76,3.27-1.63.32-3.24.72-4.85,1.1s-3.23.76-4.83,1.17l-2.4.61-2,.71a21,21,0,0,0-3.77,2.13,32.84,32.84,0,0,0-6.68,6.19c-1.06,1.14-1.93,2.49-2.9,3.74s-1.81,2.63-2.61,4a117.88,117.88,0,0,0-8.77,17.51c-2.61,6.07-4.75,12.36-6.88,18.68s-3.93,12.76-5.59,19.25c-.87,3.24-1.61,6.5-2.33,9.78-.35,1.64-.68,3.29-.93,4.94A19.3,19.3,0,0,0,380.32,234.51Z"/><path class="cls-3" d="M437.51,121.32a40.18,40.18,0,0,1,19.6-29.22,43.82,43.82,0,0,1,11.57-4.53,55,55,0,0,1,6.12-1.06l3-.27a26.55,26.55,0,0,0,2.65-.33,31.54,31.54,0,0,0,10-3.49C496.66,79,502,73.7,507,67.92s9.89-12,15.81-17.64a54.59,54.59,0,0,1,9.89-7.56,33.28,33.28,0,0,1,5.8-2.69c2-.72,3.8-1.19,5.72-1.79a124.71,124.71,0,0,1,23.26-5.06,63.8,63.8,0,0,1,12,0A82.3,82.3,0,0,1,591,35.23c-3.92-.16-7.83-.28-11.69-.09A69.19,69.19,0,0,0,568,36.62c-7.48,1.55-14.73,4.23-22,6.89-1.77.69-3.72,1.38-5.33,2.1a33.47,33.47,0,0,0-4.7,2.48,48.18,48.18,0,0,0-8.38,7c-5.24,5.33-9.95,11.52-15.14,17.55s-11.2,11.9-18.82,15.83a38.18,38.18,0,0,1-12.23,3.7c-1.06.18-2.12.19-3.18.26l-2.86.13a50.81,50.81,0,0,0-5.48.54,38.91,38.91,0,0,0-19.74,9.25A45,45,0,0,0,437.51,121.32Z"/><path class="cls-3" d="M666.3,256.79a392.23,392.23,0,0,0,20.85,41.88A220.29,220.29,0,0,0,714,336.18a131.81,131.81,0,0,0,16.67,15.6c3,2.32,6.24,4.52,9.4,6.8s6.38,4.5,9.58,6.74c6.44,4.41,12.89,8.8,19.5,12.95,3.28,2.11,6.65,4.07,10,6q2.55,1.44,5.17,2.73a32.25,32.25,0,0,0,5.41,2.24,48.79,48.79,0,0,1-11.35-3.34c-3.68-1.45-7.28-3.1-10.82-4.83s-7-3.58-10.5-5.47-6.89-3.84-10.27-5.86-6.75-4.07-10.08-6.17-6.61-4.2-9.95-6.56c-6.65-4.61-8.51-10.13-14-16S698.4,328.7,693.9,322.12A191.69,191.69,0,0,1,682,301.42q-2.62-5.35-5-10.8c-1.53-3.65-3-7.35-4.31-11.06A161.7,161.7,0,0,1,666.3,256.79Z"/><path class="cls-3" d="M659.68,32.82c9.84,5.92,19.23,12.56,28.45,19.44s18.11,14.2,26.68,21.91C732,89.53,748,106.43,761.16,125.69c3.28,4.82,6.25,9.86,9.05,15,1.33,2.61,2.7,5.21,3.88,7.91l1.77,4,1.65,3.94a261.35,261.35,0,0,0,14.59,30.61,174.41,174.41,0,0,0,19.45,27.71c3.62,4.4,7.45,8.75,10.78,13.49a75.1,75.1,0,0,1,8.32,15.14,87.52,87.52,0,0,0-9.89-13.9c-3.72-4.28-7.79-8.26-11.84-12.35s-7.92-8.42-11.58-12.95a157.69,157.69,0,0,1-10.07-14.24,227,227,0,0,1-16.05-30.83l-3.47-7.75c-1.14-2.53-2.47-5-3.76-7.47-2.72-4.88-5.62-9.69-8.82-14.31A257.72,257.72,0,0,0,734.39,103C727,94.4,719,86.3,711,78.27,694.67,62.35,677.51,47.25,659.68,32.82Z"/><path class="cls-3" d="M835.49,484.37c6.17-10.16,12.15-20.27,17.87-30.49s11-20.61,15.79-31.2c2.41-5.28,4.58-10.66,6.6-16.08,1.05-2.7,1.94-5.44,2.86-8.19s1.7-5.52,2.4-8.32a110.31,110.31,0,0,0,3.86-34.57c3.65,11.37,3.72,23.89,1.65,35.74a120.17,120.17,0,0,1-4.3,17.56,156,156,0,0,1-6.48,16.81,204,204,0,0,1-17.6,31.19A180.59,180.59,0,0,1,835.49,484.37Z"/></g></g></svg>