<svg xmlns="http://www.w3.org/2000/svg" viewBox="0 0 839.82 1403.05"><defs><style>.cls-1{fill:#ae8052;}.cls-2{fill:#9f7147;}.cls-3{fill:#815a37;}.cls-4{fill:#5f5567;}.cls-5{fill:#fff;}</style></defs><title>CHOW CHOW 1</title><g id="Layer_2" data-name="Layer 2"><g id="Layer_1-2" data-name="Layer 1"><path class="cls-1" d="M484.82,1329.48l-3.57-21.23C479,1315.08,479.09,1322.54,484.82,1329.48Z"/><path class="cls-1" d="M823.74,1199.68c13.28,5.64,13.28,9.4,13.28,5.64,0-2.88,5.57-16.86-4.7-47.85a62.91,62.91,0,0,0-1,6.5c0,5.64-7.59-22.55-37.94-54.49s-45.53-30.07-36,0,7.59,39.46,7.59,39.46l-20.87-24.43c-20.87-24.43-26.56-20.67-11.38,22.55s7.59,88.32,7.59,88.32-3.79-15-28.45-56.37-49.32-41.34-28.46-11.27,20.87,65.77,22.76,71.41-19-43.22-58.81-63.89-41.73-13.15-36,30.07-19,60.13-19,60.13-5.69-37.58-26.56-15c-18.06,19.51-64.53,70-76.71,83.21a58.26,58.26,0,0,0,16,8.86c53.12,20.67,282.66,9.4,305.42-24.43s0-86.44,17.07-71.41c4.85,4.27,7.85,7.17,9.68,9.14C831.28,1241.61,812.46,1194.89,823.74,1199.68Z"/><path class="cls-1" d="M837.21,1255.79c1.05,2.52,1.7,4,1.7,4S841.83,1260.77,837.21,1255.79Z"/><path class="cls-2" d="M336.4,1052.26c-8,18.91-24.86,45.95-24.86,45.95s0-54.49-5.69-26.31-30.35,58.25-30.35,58.25-3.79-24.43-17.07-43.22-3.79,31.94-3.79,31.94-13.28-11.27-20.87-28.19-1.9,26.31-20.87,90.2c-7.72,26-19.52,53.86-31.7,78.78,17.24-1.28,33.63-1.77,27.91,3.9-9.48,9.4-13.28,16.91-13.28,16.91s28.46-13.15,41.73-11.27-3.79,22.55-3.79,22.55,21.52,10.18,52.71,13.65c4.85-22.16,10.95-62.33,25.07-135.79C323.48,1107.49,331.77,1070.73,336.4,1052.26Z"/><path class="cls-2" d="M522,1207.5c9.19-23.88,16.18-61,2-79.23-19-24.43-37.94-24.43-20.87-1.88s24.66,60.13,24.66,60.13-5.69-7.52-24.66-28.19-28.45-15-7.59,9.4C503.92,1177.53,513.5,1192.76,522,1207.5Z"/><path class="cls-2" d="M553.26,1045c-5.24-13.16-12.47-27.27-17.87-21.93C528.27,1030.09,536.1,1031.85,553.26,1045Z"/><path class="cls-2" d="M592.3,1265.45s24.66-16.91,19-60.13-3.79-50.74,36-30.07,60.7,69.53,58.81,63.89-1.9-41.34-22.76-71.41,3.79-30.07,28.46,11.27,28.45,56.37,28.45,56.37,7.59-45.1-7.59-88.32-9.48-47,11.38-22.55l20.87,24.43s1.9-9.4-7.59-39.46,5.69-31.94,36,0,37.94,60.13,37.94,54.49a62.91,62.91,0,0,1,1-6.5c2.12-12.74,5.47-41.59-14.27-83.69-24.66-52.61-24.66-54.49-9.48-41.34l15.18,13.15s-24.66-54.49-43.63-75.16c-14-15.21-23.83-44.67-47.72-71.9,2.79,14.46,11.68,43.31,21.16,75.66,17.07,58.25,11.38,77,11.38,77s-3.79-16.91-30.35-37.58-56.91-37.58-43.63-7.52,55,30.07,55,30.07-30.35,11.27-55,0-36-56.37-47.43-35.7,30.35,52.61,30.35,52.61-32.25-9.4-55-58.25-51.22-54.49-41.73-39.46,17.07,47,17.07,47-22.76-26.31-39.84-33.82S569.53,993,569.53,993l-17.07-1.88c-17.07-1.88-24.66,0-7.59,22.55,9.2,12.15,12.89,25.93,14.34,36.06,4.29,3.54,9,7.74,14.12,12.79,30.35,30.07,26.56,71.41,24.66,77s1.9-37.58-22.76-56.37-53.12-26.31-34.15-9.4,15.18,54.49,15.18,54.49S541.08,1102,524,1088.81s22.76,31.94,20.87,71.41c-1.08,22.49-11.4,40.69-20.08,52.2,11.34,20.11,20.08,38,20.08,38l-13.28-15c-3.1-3.51-7.54-9.37-12.53-16a79.58,79.58,0,0,1-6.44,6.57,54.86,54.86,0,0,0,5-8.46c-16.23-21.42-37.25-48.7-37.25-29.12,0,26.31,36,56.37,36,56.37S476.58,1233.5,469,1211s-11.38-31.94-9.48,5.64-5.69,52.61-5.69,52.61l-7.59-24.43c-7.59-24.43-11.38,13.15-20.87,47-.54,1.91-1.06,3.76-1.59,5.58a32.53,32.53,0,0,1,13,9.45c19,22.55,28.46,30.07,34.15,31.94s3.79-69.53,9.48-35.7l.88,5.23,3.57,21.23,1.24,7.37,3-3.22c12.18-13.23,58.65-63.7,76.71-83.21C586.61,1227.86,592.3,1265.45,592.3,1265.45Z"/><path class="cls-1" d="M759.23,930.94v0Z"/><path class="cls-1" d="M446.23,1244.78l7.59,24.43s7.59-15,5.69-52.61,1.9-28.19,9.48-5.64,47.43,33.82,47.43,33.82-36-30.07-36-56.37c0-19.58,21,7.69,37.25,29.12a54.86,54.86,0,0,1-5,8.46,79.58,79.58,0,0,0,6.44-6.57c5,6.59,9.43,12.45,12.53,16l13.28,15s-8.74-17.89-20.08-38c8.68-11.51,19-29.72,20.08-52.2,1.9-39.46-37.94-84.56-20.87-71.41s32.25,39.46,32.25,39.46,3.79-37.58-15.18-54.49,9.49-9.4,34.15,9.4,20.87,62,22.76,56.37,5.69-47-24.66-77c-5.11-5.06-9.83-9.25-14.12-12.79-1.45-10.13-5.14-23.91-14.34-36.06-17.07-22.55-9.48-24.43,7.59-22.55L569.53,993S537.28,961,554.36,968.55s39.84,33.82,39.84,33.82-7.59-31.94-17.07-47,19-9.4,41.73,39.46,55,58.25,55,58.25-41.73-31.94-30.35-52.61,22.76,24.43,47.43,35.7,55,0,55,0-41.73,0-55-30.07S708,993,734.58,1013.65s30.35,37.58,30.35,37.58,5.69-18.79-11.38-77c-9.48-32.34-18.37-61.2-21.16-75.66-2.23-11.58-.56-13.92,7.88-1.39,18.24,27.1,18.94,33.35,19,33.79-.06-1.25-3.94-75.44-20.87-110.84-17.07-35.7-1.9-28.19,0-30.07s-1.9-35.7-11.38-65.77,13.28,1.88,13.28,1.88-17.07-67.65-24.66-88.32c-4.07-11.09-14.16-48.15-32.3-69.09a12,12,0,0,1,.11,3.78S642.95,545,667,570s12.65,62.64,12.65,62.64A88.83,88.83,0,0,0,672,615.12c-5.06-8.77-19-5-6.32,31.32s-2.53,71.41-2.53,71.41-1.26-31.32-22.77,30.07S581,825.59,581,825.59s6.32-26.31-10.12-8.77S519,856.91,513.94,859.42s1.26-28.81-10.12-10-62,55.12-62,55.12-2.53-30.07-17.71-5-72.09,52.62-72.09,51.36,5.06-27.56-17.71-5-59.44,46.35-56.91,42.59,3.79-31.32-12.65-7.52-48.06,42.59-51.85,47.61-2.53-3.76-6.32-31.32-6.32,40.09-6.32,40.09-34.15-72.66-27.82-97.72,7.59-22.55-8.85-15-48.06-5-48.06-5,21.5-33.83,13.91-30.07-45.53,20-45.53,20,6.32-7.52,11.38-30.07-16.44,1.25-16.44,1.25-2.06-3.59-5.32-9.6c-13.75,45.76-33,159.91-23.8,193.27,11.38,41.34,39.84,82.68,37.94,109s-20.87,62-47.43,73.28-60.7,73.28-24.66,88.32,108.13,15,121.41,0c7.88-8.92,26.43-39,44.18-75.31,12.18-24.92,24-52.78,31.7-78.78,19-63.89,13.28-107.11,20.87-90.2s20.87,28.19,20.87,28.19-9.48-50.74,3.79-31.94,17.07,43.22,17.07,43.22,24.66-30.07,30.35-58.25,5.69,26.31,5.69,26.31,16.89-27,24.86-45.95c-4.63,18.47-12.92,55.23-24.86,117.35-14.13,73.46-20.22,113.63-25.07,135.79-3,13.55-5.48,20.37-9.07,23.93-9.49,9.4-30.35,52.61-1.9,60.13s125.2,30.07,129-7.52c3.58-35.46,10.54-54.2,19.28-84.61.52-1.82,1.05-3.67,1.59-5.58C434.84,1257.93,438.64,1220.35,446.23,1244.78ZM535.39,1023c5.39-5.34,12.63,8.77,17.87,21.93C536.1,1031.85,528.27,1030.09,535.39,1023Zm-32.25,135.29c19,20.67,24.66,28.19,24.66,28.19s-7.59-37.58-24.66-60.13,1.9-22.55,20.87,1.88c14.17,18.24,7.17,55.34-2,79.23-8.48-14.74-18.07-30-26.44-39.77C474.68,1143.31,484.17,1137.67,503.14,1158.34Z"/><path class="cls-2" d="M95.31,879.46C90.25,902,83.93,909.53,83.93,909.53s37.94-16.29,45.53-20-13.91,30.07-13.91,30.07,31.62,12.53,48.06,5,15.18-10,8.85,15,27.82,97.72,27.82,97.72,2.53-67.65,6.32-40.09,2.53,36.33,6.32,31.32,35.41-23.8,51.85-47.61,15.18,3.76,12.65,7.52,34.15-20,56.91-42.59,17.71,3.76,17.71,5,56.91-26.31,72.09-51.36,17.71,5,17.71,5,50.59-36.33,62-55.12,5.06,12.53,10.12,10,40.47-25.06,56.91-42.59S581,825.59,581,825.59s37.94-16.29,59.44-77.67,22.77-30.07,22.77-30.07,15.18-35.08,2.53-71.41S667,606.35,672,615.12a88.83,88.83,0,0,1,7.59,17.54S691,595.08,667,570s16.44,2.51,16.44,2.51a12,12,0,0,0-.11-3.78c-.79-6.1-4.51-20.8-20.12-52.59-1.88-3.83-3.5-7.51-4.91-11.07-1.38,8.25-2.68,13.57-2.68,13.57s-5.06-3.76-17.71-31.32S605,443.49,617.65,474.81s2.53,51.36,1.26,47.61-16.44-28.81-30.35-35.08,8.85,48.86,8.85,48.86-5.06-5-29.09-36.33-45.53-47.61-43-23.8-5.06,23.8-5.06,23.8-16.44-26.31-13.91-3.76-8.85,56.38-8.85,56.38a198,198,0,0,0-26.56-40.09c-13.72-15.68-5.43,13.11-.1,21.63,3.17.66,4.38,1,2.63,2.17-.63.42-1.57-.48-2.63-2.17a78.89,78.89,0,0,1-17.61-5.34c-13.91-6.26-12.65-21.3-21.5-5s-37.94,33.83-37.94,33.83l2.53-16.29c2.53-16.29,3.79-21.3-8.85-2.51S330.55,580,330.55,580s20.24-13.78,19-27.56a4.41,4.41,0,0,0-2.09-3.51c-13.74,7.54-30.57,12.8-49.77,11-21.23-2-39-11.93-53.27-25.59a23.59,23.59,0,0,0-8.7,6.8c-7.59,10,0,20,0,20s-20.24-10-26.56-33.83S191.43,487.34,175,497.36,120.6,514.9,120.6,514.9s3.79-12.53,10.12-27.56-5.06-13.78-30.35,6.26-50.59,20-50.59,20,10.12-12.53,21.5-23.8,8.85-25.06-10.12-11.28c-7.28,5.29-15.85,7.62-23.66,8.49-9,18.44-18,39-21.87,54.15L6.78,576.28S33.34,556.24,22,575s-8.85,52.62-8.85,52.62S27,616.37,23.22,636.42s-2.53,55.12-2.53,55.12,19,0,12.65,17.54-8.85,47.61,5.06,86.44c10,28,26.67,60,35.15,75.59,3.26,6,5.32,9.6,5.32,9.6S100.37,856.91,95.31,879.46Z"/><path class="cls-1" d="M626.5,273.11a1.7,1.7,0,0,0-.61-.76C626.44,273.34,626.7,273.7,626.5,273.11Z"/><path class="cls-1" d="M114.31,97.77l0,0Z"/><path class="cls-1" d="M71.28,489.84c-11.38,11.28-21.5,23.8-21.5,23.8s25.29,0,50.59-20,36.68-21.3,30.35-6.26S120.6,514.9,120.6,514.9s37.94-7.52,54.38-17.54,27.82,6.26,34.15,30.07,26.56,33.83,26.56,33.83-7.59-10,0-20a23.59,23.59,0,0,1,8.7-6.8c-22.32-21.35-36.18-51.72-41.58-74.63C194,422.19,194,403.4,191.43,409.66a37.57,37.57,0,0,0-2.53,12.53s-12.65-35.08-11.38-57.63-25.29-51.36-16.44-50.11,51.85,32.57,63.24,10S223,308.19,223,281.88s-3.79-28.81,15.18-41.34,35.41-16.29,48.06-13.78,6.32-25.06,21.5-21.3,19,22.55,15.18,35.08,32.88,31.32,50.59,12.53,45.53-10,43-1.25,22.77,12.53,31.62,32.57,11.38,41.34,5.06,52.62-10.12,15,3.79,40.09,31.62-10,25.29,8.77-7.59,40.09-22.77,57.63-19,32.57-16.44,22.55,2.53-28.81-3.79-15S424.14,481.07,414,491.09s-26.56,22.55-26.56,22.55-14.83,21.5-40,35.33a4.41,4.41,0,0,1,2.09,3.51c1.26,13.78-19,27.56-19,27.56s44.27-22.55,56.91-41.34,11.38-13.78,8.85,2.51l-2.53,16.29s29.09-17.54,37.94-33.83,7.59-1.25,21.5,5A78.89,78.89,0,0,0,470.84,534c-5.33-8.52-13.62-37.31.1-21.63a198,198,0,0,1,26.56,40.09s11.38-33.83,8.85-56.38,13.91,3.76,13.91,3.76,7.59,0,5.06-23.8,19-7.52,43,23.8,29.09,36.33,29.09,36.33-22.77-55.12-8.85-48.86,29.09,31.32,30.35,35.08,11.38-16.29-1.26-47.61,7.59-15,20.24,12.53,17.71,31.32,17.71,31.32,1.3-5.32,2.68-13.57c2.46-14.78,5.18-39,1.12-59.09-6.32-31.32-1.26-26.31,2.53-17.54l3.79,8.77s-3.79-41.34-15.18-58.88,6.32-1.25,6.32-1.25,2.53-16.29-15.18-41.34,2.53-8.77,2.53-8.77-11.38-32.57-26.56-45.1c-14.07-11.61,4.45-12.46,8.24-9.53-2.94-5.33-14.06-29-4.45-20.54l11.38,10s2.53-20-2.53-35.08,5.06-3.76,5.06-3.76-2.53-26.31-5.06-37.58,8.85-2.51,8.85-2.51,3.79-30.07-11.38-58.88-29.09-41.34-53.12-42.59-17.71-15-17.71-15S543,65.15,530.38,68.9s-5.06-8.77-5.06-8.77-19,21.3-37.94,13.78-29.09-17.54-84.74-17.54-56.91-33.83-107.5-33.83c0,0-22.77-13.78-37.94-15L242,6.26s17.71,18.79,0,8.77A190.48,190.48,0,0,0,207.87,0s12.65,15-5.06,12.53-29.09-5-29.09-5,19,21.3,2.53,15-36.68-3.76-45.53-5,13.91,23.8,5.06,22.55l-8.85-1.25s1.26,22.55,3.79,47.61-3.79,22.55-8.85,18.79a35.21,35.21,0,0,1-7.56-7.47c.66,1,11.07,16.59,2.5,27.51-8.85,11.28-21.5,45.1-21.5,45.1s15.18-15,10.12-1.25S85.19,213,66.22,228s-13.91,41.34-13.91,41.34,16.44-25.06,11.38-8.77-24,17.54-27.82,41.34l-3.79,23.8S47.25,300.67,46,314.45s-13.91,16.29-25.29,48.86S9.31,427.2,9.31,427.2s15.18-18.79,8.85-2.51S8,468.54,8,468.54s22.77-16.29,19-3.76a56.38,56.38,0,0,1-12.65,21.3,78,78,0,0,0,23.13,1c7.81-.87,16.39-3.2,23.66-8.49C80.13,464.79,82.66,478.57,71.28,489.84ZM506.35,126.53s13.91-20,37.94-21.3,53.12-22.55,62-8.77,15.18,53.87,10.12,71.41-6.32,21.3,1.26,20,5.06,3.76,5.06,3.76S599.94,214.23,586,216.73s-20.24,7.52-20.24,7.52l17.71-17.54s-30.35,0-27.82-8.77a34.12,34.12,0,0,1,7.59-13.78s-31.62,7.52-36.68,1.25,0-12.53,15.18-18.79,21.5-10,21.5-10-13.91-3.76-39.21,6.26S495,147.83,506.35,126.53ZM151,30.07c3.79-16.29,31.62,5,68.3,5s43,40.09,43,40.09-7.59,10-29.09,5-44.27-8.77-44.27-8.77,29.09,15,41.74,25.06,2.53,10-12.65,11.28-30.35-12.53-30.35-12.53l2.53,8.77c2.53,8.77,1.26,10-5.06,10s-16.44-15-16.44-15l2.53,8.77c2.53,8.77,3.79,16.29-3.79,27.56s-5.06-2.51-16.44-28.81S147.16,46.35,151,30.07Z"/><path class="cls-1" d="M473.47,536.2c1.75-1.15.54-1.51-2.63-2.17C471.9,535.71,472.84,536.61,473.47,536.2Z"/><path class="cls-2" d="M387.47,513.65s16.44-12.53,26.56-22.55,19-26.31,25.29-40.09,6.32,5,3.79,15,1.26-5,16.44-22.55,16.44-38.84,22.77-57.63-11.38,16.29-25.29-8.77-10.12-28.81-3.79-40.09,3.79-32.57-5.06-52.62-34.15-23.8-31.62-32.57-25.29-17.54-43,1.25-54.38,0-50.59-12.53,0-31.32-15.18-35.08-8.85,23.8-21.5,21.3S257.2,228,238.23,240.54,223,255.57,223,281.88s12.65,20,1.26,42.59-54.38-8.77-63.24-10,17.71,27.56,16.44,50.11,11.38,57.63,11.38,57.63a37.57,37.57,0,0,1,2.53-12.53c2.53-6.26,2.53,12.53,11.38,50.11,5.4,22.92,19.26,53.28,41.58,74.63,14.29,13.67,32,23.64,53.27,25.59,19.19,1.77,36-3.49,49.77-11C372.63,535.15,387.47,513.65,387.47,513.65Z"/><path class="cls-3" d="M524.06,162.86c25.29-10,39.21-6.26,39.21-6.26s-6.32,3.76-21.5,10-20.24,12.53-15.18,18.79,36.68-1.25,36.68-1.25a34.12,34.12,0,0,0-7.59,13.78c-2.53,8.77,27.82,8.77,27.82,8.77L565.8,224.25s6.32-5,20.24-7.52,36.68-25.06,36.68-25.06,2.53-5-5.06-3.76-6.32-2.51-1.26-20-1.26-57.63-10.12-71.41-37.94,7.52-62,8.77-37.94,21.3-37.94,21.3C495,147.83,498.76,172.89,524.06,162.86Z"/><path class="cls-3" d="M167.4,135.3c7.59-11.28,6.32-18.79,3.79-27.56L168.66,99s10.12,15,16.44,15,7.59-1.25,5.06-10l-2.53-8.77S202.81,109,218,107.74s25.29-1.25,12.65-11.28S188.9,71.41,188.9,71.41s22.77,3.76,44.27,8.77,29.09-5,29.09-5-6.32-40.09-43-40.09-64.5-21.3-68.3-5-11.38,50.11,0,76.42S159.81,146.58,167.4,135.3Z"/><path d="M253.4,445.16s-7.59,3.34-16-14.2-21.08-45.1-20.24-33.41,3.37,35.08,1.69,44.27-7.59,27.56,3.37,33.41,0,11.69,21.92,24.22S341.09,517,353.74,517s13.49-18.37,24.45-22.55,27.82-49.28,31.2-62.64,10.12-20.88,3.37-13.36-26.14,31.74-61.55,36.75S253.4,445.16,253.4,445.16Z"/><path class="cls-4" d="M253.4,445.16s13.49,4.18,30.35-.84,26.14-12.53,26.14-12.53,4.22,10.86,20.24,15.87,21.08,7.52,21.08,7.52,11,64.31,5.06,77.67-20.24-5-36.26,20-16.86,31.74-41.32,20.88-22.77-35.91-35.41-44.27-22.77-10-16.86-26.73S253.4,445.16,253.4,445.16Z"/><path class="cls-3" d="M413.6,266.43s-11,2.51-11.8,14.2,5.06,21.72,15.18,24.22,23.61,16.7,27.82,8.35,5.06-14.2-1.69-25.06S424.57,263.09,413.6,266.43Z"/><path class="cls-3" d="M248.34,248.89s-10.12,6.68-10.12,14.2,9.27,4.18,16,8.35,19.39,5,27.82-.84,16-35.08,4.22-35.08S248.34,248.89,248.34,248.89Z"/><path d="M309.05,402.56s-21.92-13.36-28.67-35.08,5.06-35.08,36.26-30.07,45.53,10,45.53,28.4-21.08,28.4-33.73,35.08S309.05,402.56,309.05,402.56Z"/><path d="M248.34,248.89s25.29-13.36,28.67-7.52,7.59,17.54,2.53,20.88S256.78,277.28,248.34,248.89Z"/><path d="M443.12,288.14s-14.33-9.19-25.29-14.2-11,16.7-.84,23.39S436.37,302.34,443.12,288.14Z"/><circle class="cls-5" cx="259.36" cy="251.81" r="4.59"/><circle class="cls-5" cx="273.56" cy="257.03" r="2.71"/><circle class="cls-5" cx="417.8" cy="284.79" r="4.59" transform="translate(2.05 572.56) rotate(-68.97)"/><circle class="cls-5" cx="429.18" cy="294.76" r="2.71" transform="translate(0.04 589.58) rotate(-68.97)"/><circle class="cls-5" cx="260.61" cy="250.56" r="4.59"/><circle class="cls-5" cx="274.81" cy="255.78" r="2.71"/><circle class="cls-5" cx="419.06" cy="283.54" r="4.59" transform="translate(4.02 572.93) rotate(-68.97)"/><circle class="cls-5" cx="430.44" cy="293.51" r="2.71" transform="translate(2.01 589.94) rotate(-68.97)"/></g></g></svg>