<svg xmlns="http://www.w3.org/2000/svg" viewBox="0 0 985.13 1443.47"><defs><style>.cls-1{fill:none;}.cls-2{fill:#e1cfc7;}.cls-3{fill:#eedfd9;}.cls-4{fill:#2d2824;}.cls-5{fill:#1d1a17;}.cls-6{fill:#fff;}</style></defs><title>COCKER SPANIEL 2</title><g id="Layer_2" data-name="Layer 2"><g id="Layer_1-2" data-name="Layer 1"><path class="cls-1" d="M882.57,1185.48c-17.77-3.23,2.94,27.34,20,49.52C903.41,1218.14,902,1189,882.57,1185.48Z"/><path class="cls-1" d="M438.46,262.11c-2.53.42-4.91,9.32-7,21C437.71,270,441.44,261.62,438.46,262.11Z"/><path class="cls-1" d="M74.63,1026.15c0,8.43,1.73,20.95,4,33.6,4.61-13.65,7.76-25.74,8.59-33.6C89.69,1002.31,74.63,1002.31,74.63,1026.15Z"/><path class="cls-1" d="M901.39,439c-8.11-17.12-6.51,27.24,2.94,65.22C906.21,477.45,906.54,449.88,901.39,439Z"/><path class="cls-1" d="M299.2,1358.61c7.84,1.57,24-7.65,35-14.78a150.26,150.26,0,0,1-26.27-4C274.11,1331,286.65,1356.1,299.2,1358.61Z"/><path class="cls-1" d="M829.88,841.72c-10.42-18.76-7.86,16.16,1.94,46.5C834.7,871.47,835.9,852.56,829.88,841.72Z"/><path class="cls-2" d="M412.11,1279.57s-22.58-90.33,6.27-119.18A80.56,80.56,0,0,0,433,1139.53a208.12,208.12,0,0,1-9.61-36.85c-5-28.86-10-90.33,17.56-134.24a401.7,401.7,0,0,0,24-43.19,476.84,476.84,0,0,1-17.78-57.18c-7.16-28.63,6.92-64.2,20.33-89.47a151.9,151.9,0,0,1-27.86,2.91s10-16.31,1.25-10S403.33,779,403.33,779s3.76-1.25,13.8-11.29-1.25-3.76-23.84-1.25-33.87-12.55-33.87-12.55,15.05-17.56,15.05-32.62-11.29,15.05-11.29,15.05-11.29-47.67-11.29-91.58c0-4.47.16-9.6.46-15.22l-19.28,15.22s-10,104.13,1.25,159.33-6.27,86.57-6.27,86.57,1.25-6.27-7.53-20.07,12.55,80.29-6.27,99.11c-4.08,4.08-9.4,5.5-15.46,5.11,10.5,12.38,43.31,53.76,63.13,109.06,23.84,66.49-27.6,154.31-27.6,154.31s26.35-61.47,21.33-85.31-17.56-23.84-21.33,15.05-3.76,100.37,20.07,124.2l.62.62c20.5,7.57,39.19,12.39,40.78,13.18,2.51,1.25-10-26.35,2.51-15.05,8.73,7.85,27.16,25.41,42.65,34.11-7.73-16.32-17.34-39.3-18.81-55.44C419.64,1241.93,412.11,1279.57,412.11,1279.57Z"/><path class="cls-2" d="M665.53,1269.53C648,1239.42,653,1201.79,643,1176.69s-7.53,16.31-16.31,33.87-50.18,50.18-50.18,50.18,1.25-6.27,3.76-22.58-7.53,8.78-23.84,59-40.15,59-43.91,61.47,11.29-10,17.56-38.89-5,2.51-17.56,25.09a87,87,0,0,1-13,17.35c8.61,10,17.68,20.82,26.75,30.32,26.35,27.6,125.46,71.51,176.89,40.15s41.4-65.24,21.33-91.58c-15-19.62-29.2-33-39.65-44.74,2.7,7.49,4.52,12.12,4.52,12.12S683.1,1299.64,665.53,1269.53Z"/><path class="cls-2" d="M454.66,1330a12,12,0,0,0,3.87-.24C457.95,1322.16,456.27,1324.9,454.66,1330Z"/><path class="cls-2" d="M976.67,1305.92c-12.71-15.25-41.44-33.94-65.33-51.42-14-4.13-41-13-56.37-23.85-21.33-15.05-15.05-25.09-20.07,6.27s-55.2,71.51-55.2,71.51a72.7,72.7,0,0,0,.6-8.56c-2.58,7.29-10.23,27.79,9.43,47.45,23.84,23.84,105.38,45.16,149.29,35.13S995.48,1328.5,976.67,1305.92Z"/><path class="cls-2" d="M767.15,1293.37s-32.62-43.91-36.38-72.77S722,1247,722,1247s-37.64-100.37-23.84-159.33-16.31-87.82-26.35-121.69-6.27,21.33,1.25,85.31c4.46,37.92-5.18,70.11-13.77,90a600.86,600.86,0,0,1,2.48,60.51c0,17.18,6.15,41.9,12.65,63.22,2.89-2.25,7.55-1.46,12.44,4.53,11.29,13.8,21.33,28.86,21.33,28.86s-6.27-46.42,1.25-20.07l10,35.13s12.55-16.31,15.05-27.6,11.29-12.55,11.29,2.51a223.67,223.67,0,0,1-1.25,25.09s30.82-15.41,35.75-16.33a118.1,118.1,0,0,0-3.13-26.33C772.17,1249.46,767.15,1293.37,767.15,1293.37Z"/><path class="cls-2" d="M653,1090.13c2.08,14.59,3.69,26.86,4.91,37.77A221.86,221.86,0,0,0,663,1082.6C663,1041.2,645.46,1037.44,653,1090.13Z"/><path class="cls-2" d="M435.95,1051.24c-14.31-14.31-5.3,58-1.47,85.27C448.84,1105.45,449.54,1064.83,435.95,1051.24Z"/><path class="cls-2" d="M467.31,859.29c-16.76-12.35-7.47,33.58-.48,62C478.78,894.17,482.59,870.54,467.31,859.29Z"/><path class="cls-2" d="M142.38,1264.51c-33.87-13.8-84.06-20.07-99.11,12.55S25.7,1331,25.7,1331s12.55,45.16,69,52.69c53.94,7.19,101-20,108.35-45.38-1.44-2.58-2.85-5.41-4.22-8.56C182.52,1292.12,176.25,1278.31,142.38,1264.51Z"/><path class="cls-3" d="M596.53,701.21c2.3-18.44-8.09-.89-15.63,18.62C588.66,715.48,595.51,709.39,596.53,701.21Z"/><path class="cls-3" d="M684.35,475.39c-8.07,0-7.13,22.33-5,40.87C690.76,493.15,694,475.39,684.35,475.39Z"/><path class="cls-3" d="M834.9,1236.91c5-31.36-1.25-21.33,20.07-6.27,15.36,10.84,42.42,19.73,56.37,23.85,5.43,1.6,8.87,2.49,8.87,2.49s-6.76-7.93-15-18.52c5.24-14.5,11.72-46.67-10.08-89.37-30.11-59-40.15-105.38-26.35-81.55s17.56,36.38,17.56,36.38,2.51-53.95-20.07-85.31-43.91-99.11-31.36-79,16.31,31.36,16.31,31.36,2.51-33.87-12.55-65.24c-.92-1.92-1.81-3.93-2.66-6,7.43-16.78,14.46-41.19,8.94-66.76-6.59-30.46-.75-55-6.94-76.39-10.77,2.63-18.15,3.63-18.15,3.63l3.76-6.27c3.76-6.27,3.76-13.8-8.78-6.27s-45.16,7.53-45.16,7.53,5-7.53,8.78-11.29,8.78-15.05-6.27-7.53-31.36,5-31.36,5,5-7.53-3.76-25.09-3.76,6.27-3.76,6.27a110.89,110.89,0,0,1-33.87-21.33c-16.31-15.05-5-23.84-18.82-42.66s6.27,23.84,6.27,23.84-13.8-11.29-31.36-38.89-20.07-59,5-95.35a262.73,262.73,0,0,0,17.08-28.33,164.17,164.17,0,0,1-3.28-38.16c.45-11.22,7-31,16.33-53.29-1.36-.2-2.63-.42-3.78-.65-18.82-3.76-21.33,5-50.18,3.76-27.48-1.19-27.67,7.85-50.39,7.62,4.2,10,8.18,18.49,11.49,23.74,15.05,23.84,17.56,85.31,17.56,104.13s15.05,82.8-5,122.95c-8.83,17.66-20.33,27.3-30.44,32.57-.32.85-.63,1.71-.93,2.56-7.53,21.33-31.36,27.6-31.36,27.6s1.25-20.07-7.53-3.76-43.91,28.86-47.67,32.62,0,0,2.51-7.53,2.51-10-11.29-1.25c-4.25,2.71-10.06,4.58-16,5.87-13.41,25.27-27.49,60.84-20.33,89.47A476.84,476.84,0,0,0,465,925.25a401.7,401.7,0,0,1-24,43.19c-27.6,43.91-22.58,105.38-17.56,134.24a208.12,208.12,0,0,0,9.61,36.85,80.56,80.56,0,0,1-14.63,20.86c-28.86,28.86-6.27,119.18-6.27,119.18s7.53-37.64,10-10c1.47,16.13,11.08,39.12,18.81,55.44,5.5,11.6,10,19.84,10,19.84s1.79-9,3.65-14.81c1.62-5.09,3.29-7.83,3.87-.24,1.25,16.31,17.56,51.44,17.56,51.44a117.24,117.24,0,0,0,23.43-19,87,87,0,0,0,13-17.35c12.55-22.58,23.84-53.95,17.56-25.09s-21.33,41.4-17.56,38.89,27.6-11.29,43.91-61.47,26.35-75.27,23.84-59-3.76,22.58-3.76,22.58,41.4-32.62,50.18-50.18,6.27-59,16.31-33.87,5,62.73,22.58,92.84,23.84,38.89,23.84,38.89-1.82-4.63-4.52-12.12c-2.86-7.92-6.7-19-10.43-31.3-6.5-21.32-12.65-46-12.65-63.22a600.86,600.86,0,0,0-2.48-60.51c8.59-19.93,18.23-52.12,13.77-90-7.53-64-11.29-119.18-1.25-85.31s40.15,62.73,26.35,121.69S722,1247,722,1247s5-55.2,8.78-26.35,36.38,72.77,36.38,72.77,5-43.91,10-22.58a118.1,118.1,0,0,1,3.13,26.33c0,1,0,1.89,0,2.75a72.7,72.7,0,0,1-.6,8.56S829.88,1268.28,834.9,1236.91Zm-399-185.68c13.59,13.59,12.9,54.21-1.47,85.27C430.64,1109.23,421.64,1036.93,435.95,1051.24Zm31.36-191.95c15.28,11.26,11.47,34.88-.48,62C459.84,892.87,450.55,846.94,467.31,859.29Zm415.26,326.19c19.47,3.54,20.83,32.67,20,49.52C885.51,1212.81,864.8,1182.25,882.57,1185.48ZM829.88,841.72c6,10.83,4.82,29.75,1.94,46.5C822,857.88,819.46,823,829.88,841.72Zm-172,286.17c-1.23-10.9-2.83-23.18-4.91-37.77-7.53-52.69,10-48.93,10-7.53A221.86,221.86,0,0,1,657.9,1127.9Z"/><path class="cls-4" d="M639.19,27.51c-11.29,27.6-6.27,50.18-2.51,72.77S668,160.49,704.42,201.89c28.82,32.79,45,78.15,51.15,103.71C772.26,275.91,773,251.45,779.7,227c7.53-27.6,30.11-43.91,30.11-43.91a12,12,0,0,1,3.06-4c-5.5-26.07-18.08-57.19-48.22-106.37C717-5.11,663,1.16,663,1.16S650.48-.09,639.19,27.51Zm65.86,81.55c19.45-6.9,32,12.55,32,12.55s9.41,20.07-11.92,27.6S695,140.42,695,140.42C694.39,138.54,685.61,116,705.05,109.06Z"/><path class="cls-4" d="M654.15.42c5.6.33,8.87.74,8.87.74S659.88.67,654.15.42Z"/><path class="cls-4" d="M513.73,284.7c13.86,20.78,27.71,43.36,35,55.35.34-6,.8-12.34,1.42-19,7.53-80.29,35.13-148,38.89-151.8,0,0,6.27-23.84,1.25-55.2S536.31,30,536.31,30C479.23,60.6,471.84,170.69,471.07,210.9,483.29,214.32,496.08,258.23,513.73,284.7Zm5.2-128.59s12.55-19.45,32-12.55,10.66,29.48,10,31.36c0,0-8.78,16.31-30.11,8.78S518.93,156.1,518.93,156.1Z"/><path class="cls-3" d="M334.33,1167.91c3.76-38.89,16.31-38.89,21.33-15.05s-21.33,85.31-21.33,85.31,51.44-87.82,27.6-154.31c-19.82-55.3-52.64-96.68-63.13-109.06-21.88-1.43-53.42-26.65-71.1-36.47-22.58-12.55,1.25,8.78,1.25,12.55s0,0-32.62-8.78-46.42-6.27-67.75,1.25-27.6-18.82-5-56.46c3.79-6.32,12.11-17.26,23.33-31.12-40.44,32.4-76.24,128.15-81,165.36-2.28,17.67,2.18,36.89,7.72,52.61-9.34,24.53-22.1,51.09-34.06,66.58-21.33,27.6-27.6,30.11-36.38,77.78s3.76,71.51,3.76,71.51a264.07,264.07,0,0,1,8.78-38.89c6.27-20.07,3.76,6.27,2.51,31.36S25.7,1331,25.7,1331s2.51-21.33,17.56-53.95,65.24-26.35,99.11-12.55,40.15,27.6,56.46,65.24c1.37,3.15,2.78,6,4.22,8.56,15.72,28.24,34.67,24.05,34.67,24.05s-21.33-23.84-10-15.05,27.6,20.07,69,17.56c26.17-1.59,38.79-12.69,44.55-20.65a315.11,315.11,0,0,0,48.29-1.93s-15.05-6.27-38.89-20.07-18.82-37.64-5-23.84,38.89,21.33,38.89,21.33-6.17-3.71-29.49-27l-.62-.62C330.56,1268.28,330.56,1206.8,334.33,1167.91ZM74.63,1026.15c0-23.84,15.05-23.84,12.55,0-.83,7.86-4,19.95-8.59,33.6C76.36,1047.09,74.63,1034.58,74.63,1026.15Zm259.62,317.68c-11,7.13-27.21,16.35-35,14.78-12.55-2.51-25.09-27.6,8.78-18.82A150.26,150.26,0,0,0,334.25,1343.83Z"/><path class="cls-5" d="M363.18,736.34s11.29-30.11,11.29-15.05-15.05,32.62-15.05,32.62,11.29,15.05,33.87,12.55,33.87-8.78,23.84,1.25S403.33,779,403.33,779s28.86-1.25,37.64-7.53-1.25,10-1.25,10a151.9,151.9,0,0,0,27.86-2.91c6-1.3,11.8-3.17,16-5.87,13.8-8.78,13.8-6.27,11.29,1.25s-6.27,11.29-2.51,7.53,38.89-16.31,47.67-32.62,7.53,3.76,7.53,3.76S571.44,746.38,579,725c.3-.85.61-1.7.93-2.56,10.11-5.27,21.61-14.91,30.44-32.57,20.07-40.15,5-104.13,5-122.95s-2.51-80.29-17.56-104.13c-3.31-5.25-7.3-13.72-11.49-23.74-1.13,0-2.31,0-3.56-.1-24.17-1.15-37.77-31.9-34-99-7.25-12-21.11-34.56-35-55.35-17.65-26.47-30.44-70.38-42.66-73.8a5.6,5.6,0,0,0-5,1c-13.8,10-38.89,23.84-41.4,70.26-.34,6.23-.58,11.81-.76,16.83-8.62,18.34-18.48,40.83-23.08,61-10,43.91,11.29,91.58-11.29,112.91C369.25,492,355,580,352.35,629.53c-.3,5.62-.46,10.75-.46,15.22C351.89,688.67,363.18,736.34,363.18,736.34Zm233.35-35.13c-1,8.18-7.87,14.27-15.63,18.62C588.44,700.33,598.84,682.78,596.53,701.21ZM438.46,262.11c3-.5-.75,7.9-7,21C433.55,271.44,435.93,262.53,438.46,262.11Z"/><path class="cls-5" d="M809.81,183.08S787.23,199.38,779.7,227c-6.67,24.46-7.44,48.92-24.12,78.62a108.88,108.88,0,0,1,2.79,15.47c1.25,16.31,18.82,41.4,7.53,76.53-10.6,33-54.37,33.89-75.26,30.76-9.32,22.33-15.88,42.07-16.33,53.29a164.17,164.17,0,0,0,3.28,38.16,262.73,262.73,0,0,1-17.08,28.33c-25.09,36.38-22.58,67.75-5,95.35s31.36,38.89,31.36,38.89-20.07-42.66-6.27-23.84,2.51,27.6,18.82,42.66a110.89,110.89,0,0,0,33.87,21.33s-5-23.84,3.76-6.27,3.76,25.09,3.76,25.09,16.31,2.51,31.36-5,10,3.76,6.27,7.53-8.78,11.29-8.78,11.29,32.62,0,45.16-7.53,12.55,0,8.78,6.27l-3.76,6.27s7.38-1,18.15-3.63c16.26-4,40.27-11.64,58.38-25.23,30.11-22.58,42.66-50.18,40.15-32.62s-6.27,32.62-6.27,32.62,27.6-26.35,23.84-74S940.28,573.25,919,541.88A79.71,79.71,0,0,1,911,526c7.19-27.19,12.94-62.07,4.17-85.7-16.31-43.91-35.13-53.95-35.13-86.57S873.79,296,865,268.39s-1.25-40.15-16.31-61.47c-13.26-18.78-27.48-34.63-35.83-27.87A12,12,0,0,0,809.81,183.08ZM679.4,516.26c-2.17-18.53-3.12-40.87,5-40.87C694,475.39,690.76,493.15,679.4,516.26Zm222-77.25c5.15,10.87,4.82,38.44,2.94,65.22C894.88,466.25,893.28,421.89,901.39,439Z"/><path class="cls-2" d="M589,169.28c-3.76,3.76-31.36,71.51-38.89,151.8-.62,6.63-1.08,12.93-1.42,19-3.73,67.07,9.87,97.81,34,99,1.25.06,2.43.09,3.56.1,22.72.22,22.9-8.82,50.39-7.62,28.86,1.25,31.36-7.53,50.18-3.76,1.15.23,2.42.45,3.78.65,20.89,3.13,64.66,2.21,75.26-30.76,11.29-35.13-6.27-60.22-7.53-76.53a108.88,108.88,0,0,0-2.79-15.47c-6.13-25.56-22.34-70.92-51.15-103.71-36.38-41.4-64-79-67.75-101.62s-8.78-45.16,2.51-72.77S663,1.16,663,1.16s-3.27-.41-8.87-.74C632-.9,573.36-1,536.31,30c0,0,48.93,52.69,53.95,84.06S589,169.28,589,169.28Zm120.46,244-4.62-1.08-4.56-1.31c-1.53-.41-3-.94-4.52-1.43s-3-1-4.47-1.58c-5.95-2.15-11.75-4.67-17.45-7.39-5.3-2.51-10.47-5.2-15.58-8.15A107.91,107.91,0,0,1,640.66,406a90.38,90.38,0,0,1-10.46,5.56,89,89,0,0,1-11.05,4.24A92.37,92.37,0,0,1,596,419.89a76.56,76.56,0,0,1-23.26-2.21,90.34,90.34,0,0,0,23.11.24A100,100,0,0,0,607.15,416a90.87,90.87,0,0,0,11-3.18,100.67,100.67,0,0,0,20.57-9.94,116.71,116.71,0,0,0,18-14.12l1-1,1.21.73c2.63,1.58,5.37,3.12,8.1,4.59s5.48,3,8.27,4.36,5.6,2.75,8.41,4.08l4.25,2,4.3,1.84a166.27,166.27,0,0,0,17.58,6.34,89.86,89.86,0,0,0,18.38,3.51A75,75,0,0,1,709.47,413.3Zm-8.81-123.58c6.27,23.21-20.07,61.47-57.08,62.73-.63,0-30.11-3.14-46.42-29.48S589.63,273.4,628.52,269,694.39,266.5,700.66,289.71Z"/><path class="cls-5" d="M128.58,943.34c21.33-7.53,35.13-10,67.75-1.25s32.62,12.55,32.62,8.78-23.84-25.09-1.25-12.55c17.69,9.83,49.22,35,71.1,36.47,6.06.4,11.38-1,15.46-5.11,18.82-18.82-2.51-112.91,6.27-99.11s7.53,20.07,7.53,20.07,17.56-31.36,6.27-86.57-1.25-159.33-1.25-159.33c-3.13,2.09-130.5,142.32-186.18,211-11.23,13.85-19.54,24.8-23.33,31.12C101,924.53,107.25,950.87,128.58,943.34Z"/><path d="M597.16,323c16.31,26.35,45.79,29.5,46.42,29.48,37-1.25,63.36-39.52,57.08-62.73s-33.25-25.09-72.14-20.7S580.85,296.61,597.16,323Z"/><path d="M725.12,149.2c21.33-7.53,11.92-27.6,11.92-27.6s-12.55-19.45-32-12.55-10.66,29.48-10,31.36C695,140.42,703.8,156.73,725.12,149.2Zm0-18.19a3.76,3.76,0,1,1-3.76,3.76A3.76,3.76,0,0,1,725.12,131Zm-16.94-12.55a5.65,5.65,0,1,1-5.65,5.65A5.65,5.65,0,0,1,708.19,118.47Z"/><path d="M530.84,183.7c21.33,7.53,30.11-8.78,30.11-8.78.63-1.88,9.41-24.46-10-31.36s-32,12.55-32,12.55S509.52,176.18,530.84,183.7Zm18.64-17.56a3.76,3.76,0,1,1-3.76,3.76A3.76,3.76,0,0,1,549.49,166.14Zm-16.94-12.55a5.65,5.65,0,1,1-5.65,5.65A5.65,5.65,0,0,1,532.55,153.59Z"/><circle class="cls-6" cx="532.55" cy="159.24" r="5.65"/><circle class="cls-6" cx="549.49" cy="169.9" r="3.76"/><circle class="cls-6" cx="708.19" cy="124.11" r="5.65"/><circle class="cls-6" cx="725.12" cy="134.77" r="3.76"/><path d="M692.3,405.33l-4.3-1.84-4.25-2c-2.82-1.33-5.64-2.65-8.41-4.08s-5.54-2.87-8.27-4.36-5.48-3-8.1-4.59l-1.21-.73-1,1a116.71,116.71,0,0,1-18,14.12,100.67,100.67,0,0,1-20.57,9.94,90.87,90.87,0,0,1-11,3.18,100,100,0,0,1-11.35,1.91,90.34,90.34,0,0,1-23.11-.24A76.56,76.56,0,0,0,596,419.89a92.37,92.37,0,0,0,23.19-4.11,89,89,0,0,0,11.05-4.24A90.38,90.38,0,0,0,640.66,406a107.91,107.91,0,0,0,17.6-13.62c5.1,3,10.28,5.64,15.58,8.15,5.7,2.71,11.5,5.23,17.45,7.39,1.47.58,3,1.07,4.47,1.58s3,1,4.52,1.43l4.56,1.31,4.62,1.08a75,75,0,0,0,18.8,1.87,89.86,89.86,0,0,1-18.38-3.51A166.27,166.27,0,0,1,692.3,405.33Z"/></g></g></svg>