<svg xmlns="http://www.w3.org/2000/svg" viewBox="0 0 660.51 1579.21"><defs><style>.cls-1{fill:#d5bdb6;}.cls-2{fill:#e1cfc7;}.cls-3{fill:#eedfd9;}.cls-4{fill:#1d1a17;}.cls-5{fill:#26221e;}.cls-6{fill:#fff;}</style></defs><title>DALMATION</title><g id="Layer_2" data-name="Layer 2"><g id="Layer_1-2" data-name="Layer 1"><path class="cls-1" d="M430.6,1054.35c-3.32-18.28-1.85,3.48-17.17,26.69a134.35,134.35,0,0,1-15.16,22.71c-17.24,20.69-31,25.29-17.24,21.84s-32.19,33.34-54,35.64-31-18.39-27.59-36.79c.5-2.69,1.45-4.34,2.77-5.22a78.69,78.69,0,0,1-10.85-10.32c-1.82-.44-3.72-1-5.71-1.7-23-8-35.64-40.24-33.34-57.48,1-7.32,2.16-9.66,4.44-8.44-5.28-16.83-8.27-31.85-8.88-40.39-1.72-24.14-5.17,65.53-15.52,132.78s6.9,215.54,8.62,239.69c.64,8.94,3.17,26.17,5.76,45a35.84,35.84,0,0,0,6.31-7.09c6.9-12.07,15.52-25.87,15.52-25.87s72.42,29.31,125.88,12.07c20-6.45,33.5-11.22,42.54-14.65.76-38,0-87.71,2.3-113C442.68,1232,434.05,1073.32,430.6,1054.35Zm-130.06,254c-9.2,18.39-19.54-25.29-47.13-37.94s-3.45-40.24-3.45-40.24C266.06,1210.67,309.75,1290,300.55,1308.39Zm-21.84-128.76c-14.95-2.3-26.44-33.34-26.44-40.24,0,0-2.3-19.54,11.5-17.24s37.94,41.39,42.54,57.48S293.65,1181.93,278.71,1179.63Zm116.11,154.05c-6.9,4.6-17.24,10.35-32.19,10.35s-14.95-14.95-16.09-35.64,29.07,14.52,32.19,12.65C390.22,1314.14,401.72,1329.08,394.82,1333.68Zm20.69-146c-3.45,16.09-24.14,44.84-48.28,40.24s-13.8-21.84,11.5-28.74,28.74-33.34,28.74-33.34C422.41,1145.14,419,1171.58,415.51,1187.68Z"/><path class="cls-1" d="M347.68,1131.34c8.05-1.79,10-3.76,10.55-6.16a69.18,69.18,0,0,1-24.78,5C338.18,1131.66,343,1132.38,347.68,1131.34Z"/><path class="cls-1" d="M147.89,1377.25c-15.28,23.83-48.35,21.67-74.23,37.49-31,19-46.56,58.63-29.31,65.53,14.34,5.74,57.28-1.64,89.19-6.27,2-6.33,3.87-12.87,5.65-19.59C148.18,1420.44,149.07,1402.1,147.89,1377.25Z"/><path class="cls-1" d="M603,1413c-39.66-27.59-25.87-65.53-25.87-101.74s46.56-151.74,10.35-227.62c-17.21-36.06-31.7-62.77-51.24-81.8-1.9,43.84-6.39,99.1-7.39,142.15-1.72,74.15,1.72,279.35,17.24,317.28,6.12,15,12,29.38,16.81,42.84,41.82,10,88.45,8.71,95.27-8.36C668.57,1469.92,642.7,1440.61,603,1413ZM553.47,1123.3c6.9-21.84,28.74-25.29,35.64-10.35s-1.15,43.69-1.15,43.69-25.29,18.39-32.19,4.6S546.57,1145.14,553.47,1123.3ZM550,1234.81c-13.8-9.2,2.75-18,6.9-25.29,4.6-8,24.14-4.6,16.09,12.65S563.81,1244,550,1234.81Z"/><path class="cls-1" d="M133.34,1018.27c-22.15,15.51-53.17,43.62-59.68,82.64C63.32,1163,58.14,1190.58,84,1223.34c16.7,21.16,44.9,53.81,60.47,85.91,0-1.6-.08-3.21-.12-4.86C143,1242.93,139.62,1099.72,133.34,1018.27Zm-40.87,183.2c-13.8,6.9-19.54-4.6-23-32.19s6.9-47.13,6.9-47.13c9.2,2.3,34.49,32.19,34.49,60.93S106.26,1194.57,92.47,1201.47Z"/><path class="cls-2" d="M528.89,1144c1-43.05,5.49-98.31,7.39-142.15,1.37-31.66,1.4-57.37-2.22-68.22-8.62-25.87-8.62-44.83,0-63.8,5.85-12.86,13.27-61.4,11-114.43a90.46,90.46,0,0,1-.8,17.25c-4.6,27.59-18.39,55.18-20.69,41.39s8-19.54,11.5-36.79,9.2-41.39-17.24-72.43S533.92,683,533.92,683s9,37.46,10.89,67.12c-1.29-23.53-4.55-47.74-10.74-69.94-5.35-19.18-12.32-39.4-19.71-58.83-.1,5.4-2.55,6-8-.42-12.65-14.95-12.65-18.39-14.95-33.34s6.9-17.24-17.24-24.14-26.44-34.49-4.6-44.84l.29.38c-.84-1.7-1.3-2.62-1.3-2.62s-63.8-101.74-75.87-134.5,11.64-66.6,31-91.39a165.32,165.32,0,0,0,16.07-24.3c-21.9,4-44,25.3-71.4,35.15-28.74,10.35-73.58-23-108.07-19.54-16.07,1.61-33.38-5-47.3-12.57,1,3.12,1.95,6.1,2.74,8.88,10,27.2,9.39,44.69.87,54.28a34,34,0,0,1-11.75,8.72c-4.63,5.6-20.31,10.09-44.57,6.42,4.11,16.08,8.16,41.78,3,70.57-8.62,48.28-39.66,79.32-46.56,122.43s3.45,86.22-17.24,125.88,20.69,124.15,17.24,162.09,0,94.84,10.35,137.95c2.33,9.71,4.4,28.19,6.22,51.86,6.28,81.45,9.69,224.66,11,286.11,0,1.65.08,3.27.12,4.86.8,30.61,2.6,50.86,3.41,68,1.18,24.84.29,43.18-8.7,77.15-1.78,6.72-3.7,13.26-5.65,19.59-15.1,48.88-32.57,85.25-8.14,95.94,27.59,12.07,93.12,13.79,110.36-3.45s8.62-56.9,15.52-70.7c4.34-8.68-.2-45.38-4.59-77.41-2.58-18.85-5.12-36.08-5.76-45-1.72-24.14-19-172.44-8.62-239.69s13.79-156.92,15.52-132.78c.61,8.54,3.6,23.56,8.88,40.39,3.08,1.65,8.15,9.84,17.41,21.08,16.09,19.54,44.37,19.46,44.84,26.44,1,15.75-8.46,24.78-27.63,20.09a78.69,78.69,0,0,0,10.85,10.32c5.65-3.8,18.07,6.69,31.28,10.92a69.18,69.18,0,0,0,24.78-5c.85-3.78-1.79-8.66,10.15-15.68,19.54-11.5-2.3-6.9-18.39-11.5s-32.19-28.74-20.69-43.69,19.54,28.74,19.54,28.74c10.35,3.45,37.94-10.35,59.78-21.84,14.58-7.68,12.77,4.64,4.82,19.83,15.32-23.21,13.85-45,17.17-26.69,3.45,19,12.07,177.61,8.62,215.54-2.29,25.24-1.54,74.91-2.3,113-.38,19.12-1.15,35.31-2.88,44-5.17,25.87,3.45,44.83,8.62,58.63s1.72,81,34.49,87.94,98.29,8.62,98.29-15.52c0-14.62-5.06-33-12.5-53.72-4.84-13.46-10.69-27.88-16.81-42.84C530.62,1423.36,527.17,1218.17,528.89,1144ZM445.4,720.93c-3.45,10.35-11.5,17.24-29.89,18.39s-8-3.45-10.35-24.14,16.09-3.45,16.09-3.45S448.85,710.58,445.4,720.93ZM308.6,938.21c-17.24-2.3,21.84-43.69,21.84-43.69,6.9-8,19.54,29.89,11.5,46S325.84,940.51,308.6,938.21Zm14.95,41.39c-10.35,11.5-26.44,12.65-46,8s16.09-31,16.09-31C304,940.51,333.89,968.1,323.54,979.59ZM278.71,771.51c-21.84-8,3.61-14.44,6.9-18.39,11.5-13.8,36.79,4.6,29.89,18.39S300.55,779.56,278.71,771.51Zm66.68-36.79c-9.2-16.09,5.94-22.88,9.2-28.74,11.5-20.69,23,31,19.54,48.28s-8,14.95-25.29,14.95S354.58,750.82,345.38,734.72Zm13.8,113.81c19.54-36.79,48.28,10.35,44.84,28.74s-21.84,4.6-39.09,2.3S359.18,848.54,359.18,848.54Zm16.09,50.58c10.35-11.5,36.79,24.14,28.74,33.34s-16.09,9.2-35.64-6.9S370.79,904.1,375.28,899.12ZM409.76,683c-8,16.09-9.2,8-21.84,4.6s3.48-20.3,6.9-24.14C404,653.1,417.81,666.89,409.76,683Zm-31-304.65c12.65-23,33.34,77,18.39,116.11s-9.2-2.3-9.2-29.89,2.3-48.28-13.8-59.78S374.4,386.21,378.72,378.34ZM335,474.91c37.94-11.5-3.45,36.79-18.39,60.93s-13.8,32.19,3.45,29.89S350,587.57,346.53,606s9.2,31,20.69,54-3.45,13.8-9.2,24.14-13.8,1.15-14.95-12.65-1.15-21.84-18.39-20.69-24.14,0-34.49-9.2-13.8,5.75-25.29,2.3,10.35-66.68,10.35-66.68S297.1,486.4,335,474.91ZM264.91,289.82c14.95-12.65,16.09,12.65,6.9,25.29s-11.5-2.3-25.29-2.3S264.91,289.82,264.91,289.82ZM214.33,391c9.2-13.8,21.84,21.24,21.84,16.09,0-20.69,13.8-32.19,36.79-18.39s-4.6,25.29-13.8,49.43-10.35,57.48-19.54,34.49-3.45-32.19-18.39-47.13S205.13,404.78,214.33,391ZM190.18,919.81c-3.45,9.2-8,16.09-21.84,21.84s-4.62-21,1.15-27.59C177.54,904.87,193.63,910.62,190.18,919.81ZM156.85,829c-13.8-9.2-6.85-20.9-4.6-29.89,5.75-23,26.44,10.35,27.59,32.19S170.64,838.19,156.85,829Zm9.2-77c-21.84-6.9-1.15,5.75-13.8,11.5s-24.14-14.95-16.09-31,17.24,2.3,17.24,2.3,3.45-16.09,19.54-21.84,24.14,17.24,29.89,36.79S187.89,758.87,166,752Zm26.44-52.88C189,686.44,209.87,688,210.88,683c2.3-11.5,44.84,23,44.84,35.64s-13.8,16.09-31,12.65S195.93,711.73,192.48,699.08Zm41.39-102.32c3.45-1.15,12.65,43.69,2.3,31s-9.2,0-19.54-19.54S233.87,596.77,233.87,596.77ZM227,462.26c6.9,17.24,5.75,27.59-6.9,39.09s-11.5-36.79-12.65-42.54C207.43,458.81,220.08,445,227,462.26Zm-39.09-52.88c4.6-27.59,10.35-4.6,9.2,17.24s2.3,28.74-13.8,10.35S187.89,409.38,187.89,409.38Zm0,94.27c-5.75-16.09,14.79,2.34,13.8-2.3-6.9-32.19,20.69,21.84,17.24,32.19s-12.65,12.65-14.95,31-14.95,16.09-29.89,5.75a23,23,0,0,1-2.24-1.77c-3.55,12.89-11.14,29.76-19.61,43.16-13.8,21.84-4.6-14.95-13.8-44.84s12.65-23,16.09-23a30.7,30.7,0,0,1,11.26,1.42c1.74-5.71,5.51-10.61,10.59-12.91C189,526.64,193.63,519.74,187.89,503.65ZM137.3,504.8C158,485.25,181,451.91,170.64,479.51S125.81,568,125.81,561.13C125.81,557.68,116.61,524.34,137.3,504.8ZM115.46,658.85c11.5-33.34,23,19.54,24.14,33.34s-4.6,10.35-20.69,1.15S115.46,658.85,115.46,658.85Zm0,125.31c-8,9.2-9.2-34.49-9.2-34.49s9.2-12.65,17.24-5.75S123.51,775,115.46,784.16ZM125.81,806c5.75-26.44,17.24,12.65,9.2,26.44S124.34,812.74,125.81,806Zm3.45,48.28c3.45-26.44,16.09,27.59,5.75,31S129.25,854.28,129.25,854.28Zm23,112.66c-4.6,12.65-6.9,21.84-16.09,21.84s-4.6-27.59-4.6-27.59C136.15,949.7,156.85,954.3,152.25,966.95Zm1.15-119.56c1.15-16.09,17.24,13.8,17.24,13.8s8,18.39,3.45,31-13.8,0-14.95-17.24S152.25,863.48,153.4,847.39ZM181,1135.94c-10.35,3.45-24.14-11.5-23-26.44s25.29-3.45,25.29-3.45C200.53,1109.5,191.33,1132.49,181,1135.94Zm47.13,170.15c-1.15,10.35-11.5,6.9-26.44,5.75s6.9-31,12.65-32.19C231.57,1276.2,229.27,1295.74,228.12,1306.09Zm-13.8-118.41c16.09-28.74,10.35,52.88,9.2,67.83s-20.69-37.94-21.84-60.93S212.3,1191.29,214.33,1187.68Zm-5.75-71.28c-16.09,11.5-2.3-58.63-1.15-65.53,0,0-4.6-16.09,13.8-26.44S224.67,1104.9,208.58,1116.4Zm36.79-319.6c16.09-12.65,26.44,21.84,12.65,33.34s-14.95-3.45-25.29-17.24S245.37,796.8,245.37,796.8Zm60.93,250.62c-17.24,5.75-46-18.39-50.58-23s-8-36.79-8-36.79c-13.8,0-19.54-17.24-6.9-23s16.09-14.95,18.39-31-4.6-23-4.6-23c-2.3-4.6-26.44-41.39-10.35-48.28s32.19-17.24,24.14,2.3,13.8-2.3,25.29,12.65,16.09,48.28,3.45,44.84-23-6.9-23-1.15,10.35,9.2,1.15,29.89c-6.76,15.22-11,27.94-18.32,33.61,6.45,6.88,16.53,20.12,32.12,22.72,27.59,4.6,32.19-5.75,48.28-2.3S323.54,1041.67,306.3,1047.42ZM364.93,1029c-21.84-6.9-11.5-33.34-24.14-46s-9.2-18.39,13.8-28.74,9.2,14.95,9.2,18.39c0,0,13.8,10.35,16.09,24.14s-1.15,16.09,8,25.29S386.77,1035.93,364.93,1029ZM404,1046.27c-16.09,8,8-39.09-12.65-51.73s5.75-31,5.75-31c3.45-21.84,20.69-11.5,28.74,10.35S420.11,1038.22,404,1046.27Zm60.93,134.51c-4.6,18.39-4.6,11.5-19.54,1.15s.72-36.67,1.15-41.39c2.3-25.29,13.8-23,17.24-10.35S469.54,1162.38,464.95,1180.78ZM458,1064.67c-9.2,5.75-13.8-32.19-17.24-21.84s-3.45,3.45-12.65-10.35,4.24-21.4,8-27.59l.41-.65c2.91-10.56,7.22-24.63,4.19-36.14-5.75-21.84,12.65-41.39,12.65-41.39,4.6-6.9,16.09,4.6,8,19.54s-5.75,17.24-1.15,37.94-9.2,34.49-21.84,35.64c3.45,5.75,8-3.45,25.29,3.45S467.25,1058.92,458,1064.67Zm14.95-77c5.75-26.44,25.29,11.5,26.44,25.29s-4.6,10.35-19.54,10.35S470.68,998.3,473,987.64Zm44.84,108.07c-13.8,17.24-12.65,9.2-26.44-18.39s14.34-23.54,20.69-29.89C523.58,1035.93,531.62,1078.46,517.83,1095.71Z"/><path class="cls-3" d="M175.24,70.24s-2.3,44.84-6.9,67.83,4.6,55.18,25.29,88.52c8.46,13.64,15,29.38,19.38,42.61,13.92,7.54,31.22,14.18,47.3,12.57,34.49-3.45,79.32,29.89,108.07,19.54,27.36-9.85,49.5-31.14,71.4-35.15,1.11-.2,2.22-.38,3.32-.49,23-2.3,48.28,5.75,59.78-10.35s16.48-39.85,16.48-39.85,8.81-7.28,11.11-25.68-12.65-52.88-23-73.58S464.95,80.58,442,73.69s-8-28.74-27.59-41.39S338.49-10.24,267.21,3.56c-50.87,9.85-81.23,35.49-97.8,56.9C171.71,62.06,173.7,65.12,175.24,70.24Zm256.37,43.69s72.43-9.2,78.17,10.35-13.8,48.28-20.69,54-14.95,0-34.49-17.24-18.39-8-27.59-24.14S431.61,113.92,431.61,113.92ZM404,100.13c-2.3,9.2-5.75,4.6-16.09,6.9s5.75-17.24,5.75-17.24C399.42,78.28,406.32,90.93,404,100.13ZM373,18.5c17.24,0,16.09,21.84,16.09,21.84S355.73,18.5,373,18.5ZM237.32,197.85c-11.5-8,0-19.54,0-19.54,0-19.54,14.95,11.5,16.09,23S248.82,205.89,237.32,197.85ZM300.55,17.35c3.45,6.9-13.72,6.38-16.09,1.15C278.71,5.86,297.1,10.46,300.55,17.35ZM229.27,78.28c8-16.09,4.6-9.2,34.49-31S282.16,41.5,304,50.69s26.83,25.19,27.59,28.74c3.45,16.09-14.95,44.84-28.74,57.48S281,138.07,258,139.21s-19.54-11.5-27.59-18.39S221.22,94.38,229.27,78.28Z"/><path class="cls-3" d="M118.91,94.38s13.8,1.15,20.69,23,6.9,69,4.6,86.22S124.66,222,117.76,242.68s-20.69,8-40.24,10.35-6.9,4.6,5.75,32.19S138.45,327.75,166,333.5s39.09-4.6,40.24,3.45a5.29,5.29,0,0,1-1.41,4.13,34,34,0,0,0,11.75-8.72c8.52-9.59,9.14-27.07-.87-54.28,4,14.24,4.86,23.19,2,18.64-5.75-9.2-11.5-18.39-20.69-11.5S164.89,291,153.4,266.82s-8-35.64-1.15-57.48,17.24,0,3.45-28.74-2.3-75.88-10.35-86.22c-6.85-8.8-13.68-13.44-8.5-18.88-7.75,3.39-19.1,10.67-32.12,26.27C113.69,93.08,118.91,94.38,118.91,94.38ZM153.4,316.26c-9.2,18.39-25.29-10.35-43.69-18.39s-6.9-8-3.45-29.89S136.15,253,136.15,253C164.89,265.67,162.59,297.86,153.4,316.26Z"/><path class="cls-4" d="M145.35,94.38c8,10.35-3.45,57.48,10.35,86.22s3.45,6.9-3.45,28.74-10.35,33.34,1.15,57.48,34.49,25.29,43.69,18.39,14.95,2.3,20.69,11.5c2.84,4.55,2-4.4-2-18.64-.79-2.78-1.7-5.76-2.74-8.88-4.38-13.23-10.92-29-19.38-42.61-20.69-33.34-29.89-65.53-25.29-88.52s6.9-67.83,6.9-67.83c-1.54-5.12-3.53-8.18-5.83-9.78-8-5.58-19.73,6.72-28.66,12.08a18.57,18.57,0,0,0-3.9,3C131.67,80.94,138.5,85.58,145.35,94.38Z"/><path class="cls-4" d="M204.87,341.08a5.29,5.29,0,0,0,1.41-4.13c-1.15-8-12.65,2.3-40.24-3.45s-70.13-20.69-82.77-48.28S58,255.33,77.52,253s33.34,10.35,40.24-10.35,24.14-21.84,26.44-39.09,2.3-64.38-4.6-86.22-20.69-23-20.69-23-5.22-1.3-14.18,7.39a79,79,0,0,0-10,12.16C79.82,135.77,67.17,130,54.53,150.71S2.8,213.94.5,230s3.45,9.2,16.09,27.59,37.94,39.09,58.63,52.88S109.71,335.8,147.65,345c4.45,1.08,8.66,1.89,12.66,2.5C184.56,351.17,200.24,346.68,204.87,341.08Z"/><path class="cls-4" d="M106.26,268c-3.45,21.84-14.95,21.84,3.45,29.89s34.49,36.79,43.69,18.39,11.5-50.58-17.24-63.23C136.15,253,109.71,246.13,106.26,268Z"/><path class="cls-4" d="M237.32,178.3s-11.5,11.5,0,19.54,17.24,14.95,16.09,3.45S237.32,158.76,237.32,178.3Z"/><path class="cls-4" d="M246.52,312.81c13.8,0,16.09,14.95,25.29,2.3s8-37.94-6.9-25.29C264.91,289.82,232.72,312.81,246.52,312.81Z"/><path class="cls-4" d="M230.42,120.82c8,6.9,4.6,19.54,27.59,18.39s31,10.35,44.84-2.3S335,95.53,331.59,79.43c-.76-3.55-5.75-19.54-27.59-28.74s-10.35-25.29-40.24-3.45-26.44,14.95-34.49,31S222.37,113.92,230.42,120.82Z"/><path class="cls-4" d="M387.92,107c10.35-2.3,13.8,2.3,16.09-6.9s-4.6-21.84-10.35-10.35C393.67,89.78,377.57,109.32,387.92,107Z"/><path class="cls-4" d="M300.55,17.35c-3.45-6.9-21.84-11.5-16.09,1.15C286.83,23.74,304,24.25,300.55,17.35Z"/><path class="cls-4" d="M389.07,40.35S390.22,18.5,373,18.5,389.07,40.35,389.07,40.35Z"/><path class="cls-4" d="M454.6,161.06c19.54,17.24,27.59,23,34.49,17.24s26.44-34.49,20.69-54-78.17-10.35-78.17-10.35-13.8,6.9-4.6,23S435.06,143.81,454.6,161.06Z"/><path class="cls-4" d="M264.91,643.9c11.5,3.45,14.95-11.5,25.29-2.3s17.24,10.35,34.49,9.2,17.24,6.9,18.39,20.69,9.2,23,14.95,12.65,20.69-1.15,9.2-24.14-24.14-35.64-20.69-54-9.2-42.54-26.44-40.24-18.39-5.75-3.45-29.89S373,463.41,335,474.91s-59.78,102.32-59.78,102.32S253.41,640.45,264.91,643.9Z"/><path class="cls-4" d="M374.13,404.78c16.09,11.5,13.8,32.19,13.8,59.78s-5.75,69,9.2,29.89-5.75-139.11-18.39-116.11C374.4,386.21,358,393.28,374.13,404.78Z"/><path class="cls-4" d="M239.62,472.61c9.2,23,10.35-10.35,19.54-34.49S296,402.48,273,388.68s-36.79-2.3-36.79,18.39c0,5.14-12.65-29.89-21.84-16.09s-8,19.54,6.9,34.49S230.42,449.61,239.62,472.61Z"/><path class="cls-4" d="M220.08,501.35c12.65-11.5,13.8-21.84,6.9-39.09s-19.54-3.45-19.54-3.45C208.58,464.56,207.43,512.84,220.08,501.35Z"/><path class="cls-4" d="M165.8,545.3a12.83,12.83,0,0,1,7.14,5.48c1.78,3.11,1.14,9.65-1.09,17.77a23,23,0,0,0,2.24,1.77C189,580.67,201.68,583,204,564.58s11.5-20.69,14.95-31-24.14-64.38-17.24-32.19c1,4.63-19.54-13.8-13.8,2.3s1.15,23-11.5,28.74C171.32,534.69,167.54,539.59,165.8,545.3Z"/><path class="cls-4" d="M172.94,550.78a12.83,12.83,0,0,0-7.14-5.48,30.7,30.7,0,0,0-11.26-1.42c-3.45,0-25.29-6.9-16.09,23s0,66.68,13.8,44.84c8.47-13.41,16.06-30.27,19.61-43.16C174.08,560.44,174.72,553.89,172.94,550.78Z"/><path class="cls-4" d="M170.64,479.51C181,451.91,158,485.25,137.3,504.8s-11.5,52.88-11.5,56.33C125.81,568,160.29,507.1,170.64,479.51Z"/><path class="cls-4" d="M197.08,426.62c1.15-21.84-4.6-44.84-9.2-17.24,0,0-20.69,9.2-4.6,27.59S195.93,448.47,197.08,426.62Z"/><path class="cls-4" d="M394.82,663.45c-3.42,3.84-19.54,20.69-6.9,24.14s13.8,11.5,21.84-4.6S404,653.1,394.82,663.45Z"/><path class="cls-4" d="M405.17,715.18c2.3,20.69-8,25.29,10.35,24.14s26.44-8,29.89-18.39-24.14-9.2-24.14-9.2S402.87,694.49,405.17,715.18Z"/><path class="cls-4" d="M374.13,754.27c3.45-17.24-8-69-19.54-48.28-3.26,5.86-18.39,12.65-9.2,28.74s-13.8,34.49,3.45,34.49S370.68,771.51,374.13,754.27Z"/><path class="cls-4" d="M224.67,731.27c17.24,3.45,31,0,31-12.65S213.18,671.49,210.88,683c-1,5-21.84,3.45-18.39,16.09S207.43,727.83,224.67,731.27Z"/><path class="cls-4" d="M236.17,627.81c10.35,12.65,1.15-32.19-2.3-31,0,0-27.59-8-17.24,11.5S225.82,615.16,236.17,627.81Z"/><path class="cls-4" d="M202.83,749.67c-5.75-19.54-13.8-42.54-29.89-36.79s-19.54,21.84-19.54,21.84-9.2-18.39-17.24-2.3,3.45,36.79,16.09,31-8-18.39,13.8-11.5S208.58,769.21,202.83,749.67Z"/><path class="cls-4" d="M258,830.14c13.8-11.5,3.45-46-12.65-33.34,0,0-23,2.3-12.65,16.09S244.22,841.64,258,830.14Z"/><path class="cls-4" d="M285.6,753.12c-3.29,3.95-28.74,10.35-6.9,18.39s29.89,13.8,36.79,0S297.1,739.32,285.6,753.12Z"/><path class="cls-4" d="M179.84,831.29c-1.15-21.84-21.84-55.18-27.59-32.19-2.25,9-9.2,20.69,4.6,29.89S181,853.13,179.84,831.29Z"/><path class="cls-4" d="M174.09,892.22c4.6-12.65-3.45-31-3.45-31s-16.09-29.89-17.24-13.8,4.6,10.35,5.75,27.59S169.49,904.87,174.09,892.22Z"/><path class="cls-4" d="M169.49,914.06c-5.77,6.59-14.95,33.34-1.15,27.59s18.39-12.65,21.84-21.84S177.54,904.87,169.49,914.06Z"/><path class="cls-4" d="M256.93,984.47c7.28-5.67,11.56-18.39,18.32-33.61,9.2-20.69-1.15-24.14-1.15-29.89s10.35-2.3,23,1.15,8-29.89-3.45-44.84-33.34,6.9-25.29-12.65-8-9.2-24.14-2.3,8,43.69,10.35,48.28c0,0,6.9,6.9,4.6,23s-5.75,25.29-18.39,31-6.9,23,6.9,23C249.17,977.64,252,979.17,256.93,984.47Z"/><path class="cls-4" d="M123.51,743.92c-8-6.9-17.24,5.75-17.24,5.75s1.15,43.69,9.2,34.49S131.55,750.82,123.51,743.92Z"/><path class="cls-4" d="M118.91,693.34c16.09,9.2,21.84,12.65,20.69-1.15S127,625.51,115.46,658.85C115.46,658.85,102.81,684.14,118.91,693.34Z"/><path class="cls-4" d="M135,885.32c10.35-3.45-2.3-57.48-5.75-31C129.25,854.28,124.66,888.77,135,885.32Z"/><path class="cls-4" d="M135,832.44c8-13.8-3.45-52.88-9.2-26.44C124.34,812.74,127,846.24,135,832.44Z"/><path class="cls-4" d="M474.14,563.43c24.14,6.9,14.95,9.2,17.24,24.14s2.3,18.39,14.95,33.34c5.47,6.46,7.92,5.82,8,.42.13-7.09-3.8-22.39-10.32-40.66-10.74-30.08-31.52-58.15-34.2-61.7l-.29-.38C447.7,528.94,450,556.53,474.14,563.43Z"/><path class="cls-4" d="M517.83,704.83c26.44,31,20.69,55.18,17.24,72.43s-13.8,23-11.5,36.79,16.09-13.8,20.69-41.39a90.46,90.46,0,0,0,.8-17.25q-.09-2.6-.26-5.31C542.94,720.45,533.92,683,533.92,683S491.39,673.79,517.83,704.83Z"/><path class="cls-4" d="M368.38,925.56c19.54,16.09,27.59,16.09,35.64,6.9s-18.39-44.84-28.74-33.34C370.79,904.1,348.83,909.47,368.38,925.56Z"/><path class="cls-4" d="M364.93,879.58c17.24,2.3,35.64,16.09,39.09-2.3s-25.29-65.53-44.84-28.74C359.18,848.54,347.68,877.28,364.93,879.58Z"/><path class="cls-4" d="M463.8,1023.28c-17.24-6.9-21.84,2.3-25.29-3.45-6,.54-4.5-6.12-1.89-15.59l-.41.65c-3.81,6.19-17.24,13.8-8,27.59s9.2,20.69,12.65,10.35,8,27.59,17.24,21.84S481,1030.18,463.8,1023.28Z"/><path class="cls-4" d="M438.5,1019.83c12.65-1.15,26.44-14.95,21.84-35.64s-6.9-23,1.15-37.94-3.45-26.44-8-19.54c0,0-18.39,19.54-12.65,41.39,3,11.51-1.28,25.58-4.19,36.14C434,1013.71,432.52,1020.37,438.5,1019.83Z"/><path class="cls-4" d="M512.08,1047.42c-6.35,6.35-34.49,2.3-20.69,29.89S504,1113,517.83,1095.71,523.58,1035.93,512.08,1047.42Z"/><path class="cls-4" d="M499.44,1012.93c-1.15-13.8-20.69-51.73-26.44-25.29-2.32,10.66-8,35.64,6.9,35.64S500.58,1026.73,499.44,1012.93Z"/><path class="cls-4" d="M446.55,1140.54c-.43,4.72-16.09,31-1.15,41.39s14.95,17.24,19.54-1.15,2.3-37.94-1.15-50.58S448.85,1115.25,446.55,1140.54Z"/><path class="cls-4" d="M221.22,1024.43c-18.39,10.35-13.8,26.44-13.8,26.44-1.15,6.9-14.95,77,1.15,65.53S239.62,1014.08,221.22,1024.43Z"/><path class="cls-4" d="M131.55,961.2s-4.6,27.59,4.6,27.59,11.5-9.2,16.09-21.84S136.15,949.7,131.55,961.2Z"/><path class="cls-4" d="M183.29,1106.05s-24.14-11.5-25.29,3.45,12.65,29.89,23,26.44S200.53,1109.5,183.29,1106.05Z"/><path class="cls-4" d="M223.52,1255.5c1.15-14.95,6.9-96.57-9.2-67.83-2,3.62-13.8-16.09-12.65,6.9S222.37,1270.45,223.52,1255.5Z"/><path class="cls-4" d="M214.33,1279.65c-5.75,1.15-27.59,31-12.65,32.19s25.29,4.6,26.44-5.75S231.57,1276.2,214.33,1279.65Z"/><path class="cls-4" d="M337.34,1004.89c-16.09-3.45-20.69,6.9-48.28,2.3-15.59-2.6-25.67-15.84-32.12-22.72-5-5.3-7.77-6.83-9.27,3.18,0,0,3.45,32.19,8,36.79s33.34,28.74,50.58,23S353.43,1008.33,337.34,1004.89Z"/><path class="cls-4" d="M293.65,956.6S258,983,277.56,987.64s35.64,3.45,46-8S304,940.51,293.65,956.6Z"/><path class="cls-4" d="M341.94,940.51c8-16.09-4.6-54-11.5-46,0,0-39.09,41.39-21.84,43.69S333.89,956.6,341.94,940.51Z"/><path class="cls-4" d="M379.87,996.84c-2.3-13.8-16.09-24.14-16.09-24.14,0-3.45,13.8-28.74-9.2-18.39S328.14,970.4,340.79,983s2.3,39.09,24.14,46,32.19,2.3,23-6.9S382.17,1010.63,379.87,996.84Z"/><path class="cls-4" d="M425.86,973.85c-8-21.84-25.29-32.19-28.74-10.35,0,0-26.44,18.39-5.75,31s-3.45,59.78,12.65,51.73S433.91,995.69,425.86,973.85Z"/><path class="cls-4" d="M252.26,1049.72c-2.3,17.24,10.35,49.43,33.34,57.48,2,.7,3.89,1.26,5.71,1.7,19.17,4.68,28.68-4.34,27.63-20.09-.47-7-28.74-6.9-44.84-26.44-9.26-11.24-14.33-19.43-17.41-21.08C254.43,1040.06,253.24,1042.4,252.26,1049.72Z"/><path class="cls-4" d="M299.4,1124.45c-3.45,18.39,5.75,39.09,27.59,36.79s67.83-39.09,54-35.64,0-1.15,17.24-21.84A134.35,134.35,0,0,0,413.43,1081c8-15.19,9.77-27.5-4.82-19.83-21.84,11.5-49.43,25.29-59.78,21.84,0,0-8-43.69-19.54-28.74s4.6,39.09,20.69,43.69,37.94,0,18.39,11.5c-11.94,7-9.3,11.9-10.15,15.68-.54,2.41-2.49,4.37-10.55,6.16-4.66,1-9.5.32-14.24-1.2-13.21-4.24-25.63-14.72-31.28-10.92C300.85,1120.11,299.9,1121.76,299.4,1124.45Z"/><path class="cls-4" d="M263.76,1122.15c-13.8-2.3-11.5,17.24-11.5,17.24,0,6.9,11.5,37.94,26.44,40.24s32.19,16.09,27.59,0S277.56,1124.45,263.76,1122.15Z"/><path class="cls-4" d="M407.46,1165.83s-3.45,26.44-28.74,33.34-35.64,24.14-11.5,28.74,44.84-24.14,48.28-40.24S422.41,1145.14,407.46,1165.83Z"/><path class="cls-4" d="M250,1230.21s-24.14,27.59,3.45,40.24,37.94,56.33,47.13,37.94S266.06,1210.67,250,1230.21Z"/><path class="cls-4" d="M378.72,1321c-3.12,1.87-33.34-33.34-32.19-12.65s1.15,35.64,16.09,35.64,25.29-5.75,32.19-10.35S390.22,1314.14,378.72,1321Z"/><path class="cls-4" d="M588,1156.64s8-28.74,1.15-43.69-28.74-11.5-35.64,10.35-4.6,24.14,2.3,37.94S588,1156.64,588,1156.64Z"/><path class="cls-4" d="M556.92,1209.52c-4.15,7.27-20.69,16.09-6.9,25.29s14.95,4.6,23-12.65S561.52,1201.47,556.92,1209.52Z"/><path class="cls-4" d="M76.37,1122.15s-10.35,19.54-6.9,47.13,9.2,39.09,23,32.19,18.39,10.35,18.39-18.39S85.57,1124.45,76.37,1122.15Z"/><path class="cls-5" d="M419,120.44c-3.07,0-6.13,20.69,8.43,26.82s17.63,18.39,19.93,25.29,9.2,11.5,17.63,16.09,0,23,9.2,25.29,24.53.77,30.66-4.6,8.43-12.26,6.13-21.46,10-21.46,2.3-36-13-36-35.26-38.32-59,6.9-59,6.9"/><path d="M300.55,93.23s-1.72-9.2-23-14.95S243.07,103,243.07,103s7.47,6.9,24.14,6.9S300,97.83,300.55,93.23Z"/><path d="M430.46,67.94s-14.95-4-20.12-12.65,0-12.07,3.45-10.92S434.48,49,430.46,67.94Z"/><path d="M481.81,184.05S458,218.54,426.63,242.3,376,254.56,353,272.19s-19.93,23-6.9,22.23,28.36-23.76,39.85-26.82,49.82-19.93,62.08-36,37.55-44.45,37.55-44.45,10.73,4.6,16.86,9.2,4.6,15.33,9.2,19.16,9.2,0,9.2,0-7.66-10-6.9-17.63S491,182.52,481.81,184.05Z"/><path d="M482.77,165.66c-1.58-.9-51.73-12.07-62.65-34.49s11.5-44.84,35.06-51.73S502.31,76,510.36,92.08s5.75,35.06,0,52.31S486.79,168,482.77,165.66Z"/><circle class="cls-6" cx="263.76" cy="89.21" r="5.75"/><circle class="cls-6" cx="281.01" cy="97.83" r="3.45"/><circle class="cls-6" cx="416.66" cy="53.57" r="3.52"/><circle class="cls-6" cx="427.23" cy="58.85" r="2.11"/></g></g></svg>