<svg xmlns="http://www.w3.org/2000/svg" viewBox="0 0 955.45 1607.67"><defs><style>.cls-1{fill:none;}.cls-2{fill:#2d2824;}.cls-3{fill:#d5bdb6;}.cls-4{fill:#1d1a17;}.cls-5{fill:#eedfd9;}.cls-6{fill:#e1cfc7;}.cls-7{fill:#fff;}</style></defs><title>ENGLISH SETTER 1</title><g id="Layer_2" data-name="Layer 2"><g id="Layer_1-2" data-name="Layer 1"><path class="cls-1" d="M279.38,1587.79c26.91-.33,55.57-3.15,61.14-14.9C351,1550.69,305.48,1568.07,279.38,1587.79Z"/><path class="cls-1" d="M397.63,1550.54c-8.84-5.68-16.08,1.81-25.47,12.5C388.06,1561.43,409,1557.84,397.63,1550.54Z"/><path class="cls-1" d="M849.6,1247.57c-9.54-17-3.69,3.19,5.95,19.49,5,1.21,10.36,2.45,15.73,3.68C865.57,1266.63,856.61,1260,849.6,1247.57Z"/><path class="cls-1" d="M814.42,496.77c-7.19-11.51-1.89,2.61,5.6,23.33C819.86,512.76,818.67,503.57,814.42,496.77Z"/><path class="cls-1" d="M62.38,1539.37c-16.81,3.06,9.18,18.81,31.65,30.48C79,1552.76,80.38,1536.09,62.38,1539.37Z"/><path class="cls-1" d="M725.44,1359.32a52.81,52.81,0,0,1-6.6,12.66c8.54-6.36,16.82-14.35,19-22.59C742.82,1330.76,734.13,1333.25,725.44,1359.32Z"/><path class="cls-1" d="M422.05,263.34c-2.49,8.19-2.38,21-1.44,32.89,9.33-19.21,17.36-33.75,18-47.79C439.44,230.23,427.85,244.3,422.05,263.34Z"/><path class="cls-1" d="M429.92,630.46c6.64-21-18.32,17.18-23.79,25.69C417.09,649.11,425.88,643.25,429.92,630.46Z"/><path class="cls-1" d="M807.8,444.62c19,.83,30.63-9.93,27.32-18.21s-5.79-5.79-10.76,3.31S797.87,433,797.87,433s20.69.83,20.69-7.45-7.45-26.49-17.38-11.59a40.17,40.17,0,0,1-8.19,8.46c.37,8.57.87,15.49,1.27,21.25C797.6,444,802,444.37,807.8,444.62Z"/><path class="cls-1" d="M480,145c-6.23,7-10.83,19.59-14,31.51,6.17-5.87,11.63-10.59,15.69-15C492.42,149.93,494.07,129.24,480,145Z"/><path class="cls-1" d="M518.08,113.51c10.1-6.06-4.45-.62-10.23,1.62C510.81,115.58,513.73,116.11,518.08,113.51Z"/><path class="cls-1" d="M95.91,1309.66c-11.16-2-14.34,16.54-14.85,34.42C103.26,1323.64,112.26,1312.54,95.91,1309.66Z"/><path class="cls-1" d="M884.37,841.54c-7.14-22.43-4.23,3.69-3.65,40.55C885.25,871,889,856,884.37,841.54Z"/><path class="cls-1" d="M883.13,149.1c-14.9-16.56-9.11-3.31,1.66,15.73A114,114,0,0,1,894,186.12C892.37,170.76,889.19,155.83,883.13,149.1Z"/><path class="cls-1" d="M874,434.69c0-8.28-5-5.79-10.76,1.66-2.07,2.66-.22,5.43,3,7.88C870.76,440.7,874,437.26,874,434.69Z"/><path class="cls-1" d="M835.49,1062.9c4.77-13.84,9.14-30.23,9.14-43.8C844.64,990.1,830.53,1022.25,835.49,1062.9Z"/><path class="cls-1" d="M901.34,260c-14.31-12.72-1.9,10.44,16,38.68C913.6,282.75,908.28,266.19,901.34,260Z"/><path class="cls-2" d="M876.92,1276.13c0,.81-1.29-.61-3.4-3.77-.67-.5-1.42-1-2.24-1.62-5.37-1.23-10.74-2.47-15.73-3.68a78.55,78.55,0,0,0,5.23,7.83c12.42,16.14,49.67,31,49.67,31s-26.08,6.21-47.18-3.73-34.77,1.24-5,8.69,31,19.87,31,19.87a77.35,77.35,0,0,0-15.37-5.87l-.77.91a51,51,0,0,1-42,17.67,82.66,82.66,0,0,0,29.6,9.64c32.28,3.73,63.33-18.63,65.81-33.53s-16.14-39.73-37.25-44.7c-5.19-1.22-10.91-2.52-16.67-3.83l.85,1.31C875.63,1273.92,876.92,1275.08,876.92,1276.13Z"/><path class="cls-2" d="M847.12,1335.73c10.22-1.7,19.38-7.29,25-11.32a94,94,0,0,0-35-2.34C807.39,1325.8,824.77,1339.46,847.12,1335.73Z"/><path class="cls-3" d="M791.26,1323.34a123.17,123.17,0,0,1-38.51-8.72,42.52,42.52,0,0,1-12.51-7.71c-10.49,26-22.25,42.47-22.25,42.47s7.33-22.41,14.53-50.89c-17.5-23.35-23.33-63.71-35.64-96.87-16.14-43.46,1.24-53.39,1.24-86.92s-16.14-45.94-29.8-8.69,29.8,68.29,21.11,120.44c-3.26,19.58-12.82,38.63-23.5,54.79-1.32,47.61-27.41,86.76-27.41,86.76s10.94-32.83,14-68.34A259.42,259.42,0,0,1,627.34,1327s13.41-21.8,25.87-47.37c-.32-18.83-3.86-36.82-13.45-49.48-31-41-41-59.6-29.8-103.06s21.11-38.49-8.69-59.6-14.9,60.84-13.66,86.92,14.9,32.28,18.63,65.81-13.66,60.84-13.66,60.84,11.18-42.22-3.73-69.53c-9-16.41-17-35.06-20.93-48.69q-.78,5.75-1.83,11.85c-.13.76-.27,1.48-.4,2.23,1,7.23,2.19,16.69,3.29,28.4,2.9,30.63,27.32,121.68,41,152.73,6.2,14.09,13.42,28.42,19.46,39.89,6.53-4.74,12.88-11,16.55-18.78,9.93-21.11,16.14-12.42,9.93-1.24a238,238,0,0,0-11.18,23.59s22.35-16.14,29.8-31,13.66-32.28,11.18-9.93-16.14,58.36-16.14,58.36,25.1-17.84,42.06-37.62c14.95-4.73,37.72-13.6,51.07-26.95,21.11-21.11,28.56-23.59,21.11-7.45s-13.66,22.35-13.66,22.35,15.57-13.28,27.46-39A37.59,37.59,0,0,1,791.26,1323.34Zm-53.41,26c-2.2,8.24-10.47,16.24-19,22.59a52.81,52.81,0,0,0,6.6-12.66C734.13,1333.25,742.82,1330.76,737.85,1349.39Z"/><path class="cls-3" d="M755.24,1248.81a213.53,213.53,0,0,1-10.67,46.56c11.28,15.47,29.89,22,44.56,24.76-19.45-31.71-17.68-101.13-25.2-140.85C755.24,1133.34,761.45,1191.7,755.24,1248.81Z"/><path class="cls-3" d="M643.49,1171.83c-16.14-19.87-2.48-41,1.24-68.29s-22.35,13.66-18.63,55.88c3.65,41.38,28.78,42.21,38,96,4.33-10.8,7.74-21.29,9.23-30.21C679.49,1188,659.63,1191.7,643.49,1171.83Z"/><path class="cls-3" d="M732.89,1180.52c-7.45-26.08-8.69,52.15,3.73,98.09.11.42.24.83.36,1.25a418.68,418.68,0,0,0,8.33-48.43C750.27,1181.76,740.34,1206.6,732.89,1180.52Z"/><path class="cls-4" d="M512.32,1387.26c.05,20.34.75,39.9,2,54,3.73,41-6.21,68.29-6.21,68.29s-6.21-36-23.59-60.84,1.24,24.83,1.24,24.83-9.93-18.63-27.32-50.91-42.22-32.28-89.4-78.23-80.71-31-126.65-19.87-68.29-9.93-78.23-38.49c-2-5.86-2.82-15.07-2.58-26.63-18.71,3.34-64.5,17.82-76.88,47.74a98,98,0,0,0-7.3,40.22c-5.6,5.1-11.92,10.72-18.78,16.9-37.25,33.53-68.29,53.39-55.88,108S50,1560.48,81,1570.41c8.23,2.63,14.87,4.74,20.22,6.42,7.71,6.41,18.52,12.5,34.42,17.17,57,16.75,103.87,18.43,130.8,3.23,23,3.47,51.18,4.74,69.11-3.23,15.77-7,26.6-19.52,35.45-29.63,15.8-.25,40.58-2,52.71-10.1,18.63-12.42,33.53-13.66,62.08-3.73s41,18.63,41,18.63-18.63-28.56-60.84-39.73-42.22-33.53-8.69-17.38,64.57,37.25,78.23,49.67a306.94,306.94,0,0,1,22.35,22.35s-20.16-45.38-22.48-82.21c-6.42-18.35-9.43-41.31-14.77-68C517.47,1418.4,514.66,1402.11,512.32,1387.26Zm-416.41-77.6c16.36,2.89,7.35,14-14.85,34.42C81.57,1326.2,84.75,1307.69,95.91,1309.66ZM62.38,1539.37c18-3.27,16.6,13.4,31.65,30.48C71.56,1558.18,45.57,1542.42,62.38,1539.37Zm278.14,33.53c-5.57,11.75-34.23,14.57-61.14,14.9C305.48,1568.07,351,1550.69,340.52,1572.89Zm31.65-9.85c9.39-10.69,16.63-18.18,25.47-12.5C409,1557.84,388.06,1561.43,372.16,1563Z"/><path class="cls-5" d="M794.26,443.71c-.41-5.76-.91-12.68-1.27-21.25-11.22,9.06-28.17,17-35.07,20A44.39,44.39,0,0,0,754,456.21s-4.14-36.42,2.48-49.67.83-13.24-14.07-23.18-20.69-29-20.69-29,12.42,6.62,21.52.83-21.52-14.07-17.38-15.73,23.18-12.42,19-26.49-4.14,3.31-4.14,3.31a112.79,112.79,0,0,1-18.61-9.67A49.17,49.17,0,0,1,718,320c-7.45,14.9-34.77,9.93-34.77,9.93s-9.93,9.93-34.77,11.18-41-5-41-5-1.51.48-4,1c3.94,4.91,8.54,10.74,14.72,17.18,19,19.87,5.79,28.14,18.21,59.6s1.66,25.66,21.52,42.22c16,13.34,23.94-1.25,26.43-7.43a11.14,11.14,0,0,1,.89-2.5s-.29,1-.89,2.5c-.77,3.22-.86,9,5.85,14.05,9.93,7.45,19.87-24.83,19.87-28.14s1.66,9.11,4.14,28.14,24,19.87,29.8,37.25,29.8,35.59,29.8,35.59-25.66-19-36.42-34.77-19.87-9.93-5.79,9.93,12.42,45.53,12.42,45.53-5.79-14.07-16.56-19,13.24,22.35,16.56,60.43c1.48,17.07-4.19,26.81-10.9,32.37.06,1.07.11,2.14.14,3.22.83,29.8-2.48,35.59-2.48,35.59s-.83-9.93-2.48-25.66-9.11-9.11-8.28,24.83a61.41,61.41,0,0,1-15.64,43c.86,3.52,1.6,6.21,2.05,7.53.42.84.57,1.16.34.83a4.47,4.47,0,0,1-.34-.83c-.58-1.17-1.69-3.37-3.11-6.37-4.73,5-8.85,7.71-9.79,8s2.32-7.26,5.7-17.09c-4.88-11.4-10.6-27.09-12.32-41.68-3.31-28.14,0-20.69,21.52-35.59s1.66-12.42-15.73-32.28-29.8-43.87-29.8-43.87,12.42,14.07,32.28,33.11,5.79-15.73-6.62-32.28S674.53,515,674.53,515s-3.31-6.62,7.45,5,18.21,4.14,18.21,4.14a58.14,58.14,0,0,1-24-32.28c-6.62-22.35-8.28-19.87-19-13.24S632.31,495.12,629,495.94s5-3.31,9.93-12.42-5.79-9.93-25.66,1.66c-9.74,5.68-17.87,4-23.65.81a31.35,31.35,0,0,0-.36,6.64c.83,14.9-8.28,29-8.28,29s3.31-9.93-2.48-29.8-13.24,5.79-6.62,30.63,16.56,7.45,39.73,47.18,23.18,53.81,23.18,53.81l-9.93-19c-9.93-19-32.28-37.25-51.32-58.77s-12.42-31.46-23.18-51.32c-10.07-18.59,6.68,32.39,8.87,39a4.33,4.33,0,0,1,.23.71l-.23-.71c-.79-2-4.23-8.89-18.8-27.44C522.22,482.7,530.49,467,534.63,457s-17.38,2.48-17.38,2.48a43.8,43.8,0,0,0,10.6-23.66c-3.92-4.64-9.07-9.74-14.74-12.76-12.42-6.62,8.28,14.07,8.28,14.07s-10.47-6.28-17.95-11.15c-2.43,20.4-6.31,41.65-13.92,59.17-12.42,28.56-37.25,68.29-37.25,68.29s26.08-14.9,13.66,0-34.77,36-45.94,60.84a233.72,233.72,0,0,0-14.66,42.34c-9.07,5.82-19.55,12.56-30,24.71-23.59,27.32-49.67,101.82-49.67,101.82s-106.78,219.78-129.13,293c-17.76,58.23-34,138.42-34.87,183.21-.23,11.56.55,20.77,2.58,26.63,9.93,28.56,32.28,49.67,78.23,38.49s79.47-26.08,126.65,19.87,72,45.94,89.4,78.23,27.32,50.91,27.32,50.91-18.63-49.67-1.24-24.83,23.59,60.84,23.59,60.84,9.93-27.32,6.21-68.29c-1.28-14.11-2-33.67-2-54-4.25-27-6.9-49.2-6.66-52.77s.16-8.76-.1-15.16c-9.46,10.53-15.63,15.16-15.63,15.16s7.67-12.49,15.07-26c-.23-3.88-.5-7.94-.8-12.09-.66,2.5-1,4.19-1,4.19s-7.45-.83-16.56-55.46-8.28-93.54-8.28-93.54,10.76,40.56,10.76,19-8.28-15.73-23.18-68.71.83-110.92.83-110.92-6.62,34.77,5,24,9.93-13.24,21.52-37.25,26.49-33.11,26.49-33.11-26.49,33.94-28.14,59.6,9.93,54.63,17.38,38.08a142.54,142.54,0,0,0,9.93-33.11s9.11,10.76,5.79,40.56-10.76,47.18-1.66,47.18,11.59,4.14,13.24-29.8a490.32,490.32,0,0,0-.83-61.26s13.24,62.91,13.24,37.25-4.14-57.12-2.48-54.63,19,70.36,19,89.4c0,0,10.11,30.36,2.66,85,3.93,13.62,12,32.27,20.93,48.69,14.9,27.32,3.73,69.53,3.73,69.53s17.38-27.32,13.66-60.84-17.38-39.73-18.63-65.81-16.14-108,13.66-86.92,19.87,16.14,8.69,59.6-1.24,62.08,29.8,103.06c9.59,12.66,13.13,30.66,13.45,49.48-12.46,25.57-25.87,47.37-25.87,47.37a259.42,259.42,0,0,0,25.13-27.37c-3,35.52-14,68.34-14,68.34s26.09-39.15,27.41-86.76c10.67-16.16,20.23-35.21,23.5-54.79,8.69-52.15-34.77-83.19-21.11-120.44s29.8-24.83,29.8,8.69-17.38,43.46-1.24,86.92c12.31,33.16,18.14,73.52,35.64,96.87-7.2,28.48-14.53,50.89-14.53,50.89s11.76-16.49,22.25-42.47a42.52,42.52,0,0,0,12.51,7.71,123.17,123.17,0,0,0,38.51,8.72,37.59,37.59,0,0,0,6.33,6.88c.76.63,1.54,1.23,2.34,1.78,10.9,7.41,21.49,10.83,31.24,11.47a51,51,0,0,0,42-17.67l.77-.91a77.35,77.35,0,0,1,15.37,5.87s-1.24-12.42-31-19.87-16.14-18.63,5-8.69,47.18,3.73,47.18,3.73-37.25-14.9-49.67-31a78.55,78.55,0,0,1-5.23-7.83c-9.64-16.3-15.49-36.45-5.95-19.49,7,12.46,16,19.06,21.68,23.17.82.59,1.57,1.13,2.24,1.62l-.85-1.31c-8.07-12.54-25.49-45.59-33-79.36-9.93-44.7-8.69-108-6.21-90.64s6.21,36,6.21,36,2.23-25.7-2.84-64.38c8.76-14.78,18.85-36,20.22-57.31,2.48-38.49,3.73-83.19,7.45-65.81S867,975.65,867,975.65s12.42-19.87,13.66-68.29c.18-6.85.2-13.62.14-20.13,8.86-12.7,20.88-33.94,18.48-53.13-3.73-29.8,2.48-23.59-7.45-49.67s8.69-2.48,8.69-2.48,1.24-41-21.11-79.47-42.22-78.23-28.56-63.33,23.59,14.9,23.59,14.9-28.56-37.25-36-59.6c-4.72-14.16-7-26.81-10.16-38.3-.38,6.51-2.26,9.33-2.26,9.33a61.54,61.54,0,0,0-11.59-18.21c-8.28-9.11,8.28,23.18,8.28,23.18s-5.79-5-14.9-14.07-6.62-17.38-7.45-9.11-1.66,23.18-1.66,23.18-1.66-9.11-6.62-27.32-9.11-18.21-18.21-32.28-4.14-20.69-4.14-20.69c.83-9.93,6.62-18.21,6.62-18.21s-.83,3.31,6.62,18.21,11.59-1.66,5.79-19.87-25.66-19.87-25.66-19.87a231.34,231.34,0,0,1,31.75,2.76c-.09-2-.23-4.23-.39-6.63a53.8,53.8,0,0,1-9.84-4.4S786.63,442.94,794.26,443.71ZM429.92,630.46c-4,12.79-12.83,18.65-23.79,25.69C411.6,647.64,436.56,609.42,429.92,630.46Zm31,242.13c2.48,39.73-12.42,57.12-12.42,57.12L451,911.08c2.48-18.63-6.21,39.73-21.11,68.29s-48.43,45.94-45.94,43.46,22.35-39.73,28.56-79.47-11.18,22.35-12.42,28.56-7.45-28.56-3.73-73.26,32.28-63.33,37.25-68.29l38.49-54.63S458.48,832.85,461,872.59Zm49.67,36s3.73-38.49,3.73-63.33S497,863.89,497,863.89s1.24-28.56-13.66-39.73,9.93-44.7,9.93-44.7c11.18-21.11,45.94-63.33,45.94-63.33S528,759.59,528,777s13.66-21.11,13.66-21.11,3.73,16.14,0,65.81S510.63,908.59,510.63,908.59Zm106.78-226s3.73,14.9,11.18,26.08,2.48-22.35,2.48-22.35,17.38,21.11,19.87,53.39c1.06,13.81,1.67,24.2,2,31.58a67.7,67.7,0,0,1,.47,14.36s0-4.48-.47-14.36c-1.56-11.61-6.6-27.3-21.88-35.31C605,722.34,617.41,682.61,617.41,682.61Zm-44.7-1.24s3.73,14.9,8.69,28.56,7.45-24.83,7.45-24.83,8.69,18.63,12.42,50.91,0,47.18,0,43.46-9.93-44.7-26.08-52.15S570.23,693.78,572.71,681.37Zm100.58,543.85c-1.49,8.92-4.9,19.42-9.23,30.21-9.18-53.81-34.3-54.64-38-96-3.73-42.22,22.35-83.19,18.63-55.88s-17.38,48.43-1.24,68.29S679.49,1188,673.29,1225.22Zm63.33,53.39c-12.42-45.94-11.18-124.17-3.73-98.09s17.38,1.24,12.42,50.91a418.68,418.68,0,0,1-8.33,48.43C736.85,1279.45,736.73,1279,736.61,1278.61Zm8,16.76a213.53,213.53,0,0,0,10.67-46.56c6.21-57.12,0-115.48,8.69-69.53,7.51,39.72,5.75,109.14,25.2,140.85C774.45,1317.38,755.85,1310.84,744.56,1295.37Zm127.59,29c-5.65,4-14.82,9.62-25,11.32-22.35,3.73-39.73-9.93-9.93-13.66A94,94,0,0,1,872.15,1324.41ZM835.49,1062.9c-5-40.65,9.14-72.8,9.14-43.8C844.64,1032.67,840.26,1049.06,835.49,1062.9Zm48.88-221.36c4.58,14.41.88,29.5-3.65,40.55C880.14,845.23,877.24,819.12,884.37,841.54Zm-89-93.13c4.14,32.28,9.11,32.28,23.18,39.73s6.62-9.93-3.31-33.94-5-39.73-5-39.73,4.14,24,17.38,53,27.32,27.32,31.46,54.63,11.59,41.39,11.59,41.39-12.42-6.62-16.56-18.21-6.62-14.07-10.76-1.66,3.31,18.21,14.9,33.11,12.42,43,12.42,46.36-12.42-40.56-26.49-47.18-9.11-20.69-14.07-39.73-6.62-3.31-4.14,29c1.52,19.7-4.36,30.76-9.18,36.39,4.79,35.34-6.58,58.91-7.38,61.28s2.48-19-3.31-53S792.07,879.21,778,860.17s-17.38-7.45-18.21,12.42,29,84.43,29,84.43-9.11-14.9-32.28-63.74S759,856,756.48,813,742.41,781.53,735,761.66a136.67,136.67,0,0,1-8.28-37.25s8.28,15.73,14.9,29,5,3.31-.83-19,.83-30.63.83-30.63,5,7.45,3.31,20.69,17.38,27.32,29,40.56,15.73-.83,5-35.59-32.28-55.46-32.28-55.46S791.25,716.13,795.38,748.42Z"/><path class="cls-5" d="M701.29,697c3.74-12.28,6.27-26,.56-32.14C694.71,657.17,697.61,678.69,701.29,697Z"/><path class="cls-5" d="M739.1,607.69c.83-12.42-3.31-16.56-10.76-22.35-6.39-5,1.23,12,4,35.74C736,616.63,738.82,611.88,739.1,607.69Z"/><path class="cls-5" d="M599.2,476.91c0-9.32-6.07-4.18-8.74,5.27C594.95,483.28,599.2,482.77,599.2,476.91Z"/><path class="cls-5" d="M804.49,839.47c-23.16-25.55,3,15.91,10.8,53.06C818.31,878.33,819.58,856.13,804.49,839.47Z"/><path class="cls-5" d="M758.58,441.17a230.82,230.82,0,0,0,18.48-14.72c-2.78,1.47-5.54,2.79-8.16,4.1A24.26,24.26,0,0,0,758.58,441.17Z"/><path class="cls-5" d="M876.92,1276.13c0-1.05-1.29-2.21-3.4-3.77C875.63,1275.52,876.92,1276.94,876.92,1276.13Z"/><path class="cls-6" d="M569,1205.36c-1.11-11.71-2.27-21.17-3.29-28.4-7.25,40.94-15.53,63-20.11,73-.29,6.91-2.54,16.22-12.61,32.39a263.66,263.66,0,0,1-27.42,37c.26,6.4.33,11.71.1,15.16s2.42,25.79,6.66,52.77c2.34,14.85,5.15,31.14,8.24,46.57,5.35,26.73,8.35,49.69,14.77,68a92.25,92.25,0,0,0,5.6,13c-.63-2.83-1-4.87-1.34-5.67,0,0,28.14-21.52,27.32-32.28s1.66-7.45,16.56,4.14,12.42,7.45,23.18-1.66,12.42,3.31,26.49,5.79,9.93-9.93,11.59-22.35c.61-4.58,2.13-5.32,4.62-3.2-4.51-7.58-8.22-14.67-9.59-20.81-5-22.35-12.42-27.32-5-22.35l7.45,5s-5.56-9.64-12.83-23.44c-6-11.47-13.26-25.8-19.46-39.89C596.3,1327,571.88,1236,569,1205.36Zm-7.86,40.56c5-17.38,9.93,10.76,5,18.21S559.39,1252,561.12,1245.92Zm-13.24,27.32s9.93,7.45,14.07,9.93,5,1.66,13.24-7.45,5,11.59,5,21.52-5.79,11.59-14.07,8.28-9.11-5-19.87-14.07S545.39,1278.2,547.88,1273.23Zm30.63,95.2c-4.14,5-7.45,3.31-16.56,7.45s-7.65-13.7-2.48-23.18C564.43,1343.6,582.64,1363.46,578.5,1368.43Zm-6.62-29c-5,6.62-4.14,2.48-9.93,1.66s-2.59-4.76.83-11.59C565.26,1324.56,576.85,1332.83,571.88,1339.46Zm-11.59,84.43c1.66,8.28-9.11,3.31-9.11-1.66C551.19,1422.23,558.64,1415.61,560.29,1423.89Zm-40.56-83.61c-.83-6.62,17.38-7.45,17.38-7.45,8.28-5,9.93,16.56,1.66,18.21s-5,2.48-14.07,0S520.56,1346.91,519.73,1340.28Zm7.45,86.92c-6.62-1.66-1.66-19-9.11-29s-4.37-21.21-1.66-28.14c7.45-19,26.49,14.07,27.32,29S533.8,1428.86,527.18,1427.2Zm31.46,51.32c-7.45,4.14-2.48.83-13.24,3.31s-.66-12.32,3.31-15.73C554.5,1461.14,566.09,1474.39,558.64,1478.52Zm12.42-20.69c-7.45,2.48-8.28-5-15.73-12.42s15.73-7.45,15.73-7.45c2.48-.83,13.24,12.42,13.24,12.42A44.61,44.61,0,0,1,571.05,1457.83ZM582.64,1414c-6.62,1.66-12.42,2.48-17.38,0s-4.14-.83-8.28-9.11,18.23-1.1,26.49-1.66C595.89,1402.37,589.27,1412.3,582.64,1414Zm6.62-36.42s11.59-2.48,13.24,1.66-1.66,5-9.11,9.11S582.64,1385,589.27,1377.53Zm30.63,91.06c1.66,9.11-11.59,8.28-9.11,2.48l-6.62-5.79s4.14-8.28,13.24-9.11S618.24,1459.49,619.89,1468.59Zm8.28-29c-1.66,2.48-9.93,7.45-14.9,8.28s-9.11,3.31-17.38-6.62,7.63-5.89,14.9-9.93C618.24,1427.2,629.83,1437.14,628.17,1439.62Zm-26.49-21.52c-8.28,5.79-6.17-8.28,5-8.28C610,1409.82,610,1412.3,601.68,1418.1Z"/><path class="cls-6" d="M549.53,1225.22c-5.82,9.57-4.12,14.54-3.93,21.85C550.48,1233.45,557.8,1211.64,549.53,1225.22Z"/><path class="cls-6" d="M517.25,1274.89c-6.22-1.24-11,13.88-13.05,21.47.3,4.14.57,8.21.8,12.09C513.53,1292.82,521.68,1275.78,517.25,1274.89Z"/><path class="cls-2" d="M563.94,412.48c4.79-11.84,10-29.36,5.46-42.36C562.23,349.41,566.56,378.53,563.94,412.48Z"/><path class="cls-2" d="M574.43,335.45c4.89,17.66,12.76,30.37,9,49.57-3.36,17.35-13.9,29.77-20.38,36-4,31-16,30.22-16,30.22a129.35,129.35,0,0,0-5.79-29.8c-5-14.9-9.93-8.28-6.62,5s.83,19.87.83,19.87a89.35,89.35,0,0,0-7.61-10.42,43.8,43.8,0,0,1-10.6,23.66s21.52-12.42,17.38-2.48-12.42,25.66,5.79,48.84c14.57,18.55,18,25.43,18.8,27.44-2.2-6.63-18.94-57.62-8.87-39,10.76,19.87,4.14,29.8,23.18,51.32s41.39,39.73,51.32,58.77l9.93,19s0-14.07-23.18-53.81-33.11-22.35-39.73-47.18.83-50.49,6.62-30.63,2.48,29.8,2.48,29.8,9.11-14.07,8.28-29a31.35,31.35,0,0,1,.36-6.64c5.78,3.19,13.91,4.87,23.65-.81,19.87-11.59,30.63-10.76,25.66-1.66s-13.24,13.24-9.93,12.42,17.38-10.76,28.14-17.38,12.42-9.11,19,13.24a58.14,58.14,0,0,0,24,32.28S692.74,531.54,682,520s-7.45-5-7.45-5,1.66,19,14.07,35.59,26.49,51.32,6.62,32.28-32.28-33.11-32.28-33.11,12.42,24,29.8,43.87S730,611,708.47,625.91s-24.83,7.45-21.52,35.59c1.72,14.59,7.44,30.29,12.32,41.68-3.38,9.83-6.74,17.44-5.7,17.09s5.06-3,9.79-8c1.42,3,2.53,5.2,3.11,6.37-.45-1.32-1.19-4-2.05-7.53a61.41,61.41,0,0,0,15.64-43c-.83-33.94,6.62-40.56,8.28-24.83S730.82,669,730.82,669s3.31-5.79,2.48-35.59c0-1.08-.08-2.16-.14-3.22,6.71-5.56,12.38-15.3,10.9-32.37-3.31-38.08-27.32-65.39-16.56-60.43s16.56,19,16.56,19,1.66-25.66-12.42-45.53-5-25.66,5.79-9.93,36.42,34.77,36.42,34.77-24-18.21-29.8-35.59-27.32-18.21-29.8-37.25-4.14-31.46-4.14-28.14-9.93,35.59-19.87,28.14c-6.72-5-6.62-10.83-5.85-14.05C681.92,455,674,469.55,658,456.21c-19.87-16.56-9.11-10.76-21.52-42.22s.83-39.73-18.21-59.6c-6.17-6.44-10.77-12.27-14.72-17.18C597,338.68,583.89,340.62,574.43,335.45ZM701.29,697c-3.67-18.26-6.58-39.78.56-32.14C707.55,670.93,705,684.67,701.29,697Zm27-111.61c7.45,5.79,11.59,9.93,10.76,22.35-.28,4.19-3.1,8.94-6.72,13.39C729.56,597.35,721.94,580.37,728.33,585.34ZM599.2,476.91c0,5.87-4.25,6.37-8.74,5.27C593.13,472.73,599.2,467.58,599.2,476.91Z"/><path class="cls-2" d="M684.4,448.78c.6-1.49.89-2.5.89-2.5A11.14,11.14,0,0,0,684.4,448.78Z"/><path class="cls-2" d="M706.47,718.62a4.47,4.47,0,0,0,.34.83C707,719.78,706.89,719.46,706.47,718.62Z"/><path class="cls-2" d="M559.23,533.32l.23.71A4.33,4.33,0,0,0,559.23,533.32Z"/><path class="cls-2" d="M788.76,470.28c5.79,18.21,1.66,34.77-5.79,19.87s-6.62-18.21-6.62-18.21-5.79,8.28-6.62,18.21c0,0-5,6.62,4.14,20.69s13.24,14.07,18.21,32.28,6.62,27.32,6.62,27.32.83-14.9,1.66-23.18-1.66,0,7.45,9.11,14.9,14.07,14.9,14.07-16.56-32.28-8.28-23.18A61.54,61.54,0,0,1,826,565.48s1.88-2.82,2.26-9.33c.33-5.71-.48-14.27-4.74-26.27l-1.42-4a46.27,46.27,0,0,0-.24-30.79c-7.45-19.87-20.69-30.63-11.59-26.49S821,475.25,821,475.25s3.31-16.56-18.21-20.69c-2.72-.52-5.39-1-8-1.38a231.34,231.34,0,0,0-31.75-2.76S783,452.07,788.76,470.28Zm25.66,26.49c4.25,6.8,5.44,16,5.6,23.33C812.54,499.38,807.23,485.27,814.42,496.77Z"/><path class="cls-2" d="M746.55,673.92s21.52,20.69,32.28,55.46,6.62,48.84-5,35.59-30.63-27.32-29-40.56-3.31-20.69-3.31-20.69-6.62,8.28-.83,30.63,7.45,32.28.83,19-14.9-29-14.9-29A136.67,136.67,0,0,0,735,761.66c7.45,19.87,19,8.28,21.52,51.32s-23.18,31.46,0,80.29S788.76,957,788.76,957s-29.8-64.57-29-84.43,4.14-31.46,18.21-12.42,22.35,15.73,28.14,49.67,2.48,55.46,3.31,53,12.16-25.94,7.38-61.28c4.82-5.64,10.7-16.7,9.18-36.39-2.48-32.28-.83-48,4.14-29s0,33.11,14.07,39.73,26.49,50.49,26.49,47.18-.83-31.46-12.42-46.36-19-20.69-14.9-33.11,6.62-9.93,10.76,1.66,16.56,18.21,16.56,18.21-7.45-14.07-11.59-41.39-18.21-25.66-31.46-54.63-17.38-53-17.38-53-5,15.73,5,39.73,17.38,41.39,3.31,33.94-19-7.45-23.18-39.73S746.55,673.92,746.55,673.92Zm57.95,165.56c15.09,16.65,13.82,38.85,10.8,53.06C807.47,855.39,781.33,813.92,804.49,839.47Z"/><path class="cls-2" d="M533,1282.34c10.06-16.17,12.32-25.47,12.61-32.39,4.57-10,12.85-32.06,20.11-73,.13-.75.27-1.47.4-2.23q1.06-6.11,1.83-11.85c7.45-54.64-2.66-85-2.66-85,0-19-17.38-86.92-19-89.4s2.48,29,2.48,54.63-13.24-37.25-13.24-37.25a490.32,490.32,0,0,1,.83,61.26c-1.66,33.94-4.14,29.8-13.24,29.8s-1.66-17.38,1.66-47.18-5.79-40.56-5.79-40.56a142.54,142.54,0,0,1-9.93,33.11c-7.45,16.56-19-12.42-17.38-38.08s28.14-59.6,28.14-59.6-14.9,9.11-26.49,33.11-9.93,26.49-21.52,37.25-5-24-5-24-15.73,57.95-.83,110.92,23.18,47.18,23.18,68.71-10.76-19-10.76-19-.83,38.91,8.28,93.54,16.56,55.46,16.56,55.46.36-1.68,1-4.19c2-7.59,6.83-22.72,13.05-21.47,4.43.89-3.72,17.93-12.25,33.56-7.39,13.55-15.07,26-15.07,26s6.17-4.63,15.63-15.16A263.66,263.66,0,0,0,533,1282.34Zm12.63-35.27c-.19-7.3-1.89-12.28,3.93-21.85C557.8,1211.64,550.48,1233.45,545.6,1247.07Z"/><path class="cls-2" d="M546.22,1291.45c10.76,9.11,11.59,10.76,19.87,14.07s14.07,1.66,14.07-8.28,3.31-30.63-5-21.52-9.11,9.93-13.24,7.45-14.07-9.93-14.07-9.93C545.39,1278.2,535.46,1282.34,546.22,1291.45Z"/><path class="cls-2" d="M524.7,1351c9.11,2.48,5.79,1.66,14.07,0s6.62-23.18-1.66-18.21c0,0-18.21.83-17.38,7.45S515.59,1348.56,524.7,1351Z"/><path class="cls-2" d="M543.74,1399.06c-.83-14.9-19.87-48-27.32-29-2.71,6.94-5.79,18.21,1.66,28.14s2.48,27.32,9.11,29S544.57,1414,543.74,1399.06Z"/><path class="cls-2" d="M583.47,1403.2c-8.26.55-30.63-6.62-26.49,1.66s3.31,6.62,8.28,9.11,10.76,1.66,17.38,0S595.89,1402.37,583.47,1403.2Z"/><path class="cls-2" d="M610.79,1431.34c-7.27,4-23.18,0-14.9,9.93s12.42,7.45,17.38,6.62,13.24-5.79,14.9-8.28S618.24,1427.2,610.79,1431.34Z"/><path class="cls-2" d="M559.47,1352.7c-5.17,9.48-6.62,27.32,2.48,23.18s12.42-2.48,16.56-7.45S564.43,1343.6,559.47,1352.7Z"/><path class="cls-2" d="M562.78,1329.52c-3.41,6.83-6.62,10.76-.83,11.59s5,5,9.93-1.66S565.26,1324.56,562.78,1329.52Z"/><path class="cls-2" d="M571.05,1438s-23.18,0-15.73,7.45,8.28,14.9,15.73,12.42a44.61,44.61,0,0,0,13.24-7.45S573.54,1437.14,571.05,1438Z"/><path class="cls-2" d="M548.7,1466.11c-4,3.41-14.07,18.21-3.31,15.73s5.79.83,13.24-3.31S554.5,1461.14,548.7,1466.11Z"/><path class="cls-2" d="M601.68,1418.1c8.28-5.79,8.28-8.28,5-8.28C595.51,1409.82,593.41,1423.89,601.68,1418.1Z"/><path class="cls-2" d="M560.29,1423.89c-1.66-8.28-9.11-1.66-9.11-1.66C551.19,1427.2,561.95,1432.17,560.29,1423.89Z"/><path class="cls-2" d="M617.41,1456.17c-9.11.83-13.24,9.11-13.24,9.11l6.62,5.79c-2.48,5.79,10.76,6.62,9.11-2.48S626.52,1455.35,617.41,1456.17Z"/><path class="cls-2" d="M644.73,1462.8c-1.66,12.42,2.48,24.83-11.59,22.35s-15.73-14.9-26.49-5.79-8.28,13.24-23.18,1.66-17.38-14.9-16.56-4.14-27.32,32.28-27.32,32.28c.32.8.7,2.84,1.34,5.67,2.65,11.86,9.7,37.79,35.09,46.48,31.46,10.76,67.88,14.9,86.09-9.11s25.66-36.42,9.11-61.26c-10.45-15.67-17.6-27.71-21.87-31.34C646.85,1457.48,645.34,1458.22,644.73,1462.8Z"/><path class="cls-2" d="M602.51,1379.19c-1.66-4.14-13.24-1.66-13.24-1.66-6.62,7.45-3.31,14.9,4.14,10.76S604.17,1383.33,602.51,1379.19Z"/><path class="cls-2" d="M566.09,1264.13c5-7.45,0-35.59-5-18.21C559.39,1252,561.12,1271.58,566.09,1264.13Z"/><path class="cls-2" d="M541.67,755.87S528,794.36,528,777s11.18-60.84,11.18-60.84-34.77,42.22-45.94,63.33c0,0-24.83,33.53-9.93,44.7S497,863.89,497,863.89s17.38-43.46,17.38-18.63-3.73,63.33-3.73,63.33,27.32-37.25,31-86.92S541.67,755.87,541.67,755.87Z"/><path class="cls-2" d="M575.19,727.31c16.14,7.45,26.08,48.43,26.08,52.15s3.73-11.18,0-43.46-12.42-50.91-12.42-50.91-2.48,38.49-7.45,24.83-8.69-28.56-8.69-28.56C570.23,693.78,559.05,719.86,575.19,727.31Z"/><path class="cls-2" d="M653,771.31c.47,9.88.47,14.36.47,14.36A67.7,67.7,0,0,0,653,771.31Z"/><path class="cls-2" d="M631.07,736c15.29,8,20.33,23.69,21.88,35.31-.35-7.38-1-17.77-2-31.58-2.48-32.28-19.87-53.39-19.87-53.39s5,33.53-2.48,22.35-11.18-26.08-11.18-26.08S605,722.34,631.07,736Z"/><path class="cls-2" d="M396.39,898.66c-3.73,44.7,2.48,79.47,3.73,73.26s18.63-68.29,12.42-28.56-26.08,77-28.56,79.47,31-14.9,45.94-43.46,23.59-86.92,21.11-68.29l-2.48,18.63s14.9-17.38,12.42-57.12,11.18-96.85,11.18-96.85l-38.49,54.63C428.68,835.34,400.12,854,396.39,898.66Z"/><path class="cls-2" d="M755.24,270.37c-3.73,6.21-6.21-1.24-12.42-5s-17.38,2.48-18.63,9.93c-.9,5.42.16,18.72-2.06,31.31a112.79,112.79,0,0,0,18.61,9.67s0-17.38,4.14-3.31-14.9,24.83-19,26.49,26.49,9.93,17.38,15.73-21.52-.83-21.52-.83,5.79,19,20.69,29,20.69,9.93,14.07,23.18S754,456.21,754,456.21a44.39,44.39,0,0,1,3.93-13.75c-1.94.85-3.1,1.33-3.1,1.33s1.42-1,3.76-2.62a24.26,24.26,0,0,1,10.31-10.62c2.63-1.31,5.39-2.63,8.16-4.1a123.18,123.18,0,0,0,15.84-16.6c13.24-17.38-3.31-15.73-8.28-7.45-4.41,7.34-22.48,19.89-26.51,22.63-.52.36-.81.55-.81.55l.81-.55a56.54,56.54,0,0,0,21.54-34.22c5-24-14.9-35.59-5-63.74a122.54,122.54,0,0,0,4.41-16.53A111,111,0,0,1,768.9,283.2C763.1,255.89,784.62,241,789.59,212c2.31-13.46.32-29.78-2.46-43.4-1.3,22.39-4.6,41.11-5.82,50.85C778.83,239.33,759,264.16,755.24,270.37Z"/><path class="cls-2" d="M776.35,270c-4,8.43-1,23.66,3.41,37.12C784.23,281.86,782.83,256.34,776.35,270Z"/><path class="cls-2" d="M792.07,333.7c1.11,0-2.25-4.64-6.81-12.19C788.43,328.75,791.26,333.7,792.07,333.7Z"/><path class="cls-4" d="M955.15,382.54c-3.21-21.64-15.74-48.71-33.81-77.45a412.48,412.48,0,0,0-10.89-57.47c-4.44-16.56-7.6-29.42-10.33-40,1.5-16.93.16-40-12.84-60.18-24-37.25-22.35-34.77-47.18-43S819.39,90.33,798.7,74.6c-15.64-11.89-27.49-21.87-35.21-23.55,6.58,11.8,11.78,25.74,16.59,41.76,7.59,25.31,8.41,52.54,7.06,75.8,2.78,13.62,4.77,29.94,2.46,43.4-5,29-26.49,43.87-20.69,71.19a111,111,0,0,0,10.21,27.34,122.54,122.54,0,0,1-4.41,16.53c-9.93,28.14,9.93,39.73,5,63.74A56.54,56.54,0,0,1,758.12,425c4-2.74,22.1-15.29,26.51-22.63,5-8.28,21.52-9.93,8.28,7.45a123.18,123.18,0,0,1-15.84,16.6,230.82,230.82,0,0,1-18.48,14.72c-2.33,1.67-3.76,2.62-3.76,2.62s1.16-.48,3.1-1.33c6.9-3,23.85-11,35.07-20a40.17,40.17,0,0,0,8.19-8.46c9.93-14.9,17.38,3.31,17.38,11.59S797.87,433,797.87,433s21.52,5.79,26.49-3.31,7.45-11.59,10.76-3.31-8.28,19-27.32,18.21c-5.79-.25-10.2-.58-13.54-.92-7.63-.77-9.64-1.57-9.64-1.57a53.8,53.8,0,0,0,9.84,4.4c8.2,2.8,20.42,5,32.38-.26,20.69-9.11,18.21-20.69,24.83-9.93,2.44,4,7.24,7.14,12.33,9.58-10,7.3-23.92,14.43-23.92,14.43a170.67,170.67,0,0,0,33-10.83,92.42,92.42,0,0,0,9.22,2.55s-3.7-1.24-7.91-3.18c7.84-3.77,15.14-8.5,19.49-14.21,13.24-17.38,15.73-7.45,7.45,1.66s-9.11,8.28-8.28,9.11,19.87,3.31,31.46-16.56,12.42-35.59,13.24-23.18-4.14,20.69-4.14,20.69S958.46,404.89,955.15,382.54ZM776.35,270c6.49-13.62,7.89,11.9,3.41,37.12C775.33,293.62,772.33,278.39,776.35,270Zm15.73,63.74c-.81,0-3.65-4.95-6.81-12.19C789.83,329.06,793.18,333.7,792.07,333.7Zm71.19,102.65c5.79-7.45,10.76-9.93,10.76-1.66,0,2.57-3.27,6-7.77,9.54C863,441.77,861.19,439,863.26,436.34Zm21.52-271.51c-10.76-19-16.56-32.28-1.66-15.73,6.06,6.73,9.24,21.66,10.89,37A114,114,0,0,0,884.78,164.83ZM901.34,260c6.93,6.16,12.25,22.73,16,38.68C899.44,270.46,887,247.31,901.34,260Z"/><path class="cls-4" d="M758.12,425l-.81.55S757.6,425.4,758.12,425Z"/><path class="cls-4" d="M513.11,423.1c5.67,3,10.82,8.12,14.74,12.76a89.35,89.35,0,0,1,7.61,10.42s2.48-6.62-.83-19.87,1.66-19.87,6.62-5a129.35,129.35,0,0,1,5.79,29.8s12.08.73,16-30.22c6.48-6.23,17-18.65,20.38-36,3.72-19.2-4.15-31.91-9-49.57a19.25,19.25,0,0,1-7.93-8c-9.93-18.63-8.69-93.13-8.69-93.13s-8.69-31-14.9-54.63S520.56,145,530.49,99a66.38,66.38,0,0,1,5.43-15.13c-8.11,4.7-18.28,12-22,18-4.57,7.43-6.78,11.31-7.7,13-5.07-.53-11,.82-24.58,19.29-11.1,15.06-16.49,32-19.11,45.59a166,166,0,0,0-29.73,38.84c-17.38,31.46-17.38,35.59-17.38,62.91A119.39,119.39,0,0,0,417.36,303c-1.74,3.7-3.5,7.57-5.24,11.63-12.42,29,4.14,38.08-10.76,60.43a217.81,217.81,0,0,1-31.46,37.25s14.07-3.31,29-26.49,19-33.94,16.56-19S398,388.33,398,405.72s16.56,48,16.56,48-14.9-38.08-9.93-52.15,20.69-18.21,16.56-1.66-7.45,24.83,0,45.53,9.11,25.66,9.11,25.66-9.93-38.08-6.62-42.22,8.28,5.79,8.28,16.56,5.79,21.52,2.48,38.08l-3.31,16.56s14.9-15.73,13.24-38.08-4.14-37.25,0-25.66,4.14,28.14,4.14,28.14,5.79-11.59,7.45-20.69,9.93-29,9.11-12.42-9.93,31.46-9.93,31.46a41.07,41.07,0,0,0,16.56-21.52c5-14.9,12.42-24.83,11.59-9.93s4.14,28.14-12.42,37.25-23.18,15.73-23.18,15.73,29.8-6.62,41.39-26.49,5-38.08,12.42-33.11l1.92,1.26c7.48,4.87,17.95,11.15,17.95,11.15S500.69,416.48,513.11,423.1Zm-74.5-174.66c-.64,14-8.66,28.59-18,47.79-.94-11.91-1.05-24.7,1.44-32.89C427.85,244.3,439.44,230.23,438.61,248.44Zm43-86.92c-4.05,4.37-9.52,9.09-15.69,15,3.2-11.92,7.8-24.55,14-31.51C494.07,129.24,492.42,149.93,481.65,161.52Zm82.29,251c2.62-33.95-1.71-63.07,5.46-42.36C573.9,383.12,568.74,400.63,563.94,412.48Zm-45.87-299c-4.34,2.61-7.27,2.07-10.23,1.62C513.63,112.89,528.18,107.45,518.08,113.51Z"/><path class="cls-6" d="M636,92.81c2.48,6.21,11.18,2.48,13.66-3.73,1.53-3.82-4-11.39-10.49-17.52C636.88,81,634.72,89.53,636,92.81Z"/><path class="cls-6" d="M643.49,46.87c0,5-1.1,11-2.48,17.13,2,.46,4.09,1,6.2,1.5,14.9,3.73,19.87,16.14,29.8,24.83s17.38,29.8,21.11,47.18,13.66,31,14.9,45.94S693.15,148.69,685.7,140s-22.35-13.66-44.7-17.38-43.46,3.73-60.84,32.28-22.35,79.47-22.35,79.47-1.24,74.5,8.69,93.13a19.25,19.25,0,0,0,7.93,8c9.46,5.17,22.6,3.23,29.09,1.76,2.45-.55,4-1,4-1s16.14,6.21,41,5S683.22,330,683.22,330s27.32,5,34.77-9.93a49.17,49.17,0,0,0,4.15-13.39c2.22-12.58,1.15-25.89,2.06-31.31,1.24-7.45,12.42-13.66,18.63-9.93s8.69,11.18,12.42,5,23.59-31,26.08-50.91c1.22-9.74,4.52-28.46,5.82-50.85,1.35-23.26.53-50.49-7.06-75.8-4.81-16-10-30-16.59-41.76C749.66,26.26,729.73,10.94,694.39,5.9,658.7.8,644-1.39,631.82.92,645.87.84,643.49,32.23,643.49,46.87ZM713,215.74c7.45-8.69,5,19.87,0,31s0,0-2.48-11.18A30,30,0,0,1,713,215.74Zm28.56-27.32c-2.48-12.42,5-13.66,5-13.66s8.69-8.69,13.66,0-13.66,45.94-14.9,33.53S744.06,200.84,741.58,188.42Zm29.8-57.12c-2.48,8.69-2.48,13.66-8.69,9.93s.46-14.83,1.24-21.11C765.17,110.2,773.86,122.61,771.38,131.31ZM688.19,176c2.48-14.9,13.66,17.38,14.9,27.32s-3.73-7.45-12.42-11.18S687.54,179.88,688.19,176Zm-17.38,44.7c5-11.18,11.18-6.21,12.42,1.24s-3.73,18.63-11.18,16.14S670.8,220.71,670.8,220.71Zm-21.11,108c-7.45,0-11.18,1.24-17.38-6.21s12.42-3.73,12.42-3.73a29.42,29.42,0,0,1,19.87,2.48C672,325,657.14,328.73,649.69,328.73Zm113-84.43c-7.45,16.14,1.24-12.42-5-28.56s12.42-22.35,12.42-22.35C781.31,208.29,770.14,228.16,762.69,244.3ZM740.34,45.63C754,35.7,759,68,760.2,77.91s-7.45-8.69-16.14-14.9S740.34,45.63,740.34,45.63Zm-6.21,27.32c18.63,5,17.38,24.83,16.14,41s-12.42,31-13.66,41-6.21,13.66-12.42,5-8.69-19.87-18.63-29.8-11.18-31-11.18-31C698.12,84.12,715.5,68,734.13,72.95Zm-41-39.73c-1.24,9.93,2.48,11.18,7.45,11.18s19.87-1.24,13.66,7.45-22.35,23.59-22.35,23.59c-3.73,0-16.14-6.21-13.66-18.63S694.39,23.28,693.15,33.21Zm-34.77-8.69c6.21-21.11,24.83-6.21,31-3.73s-8.69,5-17.38,12.42-3.73,13.66-13.66,8.69S658.39,24.52,658.39,24.52Z"/><path class="cls-6" d="M614.93,7.14A24.75,24.75,0,0,0,610,10.61a118.57,118.57,0,0,1,14-7.5A89.54,89.54,0,0,0,614.93,7.14Z"/><path class="cls-2" d="M542.91,179.73c6.21,23.59,14.9,54.63,14.9,54.63s5-50.91,22.35-79.47,38.49-36,60.84-32.28,37.25,8.69,44.7,17.38,28.56,58.36,27.32,43.46-11.18-28.56-14.9-45.94S686.94,99,677,90.33s-14.9-21.11-29.8-24.83c-2.11-.53-4.2-1-6.2-1.5,1.38-6.11,2.48-12.17,2.48-17.13,0-14.64,2.38-46-11.66-46-.25,0-.49,0-.76,0A25.12,25.12,0,0,0,624,3.11a118.57,118.57,0,0,0-14,7.5c-24,14.62-59.56,43.75-74.06,73.28A66.38,66.38,0,0,0,530.49,99C520.56,145,536.7,156.14,542.91,179.73ZM649.69,89.09C647.21,95.3,638.52,99,636,92.81c-1.31-3.28.85-11.77,3.17-21.25C645.7,77.7,651.22,85.27,649.69,89.09Z"/><path class="cls-2" d="M760.2,174.76c-5-8.69-13.66,0-13.66,0s-7.45,1.24-5,13.66,2.48,7.45,3.73,19.87S765.17,183.46,760.2,174.76Z"/><path class="cls-2" d="M762.69,141.24c6.21,3.73,6.21-1.24,8.69-9.93s-6.21-21.11-7.45-11.18C763.14,126.41,756.48,137.51,762.69,141.24Z"/><path class="cls-2" d="M678.25,56.8c-2.48,12.42,9.93,18.63,13.66,18.63,0,0,16.14-14.9,22.35-23.59s-8.69-7.45-13.66-7.45-8.69-1.24-7.45-11.18S680.74,44.39,678.25,56.8Z"/><path class="cls-2" d="M694.39,99s1.24,21.11,11.18,31,12.42,21.11,18.63,29.8,11.18,5,12.42-5,12.42-24.83,13.66-41,2.48-36-16.14-41S698.12,84.12,694.39,99Z"/><path class="cls-2" d="M658.39,41.9c9.93,5,5-1.24,13.66-8.69s23.59-9.93,17.38-12.42-24.83-17.38-31,3.73C658.39,24.52,648.45,36.94,658.39,41.9Z"/><path class="cls-2" d="M757.72,215.74c6.21,16.14-2.48,44.7,5,28.56s18.63-36,7.45-50.91C770.14,193.39,751.51,199.6,757.72,215.74Z"/><path class="cls-2" d="M744.06,63c8.69,6.21,17.38,24.83,16.14,14.9S754,35.7,740.34,45.63C740.34,45.63,735.37,56.8,744.06,63Z"/><path class="cls-2" d="M664.59,321.28a29.42,29.42,0,0,0-19.87-2.48s-18.63-3.73-12.42,3.73,9.93,6.21,17.38,6.21S672,325,664.59,321.28Z"/><path class="cls-2" d="M672,238.09c7.45,2.48,12.42-8.69,11.18-16.14s-7.45-12.42-12.42-1.24C670.8,220.71,664.59,235.61,672,238.09Z"/><path class="cls-2" d="M690.67,192.15c8.69,3.73,13.66,21.11,12.42,11.18s-12.42-42.22-14.9-27.32C687.54,179.88,682,188.42,690.67,192.15Z"/><path class="cls-2" d="M713,246.78c5-11.18,7.45-39.73,0-31a30,30,0,0,0-2.48,19.87C713,246.78,708.05,258,713,246.78Z"/><path d="M627.34,213.26s-16.76,6.83-32.9-8.07-19.87-50.91,4.35-59,58.36-8.69,72,12.42S663.35,220.71,627.34,213.26Z"/><path d="M588.85,327.49s-7.45-37.25,6.21-53.39,37.25-24.83,37.25-24.83,23,16.14,36,27.32S711.78,312,700,314.45s-22.35-3.73-40.35-27.94-29.8-29.8-29.8-29.8-31,19.87-34.15,29.8-1.24,24.83,0,36S588.85,327.49,588.85,327.49Z"/><path d="M703.71,112.68S700,94.05,711.16,84.74s36,2.48,39.11,10.55S739.72,148.69,703.71,112.68Z"/><path d="M601.1,113.92S604.82,95.3,593.65,86s-36,2.48-39.11,10.55S565.09,149.93,601.1,113.92Z"/><circle class="cls-7" cx="568.67" cy="98.71" r="6.52"/><circle class="cls-7" cx="584.2" cy="108.64" r="4.04"/><circle class="cls-7" cx="717.06" cy="99.95" r="6.52"/><circle class="cls-7" cx="732.58" cy="109.89" r="4.04"/></g></g></svg>