<svg xmlns="http://www.w3.org/2000/svg" viewBox="0 0 920.65 1650.4"><defs><style>.cls-1{fill:none;}.cls-2{fill:#1d1a17;}.cls-3{fill:#2d2824;}.cls-4{fill:#e1cfc7;}.cls-5{fill:#eedfd9;}.cls-6{fill:#c98496;}.cls-7{fill:#fff;}</style></defs><title>FINNISH LAPPHUND 1</title><g id="Layer_2" data-name="Layer 2"><g id="Layer_1-2" data-name="Layer 1"><path class="cls-1" d="M92.88,1180.78a8.68,8.68,0,0,1,.65-.72C93.31,1180.12,93.09,1180.35,92.88,1180.78Z"/><path class="cls-2" d="M812.54,1469.11a7.89,7.89,0,0,0,.21,1.64S812.68,1470.14,812.54,1469.11Z"/><path class="cls-2" d="M844.79,1571.9c-15.17-11.8,15.17-8.43,15.17-8.43s-37.09-21.92-47.21-47.21-15.17-53.95-10.12-70.81c4.45-14.84,8.9,16,9.91,23.65-.21-3.25-.07-12.31,3.58-35.45,5.06-32-20.23-79.24-20.23-97.78s11.8,1.69,11.8,1.69-8.43-52.26-10.12-70.81,6.74,5.06,6.74,5.06-1.69-38.78-10.12-59,15.17,13.49,15.17,13.49-1.69-13.49-27-52.26c-16.91-25.93-47.39-39-65.73-44.88,1.57,40-6.77,55-6.77,55s-1.69-45.52-8.43-32-3.37,52.26-3.37,52.26-5.06-28.66-13.49-8.43,0,52.26,0,52.26-8.43-23.6-20.23-21.92c-10,1.42-13.91,8.84-22,17.2,3.53,7.36,7,14.8,10.19,21.57,13.49,28.66,6.74,53.95,6.74,53.95s10.12,10.12,5.06,6.74-5.06-6.74-11.8-10.12,5.06,28.66,21.92,32,15.17-43.83,15.17-43.83,1.69,6.74,16.86,13.49-13.49-23.6-13.49-23.6-5.06-6.74,13.49,1.69,53.95,53.95,53.95,53.95A58.21,58.21,0,0,1,747,1339.25c-6.74-6.74,0,33.72,1.69,38.78s-13.49-23.6-28.66-35.4-6.74,21.92-6.74,21.92-20.23-16.86-18.54,11.8-13.49,47.21-13.49,47.21l-3.37-10.12s-10.12-13.49-10.12,13.49a66.14,66.14,0,0,1-16.86,43.83s-11.8-23.6-13.49-10.12-15.17,52.26-15.17,47.21c0-4.13-7.86-13.87-14.42-1.72,3.11,22.7,7.8,40.2,14.42,47.24,22.28,23.67,45.7,43.89,41.79,64.45,10.29,1.2,18.42,2.21,24,3,72.49,10.12,111.27,3.37,111.27,3.37l-13.49-6.74c-13.49-6.74-6.74-10.12,52.26-6.74s82.61-6.74,82.61-6.74S860,1583.71,844.79,1571.9Z"/><path class="cls-2" d="M75.47,1485.85c-6.4,5.28-12.94,22-12.94,22s-5.06-53.95,5.06-79.24S45.67,1432,45.67,1432s5.06-43.83,13.49-60.69S45.67,1373,45.67,1373s3.37-37.09,21.92-60.69a128,128,0,0,1,28-26.6c1.21-31.77,1-58.11-1-72.87-3.09-22.85-1-25.34,3.28-16.58-1.42-10-2.92-16.59-4.31-16.17a8.68,8.68,0,0,0-.65.72,147.18,147.18,0,0,0-8.43,21.92s-.8-4.33-1.81-10.92c-13.58,12-23.48,10.92-23.48,10.92l6.74,15.17s5.06,27-8.43,32-28.66,27-28.66,27,20.23-3.37,18.54,6.74S25.44,1292,25.44,1292s0,5.06,3.37,15.17,11.8,13.49,1.69,30.35-8.43,50.58-8.43,50.58l6.74-16.86c6.74-16.86,10.12,18.54-1.69,33.72S17,1438.72,17,1438.72l10.12-10.12c10.12-10.12,18.54,3.37,10.12,16.86s-5.06,37.09-5.06,37.09,8.43-16.86,10.12,0S32.19,1523,32.19,1523s20.23-5.06,13.49,15.17c-2.43,7.28-3.76,15.22-3.06,21.85a54.69,54.69,0,0,1,9.8-5C60.7,1551.94,68.66,1524.37,75.47,1485.85Z"/><path class="cls-3" d="M464.14,1080.91c-2.53,3.79,7.59-13.91,10.11-24s-22.76,2.53-25.29,7.59c0,0-1.26-27.82-10.11-10.11s-36.67,43-36.67,43,6.32-11.38,11.38-22.76-1.26-20.23-8.85-7.59-26.55,27.82-26.55,27.82,0-3.79,3.79-16.44,0-17.7-5.06-5.06S355.4,1115,355.4,1115s-1.26,5.06,0-11.38-2.53-44.25-17.7-45.52,5.06,37.93,5.06,37.93S325.06,1079.65,320,1067s-5.06-19-10.11-2.53-16.44,29.08-16.44,29.08-1.26-12.64-5.06-37.93-5.06,21.49-5.06,21.49-19-29.08-15.17-44.25S247.93,1043,247.93,1043s10.11-24,1.26-17.7-32.87,16.44-32.87,16.44,6.32-21.49-6.32-8.85c-4.43,4.43-10.41,8.08-16.32,11,8.43,17.92,31.93,69.57,37.43,99.86,3,16.67,2.65,37.77,1,61.61,14.13-16.46,28.17-32.82,29.33-36.32,1.69-5.06-18.54,62.38-11.8,77.55s21.92-27,23.6-32-15.17,48.89-11.8,59S286.76,1255,286.76,1255s-5.06,23.6,5.06,33.72,13.49-30.35,13.49-33.72,0,0,6.74,15.17,11.8,15.17,8.43-6.74,6.74-74.18,11.8-75.87,0,48.89,0,48.89,5.06,38.78,21.92,43.83,10.12-37.09,11.8-42.15,1.69,20.23,8.43,32,6.74,0,8.43-27,16.86-45.52,18.54-50.58,1.69,5.06,0,25.29,35.4-67.44,35.4-67.44l.11.26a65.91,65.91,0,0,1-.11-7c1.09-19.69,24.89-55,41.47-77.34C472.86,1070.25,465.63,1078.67,464.14,1080.91Z"/><path class="cls-3" d="M92.88,1180.78c.22-.43.43-.66.65-.72,1.4-.42,2.89,6.16,4.31,16.17,7.36,15.15,21.11,63.94,25.38,99.19,2.47,20.41,3.81,37.18,4.77,47.66,1,2.22,2,4.41,3,6.56.6-4.4,1.34-11.65,2.36-22.19,5.06-52.26,25.29-222.54,20.23-214.11s-10.12,28.66-10.12,23.6-5.06-52.26,5.06-74.18c3-6.57,6.37-13.44,9.55-19.85-14.15,4.26-27.53,7.46-31.51,11.44-5.06,5.06,6.32-15.17,11.38-34.14s-11.38,10.11-11.38,10.11-24-36.67-22.76-58.16-11.38-7.59-11.38-7.59-10.11-41.72-8.85-56.9-8.85-1.26-11.38,6.32,2.53-8.85-3.79-43S84.83,768.62,84.83,768.62s7.59,32.87,8.85,40.46,24-6.32,34.14-7.59-19,32.87-19,32.87,3.79-3.79,17.7-3.79,39.19-8.85,39.19-8.85-6.32,20.23-3.79,24S192.3,815.4,192.3,815.4,191,823,186,844.48,174.6,879.88,192.3,871s44.25-11.38,44.25-11.38S216.32,876.09,210,886.2s21.49-3.79,21.49-3.79-6.32,27.82,1.26,21.49,50.57-19,50.57-19l-7.59,22.76c-7.59,22.76,16.44,31.61,35.4,3.79S344,881.14,344,881.14s-2.53,15.17,0,17.7,21.49-25.29,21.49-25.29,6.32,10.11,20.23,26.55,15.17,7.59,13.91-1.26,2.53-29.08,2.53-29.08,17.7,22.76,34.14,32.87,8.85-25.29,8.85-25.29,2.53,7.59,12.64,13.91S475.52,847,475.52,847s7.59,21.49,12.64,35.4,13.91-25.29,13.91-25.29,10.11,26.55,17.7,24-5.06-40.46-5.06-40.46,19,34.14,31.61,41.72,2.53-24,2.53-24,8.85,7.59,16.44,10.11S547.59,828,547.59,828s19,12.64,37.93,26.55S575.4,828,570.34,824.25s12.64,1.26,37.93,12.64,36.67,20.23,36.67,20.23a101.38,101.38,0,0,0-19-3.79c-11.38-1.26,25.29,2.53,22.76,24s-43,86-59.42,122.64-32.87,60.69-32.87,60.69l1.26-11.38c.86-7.7-1.18-9.6-4.55-3-2.33,28.15-12.75,77.21-15.2,104.11-3.37,37.09,11.8,139.93,20.23,119.7s47.21-96.1,57.32-134.87,5.06,3.37,5.06,27-1.69,33.72,13.49,57.32,8.43,21.92,8.43,21.92-.9-1-2.07-2.1l2,4.13c8.08-8.36,12-15.78,22-17.2,11.8-1.69,20.23,21.92,20.23,21.92s-8.43-32,0-52.26,13.49,8.43,13.49,8.43-3.37-38.78,3.37-52.26,8.43,32,8.43,32,8.34-15,6.77-55c0-.21,0-.42,0-.64-1.69-40.46,20.23,5.06,20.23,5.06s-10.12-25.29-15.17-43.83,20.23,1.69,20.23,1.69-15.17-35.4-11.8-43.83,15.17-5.06,15.17-5.06-10.12-23.6-8.43-38.78S747,1020.62,747,1020.62s8.43-38.78,3.37-60.69,11.8,3.37,11.8,3.37-8.43-27-15.17-43.83S760.49,938,760.49,938s-15.17-53.95-20.23-67.44,16.86,15.17,16.86,15.17,1.69-5.06-11.8-32-25.29-28.66-35.4-67.44S708.23,761,723.4,766a220.41,220.41,0,0,0,23.6,6.74l-6.74-50.58C736.89,696.93,747,734,747,734s1.69-23.6-11.8-53.95S715,636.23,723.4,622.75s3.37,27,3.37,27,5.06-15.17,8.43-40.46-11.8-40.46-11.8-62.38S735.2,557,735.2,557s-11.8-48.89-13.49-65.75,8.43,20.23,8.43,20.23,3.37-6.74,1.69-18.54-6.74-43.83-10.12-60.69,16.86,15.17,16.86,15.17-5.06-40.46-11.8-64.06,15.17,21.92,15.17,21.92L738.57,380c-3.37-25.29-20.23-53.95-32-69.12s18.54,5.06,18.54,5.06-21.92-27-18.54-35.4,35.4-15.17,35.4-15.17-11.8-3.37-15.17-10.12,28.66,10.12,28.66,10.12-10.12-28.66-28.66-38.78,21.92,1.69,21.92,1.69-13.49-23.6-21.92-27,3.37-18.54,3.37-18.54-13.49,3.37-6.74-11.8a65.29,65.29,0,0,0,5.06-30.35l-10.12,11.8s1.69-33.72-13.49-82.61-111.27,35.4-121.38,43.83,0-15.17,0-15.17-11.8,8.43-21.92,15.17S570,98.43,570,98.43s-6.74,1.69-18.54,13.49S538,142.27,538,142.27C517.72,123.72,404.77,122,404.77,122c-1.69-25.29-15.17-43.83-15.17-43.83s-10.12,16.86-11.8,6.74-13.49-33.72-13.49-33.72V81.57c0,11.8-6.74-11.8-8.43-10.12S305.3,9.08,278.33.65s-40.46,67.44-45.52,87.67-21.92,11.8-21.92,11.8,10.12,8.43,1.69,20.23S194,113.61,194,113.61s8.43,23.6,8.43,38.78S189,142.27,189,142.27s0,21.92,8.43,32-11.8,11.8-11.8,11.8,25.29,16.86,11.8,27-27,33.72-27,33.72,0,5.06,10.12-3.37,0,20.23-20.23,35.4S135,326,135,326s5.06-6.74,15.17-21.92,3.37,6.74-11.8,38.78S121.54,407,121.54,407s3.37-5.06,11.8-18.54,5.06,8.43-6.74,38.78S103,506.42,103,506.42l10.12-11.8c10.12-11.8,6.74,37.09-11.8,50.58s-38.78,55.63-38.78,55.63A139.56,139.56,0,0,0,84.45,580.6c10.12-11.8-13.49,32-23.6,47.21S54.1,702,54.1,702s6.74-3.37,13.49-25.29,18.54,20.23,1.69,43.83-13.49,60.69-13.49,60.69,5.06-8.43,13.49-23.6,6.74,23.6-8.43,40.46-27,75.87-27,75.87L44,860.46C54.1,847,47.36,877.32,28.81,897.55s-16.86,59-16.86,59,8.43-20.23,21.92-32,11.8,1.69,1.69,20.23a61.73,61.73,0,0,0-6.74,37.09s16.86-13.49,11.8,3.37S42.3,1029,42.3,1029l3.37-13.49c3.37-13.49,8.43,6.74,1.69,27s3.37,52.26,3.37,52.26,3.37-8.43,10.12-21.92,8.43,3.37,6.74,27S71,1133.57,71,1133.57s11.8-16.86,8.43,3.37c-2.33,14,1,40.07,3.25,54.83,1,6.58,1.81,10.92,1.81,10.92A147.18,147.18,0,0,1,92.88,1180.78ZM627.31,111.08c24.45-16,67.44-33.72,71.65-.84s-2.53,50.58-.84,73.34-4.21,32.87,0,36.25,19.39-1.69,18.54.84-5.9,6.74-18.54,6.74-16.86,16-7.59,13.49a138.49,138.49,0,0,1,15.17-3.37s.84,5.9-16.86,19.39-26.13,12.64-21.92,2.53,11.8-25.29,11.8-25.29-17.7,20.23-13.49,11,12.64-33.72,12.64-33.72-16,27-23.6,25.29,10.12-20.23,10.12-20.23-25.29,16-18.54,1.69c5.34-11.34,11.19-29.52,13-35C656,189.49,642.56,211.88,634,208c-9.27-4.21,11-14.33,11-14.33s-27,0-26.13-5.06,28.66-25.29,28.66-25.29-17.7.84-30.35,5.06-10.12-5.06,3.37-14.33,16.86-11.8,16.86-11.8S613,146.48,602,156.6C602,156.6,602.86,127.09,627.31,111.08ZM564.13,346.71s-1.75,15.19-16.38,22-39.81-8.57-40.64-15.07c-.11-.88,8.34-21.81,24.95-26.8S564.13,346.71,564.13,346.71Zm-79-53.28a62.26,62.26,0,0,1,19.11-23s-5.62,12.93-.56,6.74,5.62-12.93,22.48-13.49,23-.56,23-.56-14,10.12-10.68,11.24,17.42,8.43,14.61,7.87-12.93,3.93-9,6.74,17.42,14.61,17.42,14.61,0,7.31-21.35,14S512.66,340.08,498.05,335s-15.17-14-15.17-14S477.82,308.61,485.13,293.43ZM374.37,255.29c11.38,2.53,3.79-7.59,3.79-7.59s19-3.79,31.61,16.44,15.17,65.75-10.11,53.1c-3.39-1.7-13.43-1.75-23.55-18.19s-22-18.48-22-18.48,13.91,2.53,12.64-3.79-19-16.44-19-16.44S363,252.76,374.37,255.29Zm4.55,81.14c-3.37,5.62-32.59,9.55-43.27-2.53s-6.18-26.69-6.18-26.69,24.16-16.58,37.37-5.34S379.37,335.66,378.92,336.42ZM237,163.34c8.43-1.69-12.64-8.43-12.64-8.43s4.21.84,13.49-1.69,9.27-30.35,10.12-54.79S258.09,38.58,284.23,42s56.48,65.75,56.48,65.75,3.37,11,1.69,14.33-16.86-9.27-16.86-9.27l4.21,5.9c4.21,5.9,7.59,15.17.84,14.33s-16.86-12.64-16.86-12.64,0,2.53,2.53,6.74,2.53,19.39-4.21,10.12-27.82-24.45-27.82-24.45,17.7,29.5,19.39,37.93-15.17-5.06-15.17-5.06.84,2.53,5.06,10.12,2.53,9.27-6.74.84-28.66-16.86-28.66-16.86A200.06,200.06,0,0,0,270.74,165c7.59,12.64-12.64-3.37-15.17-4.21s9.27,13.49,4.21,21.92-32,4.21-32,4.21,16-4.21,6.74-11-23.6,6.74-23.6,6.74S228.59,165,237,163.34Zm-70,341c3.79-16.44-11.38,8.85-11.38,6.32s10.11-35.4,13.91-51.84-12.64,5.06-12.64,5.06,6.32-41.72,16.44-56.9-12.64,3.79-12.64,3.79,16.44-26.55,32.87-39.19-12.64,1.26-12.64,1.26,6.32-17.7,39.19-37.93c24.63-15.16,54.23-16.12,67.53-15.65,3-2.58,5.28-2.86,7.07.47h0a31.61,31.61,0,0,1,2.53,8.84c3.79,21.49,13.91,37.93,31.61,43s53.1-22.76,63.22-13.91,8.85,40.46,16.44,43,65.75,19,64.48,2.53-1.26-43,8.85-26.55,25.29,22.76,36.67,24c9.22,1,27.56,11.17,36.89,2.89,2-4.15,3.75-8,5.33-11.51,4.49-21.22,3.69-31.5,14.68-21.73a16,16,0,0,1,1.4,1.43c14.91,2,48.34,14.08,75.73,23.86,35.4,12.64,46.78,37.93,46.78,37.93s-19-7.59-10.11,5.06,11.38,43,11.38,43-11.38-5.06-5.06,12.64S698,541,698,541L693,529.65c-5.06-11.38-3.79-7.59-6.32,13.91s-8.85,49.31-8.85,49.31-8.85-19-12.64,6.32S650,646,650,646a79.87,79.87,0,0,0-5.06-16.44c-3.79-8.85-15.17,10.11-13.91,27.82s-7.59,29.08-7.59,29.08l-2.53-8.85c-2.53-8.85-7.59-10.11-8.85,8.85s-17.7,44.25-17.7,44.25,0-6.32-5.06-25.29-11.38-16.44-12.64-1.26a37.61,37.61,0,0,1-10.11,22.76c1.26-1.26-7.59-19-8.85,1.26s-10.11,25.29-10.11,25.29S540,733.21,534.94,756s-25.29,49.31-25.29,49.31V780c0-20.23-7.59-10.11-15.17,8.85s-22.76,30.34-22.76,26.55,0-24-8.85-2.53a77.54,77.54,0,0,1-26.55,32.87s3.79-20.23-2.53-32.87-7.59,36.67-7.59,36.67-2.53-3.79-13.91-26.55,3.79,26.55,3.79,26.55-32.87-31.61-35.4-51.84S368,830.57,368,830.57s0-6.32-1.26-17.7-7.59-13.91-8.85,0S350.35,847,350.35,847s-8.85-53.1-19-43-19,17.7-19,17.7,11.38-36.67,2.53-43-17.7,19-17.7,19S301,771.14,296,780s-29.08,30.34-29.08,30.34,8.85-25.29,10.11-44.25S266.9,776.2,266.9,776.2s-22.76-56.9-22.76-67-20.23,12.64-20.23,12.64S229,701.6,227.7,687.7s-7.59,5.06-10.11,1.26-5.06-29.08-7.59-41.72-13.91,2.53-13.91,2.53-12.64-30.34-15.17-48-8.85,12.64-8.85,12.64-1.26-26.55-5.06-43-6.32,35.4-6.32,35.4-1.26-8.85-6.32-41.72S163.22,520.8,167,504.36Z"/><path class="cls-4" d="M473.89,1482.55c1.59-90.56-34.25-284.42-37-331.86l-.11-.26s-37.09,87.67-35.4,67.44,1.69-30.35,0-25.29-16.86,23.6-18.54,50.58-1.69,38.78-8.43,27-6.74-37.09-8.43-32,5.06,47.21-11.8,42.15-21.92-43.83-21.92-43.83,5.06-50.58,0-48.89-15.17,53.95-11.8,75.87-1.69,21.92-8.43,6.74-6.74-18.54-6.74-15.17-3.37,43.83-13.49,33.72-5.06-33.72-5.06-33.72-21.92,28.66-25.29,18.54,13.49-64.06,11.8-59-16.86,47.21-23.6,32,13.49-82.61,11.8-77.55c-1.16,3.49-15.2,19.86-29.33,36.32-2,29.21-5.9,62.52-7.76,96.87-3.13,57.85-25.1,263.6-41.73,313.33,7.67-1.6,16.14-4.52,21.5-9.87,11.8-11.8-3.37,15.17-3.37,15.17s25.29-1.69,32-10.12,0,1.69,15.17,8.43,21.92,6.74,21.92,6.74,0-32,6.74-15.17,8.43,23.6,8.43,23.6,23.6-11.8,32-18.54,3.37,10.12,3.37,10.12,23.6-8.43,32-16.86,5.06,18.54,5.06,18.54,18.54,1.69,28.66-8.43,21.92-5.06,18.54,1.69l-3.37,6.74s23.6-25.29,33.72-13.49,33.72,18.54,33.72,18.54-15.17-25.29,0-16.86a99.1,99.1,0,0,0,10.82,5.18C470.48,1597,472.64,1553.59,473.89,1482.55Z"/><path class="cls-4" d="M67.59,1312.28C49,1335.88,45.67,1373,45.67,1373s21.92-18.54,13.49-1.69S45.67,1432,45.67,1432s32-28.66,21.92-3.37-5.06,79.24-5.06,79.24,6.54-16.71,12.94-22c10.14-57.3,17.74-138.84,20.08-200.17A128,128,0,0,0,67.59,1312.28Z"/><path class="cls-4" d="M637.42,1248.21c6.74,20.23,8.43,48.89,8.43,48.89s-8.43-18.54-20.23-25.29c-10.66-6.09,3.45,15.34,6.27,19.53a4.51,4.51,0,0,1,.47.7l-.47-.7c-1.53-1.89-6.91-5.92-18.07,10.81-10.18,15.26-15.55,134.18-6,204,6.56-12.15,14.42-2.41,14.42,1.72,0,5.06,13.49-33.72,15.17-47.21s13.49,10.12,13.49,10.12a66.14,66.14,0,0,0,16.86-43.83c0-27,10.12-13.49,10.12-13.49l3.37,10.12s15.17-18.54,13.49-47.21,18.54-11.8,18.54-11.8-8.43-33.72,6.74-21.92,30.35,40.46,28.66,35.4-8.43-45.52-1.69-38.78a58.21,58.21,0,0,0,13.49,10.12s-35.4-45.52-53.95-53.95-13.49-1.69-13.49-1.69,28.66,30.35,13.49,23.6-16.86-13.49-16.86-13.49,1.69,47.21-15.17,43.83-28.66-35.4-21.92-32,6.74,6.74,11.8,10.12-5.06-6.74-5.06-6.74,6.74-25.29-6.74-53.95c-3.19-6.78-6.66-14.21-10.19-21.57l-2-4.13C637.37,1236.59,632.54,1233.58,637.42,1248.21Z"/><path class="cls-4" d="M131,1349.64c-1-2.15-2-4.34-3-6.56C129.11,1355.41,129.7,1359,131,1349.64Z"/><path class="cls-5" d="M622.25,1553.36c-6.62-7-11.31-24.54-14.42-47.24-9.56-69.78-4.18-188.7,6-204,11.16-16.74,16.54-12.71,18.07-10.81-2.82-4.19-16.93-25.63-6.27-19.53,11.8,6.74,20.23,25.29,20.23,25.29s-1.69-28.66-8.43-48.89c-4.88-14.63-.05-11.63,3-8.84,1.16,1.07,2.07,2.1,2.07,2.1s6.74,1.69-8.43-21.92-13.49-33.72-13.49-57.32,5.06-65.75-5.06-27-48.89,114.64-57.32,134.87-23.6-82.61-20.23-119.7c2.45-26.9,12.87-76,15.2-104.11a88.94,88.94,0,0,0-5.56,15.62c-6.32,22.76-22.76,45.52-22.76,45.52s1.26-8.85-1.26-30.34-7.59,16.44-7.59,16.44-13.91-15.17-17.7-25.29-17.7,19-17.7,19,2.53-6.32,3.79-19c.52-5.17-2.35-4.63-6.1-1.92-16.58,22.37-40.38,57.66-41.47,77.34a65.91,65.91,0,0,0,.11,7c2.72,47.43,38.56,241.3,37,331.86-1.25,71-3.41,114.44,5.76,138.37,3.23,8.44,7.88,14.46,14.47,18.42,25.29,15.17,143.3,16.86,163.53-8.43a29.85,29.85,0,0,0,6.39-13.1C667.94,1597.24,644.52,1577,622.25,1553.36Z"/><path class="cls-5" d="M631.89,1291.35l.47.7A4.51,4.51,0,0,0,631.89,1291.35Z"/><path class="cls-5" d="M224.38,1302.16c1.86-34.35,5.75-67.66,7.76-96.87,1.64-23.84,2-44.94-1-61.61-5.51-30.29-29-81.94-37.43-99.86a124.77,124.77,0,0,1-21.61,8s15.17-19-2.53-12.64c-3.77,1.35-7.65,2.58-11.48,3.73-3.18,6.4-6.52,13.28-9.55,19.85-10.12,21.92-5.06,69.12-5.06,74.18s5.06-15.17,10.12-23.6-15.17,161.85-20.23,214.11c-1,10.55-1.77,17.79-2.36,22.19-1.27,9.4-1.86,5.77-3-6.56-1-10.49-2.29-27.26-4.77-47.66-4.27-35.25-18-84-25.38-99.19-4.25-8.76-6.37-6.27-3.28,16.58,2,14.75,2.19,41.1,1,72.87-2.34,61.34-9.94,142.87-20.08,200.17-6.82,38.52-14.78,66.09-23.06,69.2a54.69,54.69,0,0,0-9.8,5c-25.15,15.85-52.48,54.9-39.09,74.24,15.17,21.92,158.47,15.17,175.33-10.12a38.85,38.85,0,0,0,3.79-8.67C199.27,1565.76,221.25,1360,224.38,1302.16Z"/><path class="cls-4" d="M560.23,394.37c.17-.78.34-1.54.5-2.29-1.59,3.49-3.37,7.35-5.33,11.51C557.58,401.64,559.27,398.69,560.23,394.37Z"/><path class="cls-4" d="M294.72,319.77h0Z"/><path class="cls-4" d="M160.69,606.78s2.53-51.84,6.32-35.4,5.06,43,5.06,43,6.32-30.34,8.85-12.64,15.17,48,15.17,48,11.38-15.17,13.91-2.53,5.06,37.93,7.59,41.72,8.85-15.17,10.11-1.26-3.79,34.14-3.79,34.14,20.23-22.76,20.23-12.64,22.76,67,22.76,67,11.38-29.08,10.11-10.11-10.11,44.25-10.11,44.25,24-21.49,29.08-30.34,1.26,17.7,1.26,17.7,8.85-25.29,17.7-19-2.53,43-2.53,43,8.85-7.59,19-17.7,19,43,19,43,6.32-20.23,7.59-34.14,7.59-11.38,8.85,0,1.26,17.7,1.26,17.7,10.11-53.1,12.64-32.87,35.4,51.84,35.4,51.84S400.92,800.22,412.3,823s13.91,26.55,13.91,26.55,1.26-49.31,7.59-36.67,2.53,32.87,2.53,32.87a77.54,77.54,0,0,0,26.55-32.87c8.85-21.49,8.85-1.26,8.85,2.53s15.17-7.59,22.76-26.55,15.17-29.08,15.17-8.85v25.29s20.23-26.55,25.29-49.31,12.64-2.53,12.64-2.53,8.85-5.06,10.11-25.29,10.11-2.53,8.85-1.26a37.61,37.61,0,0,0,10.11-22.76c1.26-15.17,7.59-17.7,12.64,1.26s5.06,25.29,5.06,25.29,16.44-25.29,17.7-44.25,6.32-17.7,8.85-8.85l2.53,8.85s8.85-11.38,7.59-29.08,10.11-36.67,13.91-27.82A79.87,79.87,0,0,1,650,646s11.38-21.49,15.17-46.78,12.64-6.32,12.64-6.32,6.32-27.82,8.85-49.31,1.26-25.29,6.32-13.91L698,541s3.79-29.08-2.53-46.78,5.06-12.64,5.06-12.64-2.53-30.34-11.38-43,10.11-5.06,10.11-5.06-11.38-25.29-46.78-37.93c-27.39-9.78-60.82-21.83-75.73-23.86,11,12.57,22.21,57.71,12.51,80.75-10.11,24-20.23,59.42-49.31,82.18s-48,31.61-62,51.84c-4.79,7-8.54,17.1-13.45,27.64a64.17,64.17,0,0,1-7,17.55,33.17,33.17,0,0,1-12.65,11.76c-8.65,8.15-20.19,14.36-36.43,16.39-50.57,6.32-87.24-55.63-87.24-104.94,0,0-39.19-30.34-40.46-55.63s0-35.4-7.59-63.22-16.44-80.92-1.26-98.62c6.83-8,11.87-14.91,15.69-18.18-13.29-.47-42.89.49-67.53,15.65-32.87,20.23-39.19,37.93-39.19,37.93S210,359,193.57,371.61s-32.87,39.19-32.87,39.19,22.76-19,12.64-3.79-16.44,56.9-16.44,56.9,16.44-21.49,12.64-5.06-13.91,49.31-13.91,51.84,15.17-22.76,11.38-6.32-17.7,27.82-12.64,60.69S160.69,606.78,160.69,606.78Z"/><path class="cls-5" d="M272,337.47c-15.17,17.7-6.32,70.8,1.26,98.62s6.32,37.93,7.59,63.22,40.46,55.63,40.46,55.63c0,49.31,36.67,111.26,87.24,104.94,16.24-2,27.78-8.23,36.43-16.39-20.56,11.55-55.73,10.35-72.86-8.87a22.53,22.53,0,0,1-6.08-1.76c-25.29-11.8-37.09-58.16-43-86s-24.45-79.24-22.76-88.51,10.12,10.12,16,27,11.8,18.54,25.29,33.72,25.57,9.27,25.57,9.27l.43.6c6.38-3,46.78.52,46.78.52,4.5-2.81,46.08,8.43,46.08,8.43s21.07,13.21,32,4.78S538.8,487,538.8,492.93s-25.29,42.15-50.58,77.55c-5.34,7.48-12.75,15.1-21.35,22.37a89.16,89.16,0,0,1-2.27,21.33c4.92-10.54,8.66-20.67,13.45-27.64,13.91-20.23,32.87-29.08,62-51.84s39.19-58.16,49.31-82.18c9.7-23-1.53-68.18-12.51-80.75a16,16,0,0,0-1.4-1.43c-11-9.77-10.19.51-14.68,21.73-.16.75-.32,1.51-.5,2.29-1,4.32-2.65,7.27-4.84,9.21-9.32,8.28-27.67-1.87-36.89-2.89-11.38-1.26-26.55-7.59-36.67-24s-10.11,10.11-8.85,26.55-56.9,0-64.48-2.53-6.32-34.14-16.44-43-45.52,19-63.22,13.91-27.82-21.49-31.61-43a31.61,31.61,0,0,0-2.53-8.84h0c-1.78-3.34-4-3.06-7.07-.47C283.82,322.56,278.79,329.5,272,337.47Zm121.29,91.12c15.17-12.64,63.5-2.53,75.58,4.5s16.3,23,12.93,36.25-12.93,25.29-24.16,32.59-35.4,7.87-35.4,7.87-16.86-6.18-28.1-20.79S378.07,441.23,393.25,428.59Z"/><path class="cls-5" d="M366.78,276.78c1.26,6.32-12.64,3.79-12.64,3.79s11.85,2,22,18.48,20.16,16.49,23.55,18.19c25.29,12.64,22.76-32.87,10.11-53.1s-31.61-16.44-31.61-16.44,7.59,10.11-3.79,7.59-26.55,5.06-26.55,5.06S365.52,270.46,366.78,276.78Z"/><path class="cls-5" d="M498.05,335c14.61,5.06,20.79-10.68,42.15-17.42s21.35-14,21.35-14-13.49-11.8-17.42-14.61,6.18-7.31,9-6.74-11.24-6.74-14.61-7.87,10.68-11.24,10.68-11.24-6.18,0-23,.56-17.42,7.31-22.48,13.49.56-6.74.56-6.74a62.26,62.26,0,0,0-19.11,23c-7.31,15.17-2.25,27.54-2.25,27.54S483.44,330,498.05,335Z"/><path class="cls-5" d="M234.49,176c9.27,6.74-6.74,11-6.74,11s27,4.21,32-4.21S253,160,255.57,160.81s22.76,16.86,15.17,4.21a200.06,200.06,0,0,1-12.64-25.29s19.39,8.43,28.66,16.86,11,6.74,6.74-.84-5.06-10.12-5.06-10.12,16.86,13.49,15.17,5.06-19.39-37.93-19.39-37.93S305.3,127.94,312,137.21s6.74-5.9,4.21-10.12-2.53-6.74-2.53-6.74,10.12,11.8,16.86,12.64,3.37-8.43-.84-14.33l-4.21-5.9s15.17,12.64,16.86,9.27-1.69-14.33-1.69-14.33S310.36,45.33,284.23,42,248.82,74,248,98.43s-.84,52.26-10.12,54.79-13.49,1.69-13.49,1.69,21.07,6.74,12.64,8.43-26.13,19.39-26.13,19.39S225.22,169.24,234.49,176Z"/><path class="cls-5" d="M620.56,154.07c-13.49,9.27-16,18.54-3.37,14.33s30.35-5.06,30.35-5.06-27.82,20.23-28.66,25.29S645,193.69,645,193.69,624.78,203.8,634,208c8.51,3.87,22-18.53,24.79-24.84-1.8,5.44-7.66,23.62-13,35-6.74,14.33,18.54-1.69,18.54-1.69s-17.7,18.54-10.12,20.23,23.6-25.29,23.6-25.29-8.43,24.45-12.64,33.72,13.49-11,13.49-11-7.59,15.17-11.8,25.29,4.21,11,21.92-2.53,16.86-19.39,16.86-19.39a138.49,138.49,0,0,0-15.17,3.37c-9.27,2.53-5.06-13.49,7.59-13.49s17.7-4.21,18.54-6.74-14.33,2.53-18.54-.84,1.69-13.49,0-36.25,5.06-40.46.84-73.34-47.21-15.17-71.65.84S602,156.6,602,156.6c11-10.12,35.4-14.33,35.4-14.33S634,144.79,620.56,154.07Z"/><path class="cls-4" d="M557.7,1049.3l-1.26,11.38s16.44-24,32.87-60.69,56.9-101.15,59.42-122.64-34.14-25.29-22.76-24a101.38,101.38,0,0,1,19,3.79s-11.38-8.85-36.67-20.23-43-16.44-37.93-12.64,34.14,44.25,15.17,30.34S547.59,828,547.59,828s25.29,43,17.7,40.46-16.44-10.11-16.44-10.11,10.11,31.61-2.53,24-31.61-41.72-31.61-41.72,12.64,37.93,5.06,40.46-17.7-24-17.7-24-8.85,39.19-13.91,25.29S475.52,847,475.52,847s-7.59,50.57-17.7,44.25-12.64-13.91-12.64-13.91,7.59,35.4-8.85,25.29-34.14-32.87-34.14-32.87-3.79,20.23-2.53,29.08,0,17.7-13.91,1.26-20.23-26.55-20.23-26.55-19,27.82-21.49,25.29,0-17.7,0-17.7-13.91,2.53-32.87,30.34-43,19-35.4-3.79l7.59-22.76s-43,12.64-50.57,19-1.26-21.49-1.26-21.49S203.68,896.32,210,886.2s26.55-26.55,26.55-26.55S210,862.18,192.3,871,180.92,866,186,844.48s6.32-29.08,6.32-29.08S164.49,849.53,162,845.74s3.79-24,3.79-24-25.29,8.85-39.19,8.85-17.7,3.79-17.7,3.79,29.08-34.14,19-32.87-32.87,15.17-34.14,7.59-8.85-40.46-8.85-40.46S62.07,836.89,68.4,871s1.26,50.57,3.79,43,12.64-21.49,11.38-6.32,8.85,56.9,8.85,56.9,12.64-13.91,11.38,7.59,22.76,58.16,22.76,58.16,16.44-29.08,11.38-10.11-16.44,39.2-11.38,34.14c4-4,17.36-7.18,31.51-11.44,3.83-1.15,7.71-2.38,11.48-3.73,17.7-6.32,2.53,12.64,2.53,12.64a124.77,124.77,0,0,0,21.61-8c5.9-2.88,11.89-6.53,16.32-11,12.64-12.64,6.32,8.85,6.32,8.85s24-10.11,32.87-16.44-1.26,17.7-1.26,17.7,24-25.29,20.23-10.11,15.17,44.25,15.17,44.25,1.26-46.78,5.06-21.49,5.06,37.93,5.06,37.93,11.38-12.64,16.44-29.08,5.06-10.11,10.11,2.53,22.76,29.08,22.76,29.08-20.23-39.2-5.06-37.93,19,29.08,17.7,45.52,0,11.38,0,11.38,16.44-29.08,21.49-41.72,8.85-7.59,5.06,5.06-3.79,16.44-3.79,16.44,19-15.17,26.55-27.82,13.91-3.79,8.85,7.59-11.38,22.76-11.38,22.76,27.82-25.29,36.67-43S449,1064.47,449,1064.47c2.53-5.06,27.82-17.7,25.29-7.59s-12.64,27.82-10.11,24c1.49-2.24,8.73-10.66,14.13-14.57,3.74-2.71,6.61-3.25,6.1,1.92-1.26,12.64-3.79,19-3.79,19s13.91-29.08,17.7-19,17.7,25.29,17.7,25.29,5.06-37.93,7.59-16.44,1.26,30.34,1.26,30.34,16.44-22.76,22.76-45.52a88.94,88.94,0,0,1,5.56-15.62C556.52,1039.7,558.56,1041.6,557.7,1049.3Z"/><path d="M466.87,592.85c8.6-7.27,16-14.89,21.35-22.37,25.29-35.4,50.58-71.65,50.58-77.55s-35.4,41.3-46.36,49.73-32-4.78-32-4.78,3.37,7.31,3.93,22.48C464.62,568.11,466.81,579.82,466.87,592.85Z"/><path d="M366.84,529.46a1.82,1.82,0,0,1,.71-.52l-.43-.6s-12.08,5.9-25.57-9.27-19.39-16.86-25.29-33.72-14.33-36.25-16-27S317.1,519.06,323,546.88s17.7,74.18,43,86a22.53,22.53,0,0,0,6.08,1.76,37.93,37.93,0,0,1-7.21-11.88C350.82,585.66,364,533.39,366.84,529.46Z"/><path class="cls-6" d="M466.87,592.85c-.06-13-2.24-24.74-2.53-32.49-.56-15.17-3.93-22.48-3.93-22.48s-41.59-11.24-46.08-8.43c0,0-40.4-3.56-46.78-.52a1.82,1.82,0,0,0-.71.52c-2.81,3.93-16,56.2-2,93.29a37.93,37.93,0,0,0,7.21,11.88c17.13,19.22,52.3,20.42,72.86,8.87a33.17,33.17,0,0,0,12.65-11.76,64.17,64.17,0,0,0,7-17.55A89.16,89.16,0,0,0,466.87,592.85Z"/><path d="M422.19,509.79s24.16-.56,35.4-7.87,20.79-19.39,24.16-32.59-.84-29.22-12.93-36.25-60.41-17.14-75.58-4.5-10.4,45.8.84,60.41S422.19,509.79,422.19,509.79Z"/><path d="M366.84,301.86c-13.21-11.24-37.37,5.34-37.37,5.34s-4.5,14.61,6.18,26.69,39.9,8.15,43.27,2.53C379.37,335.66,380,313.1,366.84,301.86Zm-18.54,17a6.74,6.74,0,1,1,6.74-6.74A6.74,6.74,0,0,1,348.29,318.86Zm15,13.91a3.58,3.58,0,1,1,3.58-3.58A3.58,3.58,0,0,1,363.25,332.77Z"/><path d="M532,326.81c-16.61,5-25.06,25.91-24.95,26.8.83,6.5,26,21.84,40.64,15.07s16.38-22,16.38-22S548.66,321.82,532,326.81Zm-2.95,21.13a6.74,6.74,0,1,1,6.74-6.74A6.74,6.74,0,0,1,529.1,347.95Zm15,13.91a3.58,3.58,0,1,1,3.58-3.58A3.58,3.58,0,0,1,544.06,361.85Z"/><circle class="cls-7" cx="348.29" cy="312.12" r="6.74"/><circle class="cls-7" cx="363.25" cy="329.19" r="3.58"/><circle class="cls-7" cx="529.1" cy="341.2" r="6.74"/><circle class="cls-7" cx="544.06" cy="358.27" r="3.58"/></g></g></svg>