<svg xmlns="http://www.w3.org/2000/svg" viewBox="0 0 1022.56 1741.14"><defs><style>.cls-1{fill:none;}.cls-2{fill:#512017;}.cls-3{fill:#602b1b;}.cls-4{fill:#6b321f;}.cls-5{fill:#c98496;}.cls-6{fill:#fff;}</style></defs><title>IRISH SETTER</title><g id="Layer_2" data-name="Layer 2"><g id="Layer_1-2" data-name="Layer 1"><path class="cls-1" d="M351.71,184.71c-5,1.67-7.38,15.87-8.47,26.23C352.13,194.88,356.8,183,351.71,184.71Z"/><path class="cls-1" d="M31.55,1605a136.55,136.55,0,0,0,.33,18.91c1.77,15.94,21.26,26.57,14.17,3.54C42.22,1615,36.82,1611.32,31.55,1605Z"/><path class="cls-2" d="M284.16,1588.82c-46.32,1.94-139.11,1-170.8-12.75-40.74-17.71-39-42.51-69.08-54.91S0,1519.38,0,1519.38s15.94-1.77,7.09,15.94,10.63,69.08,10.63,69.08-5.31-63.77,1.77-28.34a84.88,84.88,0,0,0,5.61,18.6,61.65,61.65,0,0,0-.3,39.86c10.63,31.88,56.68,42.51,74.39,44.28s-15.94,8.86-15.94,8.86,37.2,12.4,72.62,8.86c15.5-1.55,41.51-5.13,66.31-8.68C241.81,1669.17,256.76,1651.61,284.16,1588.82ZM31.88,1623.89a136.55,136.55,0,0,1-.33-18.91c5.27,6.34,10.66,10,14.5,22.46C53.14,1650.46,33.65,1639.83,31.88,1623.89Z"/><path class="cls-3" d="M698.42,1382.93c-4-124.87-19.93-193.95-19.93-166s-6.64,61.11-6.64,61.11,1.33-26.57-4-47.82-8-25.24-18.6-10.63c-8.46,11.63,1.59,26.62,6,32.26,1.33,1.49,1.92,2.28,1.92,2.28s-.78-.84-1.92-2.28a143.69,143.69,0,0,0-12.69-12.33c-10.63-9.3-12-21.25-22.58-34.54s-1.33,21.25-1.33,21.25-13.28-6.64-22.58-27.9-6.64-35.87-13.28-19.93-27.9,22.58-27.9,22.58a84,84,0,0,0,12-15.94c5.31-9.3-5.31,0-27.9,13.28-11.66,6.86-28.63,7.34-42.32,6.21-22.18,19.21-49.34,21.69-49.34,21.69l5.31-14.61c5.31-14.61-17.27,0-13.28,23.91S442,1286,442,1286s-2.66-13.28-8-23.91,5.31,29.22,9.3,71.73-6.64,61.11-6.64,61.11a178.92,178.92,0,0,0-2.66-26.57c-2.66-15.94-1.33-6.64-4,23.91s-19.93,61.11-19.93,61.11,1.33-9.3,2.66-27.9-1.33-13.28-5.31-14.61-5.31,102.29,0,146.12-18.6,83.69-29.22,101c-4.54,7.37-8.1,17.89-11.74,28.87a131.83,131.83,0,0,0,31.66-3.63c22.58-5.31,37.2-21.25,37.2-21.25s102.29,5.31,150.11,10.63c32.29,3.59,76.68-1.91,102.12-5.86.47-1.57,1-3.16,1.5-4.77C701.08,1626,702.41,1507.8,698.42,1382.93Z"/><path class="cls-3" d="M502.48,1199.19c9-1.47,17.42-4.12,20.59-8.88C530.64,1179,522.63,1180.79,502.48,1199.19Z"/><path class="cls-3" d="M1000,1608.76c-31.88-21.25-73.06-18.6-97-27.9s-30.55-37.2-25.24-43.84,10.63,9.3,10.63,9.3,8-35.87,2.66-58.45,12-2.66,12-2.66-6.64-37.2-25.24-59.78-25.24-37.2-15.94-26.57l9.3,10.63s-2.66-18.6-15.94-31.88,6.64-12,6.64-12,0-6.64-18.6-19.93-30.55-23.91-15.94-18.6,21.25-1.33,21.25-1.33a122.54,122.54,0,0,1-25.24-9.3c-13.28-6.64-26.57-34.54-27.9-38.52-.57-1.7-2.83-9.2-6.57-18.69,0,.47,0,1-.07,1.42-2.66,50.48,1.33,361.32,19.93,386.56,5.91,8,11,15.5,14.75,22.74,81.18,4.33,176.8,8.34,185.84,3.83C1025.21,1665.88,1031.85,1630,1000,1608.76Z"/><path class="cls-3" d="M333.51,1342.87c-6.5,11.52-14.35,26-21.65,38.73-15.94,27.9-19.93,51.81-19.93,51.81s22.58-31.88,12-8-9.3,61.11-8,63.76,10.63-33.21,12-10.63-5.31,25.24-12,55.79c-2,9.38-2.82,20.52-2.47,32.6,4.86-11.72,10.09-24.74,15.76-39.24C326.81,1482.67,332.71,1413.18,333.51,1342.87Z"/><path class="cls-4" d="M395.55,577.92c-2.73-17.26-3,4-2.85,19.16C395.27,592,396.86,586.26,395.55,577.92Z"/><path class="cls-4" d="M572.22,785.15c0,.13,0,.26,0,.38,7.06-12.18,12.37-26.72,6.62-37.58C566.91,725.37,569.57,745.3,572.22,785.15Z"/><path class="cls-4" d="M642.63,539.4c-11.49-1.28-10.71,1.14-3.55,27.29C644.47,555,649.85,540.2,642.63,539.4Z"/><path class="cls-4" d="M788.75,1260.72c0-.47,0-.95.07-1.42,2.44-50.59-5.3-131.77,3.92-168.62,9.3-37.19-6.64-170-29.22-310.84C749,689.56,724.73,602,700.4,541.71c-7.24-2.93-15-7.76-19.25-15.6-9.3-17.27-4,15.94-4,15.94a95,95,0,0,1-14.58-14.74c-5,31.09-14.28,44-21.33,49.43,3.06,26.42-17.23,49-17.23,49s-1.33-5.31-6.64-19.93S612.07,631.06,624,659s-4,35.87-5.31,43.84,0,0-4-14.61-8-6.64-10.63,35.87c-1.56,25-18.27,50-31.77,66.32-.86,37.93-37.3,73.16-37.3,73.16s1.33-9.3,4-30.55-6.64,8-21.25,41.18S477.91,918,477.91,918s2.66-23.91,1.33-35.87-6.64,14.61-6.64,14.61-6.64-46.49-25.24-69.08-25.24-30.55-19.93-46.49,2.66-27.9-12-45.17,4,27.9,4,27.9-5.31-6.64-14.61-21.25-9.3-25.24-4-51.81-15.94-22.58-19.93-54.46c-2.12-17,3.29-25.3,8.22-33.17a97.7,97.7,0,0,1-9.07-25.62c-9.13,26-23.79,64.79-36.34,84-19.93,30.55-18.6,55.79-21.25,104.94s4,163.39,9.3,201.92-4,90.33-6.64,128.85c-1.62,23.5,9.61,135.52,8.36,245.55-.8,70.31-6.7,139.79-24.3,184.85-5.67,14.5-10.9,27.52-15.76,39.24-3.25,7.85-6.34,15.11-9.28,21.85-27.4,62.79-42.35,80.35-62,99l-.65.62c-25.24,23.91-13.28,43.84,10.63,49.15s103.61,6.64,116.9-10.63c7.61-9.9,12.61-25.47,17.49-40.21,3.63-11,7.2-21.5,11.74-28.87,10.63-17.27,34.54-57.12,29.22-101s-4-147.45,0-146.12,6.64-4,5.31,14.61-2.66,27.9-2.66,27.9,17.27-30.55,19.93-61.11,1.33-39.85,4-23.91a178.92,178.92,0,0,1,2.66,26.57s10.63-18.6,6.64-61.11-14.61-82.36-9.3-71.73,8,23.91,8,23.91,1.33-26.57-2.66-50.48,18.6-38.52,13.28-23.91l-5.31,14.61s27.15-2.48,49.34-21.69c13.69,1.14,30.66.65,42.32-6.21,22.58-13.28,33.21-22.58,27.9-13.28a84,84,0,0,1-12,15.94s21.25-6.64,27.9-22.58,4-1.33,13.28,19.93,22.58,27.9,22.58,27.9-9.3-34.54,1.33-21.25,12,25.24,22.58,34.54a143.69,143.69,0,0,1,12.69,12.33c-4.46-5.63-14.51-20.62-6-32.26,10.63-14.61,13.28-10.63,18.6,10.63s4,47.82,4,47.82,6.64-33.21,6.64-61.11,15.94,41.18,19.93,166,2.66,243.1-9.3,279c-.54,1.61-1,3.2-1.5,4.77-9.93,33.32-4.13,56.63,17.44,63,22.58,6.64,103.61,10.63,118.23-13.28,10-16.32,8.18-30.78.14-46.33-3.75-7.24-8.84-14.72-14.75-22.74C790.08,1622,786.09,1311.2,788.75,1260.72Zm-265.68-70.41c-3.17,4.75-11.59,7.41-20.59,8.88C522.63,1180.79,530.64,1179,523.07,1190.31Z"/><path class="cls-4" d="M655.32,1251.79c1.14,1.44,1.92,2.28,1.92,2.28S656.64,1253.28,655.32,1251.79Z"/><path class="cls-3" d="M380.93,636.37c4,31.88,25.24,27.9,19.93,54.46s-5.31,37.2,4,51.81,14.61,21.25,14.61,21.25-18.6-45.17-4-27.9,17.27,29.22,12,45.17,1.33,23.91,19.93,46.49,25.24,69.08,25.24,69.08,5.31-26.57,6.64-14.61S477.91,918,477.91,918s25.24-10.63,39.85-43.84S541.67,811.72,539,833s-4,30.55-4,30.55,36.44-35.23,37.3-73.16C585.84,774,602.54,749,604.1,724c2.66-42.51,6.64-50.48,10.63-35.87s2.66,22.58,4,14.61S636,686.85,624,659s-12-67.75-6.64-53.14S624,625.74,624,625.74s20.3-22.58,17.23-49c7-5.39,16.35-18.34,21.33-49.43-5.78-7.21-11.74-16.73-14.65-27.77-6.64-25.24-4-29.22-19.93-53.14s8,34.54,8,34.54l-17.27-25.24c-17.27-25.24-19.93-62.43-2.66-101,4.92-11,9.29-21.94,12.77-31.93-11.16,3.5-24.47,5.1-32.69,13.33-13.28,13.28-18.6,46.49-34.54,67.75S505.8,446.41,466,427.81c-18.85-8.8-27.29-24.72-31-39.07-.14,5.11-.43,10.18-.92,15.16-3.82,39.19-12.46,77.7-17,96.21,0,8.43-2.92,11.39-2.92,11.39s1.15-4.18,2.92-11.39a41.83,41.83,0,0,0-.26-4.55c-1.33-12-2.66,15.94-23.91,39.85a44.55,44.55,0,0,1-8.4,7.41c-6.29,11.18-6.52,23.64-4.41,34.76a97.7,97.7,0,0,0,9.07,25.62C384.23,611.07,378.81,619.39,380.93,636.37ZM572.24,785.53c0-.13,0-.26,0-.38-2.66-39.85-5.31-59.78,6.64-37.2C584.61,758.81,579.3,773.36,572.24,785.53ZM642.63,539.4c7.22.8,1.84,15.65-3.55,27.29C631.92,540.54,631.13,538.12,642.63,539.4ZM395.55,577.92c1.32,8.34-.28,14.07-2.85,19.16C392.58,581.91,392.82,560.66,395.55,577.92Z"/><path class="cls-4" d="M632,281.69c-8,2.66-3.53,19.52.31,30.44C638.19,292.61,639.29,279.26,632,281.69Z"/><path class="cls-4" d="M398.2,164.79s15.94,59.78,13.28,71.73S422.11,283,422.11,283,436.37,337.86,435,388.74c3.67,14.35,12.11,30.27,31,39.07,39.85,18.6,79.7-2.66,95.64-23.91s21.25-54.46,34.54-67.75c8.22-8.22,21.54-9.83,32.69-13.33,1.17-3.35,2.23-6.6,3.18-9.69l-8-16.83c-12-25.24,2.66-37.2,14.61-62.43s5.31-79.7,5.31-79.7c0-11.19,1.68-12.74,5.5-9.84-.11-3.91-.19-6.11-.19-6.11s29.22-98.3-62.43-127.53-154.09,6.64-178,45.17c-22.81,36.75-14.19,69.88-11,104,.27-.23.41-.37.41-.37Z"/><path class="cls-2" d="M644,154.16s6.64,54.46-5.31,79.7S612.07,271.06,624,296.3l8,16.83c-.95,3.1-2,6.34-3.18,9.69-3.47,10-7.85,21-12.77,31.93-17.27,38.52-14.61,75.72,2.66,101L636,480.95s-23.91-58.45-8-34.54,13.28,27.9,19.93,53.14c2.91,11,8.86,20.56,14.65,27.77a95,95,0,0,0,14.58,14.74s-5.31-33.21,4-15.94c4.22,7.84,12,12.66,19.25,15.6A67.48,67.48,0,0,0,717,546s-1.33-21.25,6.64-9.3l8,12s25.24-22.58,29.22-47.82-8-70.41-1.33-55.79,8,23.91,8,23.91a156.47,156.47,0,0,0-1.33-50.48c-5.31-26.57-6.64-43.84,1.33-31.88a79.15,79.15,0,0,1,10.63,23.91s8-25.24-4-59.78-21.25-61.11-12-46.49a189,189,0,0,1,14.61,27.9s-15.94-43.84-27.9-63.76-27.9-65.09-37.2-75.72,5.31-5.31,12,5.31l6.64,10.63s-1.33-25.24-23.91-33.21-30.55-6.64-43.84-18.6c-5.82-5.24-10.11-10.22-13.1-12.49C645.63,141.42,644,143,644,154.16ZM632,281.69c7.28-2.43,6.19,10.92.31,30.44C628.47,301.21,624,284.35,632,281.69Z"/><path class="cls-2" d="M392.89,535.41c21.25-23.91,22.58-51.81,23.91-39.85a41.83,41.83,0,0,1,.26,4.55c4.54-18.51,13.18-57,17-96.21.49-5,.78-10,.92-15.16C436.37,337.86,422.11,283,422.11,283s-13.28-34.54-10.63-46.49-13.28-71.73-13.28-71.73v-5.31s-.14.14-.41.37C396,161.4,388,167.27,373,166.12c-17.27-1.33-33.21,12-31.88,31.88.45,6.69.74,11.58.94,15.13-4.81,8.54-10.7,18.1-16.88,27.38-18.6,27.9-33.21,59.78-27.9,81l5.31,21.25s1.33-47.82,8-27.9,2.66,34.54-5.31,53.14,6.64,54.46,6.64,54.46-9.3-55.79,1.33-33.21,12,34.54,0,71.73-22.58,57.12-22.58,57.12,18.6-5.31,13.28,2.66-9.3,10.63-9.3,10.63,19.93,8,34.54,5.31,17.27,5.31,13.28,9.3c0,0,22.28,10.12,42.07-3.22A44.55,44.55,0,0,0,392.89,535.41ZM343.24,210.94c1.08-10.36,3.47-24.56,8.47-26.23S352.13,194.88,343.24,210.94Z"/><path class="cls-2" d="M417.06,500.11c-1.77,7.21-2.92,11.39-2.92,11.39S417.08,508.54,417.06,500.11Z"/><path class="cls-3" d="M433.37,291.88S416.25,279,411.82,246.72s11.51-61.55,26.13-78.38,44.28-26.57,52.25-37.64,13.28-25.68,12-14.61S523.86,156.82,538,171s43,23,57.57,50.48,6.2,75.72,0,90.78-13.73,21.26-13.73,21.26-85-39.85-93.44-42.51-42.51,10.63-42.51,10.63l-12.55-9.74"/><path d="M457,277.71s-4.72,18.89-12.4,17.71-11.22-3.54-11.22-3.54,2.36,39.56,22.44,63.18S539.65,383.4,555,375.13s33.06-45.46,34.24-59-.59-40.74-12.4-33.06S555,301.33,536.7,305.46s-52.55-4.13-61.4-13A116.67,116.67,0,0,0,457,277.71Z"/><path class="cls-5" d="M472.34,271.22s-12.4,3-15.35,6.49.89,65.83-2.21,72.18a59.44,59.44,0,0,0-4,9.74s-14.47,44.43-4.43,48.56,11.81,8.27,28.93,17.12,65.54,3,73.21-31.29-11.22-58.45-14.76-62,3-26.57,3-26.57-17.71,1.18-39-18.3S472.34,271.22,472.34,271.22Z"/><path class="cls-6" d="M532.57,327.31c.16,1.86,3,8.86,8.27,6.49s5.31-11.22,5.31-13-4.72-10-5.9-4.72S532,320.23,532.57,327.31Z"/><path class="cls-6" d="M546.74,308.42s6.49,5.31,8.86,4.72,10-17.71,5.9-16.53S546.74,304.87,546.74,308.42Z"/><path class="cls-6" d="M454.78,349.89l-4,9.74s-5.31-11.51-3.54-13.73S452.56,346.79,454.78,349.89Z"/><path d="M468.5,252c-2.65-.51-17.27-1.77-28.34-14.17s-21.26-33.65-7.09-50.48,50.48-23,69.52-12.84,22.14,29.67,15.94,45.17S491.53,256.46,468.5,252Z"/><path d="M445.48,108.11s4-11.51-8.86-17.27-25.24,12.84-25.24,12.84,4.43,11.51,11.51,15.94S444.15,120.07,445.48,108.11Z"/><path d="M563.88,99.82s-1.33-13,13.54-15.91,23.27,19.69,23.27,19.69-7.48,11-16,13.86S562.32,112.68,563.88,99.82Z"/><circle class="cls-6" cx="425.85" cy="99.26" r="3.99"/><circle class="cls-6" cx="435" cy="109.89" r="2.21"/><circle class="cls-6" cx="577.14" cy="95.27" r="3.99"/><circle class="cls-6" cx="586.3" cy="105.9" r="2.21"/></g></g></svg>