<svg xmlns="http://www.w3.org/2000/svg" viewBox="0 0 837.32 1877.74"><defs><style>.cls-1{fill:none;}.cls-2{fill:#894b31;}.cls-3{fill:#9e5a3c;}.cls-4{fill:#af6b48;}.cls-5{fill:#c1786d;}.cls-6{fill:#73443b;}.cls-7{fill:#fff;}</style></defs><title>PHAROAH HOUND</title><g id="Layer_2" data-name="Layer 2"><g id="Layer_1-2" data-name="Layer 1"><path class="cls-1" d="M254.84,1654.9c15.9,4.54,41.06,7.32,68.75,8.85,25.28-12.29,25.24-42.56,16.19-93.8-9.1-51.57-45.51-83.43-34.89-159.27,7-49.75,34.17-61.65,53.77-64.8-39.1-37.06-81.05-102.32-104.81-154.19-.29,47.57-2,116.73-15.71,179.55-21.24,97.08-34.89,165.34-34.89,204.78a206.52,206.52,0,0,1-3.24,36C208.15,1617.14,213.94,1643.21,254.84,1654.9Z"/><path class="cls-1" d="M190.45,1648.55a257.39,257.39,0,0,1-9.95,24.55c-2.45,5.26-5,14.5-7.91,26,9.12-6.82,24.95-11.71,43.12-15.56C205,1674.54,195.74,1661.3,190.45,1648.55Z"/><path class="cls-1" d="M402.12,1665.24c16.56-.2,31.66-.68,43.68-1.33-15.91-20.94-29-44.92-36.24-54.52C400.65,1597.52,400.14,1633.38,402.12,1665.24Z"/><path class="cls-1" d="M720.52,1715.57s0-3-.67-9A38.92,38.92,0,0,0,720.52,1715.57Z"/><path class="cls-2" d="M493,1700.4c-16.48-1.43-32.95-17.75-47.19-36.49-12,.65-27.12,1.13-43.68,1.33,1.06,17,2.82,32.85,4.41,39.71.83,3.59-5.83,8.23-17.47,13.42,43.42,4.8,83.56,7.85,103,6.91A194.72,194.72,0,0,0,493,1700.4Z"/><path class="cls-2" d="M215.73,1683.57c39.87-8.45,91-11.87,107.37-19.57l.49-.25c-27.69-1.54-52.85-4.31-68.75-8.85-40.89-11.68-46.69-37.76-54.82-42.89a239.94,239.94,0,0,1-9.56,36.54C195.74,1661.3,205,1674.54,215.73,1683.57Z"/><path class="cls-3" d="M406.52,1705c-1.58-6.86-3.35-22.72-4.41-39.71-2-31.86-1.46-67.72,7.44-55.85,7.21,9.61,20.33,33.58,36.24,54.52C460,1682.65,476.51,1699,493,1700.4c-.66-17.09-1.88-54.39-2.2-95.63-8.48-36.54-14.35-73.15-16-98.53-4.55-69.78-22.75-100.11-89.5-139.55-8.54-5-17.51-12.17-26.62-20.81-19.6,3.15-46.81,15-53.77,64.8-10.62,75.84,25.79,107.7,34.89,159.27,9,51.24,9.09,81.5-16.19,93.8l-.49.25c-16.36,7.7-67.5,11.13-107.37,19.57-18.18,3.85-34,8.74-43.12,15.56-5.36,21.21-12,50.21-21.82,76.64a28.6,28.6,0,0,0,5.45.48c27.3,0,180.48-34.52,232.82-57.87C400.7,1713.18,407.35,1708.54,406.52,1705Z"/><path class="cls-4" d="M808.5,1727.71c-9.1-3-28.82-65.23-4.55-101.63s33.37-91,33.37-156.24-60.68-113.77-60.68-113.77-44-54.61-74.33-42.47-19.72,81.91-13.65,162.31,42.47,133.49,39.44,171.41c-2.45,30.58-7.85,46.36-8.26,59.28.67,6,.67,9,.67,9l9.1,18.2c9.1,18.2-10.62,51.57,16.69,66.74s81.91,9.1,83.43-18.2S817.6,1730.74,808.5,1727.71Z"/><path class="cls-3" d="M719.84,1706.59c.41-12.92,5.81-28.7,8.26-59.28,3-37.92-33.37-91-39.44-171.41S672,1325.73,702.32,1313.6s74.33,42.47,74.33,42.47a109.52,109.52,0,0,0-21.24-34.89c-15.17-16.69-47-86.46-51.57-145.62s-15.17-88-39.44-186.58c-16.86-68.49-60.07-126-84.88-154.73,11.73,41.31,40.17,99.42,19.66,191.14-25.79,115.28-12.14,127.42-10.62,168.37s-15.17,391.36-18.2,461.13c-1.47,33.72,3.45,60,8.74,81.57,52.73-.2,143.9-8.53,141.43-20.89A38.92,38.92,0,0,1,719.84,1706.59Z"/><path class="cls-3" d="M358.66,1345.88c9.12,8.64,18.08,15.76,26.62,20.81,66.74,39.44,84.95,69.78,89.5,139.55,1.66,25.38,7.53,62,16,98.53-.41-53.94.73-114.61,6.75-145.55,10.62-54.61-12.13-251.8-21.24-289.72s-119.83-91-124.38-68.26-9.1,83.43-27.3,60.68-66.74-48.54-69.78-24.27c-1.07,8.57-.82,28.1-1,54.05C277.61,1243.56,319.56,1308.82,358.66,1345.88Z"/><path class="cls-4" d="M570.35,1654.9c3-69.78,19.72-420.18,18.2-461.13s-15.17-53.09,10.62-168.37c20.51-91.71-7.93-149.82-19.66-191.14-3-10.62-4.92-20.13-4.61-28.81,1.52-42.47-7.58-56.12-24.27-78.88s-21.24-41-30.34-48.54,0-16.69-10.62-41S485.4,580.94,499.05,532.4c10.79-38.36,8.31-101.35,6.05-132.07-.92,2.26-1.89,4.65-2.95,7.22-14.16,34.38-54.61,59.67-68.77,90s-12.14,73.83-41.46,89a47,47,0,0,1-25.84,5.12c.36.6.55,1,.55,1-31.94,23.16-55.68-.34-64.26-11.25a44.53,44.53,0,0,1-7.55-1.89c-17.19-6.07-24.27-39.44-25.28-65.73-.93-24.14-6.13-35.51-18.72-66.18-.21,66.43,8.57,199.17-15.73,250.19-30.34,63.71-45.51,110.73-68.26,160.79S138,1020.84,151.69,1067.86,176,1145.22,165.34,1174s-9.1,95.56-3,136.52-22.75,185.06-30.34,260.9-45.51,157.76-75.84,182S0,1821.75,0,1836.92s81.91,28.82,119.83-7.58c13-12.51,23-32.2,31-53.57,9.8-26.43,16.45-55.42,21.82-76.64,2.92-11.54,5.45-20.77,7.91-26a257.39,257.39,0,0,0,9.95-24.55A239.94,239.94,0,0,0,200,1612a206.52,206.52,0,0,0,3.24-36c0-39.44,13.65-107.7,34.89-204.78,13.74-62.82,15.41-132,15.71-179.55.16-26-.09-45.49,1-54.05,3-24.27,51.57,1.52,69.78,24.27s22.75-37.92,27.3-60.68,115.28,30.34,124.38,68.26,31.85,235.12,21.24,289.72c-6,30.95-7.16,91.61-6.75,145.55.32,41.24,1.54,78.54,2.2,95.63a194.72,194.72,0,0,1-1,24.88c-3.74,40.17-16.28,93.55-18.75,120.74-3,33.37,83.43,39.44,116.8,22.75s-1.52-45.51,0-75.84c.78-15.68-5.32-33.39-11-56.47C573.79,1714.88,568.88,1688.62,570.35,1654.9Z"/><path class="cls-2" d="M302.39,581.36c8.58,10.92,32.32,34.41,64.26,11.25,0,0-.2-.35-.55-1-18.16-1.48-31.81-12.19-31.81-12.19S317.9,583.93,302.39,581.36Z"/><path class="cls-3" d="M294.84,579.47a44.53,44.53,0,0,0,7.55,1.89c15.51,2.57,31.9-1.89,31.9-1.89s13.65,10.71,31.81,12.19a47,47,0,0,0,25.84-5.12c29.33-15.17,27.31-58.66,41.46-89s54.61-55.62,68.77-90c1.06-2.57,2-5,2.95-7.22,11.35-28,12.22-33.23,12.22-33.23s15.17-23.26,32.36-36.41,34.38-15.17,45.51-26.29,26.29-44.5,26.29-52.59,37.42-77.87,33.37-131.47-1-70.79-25.28-71.8-100.12,90-133.49,124.39-30.34,59.67-35.4,57.64-77.87-44.5-135.51-14.16c0,0-84.95-209.34-118.32-215.41s-47.53,15.17-52.59,69.78,5.06,183,21.24,193.16,28.32,10.11,41.46,35.4,25.28,28.32,25.28,51.58-10.11,50.57,5.06,88c1.24,3.06,2.41,5.93,3.53,8.66,12.59,30.67,17.79,42,18.72,66.18C270.57,540,277.65,573.4,294.84,579.47ZM398,535c-1.35,8.12-8.26,14-16.85,18.18a55.51,55.51,0,0,1-44.84,20.25s-14.39-4.39-26.93-18.56l-2.4-.65c-3-2-24.27-28.32-8.09-49.55s23.26-22.25,30.34-39.44,31.35-57.64,32.36-40.45,14.16,39.44,16.18,53.6S402,510.7,398,535ZM510.92,231.24c3.37-10.11,27-18.88,27-18.88s-21.57-2-22.25-8.76c0,0,58.66-102.48,82.25-120s40.45-6.07,31,47.19-36.41,98.43-51.24,123.38-40.45,44.5-37.76,38.43,5.39-7.42,5.39-7.42-16.85,7.42-16.18,3.37,13.48-7.42,13.48-7.42-9.44-2-17.53-.67-9.44-5.39-4.72-9.44l4.72-4s-9.44,0-6.07-6.74a42.06,42.06,0,0,1,8.76-11.46s-12.14,7.42-13.48,3.37,9.44-28.32,9.44-28.32S507.55,241.36,510.92,231.24Zm-279.79,5.39s11.46,20.23,6.74,18.88-10.11-5.39-10.11-5.39l2,4c2,4-2,8.76-10.11-2.7S194,203.6,187.31,157.76,175.17,62,186,38.42s14.83-29,44.5,10.79S276.3,178.66,277,181.35a24.31,24.31,0,0,1,2.7,8.76c.67,5.39-12.81-6.74-12.81-6.74a65.67,65.67,0,0,1,2,20.9c-.67,12.14-6.74-12.14-6.74-12.14s-4,18.2,2,29.66-9.44,10.11-9.44,10.11l4,4.72c4,4.72,4,12.81-4,7.42S231.13,236.64,231.13,236.64Z"/><path class="cls-4" d="M361.59,424.74c-1-17.19-25.28,23.26-32.36,40.45s-14.16,18.2-30.34,39.44,5.06,47.53,8.09,49.55l2.4.65A68.38,68.38,0,0,1,299.9,541c-13.15-25.28,10.11-48.54,22.25-46.52s17.19,10.11,28.32,10.11,35.4-5.06,40.45,16.18c2.35,9.87-1.42,22.13-9.77,32.34C389.73,549,396.64,543.1,398,535c4-24.27-18.2-42.47-20.23-56.63S362.6,441.93,361.59,424.74Z"/><path class="cls-5" d="M258.77,236.64l-4-4.72s15.51,1.35,9.44-10.11-2-29.66-2-29.66,6.07,24.27,6.74,12.14a65.67,65.67,0,0,0-2-20.9s13.48,12.14,12.81,6.74a24.31,24.31,0,0,0-2.7-8.76c-.67-2.7-16.86-92.37-46.52-132.14S196.75,14.82,186,38.42s-5.39,73.49,1.35,119.33,24.27,82.25,32.36,93.71,12.14,6.74,10.11,2.7l-2-4s5.39,4,10.11,5.39-6.74-18.88-6.74-18.88,15.51,2,23.6,7.42S262.82,241.36,258.77,236.64Z"/><path class="cls-5" d="M523.73,223.83s-10.79,24.27-9.44,28.32,13.48-3.37,13.48-3.37A42.06,42.06,0,0,0,519,260.23c-3.37,6.74,6.07,6.74,6.07,6.74l-4.72,4c-4.72,4-3.37,10.79,4.72,9.44s17.53.67,17.53.67-12.81,3.37-13.48,7.42,16.18-3.37,16.18-3.37-2.7,1.35-5.39,7.42,22.92-13.48,37.76-38.43,41.8-70.12,51.24-123.38-7.42-64.72-31-47.19-82.25,120-82.25,120c.67,6.74,22.25,8.76,22.25,8.76s-23.6,8.76-27,18.88S523.73,223.83,523.73,223.83Z"/><path class="cls-6" d="M390.92,520.81c-5.06-21.24-29.33-16.18-40.45-16.18s-16.18-8.09-28.32-10.11S286.75,515.76,299.9,541a68.38,68.38,0,0,0,9.48,13.8c12.54,14.17,26.93,18.56,26.93,18.56a55.51,55.51,0,0,0,44.84-20.25C389.5,542.94,393.27,530.68,390.92,520.81Z"/><path d="M439,374.17s3-16.69,14.66-19.72,24.27,15.17,24.27,15.17-.51,12.64-18.2,15.17S439,374.17,439,374.17Z"/><path d="M308.33,352.37s2-16.84-8.25-23.15-27.65,7.4-27.65,7.4-3.22,12.24,13,19.83S308.33,352.37,308.33,352.37Z"/><circle class="cls-7" cx="286.75" cy="336.76" r="4.55"/><circle class="cls-7" cx="295.6" cy="350.16" r="2.78"/><circle class="cls-7" cx="453.62" cy="363.56" r="4.55"/><circle class="cls-7" cx="462.47" cy="376.96" r="2.78"/></g></g></svg>