<svg xmlns="http://www.w3.org/2000/svg" viewBox="0 0 833.42 1799.22"><defs><style>.cls-1{fill:none;}.cls-2{fill:#1a1614;}.cls-3{fill:#282320;}.cls-4{fill:#ae8052;}.cls-5{fill:#fff;}.cls-6{fill:#c98496;}</style></defs><title>SALUKI 1</title><g id="Layer_2" data-name="Layer 2"><g id="Layer_1-2" data-name="Layer 1"><path class="cls-1" d="M675.76,1604.33l.29,1c2,.07,3.95.08,5.95,0-1.88-5.59-4-11.14-6.23-16.32C663.88,1561.9,669,1580.57,675.76,1604.33Z"/><path class="cls-2" d="M285.37,1611.12c-3.39,15.28-6.79,28.86-6.79,28.86s-8.64-34.61-2-62.63c-6.71-8.26-12.48-21.1-8.17-39.21,3.84-16.14,7.34-30.54,10.33-42.41-8.56,6.78-15.64,16.59-15.64,16.59a273.4,273.4,0,0,0,9.05-47.53c2.26-24.9-15.84,31.69-15.84,31.69s6.79-81.48,2.26-120c-3.35-28.5-7.95-16-7.34-2.11,4.05,13.73,6.13,20.06,2.82,13.43-1.76-3.52-2.61-8.56-2.82-13.43-4.25-14.4-10.66-36.94-15.29-61.26-9.05-47.53-2.26-101.85,0-131.27s-13.58,2.26-13.58,2.26-22.63-101.85,9.05-183.32S242.71,865,249.5,831.08,235.92,856,235.92,856s0-5.13-1.38-19.49c-19.65,56.74-46.42,146.52-55.2,205.07-13.58,90.53-6.79,122.21-29.42,192.38S95.6,1304.1,93.34,1338L91.08,1372s22.63-58.84,20.37-27.16-43,40.74-52.05,86S77.5,1528.16,82,1555.32s-47.53,20.37-58.84,49.79S9.6,1650.38,9.6,1650.38s36.21-33.95,20.37-9.05-40.74,38.48-24.9,45.26,101.85,18.11,151.64,11.32c33.4-4.56,85.14-8.09,125.84-12.66,1-13.37,3.62-38.65,9.62-55.45C300.65,1606,288.77,1595.84,285.37,1611.12Z"/><path class="cls-2" d="M788.15,1609.64c-27.16,0-4.53-13.58-4.53-13.58s-31.69-2.26-54.32,2.26c-9.3,1.86-25.1,5.63-41,6.76a326,326,0,0,1,6.08,48.47A392.27,392.27,0,0,0,682,1605.38c-2,0-4,0-5.95,0,6.69,23.66,13.29,55,13.29,55s-10.18-20.37-18.67-33.95,0,0,10.18,33.95A135.38,135.38,0,0,1,686.4,1695c41.12-.69,100,.47,115.34-12.92,18.11-15.84,13.58-36.21,13.58-36.21,4.53-6.79,18.11,4.53,18.11,4.53S815.31,1609.64,788.15,1609.64Z"/><path class="cls-2" d="M288.77,1667.13A122.07,122.07,0,0,1,285,1685q4.14-.47,8.1-1C294.28,1660.21,290.24,1655.32,288.77,1667.13Z"/><path class="cls-2" d="M560.34,1592.45c8.49-59.41-3.39-61.1,10.18-90s-15.28-290.25-10.18-293.64c0,0,1.7-47.53,3.39-67.89,0,0-20,43.19-40.38,59s-72.42,2.26-72.42,2.26-36.21,11.32-47.53-2.26-38.48-4.53-38.48-4.53l-.92,18.3c.38,1.95.76,4.25,1.14,7,.74,5.32-1.7,251.21,6.79,275s27.16,86.56,22.07,139.18c-2.66,27.47-3.93,39.67-2.36,48.68,23.52,6,47.48,13.24,66.08,12.08,18-1.13,60.17-.57,102.69,0C561.86,1668.67,553.6,1639.68,560.34,1592.45Z"/><path class="cls-2" d="M282,1526.25c-8.58,11.15-6.32,27.06-2,40.08C289.65,1538.2,298.17,1505.21,282,1526.25Z"/><path class="cls-3" d="M249.5,831.08c-6.79,33.95,13.58,88.27-18.11,169.74s-9.05,183.32-9.05,183.32,15.84-31.69,13.58-2.26-9.05,83.74,0,131.27c4.63,24.32,11,46.86,15.29,61.26-.6-13.91,4-26.39,7.34,2.11,4.53,38.48-2.26,120-2.26,120s18.11-56.58,15.84-31.69a273.4,273.4,0,0,1-9.05,47.53s7.09-9.81,15.64-16.59c3.61-14.34,6.49-25,8.34-30.58,3.39-10.18,0-39,5.09-23.76s20.37,47.53,33.95,39,20.37-28.85,18.67-74.68c-1.63-44.13,9.32-242.46,19.23-192l.92-18.3s27.16-9.05,38.48,4.53,47.53,2.26,47.53,2.26,52.05,13.58,72.42-2.26,40.38-59,40.38-59c1.7-20.37,28.86,181.62,37.34,242.72s-5.09,115.42,6.79,125.6,40.74-10.18,47.53-8.49c-.77-15.63,17.33,7,17.33,7s2.26-13.58-4.53-45.26-4.53-56.58,4.53-31.69,27.16,29.42,27.16,29.42-24.9-33.95-27.16-67.9,18.11,15.84,18.11,15.84-6.79-72.42-13.58-88.27-4.53-43,6.79-27.16,31.69,38.48,31.69,38.48-33.95-52.05-27.16-65.63,31.69,31.69,31.69,31.69,0-54.32-22.63-95.06-24.9-56.58-15.84-47.53a117,117,0,0,1,13.58,15.84s6.79-43-22.63-72.42-49.79-36.21-29.42-29.42l20.37,6.79s-13.58-18.11-27.16-33.95,24.9-58.84,22.63-138.06C657.22,836.05,627.4,706.25,606,651l-2.3-2.13c-13.58-12.45,6.79,20.37,6.79,20.37s-30.55-23.76-54.32-67.9-32.82-100.71-26-148.24,18.11-67.9,11.32-89.4c-5.52-17.5-7.3,22.7-7.77,38.28a29.52,29.52,0,0,1-.15,5.85s0-2.28.15-5.85c-.13-4.9-.68-13.7-2.41-29.23-3.39-30.55,3.39-67.9,12.45-98.45,3.24-10.92,4.88-30.94,5.66-52.17a110,110,0,0,1-7.65,12.94c-7.15,12.5-17,13.94-21,16.11,1.05,23.39-7.61,51.3-13,71.63-6.79,25.46-17,71.29-32.25,86.56s-11.88,25.46-23.76,39-35.64-5.09-64.5-33.95-35.64-91.66-33.95-129c.62-13.64,2.15-23.64,4-31.11a62.48,62.48,0,0,1-18.81-23.14,134.36,134.36,0,0,1-3,20.45c-9.05,39.61,19.24,121.08,19.24,158.43s-4.53,61.11-4.53,57.71,2.26-46.4-3.39-24.9-9.05,40.74,11.32,81.48c6.29,12.58,11.18,23.43,14.93,32.43,4.9,8.79,9.63,25.55,10.82,29.89.19.7.28,1.05.28,1.05l-.28-1.05a269.4,269.4,0,0,0-10.82-29.89c-2.89-5.19-5.84-7.6-8.14-3-6.79,13.58-11.32,32.82,1.13,62.24s15.84,44.13,15.84,44.13-17-28.29-14.71-13.58,10.18,28.29,10.18,28.29a54.39,54.39,0,0,1-19.24-18.11c-7.92-12.45-11.32-2.26,2.26,24.9s18.11,38.48,18.11,38.48S354.74,710,345.69,699.82s-10.18-1.13,0,9.05l10.18,10.18s-26,0-39.61-10.18-20.37-11.32-12.45-2.26,13.58,17,13.58,17-30.55,2.26-60-31.69a122.07,122.07,0,0,1-9.55-12.67c-8.73,46.63-19.21,107.34-16.48,129.22,1.48,11.87,2.48,21,3.15,28,1.38,14.36,1.38,19.49,1.38,19.49S256.29,797.13,249.5,831.08Zm62.24-7.92c20.37-40.74,30.55-28.29,48.66-47.53,11.89-12.63,15.48-25.74,16.87-25.9a55.42,55.42,0,0,1,11.64-33.11c17-22.07,28.85-18.67,20.37-49.22s17-117.12,22.07-95.05,10.18,67.89,28.85,84.87c17.44,15.85,11.19,76.13,31,95.07,7.84-7.43,30.33-12.25,58.15-9.47,33.95,3.39,26,12.45,39.61,9.05s2.26,215,2.26,239.9-3.39-4.53-22.63-41.87c-14.53-28.21-37.45-48.66-56.57-64.3-2.25,5-3.45,11.59-2.62,21.12,3.39,39,17,67.89-6.79,84.87s-45.83-1.7-64.5,25.46-23.76,40.74-39,18.67c-12.5-18.05-44.31-67.92-56.39-106.84C332.22,939,323.84,947.38,318.53,968c-10.18,39.61-18.11,36.21-21.5,9.05S291.37,863.9,311.74,823.16Z"/><path class="cls-3" d="M251.21,1374.41c.21,4.87,1.06,9.91,2.82,13.43C257.34,1394.47,255.26,1388.15,251.21,1374.41Z"/><path class="cls-3" d="M332.49,169.46s.41,1.45,1,4c1.64,5.17,4.08,7.38,6.53-1.78,3-11.32,13.58-24.14,27.16-31.69s18.86-9.81,19.61-18.86c.52-6.29,2.5-15.84,4.17-14.78,5.25-11.29,17.85-30.48,27.14-42.56,11.32-14.71,10.18-23.76,9.05-43s10.18,24.9,17,43,11.32,21.5,22.63,31.69c.75-12.83,15.84,23.39,15.84,29.42s7.54,6.79,24.14,8.3,21.88,18.86,33.95,24.9,6-9.81,6.79-20.37c.26-3.64.7-3.16,1.32-.53-.08-3.51.21-9.41,1.7-19.08,3-19.61-5.66-47.53-4.53-50.92,0,0,.5-.21,1.36-.49C535.7,43.4,515.83,14.78,488.28,5,453.2-7.45,422.64,7.26,422.64,7.26S392.09-10.84,359.27,22,324.19,74,324.19,74c1.75,2.91,0,48.66,3.39,67.9S332.49,169.46,332.49,169.46ZM526.07,72.18a48.06,48.06,0,0,1-16.48,13.18c-11,5.56-23.73-6-23.73-6s-6-15.61,11.76-20.93S526.07,72.18,526.07,72.18ZM464.51,19.33s-2.26,9.81,1.51,5.28,20.37-6,20.37-6-8.3,3-1.51,3.77,18.11,4.53,24.9,9.81l6.79,5.28S506.76,38.95,495.44,48s-18.11,6-18.11,6-13.58-7.54-16.6-18.11S464.51,19.33,464.51,19.33ZM354.95,34.76c7.32-4.52,19-7,25.81-7.06s-1.09-3.91-1.09-3.91S396,27.09,399.26,32s2.07-5.09,2.07-5.09,6.1,6.73,2,16.91S384.83,60,384.83,60s-7.08,2.27-17.35-8-19.86-12.78-19.86-12.78ZM363.8,65c18.48.75,16.6,17.35,16.6,17.35S371,96.66,358.89,94a48.07,48.07,0,0,1-19.24-8.68S345.31,64.22,363.8,65Z"/><path class="cls-2" d="M702.13,472.25l0,.11Z"/><path class="cls-2" d="M533.69,402c-.11,3.57-.15,5.85-.15,5.85A29.52,29.52,0,0,0,533.69,402Z"/><path class="cls-2" d="M550.51,118.16c-1.49,9.67-1.78,15.57-1.7,19.08,1.18,5,3,17.75,5.47,24.67,3.77,10.56,3.77,22.63,1.51,40.74-.84,6.73-3.46,13.57-6.41,19.5-.78,21.22-2.42,41.25-5.66,52.17-9.05,30.55-15.84,67.9-12.45,98.45,1.73,15.53,2.28,24.33,2.41,29.23.47-15.59,2.25-55.78,7.77-38.28,6.79,21.5-4.53,41.87-11.32,89.4s2.26,104.11,26,148.24,54.32,67.9,54.32,67.9-20.37-32.82-6.79-20.37L606,651c12.29,11.46,20.33,20.5,20.33,20.5s-7.92-31.69,0-18.11,40.74,15.84,40.74,15.84S641,633,658,644.37a79.12,79.12,0,0,1,24.9,27.16,325.81,325.81,0,0,0-3.39-44.13c-3.39-21.5-3.39-37.34,2.26-20.37s7.92,24.9,7.92,24.9,5.66-13.58,0-55.45-21.5-93.92-13.58-75.82,13.58,31.69,13.58,31.69,5.66-18.11-3.39-60-28.29-86-9.05-60c18.61,25.17,24.51,57.75,24.88,59.86-.48-2.76-10.6-60.7-28.27-94.94-18.11-35.08-35.08-72.42-36.21-98.45s-14.71-96.19-23.76-114.29-27.16-69-36.21-78.08,10.18,1.13,10.18,1.13S581.07,74,568.62,68.37a30,30,0,0,0-21.27-1.62c-.86.27-1.36.49-1.36.49C544.86,70.63,553.53,98.55,550.51,118.16Z"/><path class="cls-2" d="M265,119.42c-.52.64-.8,1-.8,1Z"/><path class="cls-2" d="M373.07,556.84a269.4,269.4,0,0,1,10.82,29.89C382.7,582.4,378,565.63,373.07,556.84Z"/><path class="cls-2" d="M383.88,586.73l.28,1.05S384.08,587.43,383.88,586.73Z"/><path class="cls-2" d="M317.4,723.58s-5.66-7.92-13.58-17-1.13-7.92,12.45,2.26,39.61,10.18,39.61,10.18l-10.18-10.18c-10.18-10.18-9.05-19.24,0-9.05s32.82,20.37,32.82,20.37S374,708.87,360.4,681.71s-10.18-37.34-2.26-24.9a54.39,54.39,0,0,0,19.24,18.11s-7.92-13.58-10.18-28.29,14.71,13.58,14.71,13.58-3.39-14.71-15.84-44.13-7.92-48.66-1.13-62.24c2.3-4.6,5.25-2.19,8.14,3-3.75-9-8.64-19.85-14.93-32.43-20.37-40.74-17-60-11.32-81.48s3.39,21.5,3.39,24.9,4.53-20.37,4.53-57.71S326.45,291.3,335.51,251.69a134.36,134.36,0,0,0,3-20.45c-.23-.47-.46-.94-.69-1.43-9.81-21.12-6.79-67.9-5.28-60.35,0,0-1.51-8.3-4.9-27.54s-1.65-65-3.39-67.9c-9.42-15.71-52.75,37.37-59.17,45.39a102.25,102.25,0,0,1,18.44-17.1c12.45-9.05-9.05,10.18-30.55,55.45s-14.71,93.92-29.42,123.35-19.24,91.66-19.24,91.66,9.05-12.45,12.45-27.16c2.36-10.23.89,8-3.64,27.63-2,8.62-4.57,17.52-7.67,24.42-10.18,22.63-1.13,48.66,0,61.11s-5.66,44.13-5.66,44.13,14.71-17,12.45-37.34-4.53-30.55,2.26-41.87,3.39,105.24-1.13,166.35,18.11,81.48,18.11,81.48a203,203,0,0,1-7.92-40.74c-2-20.94,3,16.11,24.4,48.44a122.07,122.07,0,0,0,9.55,12.67C286.85,725.84,317.4,723.58,317.4,723.58Z"/><path class="cls-2" d="M332.49,169.46a38.62,38.62,0,0,0,1,4C332.9,170.91,332.49,169.46,332.49,169.46Z"/><path class="cls-3" d="M504.12,281.12c-13.58,10.18-9.05,30.55-14.71,43s-74.69,17-82.61,0-7.92-28.29-20.37-35.08-23.76-31.31-23.76-31.31a33.77,33.77,0,0,1-5.4-3.34c-1.85,7.47-3.38,17.47-4,31.11-1.7,37.34,5.09,100.14,33.95,129s52.62,47.53,64.5,33.95,8.49-23.76,23.76-39,25.46-61.1,32.25-86.56c5.42-20.34,14.08-48.25,13-71.63a6.42,6.42,0,0,0-.8.49C515.43,255.09,517.7,270.93,504.12,281.12Z"/><path class="cls-4" d="M546,201.15c-3.77-21.12-11.32-28.67-11.32-28.67-7.54-9.81-21.88-20.37-40-26.4s-24.9-10.56-21.88-24.9-6-25.65-6-25.65C455.46,85.35,450.93,82,444.14,63.85s-18.11-62.24-17-43,2.26,28.29-9.05,43c-9.29,12.08-21.88,31.27-27.14,42.56.73.47,1.4,3,1.87,8.74,0,0,8.3,15.09-5.28,24.14s-25.65,15.09-33.19,32.44-8.3,24.14,0,49,8.3,37,8.3,37S374,282.25,386.43,289s12.45,18.11,20.37,35.08,77,12.45,82.61,0,1.13-32.82,14.71-43,11.32-26,15.84-29.42a6.42,6.42,0,0,1,.8-.49c4-2.16,13.83-3.6,21-16.11-1.95,2.84-3.29,4.53-3.29,4.53S549.76,222.27,546,201.15ZM401.14,148.34c19.61-12.45,49-17.73,65.26-5.28s8.3,30.93-1.51,43.76-29.8,23-29.8,23-16.22-2.26-34.33-14.33S381.53,160.79,401.14,148.34ZM506,265.27c-1.89,10.18-12.07,12.07-19.61,16.6s-3.77,17-3,29.42S449,332,429.81,327.14s-18.86-19.24-19.24-29.8-5.66-14.71-15.09-17-16.22-19.24-16.22-32.82-15.09-28.29-14-33.95,5.28,9.43,16.6,14.33c4.72,2,8,2.37,10.34,2.07,3.65-3.61,11.22-3.94,12.29-3.58,10.18,1.89,29-5.28,29-5.28l11.69,1.13c11.69,1.13,32.44-6.41,32.44-6.41a41.07,41.07,0,0,1,7.83-2.82c9.36-3.53,25.45-10.72,34-14.16C529,195.11,507.89,255.09,506,265.27Z"/><path class="cls-4" d="M384.83,60s14.32-6,18.46-16.21-2-16.91-2-16.91,1.19,10-2.07,5.09-19.6-8.2-19.6-8.2,7.92,3.9,1.09,3.91-18.49,2.54-25.81,7.06l-7.32,4.52s9.59,2.56,19.86,12.78S384.83,60,384.83,60Z"/><path class="cls-4" d="M378.51,762.05s23.76,74.69-2.26,123.35c-12.47,23.31-23.9,34.15-33.54,43.48,12.09,38.92,43.9,88.78,56.39,106.84,15.28,22.07,20.37,8.49,39-18.67s40.74-8.49,64.5-25.46,10.18-45.83,6.79-84.87c-.83-9.53.37-16.12,2.62-21.12-6.2-5.07-12-9.63-17-13.78-20.37-17,2.26-22.63,11.32-56.58s-18.11-57.71-18.11-57.71a8.7,8.7,0,0,1,3-5.24c-19.85-18.95-13.6-79.22-31-95.07-18.67-17-23.76-62.8-28.85-84.87s-30.55,64.5-22.07,95.05-3.39,27.16-20.37,49.22a55.42,55.42,0,0,0-11.64,33.11C378,749.65,378.12,753.11,378.51,762.05Z"/><path class="cls-4" d="M554.29,161.92c-2.47-6.92-4.3-19.68-5.47-24.67-.62-2.63-1.06-3.11-1.32.53-.75,10.56,5.28,26.4-6.79,20.37s-17.35-23.39-33.95-24.9S482.62,131,482.62,125s-15.09-42.25-15.84-29.42c0,0,9.05,11.32,6,25.65s3.77,18.86,21.88,24.9,32.44,16.6,40,26.4c0,0,7.54,7.54,11.32,28.67s-7.54,38.48-7.54,38.48,1.35-1.69,3.29-4.53a110,110,0,0,0,7.65-12.94c3-5.93,5.57-12.77,6.41-19.5C558.06,184.55,558.06,172.48,554.29,161.92Z"/><path class="cls-4" d="M354.37,220.76c-8.3-24.9-7.54-31.69,0-49s19.61-23.39,33.19-32.44,5.28-24.14,5.28-24.14c-.46-5.76-1.13-8.27-1.87-8.74-1.67-1.07-3.65,8.49-4.17,14.78-.75,9.05-6,11.32-19.61,18.86S343.05,160.41,340,171.73c-2.44,9.16-4.88,6.95-6.53,1.78a38.62,38.62,0,0,1-1-4c-1.51-7.54-4.53,39.23,5.28,60.35.23.49.46,1,.69,1.43a62.48,62.48,0,0,0,18.81,23.14,33.77,33.77,0,0,0,5.4,3.34S362.67,245.66,354.37,220.76Z"/><path class="cls-4" d="M506.38,815.24c-9.05,33.95-31.69,39.61-11.32,56.58,5,4.15,10.78,8.72,17,13.78,19.12,15.64,42,36.09,56.57,64.3,19.24,37.34,22.63,66.77,22.63,41.87s11.32-243.3-2.26-239.9-5.66-5.66-39.61-9.05c-27.82-2.78-50.3,2-58.15,9.47a8.7,8.7,0,0,0-3,5.24S515.43,781.29,506.38,815.24Z"/><path class="cls-4" d="M318.53,968c5.31-20.63,13.68-29,24.17-39.13,9.64-9.33,21.07-20.17,33.54-43.48,26-48.66,2.26-123.35,2.26-123.35-.39-8.94-.51-12.41-1.24-12.32-1.39.16-5,13.27-16.87,25.9-18.11,19.24-28.29,6.79-48.66,47.53S293.64,949.9,297,977.06,308.35,1007.62,318.53,968Z"/><path class="cls-4" d="M670.67,1626.39c8.49,13.58,18.67,33.95,18.67,33.95s-6.6-31.35-13.29-55l-.29-1c-6.79-23.76-11.88-42.43,0-15.28,2.27,5.18,4.35,10.73,6.23,16.32a392.27,392.27,0,0,1,12.44,48.17,326,326,0,0,0-6.08-48.47c-2.5-12.15-6-25-10.89-36.39-15.28-35.64,5.09-8.49,5.09-8.49s-20.37-57.71-27.16-59.41-35.64,18.67-47.53,8.49,1.7-64.5-6.79-125.6S565.44,1120.59,563.74,1141s-3.39,67.89-3.39,67.89c-5.09,3.39,23.76,264.79,10.18,293.64s-1.7,30.55-10.18,90c-6.75,47.23,1.52,76.22.07,103.19a87.37,87.37,0,0,1-3.47,20.72c-10.18,33.95,0,71.29,40.74,74.68s76.38-1.7,83.17-17-10.18-76.38-3.39-66.2,6.79,15.28,6.79,15.28,2.67-11.34,2.15-28.17a135.38,135.38,0,0,0-5.54-34.63C670.67,1626.39,662.18,1612.82,670.67,1626.39Z"/><path class="cls-4" d="M394,1634.88c5.09-52.62-13.58-115.42-22.07-139.18s-6-269.65-6.79-275c-.38-2.71-.76-5-1.14-7-9.91-50.49-20.86,147.85-19.23,192,1.7,45.83-5.09,66.2-18.67,74.68s-28.86-23.76-33.95-39-1.7,13.58-5.09,23.76c-1.86,5.57-4.73,16.23-8.34,30.58-3,11.87-6.48,26.27-10.33,42.41-4.31,18.11,1.45,30.95,8.17,39.21-6.63,28,2,62.63,2,62.63s3.39-13.58,6.79-28.86,15.28-5.09,6.79,18.67c-6,16.8-8.61,42.08-9.62,55.45-.42,5.54-.57,9-.57,9s1.41-3.77,3-9.32a122.07,122.07,0,0,0,3.79-17.84c1.48-11.81,5.52-6.92,4.31,16.87-.18,3.57-.48,7.55-.92,12-3.39,33.95-15.28,64.5-6.79,84.87s106.93,25.46,122.21,6.79,11.88-52.62-3.39-78.08c-7.3-12.17-11.11-17.75-12.54-26C390.08,1674.55,391.35,1662.35,394,1634.88Zm-114-68.55c-4.33-13-6.59-28.93,2-40.08C298.17,1505.21,289.65,1538.2,280,1566.33Z"/><path d="M519.58,198.88c-8.59,3.44-24.69,10.62-34,14.16a18.63,18.63,0,0,1,5.38-.58c5.66.38,3.77,6.79,4.15,10.56s-5.66,7.54-4.53,9.43.38,9.81-1.51,12.82-6-6.79-6.79-8.3a12.12,12.12,0,0,0-5.28-5.66c1.51,1.13,11.69,24.9,5.66,29.8-.56.46-1.19,1-1.88,1.69,1.35,7-2.21,28.91-6.42,29.61-4.53.75-12.07-7.92-12.07-7.92s-.75,3-10.18,8.68-26-7.92-26-7.92-6,10.56-11.32,9.81-10.56-22.63-7.92-28.29a1.7,1.7,0,0,1,.16-.24,10.45,10.45,0,0,1-.91-2.4c-1-4.48-1.6-14.77-1.79-23.49l-.09.85c-.38,3.39-4.9,9.43-9.43,7.92-1.13-.38-6.41-14.71-3-18.86a7.33,7.33,0,0,1,.53-.57c-2.29.3-5.62,0-10.34-2.07-11.32-4.9-15.47-20-16.6-14.33s14,20.37,14,33.95,6.79,30.55,16.22,32.82,14.71,6.41,15.09,17,0,24.9,19.24,29.8,54.32-3.39,53.56-15.84-4.53-24.9,3-29.42,17.73-6.41,19.61-16.6S529,195.11,519.58,198.88ZM437.73,310.16a25.14,25.14,0,0,1-18.11-12.83s0-2.26,3-3.77,6,.75,12.45,3.77,15.47,2.64,23.76.38,6.41-2.64,8.68-4.53,4.15,3.39,4.53,7.54S450.93,312.42,437.73,310.16Z"/><path d="M400.76,195.49c18.11,12.07,34.33,14.33,34.33,14.33s20-10.18,29.8-23,17.73-31.31,1.51-43.76-45.64-7.17-65.26,5.28S382.66,183.42,400.76,195.49Z"/><path d="M380.39,82.33s1.89-16.6-16.6-17.35-24.14,20.37-24.14,20.37A48.07,48.07,0,0,0,358.89,94C371,96.66,380.39,82.33,380.39,82.33ZM368.7,78.74a2.45,2.45,0,1,1-2.45,2.45A2.45,2.45,0,0,1,368.7,78.74Zm-16.6-1.89a4.34,4.34,0,1,1,4.34,4.34A4.34,4.34,0,0,1,352.1,76.86Z"/><path d="M497.62,58.45c-17.72,5.32-11.76,20.93-11.76,20.93s12.7,11.54,23.73,6a48.06,48.06,0,0,0,16.48-13.18S515.34,53.12,497.62,58.45Zm.08,15.39A4.34,4.34,0,1,1,502,69.5,4.34,4.34,0,0,1,497.71,73.84ZM510,71.39a2.45,2.45,0,1,1-2.45,2.45A2.45,2.45,0,0,1,510,71.39Z"/><circle class="cls-5" cx="356.44" cy="76.86" r="4.34"/><circle class="cls-5" cx="368.7" cy="81.2" r="2.45"/><circle class="cls-5" cx="497.71" cy="69.5" r="4.34"/><circle class="cls-5" cx="509.96" cy="73.84" r="2.45"/><path class="cls-6" d="M404.25,240.65c.2,8.71.78,19,1.79,23.49a10.45,10.45,0,0,0,.91,2.4C410,262,426,285.27,426,285.27s16.6,13.58,26,7.92,10.18-8.68,10.18-8.68c.38-1.13,15.84-27.91,18.11-23a5.92,5.92,0,0,1,.38,1.32c.69-.66,1.32-1.24,1.88-1.69,6-4.9-4.15-28.67-5.66-29.8-3-1.51.75-15.47.75-15.47s-20.75,7.54-32.44,6.41l-11.69-1.13s-18.86,7.17-29,5.28C405.59,226.77,404.69,236.54,404.25,240.65Z"/><path class="cls-5" d="M407,266.54a1.7,1.7,0,0,0-.16.24c-2.64,5.66,2.64,27.54,7.92,28.29S426,285.27,426,285.27,410,262,407,266.54Z"/><path class="cls-5" d="M462.25,284.51s7.54,8.68,12.07,7.92c4.21-.7,7.77-22.61,6.42-29.61a5.92,5.92,0,0,0-.38-1.32C478.09,256.6,462.62,283.38,462.25,284.51Z"/><path class="cls-5" d="M467.53,293.19c-2.26,1.89-.38,2.26-8.68,4.53s-17.35,2.64-23.76-.38-9.43-5.28-12.45-3.77-3,3.77-3,3.77a25.14,25.14,0,0,0,18.11,12.83c13.2,2.26,34.7-5.28,34.33-9.43S469.79,291.3,467.53,293.19Z"/><path class="cls-5" d="M477,231.32a12.12,12.12,0,0,1,5.28,5.66c.75,1.51,4.9,11.32,6.79,8.3s2.64-10.94,1.51-12.82,4.9-5.66,4.53-9.43,1.51-10.18-4.15-10.56a18.63,18.63,0,0,0-5.38.58,41.07,41.07,0,0,0-7.83,2.82S473.94,229.82,477,231.32Z"/><path class="cls-5" d="M394.73,249.43c4.53,1.51,9.05-4.53,9.43-7.92l.09-.85c.44-4.12,1.34-13.88.29-14.23s-8.64,0-12.29,3.58a7.33,7.33,0,0,0-.53.57C388.32,234.72,393.6,249.05,394.73,249.43Z"/></g></g></svg>