<svg xmlns="http://www.w3.org/2000/svg" viewBox="0 0 1195.14 1925.22"><defs><style>.cls-1{fill:none;}.cls-2{fill:#d4c0b9;}.cls-3{fill:#e5d2cb;}.cls-4{fill:#eedfd9;}.cls-5{fill:#9b6d45;}.cls-6{fill:#282320;}.cls-7{fill:#1a1614;}.cls-8{fill:#423a36;}.cls-9{fill:#ae8052;}.cls-10{fill:#d0c0bc;}.cls-11{fill:#fff;}</style></defs><title>SHETLAND SHEEPDOG</title><g id="Layer_2" data-name="Layer 2"><g id="Layer_1-2" data-name="Layer 1"><path class="cls-1" d="M720.66,80.54s-12.25,21.93-16.46,33.3c3.18.36,6.53.72,10,1.08,0-.55,0-1.11.06-1.69A122.22,122.22,0,0,1,720.66,80.54Z"/><path class="cls-1" d="M847.45,118.81s-20.59,5.82-41,13.77q2.22.95,4.33,2c1.46-.71,3-1.43,4.75-2.19C841.07,121.2,847.45,118.81,847.45,118.81Z"/><path class="cls-1" d="M735.92,117.21l1.34.15c0-3.35.15-5.73.15-5.73S736.91,114,735.92,117.21Z"/><path class="cls-2" d="M660.22,1662.55c-.58,5.62-1.27,10.87-2,15.79,10.9-21.51,24.43-54.75,20-80.37C671,1556.7,665.6,1610.53,660.22,1662.55Z"/><path class="cls-2" d="M4.7,1525l-1.11,1.21S4,1526.2,4.7,1525Z"/><path class="cls-2" d="M461.08,1736.11c0,12.56-1.79,26.91-1.79,21.53s-10.76-39.47-17.94-86.12-7.18-78.94-10.76-53.82-1.79,37.67-1.79,37.67-5.38-7.18-16.15-87.91-17.94-120.2-19.73-89.7-7.18,61-5.38,48.44c1.45-10.15-11.15-74.15-10.37-118.24-7.77,1.76-11.71,6.51-14.12,18.58-4.78,23.92-7.18,50.24-7.18,39.47s-9.57-22.73,0-61-2.39-61-14.35-32.29-3.59,102.86-3.59,102.86S311.59,1415.79,309.2,1356s-14.35-105.26-19.14-81.34-9.57,32.29-9.57,32.29,3.21-18.18,7.1-36.84c-12.12,17.85-27.45,51.57-27.45,51.57s3.59-52-1.79-41.26-10.76,105.85-5.38,148.91,5.38-50.23,7.18-64.59,14.35,77.15,16.15,177.61-37.68,152.5-37.68,152.5-1.79-21.53-12.56-64.59-7.18-44.85-10.76,12.56-39.47,116.61-39.47,123.79-1.79-35.88-32.29-89.7c-23.2-40.94-9,14.66-.13,42,3.7,8,5.83,12.93,5.51,13.58-.43.86-2.71-5-5.51-13.58-16.83-36.2-66.25-134.44-66.25-171.21,0-44.85-17.94,21.53-17.94,26.91s-14.35-113-12.56-148.91-25.12,14.35-26.91,19.73c-.1.31-.16.28-.18,0a192.59,192.59,0,0,0-3.4,19.77c-5.24,44.52-9.52,56.54-11.45,59.79,5.56-6,29.78-31.06,18.63-2.38-12.56,32.29-19.73,120.2-19.73,120.2s32.29-28.71,19.73,5.38S0,1702,0,1702s26.91-46.65,21.53-7.18,35.88,107.64,35.88,107.64,21.53-30.5,19.73-12.56-9,32.29-3.59,32.29,184.79,12.56,249.37,3.59c40.85-5.67,121.89-7,188.65-5.46a80.15,80.15,0,0,1-12.83-8.89C461.08,1779.17,461.08,1723.55,461.08,1736.11Z"/><path class="cls-2" d="M744.54,1775.58c-5.39-16.17.23-45.3,5.58-66,0-18.94,1.35-51.75,3.29-90-13.49,24.05-25,41.16-25,41.16s16.15-82.53-10.76-28.71c-19.5,39-48.42,57.27-62.87,64.38-6.29,27.69-14.28,39.68-14.28,39.68s-16.15-50.23-52-100.47c-33.27-46.57,15.19,67.22,28.16,89.78,4.89,6.06,5.33,6.5,2.34,3.51a20,20,0,0,1-2.34-3.51c-6.86-8.49-22.47-28-49.68-64.66-1.14-1.53-2.23-3-3.29-4.49,1.93,32.46,6,78.34,17.65,88.81,17.61,15.85,45.6,71.47,39.82,83.68,27.48,4.75,68.81,12.87,110.39,20.85C738.35,1827.82,752,1798,744.54,1775.58Z"/><path class="cls-2" d="M1037,1746.88s-21.53-25.12-39.47-44.85,17.94,80.73,17.94,80.73-19.73-16.15-61-34.09,28.7,39.47,39.47,43.06-41.26-1.79-87.91-32.29c-20.54-13.43-31.68-33.11-38.18-51.25,2.25,18.4,4.1,39.08,4.1,54.84,0,26.76,17.73,80.11,19.7,110.7,47.95,1.34,111.56-2.33,113.07-17.41,1.79-17.94,14.35-5.38,21.53-1.79s3.59-32.29,5.38-48.44,17.94,23.32,17.94,23.32,14.35,0,1.79-59.2c-3.11-14.67-5.78-28.34-8.5-41q-2.51-1.59-4.92-3.44C1037.55,1738.42,1037,1746.88,1037,1746.88Z"/><path class="cls-3" d="M581.28,1745.08c-11.63-10.47-15.72-56.35-17.65-88.81-42.83-58.94-32.76-72.43-39.76-135.45-7.18-64.59-21.53,37.68-21.53,37.68s-23.32-87.91-26.91-127.38-7.18,26.91-7.18,26.91-17.94-50.23-16.15-70c1.11-12.26-2.62-5.83-9.47.38-2.95,9-10.48,19-29.37,19-17.18,0-28.49-1.17-36.11.55-.78,44.09,11.82,108.09,10.37,118.24-1.79,12.56,3.59-17.94,5.38-48.44s9,9,19.73,89.7,16.15,87.91,16.15,87.91-1.79-12.56,1.79-37.67,3.59,7.18,10.76,53.82,17.94,80.73,17.94,86.12,1.79-9,1.79-21.53,0,43.06,37.68,75.35a80.15,80.15,0,0,0,12.83,8.89c40,22.58,102.73,18.7,109.16,9.05a5.05,5.05,0,0,0,.35-.64C626.87,1816.55,598.89,1760.93,581.28,1745.08Z"/><path class="cls-4" d="M581.91,187.39a3.73,3.73,0,0,0-1.07-1.37l-.19-.08C582,188,582.32,188.62,581.91,187.39Z"/><path class="cls-4" d="M725.38,859.48c10.32-17.87,18.71-36.85,18.4-50.92-.8-35.88-35.88-30.3-34.29-3.19C710.12,816,717.11,837.39,725.38,859.48Z"/><path class="cls-4" d="M218.3,722s-4.78,15.55-2.39,80.14-2.39,58.61,10.76,41.86S235,735.2,235,735.2s22.73,37.08,19.14,104.06-3.59,96.88-3.59,96.88L259,902.66c8.37-33.49,33.49-82.53,33.49-82.53S285.28,856,274.52,925.39c-6.33,40.8-7.7,61.33-7.75,71.31q1.78,3,3.43,6.18c2.76-3.61,7.48-12.1,13.89-32C294.85,937.35,320,889.5,320,889.5s-3.59,26.31-9.57,67,0,52.63,4.78,43.06,17.94-41.86,21.53-49-1.2,10.76-7.18,40.67c-4.93,24.66-22.87,56.63-35.05,80.5,2.12,2.93,5.38,1.56,9.93-7.54,13.16-26.31,51.43-52.63,51.43-52.63A288.15,288.15,0,0,0,330.73,1051c-12,22.73-13.16,53.82-14.35,63.39s2.39,3.59,14.35-25.12,46.65-69.37,46.65-69.37-17.94,52.63-25.12,98.08,4.78,61,17.94,53.82,14.35-87.32,14.35-87.32,9.57,74.16,3.59,132.77c-1.78,17.49-2.82,33.36-3.4,47.05,13-21.86,26.1-55.63,26.1-55.63s-5.38,71.76,0,95.09S427,1239.15,427,1239.15V1275c0,11.85-.33,24.83-1.49,38,2.85-7.64,4.94-14.4,5.71-19.27,1.44-9.1,2.11-14.17,2.39-16.75,0-2.15.43-3.86,0,0h0c0,3.59,0,49-9.57,80.14s14.35,22.73,20.33,16.75a38.94,38.94,0,0,1-1.73,14.51c6.86-6.2,10.59-12.63,9.47-.38-1.79,19.74,16.15,70,16.15,70s3.59-66.38,7.18-26.91,26.91,127.38,26.91,127.38,14.35-102.26,21.53-37.68c7,63-3.07,76.51,39.76,135.45,1.07,1.47,2.16,3,3.29,4.49,27.22,36.64,42.83,56.17,49.68,64.66-13-22.56-61.42-136.35-28.16-89.78,35.88,50.23,52,100.47,52,100.47s8-12,14.28-39.68c14.45-7.11,43.36-25.37,62.87-64.38,26.91-53.82,10.76,28.71,10.76,28.71s11.52-17.11,25-41.16c3-59.49,7.54-132.14,11.06-186.29-2.5-18.92-5.06-43.45-7.08-64.17-.7,7.41-1,12.68-.84,14.36,1.2,9.57-7.18-23.92-21.53-83.73s-3.59-89.71,0-94.49c0,0,14.35,76.55,17.94,43.06s23.92-98.08,23.92-98.08-2.39,64.59-2.39,89.71,14.35-3.59,27.51-49,20.33-64.59,20.33-64.59a333,333,0,0,0,0,37.08c1.2,17.94,9.57,12,14.35-10.76s-9.57-124.39-9.57-124.39,27.51,78.94,29.9,101.67,8.37,27.51,22.73-45.45c12.74-64.75,7.58-84.28,6.26-87.86l-.27-.65a5.84,5.84,0,0,1,.27.65c1.84,4.37,12.84,30.15,24.84,52,1.46,2.65,2.55,3.19,3.34,2.07l1.67-19.38c-.58-35.48-8.6-105.89-8.6-105.89s18.49,23.56,21.65,68.53c17.32,30.69,56.54,102.8,75.78,159.13,25.12,73.56,14.35,64.59,10.76,64.59s-19.73-32.29-16.15-5.38,10.76,75.35,10.76,75.35-16.15-39.47-37.68-62.79,0,46.65,1.79,52-16.15-21.53-32.29-30.5c-15.19-8.44-17.68-24.82-14.93,12.14,7.13,9.22,15.72,20.66,25.69,34.51,32.29,44.85,34.09,53.82,34.09,53.82s-5.38-5.38-17.94-10.76c-8.2-3.51,8.06,26.6,24.33,57.92-12.79-37.93-18-47.63-13.57-41.77,5.38,7.18,32.29,77.15,34.09,50.23s-17.94-91.5-17.94-91.5,32.29,84.32,39.47,48.44,5.38-77.15,5.38-77.15,20,26.67,22,75.37c2.74,8,4.86,14.34,4.86,14.34s-21.53-172.23-10.76-152.5,23.32,44.85,23.32,44.85-25.12-71.76-59.2-147.11-41.26-120.2-25.12-89.7l16.15,30.5s-1.79-70-21.53-118.41-7.18-66.38,3.59-35.88,14.35,44.85,14.35,44.85,5.38-73.56-5.38-131,10.76-5.38,10.76-10.76-1.79-32.29-7.18-46.65c-3.46-9.23-23.24-38.49-32.63-73.94l-2-2.42c-22.73-27.51-10.76-53.82-15.55-80.14s-40.67-84.92-40.67-84.92,7.18,6,21.53,21.53,9.57,15.55-6-19.14S912,464.89,902.47,446.94,822.33,340.49,817.55,338.1c-12-6-19.54-30.3-19.54-30.3s-24.72-15.95-23.92-42.26,13.56-37.48,13.56-37.48-4.78,20.73,1.59,12.76,19.93-4,19.93-4-8.77,6.38-3.19,6.38c1.91,0,5.11,2.33,8.51,5.39,4.38,0,10.12,1.15,17.4,4.58l20.33,9.57s-15.55-21.53-37.08-33.49-32.29-9.57-32.29-9.57,6-3.59,28.71-4.78,13.16-7.18,0-10.76-16.75-4.78-16.75-4.78l-4.78-1.2s15.55-20.33,50.24-14.35a57,57,0,0,1,12.92,4c-2.58-5.48-5.27-10.81-8.05-15.92-11.88-7.61-11.12-8.6-12.84-9.17l-16-9.52a38.24,38.24,0,0,0-9.49-2.44c-12.64-.74-16.26-6.35,4-16.15q-2.11-1-4.33-2c-6.82,2.66-13.62,5.56-19.62,8.56-23.92,12-19.14-2.39-19.14-2.39s-4.78,13.56-10.37,1.59S747.77,130,747.77,130s2.39,11.16-4.78,8.77c-5-1.65-5.73-13.93-5.73-21.38l-1.34-.15c-1.82,5.85-5.31,14.41-10.47,16-7.71,2.31-11.69-2.09-11.23-18.25-3.48-.36-6.83-.72-10-1.08a33.63,33.63,0,0,0-1.08,3.38c-2.39,9.57-.8,19.14-4.78,9.57s-7.18-12-7.18-12-5.58,11.16-4,15.15c0,0-9.23-5.94-14.5-24.4-14.81-12.17-21.43-25.39-21.43-25.39s1.79,30.5-9,16.15L631.51,82s16.15,26.91,0,23.32-37.68,3.59-37.68,3.59S611.78,125,601,125a103.88,103.88,0,0,1-15.13-1.8c-5.27,15.27-13.44,23.13-17.53,21.09-4.78-2.39.8,10.37.8,10.37s-4,0-12.76-3.19c-4.08-1.48-3.16,2-1,6.22a29.3,29.3,0,0,1,2.6,2.15c13.15,12.38,19.79,21.75,22.52,25.86l.33.29a134.28,134.28,0,0,0,14.23,5s-20.33,4.78-28.71,12,16.75,6,16.75,6-22.73,21.53-29.9,38.28S524.5,284.27,529.29,295s45.45-39.47,45.45-39.47A208.44,208.44,0,0,1,568,278.15a159.27,159.27,0,0,1,24.68-22.58c16.75-12,16.75-8.37,16.75-8.37s-15.55,17.94-8.37,15.55,14.35,4.78,14.35,4.78-13.16-3.59-27.51,14.35-22.73,21.53-19.14,17.94,25.12-26.31,13.16-23.92a49.72,49.72,0,0,0-15.24,5.75c-3.53,9-8.1,18.07-13.47,23C550,307.51,546,342.88,514.93,368c-14.44,11.66-23.72,22-29.16,29.08-1.22,1.62-2.32,3.12-3.24,4.42s-1.6,2.4-2.11,3.23l-.19.35c-1.12,2.24-1.19,1.92.19-.35.45-.81,1.18-1.91,2.11-3.23s1.95-2.75,3.24-4.42c9.73-13,26.45-33.88,7.63-20.71-23.92,16.75-26.31,35.88-64.59,70.57s-61,51.43-61,51.43,14.35-12,23.92-34.69,4.78-40.67-3.59-17.94S363,486.42,365.42,482.83s15.55-40.67,39.47-96.88,46.65-89.71,33.49-70.57-26.31,35.88-25.12,32.29c1-3.05,21.09-38.15,36.63-59.6-4.39,3.43-7.53,5.37-7.53,5.37s13-12.43,16.65-34.6c-6.29,9.78-14.63,19.57-25.42,26.63-11.12,7.27-20.86,17.45-28.79,27.53-8.29,14.52-22.64,35.87-22.64,35.87A211.06,211.06,0,0,1,404.81,313c6.65-11.65,9.41-18.91-2.31-7.19-26.31,26.31-59.81,78.94-76.55,134C314,479,303.3,507.85,299,519.91a27.36,27.36,0,0,1-1.75,6c-.69,1,0-1.11,1.75-6,3.49-15.34,10.06-55.87,15-82.53,6-32.29,1.2-38.28-3.59-19.14s-10.76,33.49-8.37,23.92c.93-3.71,4.19-19.27,10.41-40-21.75,27.46-44,60.44-54.09,90.67-21.53,64.59-26.91,78.94-23.32,71.76s35.88-35.88,23.32,1.79-30.5,100.47-57.41,136.35-34.09,52-34.09,52,20.59-20.58,29-10.29C206,732.26,215.25,723.88,218.3,722Zm439.88,956.29c.76-4.92,1.45-10.16,2-15.79,5.38-52,10.76-105.85,17.94-64.59C682.61,1623.59,669.08,1656.83,658.18,1678.34ZM812.76,364.41c-1.2,13.16-10.76-13.16-10.76-13.16C800.8,344.08,814,351.26,812.76,364.41Zm-26.31-39.47c-2.39,2.39-7.18-16.75-7.18-16.75C782.86,298.63,788.84,322.55,786.45,324.94Zm8.37-153.1c16.75,0,20.33,12,20.33,12l-8.37-2.39c-8.37-2.39-23.92-3.59-27.51,1.2C779.27,182.6,778.08,171.84,794.82,171.84Zm-22.73,27.51c7.18-4.78,2.39,4.78-3.59,15.55s-11.77,35.88-12,32.29C755.35,224.47,764.92,204.13,772.09,199.35Zm-12,74.16c3.59-6,10.76,14.35,9.57,26.31C769.7,299.82,756.55,279.49,760.13,273.51Zm2.39,61s-14.35,0-13.16-26.31,1.2-27.51,1.2-22.73S762.53,327.33,762.53,334.51ZM767.31,246c2.39-10.76,3.59,7.18-1.2,17.94S766.49,249.69,767.31,246ZM709.9,151.51c0,3.59,14.35,28.71,16.75,20.33s4.78-12,4.78-12S738.6,173,741,181.41,756.55,173,756.55,173s-13.16,27.51-13.16,31.1c0,4.31-27.51-17.94-31.1-33.49S709.9,147.92,709.9,151.51Zm20.33,148.32L735,315.37c4.78,15.55,12,19.14,12,19.14s-3.59,6-15.55,2.39-17.94-1.2-17.94-1.2,7.18-9.57,12-8.37S730.23,299.82,730.23,299.82Zm-14.35-77.75c2.39-16.75,3.59-21.53,3.59-21.53s1.2,17.94,8.37,26.31,4.78,23.92,4.78,23.92C729,249.59,713.49,238.82,715.88,222.08ZM735,272.31c0-14.35,8.37,3.59,6,14.35S735,283.08,735,272.31ZM668,128.78c8.37,3.59,13.16,22.73,14.35,28.71C683.13,161.2,659.66,125.19,668,128.78Zm16.75,46.65c4.78,7.18,8.37,22.73,8.37,22.73s-12-4.78-20.33-22.73l-8.37-17.94S680,168.25,684.78,175.43Zm-57.37-52.09a10.35,10.35,0,0,0,1.15.66c4.78,2.39,17.94,21.53,19.14,44.26.23,4.31-12-19.14-15.55-33.49-1.69-6.75-3.64-10.06-4.74-11.43C626.13,122.47,626.41,122.09,627.41,123.33Zm-7.22,48.51c9.57-4.78-9.57-13.16-9.57-13.16s25.12-2.39,27.51,31.1c0,0-17.94-10.76-29.9-9.57l-12,1.2S610.62,176.62,620.19,171.84Zm18.34,87.32c15.15-6.38-23.12-4-23.12-4a48.72,48.72,0,0,1,13.17-15.7c-19.27-7.78-31.44-19.79-25.14-19.79,7.18,0,23.92-2.39,38.28-7.18s2.39-13.16,19.14-13.16c12.75,0,22,17.32,26.26,27.18,9.73,5.44,19.3,12.34,20.79,19.07,3.19,14.35,5.58-3.19,5.58-3.19s10.37,19.93,8.77,37.48a43.9,43.9,0,0,1-6.39,18.77c3.86,2.63,6.2,2.88,7.61,2.08l2-6.89s.71,5.36-2,6.89l-.42,1.48c-2.39,8.37-12,26.31-15.55,27.51a43.5,43.5,0,0,1-40.67,10.76c-25.12-6-50.24-35.88-50.24-35.88s13.42-10.74,23.68-20.15a195,195,0,0,0-38.43,15.36s17.54-12.76,27.91-20.73-31.9,12-31.9,12S623.38,265.53,638.53,259.16ZM424.83,478.44c0-1.84,6.94-12,17.46-23.52l.88-1.2c3.14-4.27,4.9-6,5.44-5.44,11.55-11.65,25.94-23.43,40-28.85,31.1-12,36.68-39.87,55-55a66.5,66.5,0,0,1,5.58-4.12c4.46-6.12,10.93-11.27,18.54-15.16a47.59,47.59,0,0,0-6.58.94S613,312.58,621.78,319s23.92,27.91,41.47,33.49,39.07,26.31,68.58,19.93c13.16-2.85,27.11.35,39.81,6.23-11.76-10.12-16.82-16.16-13.89-14.21,3.59,2.39,28.71,9.57,20.33,1.2s-21.53-23.92-21.53-23.92,39.47,15.55,55,34.69,14.35,17.94,20.33,9.57l4-5.63a19.72,19.72,0,0,1,2-2.75l-2,2.75c-2.42,4-5.26,11.69,3.16,17.59,12,8.37,43.06,29.9,44.26,39.47,1,7.63-25.43,18.29-36.19,22.3,3.29,13-.18,24.86-14,42.69-16.75,21.53-78.94,52.63-82.13,51-2.14-1.07-18.34,11.16-42.26,4.78s-41.47-12-32.69-8.77,42.26,27.11,77.35,35.88,73.36,12.76,90.11,4.78c12.21-5.81,14.24-7.39,14.45-7.81l-.1-.16s.17,0,.1.16c1.17,1.94,13.94,23.21,23.83,44.49,10.37,22.33,12,78.15,11.16,73.36s-6.38-38.28-16.75-39.87,12.76-1.59,4.78,43.06-29.5,64.59-28.71,62.2,22.33-34.29,20.73-73.36-32.69-55.82-33.49-31.1,0,65.39-15.15,85.32L809.17,766.3s21.53-53.43,12.76-73.36-39.87,75-59,118c-7.78,17.51-21.5,37.53-35,55.12,12.32,32.16,26.27,63.69,26.27,63.69s-15.74-21.35-35.2-52.39c-16.27,20.12-30.19,34.85-30.19,34.85a462.7,462.7,0,0,0,27.9-38.52c-12.74-20.51-26.84-44.87-39.06-69.93-31.9-65.39-43.86-83.73-40.67-62.2a278.67,278.67,0,0,0,8.77,39.07S621,748,613,726.43s-20.73-19.93-6.38,39.07C620,820.62,663.36,918.86,667.06,927c.07.14.13.26.17.35.16.37.09.23-.17-.35-4.36-8.1-67.06-92.26-82-145.57C570,727.23,558,732,570.75,798.2c9.38,48.67-10.55,95.17-20.81,116.39-2.63,7.49-4.86,12-5.5,12s1.81-4.36,5.5-12c7.2-20.54,17.35-63.57,5.66-98-15.95-47-39.87-39.87-42.26-87.71s-2.39-61.4-4.78-48.64S499,755.94,499,755.94s-10.37-37.48-3.19-75.75-4-35.09-9.57-8S471.08,732,471.08,732s-5.58-23.92,2.39-72.56,14.35-96.49,3.19-62.2-24.72,72.56-24.72,72.56-4.78-59.81,1.59-82.93-5.58-15.15-9.57-.8-8.77,21.53-8.77,21.53-.8-24.72,14.35-54.22,4.78-32.69-7.18-12.76-17.54,42.26-17.54,42.26-8.77-51,7.18-89.31c11.46-27.5,18-43.88,16.6-45.31-2.22,2.24-4.33,4.46-6.31,6.64C431.63,469.58,424.83,482.32,424.83,478.44ZM269.73,633.54C286.48,594.06,316.38,539,316.38,539s-7.18,70.57-6,82.53,0,0,12-40.67S357,498.38,357,498.38s-10.76,34.69-19.14,95.69-2.39,69.37-2.39,69.37,4.78-2.39,7.18-27.51,23.92-80.14,23.92-80.14-8.37,55-8.37,90.9,3.59,58.61,3.59,58.61,17.94-123.2,19.14-128-2.39,17.94-2.39,41.86,4.78,58.61,6,44.26,19.14-125.59,20.33-131.57S398.91,606,418,685s32.29,52.63,22.73,12-2.39-57.41-2.39-63.39,4.78,35.88,22.73,100.47c16.51,59.45,52.28,148.29,60.67,163.91,1.33,1.75,1.91,2.6,1.53,2.35a8.88,8.88,0,0,1-1.53-2.35c-11.29-14.81-77.48-94.74-88.18-126.83-12-35.88-16.75-47.84-16.75-1.2s-14.35,71.77-15.55,75.35-1.2-31.1-2.39-46.65-6-10.76-13.16,21.53S357,919.4,357,919.4,353.46,835.68,339.11,789c-13.27-43.13-3,63,2.38,83.06,1.26,2.47,1.74,3.6,1.21,3.06a8.59,8.59,0,0,1-1.21-3.06c-10.06-19.73-70-125.86-65.77-171.57,4.78-51.43-25.12,46.65-25.12,46.65S253,673,269.73,633.54Z"/><path class="cls-4" d="M571.15,181.41a94,94,0,0,0,9.51,4.54l-.14-.21C575.82,181.81,561.83,176.23,571.15,181.41Z"/><path class="cls-4" d="M830.45,274.24a38.15,38.15,0,0,0-6.53-6.31A71.89,71.89,0,0,1,830.45,274.24Z"/><path class="cls-4" d="M860.61,322.55c-12.28-5.26-16.21-27.68-26.87-43.82a28.42,28.42,0,0,0-12.91-1.33c13,13.29,11.07,32,11.07,32l-8.37-7.18c-8.37-7.18-2.39,15.55,7.18,21.53,3.61,2.26,9.09,7.57,14.52,13.32a262.65,262.65,0,0,1,37.27,25.81,171.9,171.9,0,0,1-4.5-25.13C871.35,330.31,865.14,324.49,860.61,322.55Z"/><path class="cls-4" d="M818.74,264.74l-1.22-.6C817.57,264.31,817.93,264.51,818.74,264.74Z"/><path class="cls-4" d="M798,307.8s0-2.48.27-6.15A26.56,26.56,0,0,0,798,307.8Z"/><path class="cls-4" d="M616.61,1725.42a20,20,0,0,0,2.34,3.51C621.94,1731.92,621.5,1731.48,616.61,1725.42Z"/><path class="cls-4" d="M363.46,1280.38c-1.56-2.79-3.16-5.67-4.77-8.62C360.2,1275.58,361.77,1278.54,363.46,1280.38Z"/><path class="cls-4" d="M867.82,1708.18c-1.24-3.47-2.32-6.88-3.25-10.18-.12.45-.24.87-.37,1.26-4.78,14.35-8.37,12-16.75,9.57s-8.37-7.18-29.9-7.18-21.53,0-34.69-3.59-22.73,20.33-31.1,28.71c-1.17,1.17-1.66-5.26-1.64-17.17-5.35,20.67-11,49.8-5.58,66,7.47,22.4-6.19,52.24-13,74a92,92,0,0,0-3.1,12.08c-3.59,21.53,3.59,57.41,66.38,62.79s98.67-19.73,96.88-50.23c0-.17,0-.36,0-.53-2-30.59-19.7-83.94-19.7-110.7C871.92,1747.26,870.07,1726.58,867.82,1708.18Z"/><path class="cls-5" d="M968.8,1336c12.56,5.38,17.94,10.76,17.94,10.76s-1.79-9-34.09-53.82c-10-13.85-18.57-25.29-25.69-34.51.17,2.32.37,4.84.58,7.6,3.59,46.65-9,62.79-9,62.79s-5.38-9-12.56-19.73-9-5.38-7.18,34.09-1.79,86.12-7.12,91.72c14.35,56.22,7.18,88.51,7.18,88.51s-2.39-21.53-9.57-39.47-13.16-1.2-6,31.1,47.84,99.28,47.84,99.28-45.45-44.26-53.82-70.57-2.39,17.94,3.59,56.22c5.69,36.42.56,72.82,1.08,79.35.28,1.09.34,1.44.12.79a3.74,3.74,0,0,1-.12-.79c-1.23-4.87-6.74-24.57-10.64-36.29-4.66-14-2.52,38.88-6.81,55,.94,3.3,2,6.71,3.25,10.18,6.5,18.14,17.65,37.82,38.18,51.25,46.65,30.5,98.67,35.88,87.91,32.29s-80.73-61-39.47-43.06,61,34.09,61,34.09S979.56,1682.29,997.5,1702s39.47,44.85,39.47,44.85.58-8.46.93-21.14c-.92-.7-1.83-1.43-2.72-2.19C986.74,1682.29,967,1612.32,967,1612.32s53.82,71.76,43.06,30.5S986.74,1589,986.74,1528s3.59-82.53,3.59-75.35,19.74,120.2,25.12,80.73,7.18-46.65-12.56-109.44c-3.62-11.52-6.88-21.47-9.75-30C976.86,1362.63,960.6,1332.52,968.8,1336Z"/><path class="cls-6" d="M790,198.15l4.78,1.2s3.59,1.2,16.75,4.78,22.73,9.57,0,10.76-28.71,4.78-28.71,4.78,10.76-2.39,32.29,9.57,37.08,33.49,37.08,33.49l-20.33-9.57c-7.28-3.43-13-4.55-17.4-4.58a174.48,174.48,0,0,1,13.81,14.55s-11.06,0-10.79,1l1.22.6a16.28,16.28,0,0,1,5.18,3.19,38.15,38.15,0,0,1,6.53,6.31c2.47,2.67,4.24,4.85,4.24,4.85s-.34-.15-1-.37c10.66,16.14,14.58,38.56,26.87,43.82,4.54,1.94,10.75,7.76,17.39,15.2,17.86,20,38.83,51.78,38.83,51.78s3.59,4.78-3.59-10.76-40.67-58.61-23.92-57.41,28,30.48,29.9,33.49c3.29,5.08-12.26-38.28,2.09-32.29s39.17,70.87,39.77,68.18c.82-3.69-1.2-10.76-17.94-56.22s-39.47-49-43.06-64.59S934.76,301,934.76,301s-28.71-62.2-51.43-74.16,23.92,8.37,23.92,8.37-24.68-34.73-54.06-47.47a57,57,0,0,0-12.92-4C805.59,177.82,790,198.15,790,198.15Z"/><path class="cls-6" d="M664.84,216.1a191.15,191.15,0,0,1,22.27,10.43c-4.23-9.86-13.51-27.18-26.26-27.18-16.75,0-4.78,8.37-19.14,13.16s-31.1,7.18-38.28,7.18c-6.31,0,5.86,12,25.14,19.79a54,54,0,0,1,22.71-10.62C677.6,223.27,664.84,216.1,664.84,216.1Z"/><path class="cls-7" d="M333.12,236.83c17.54-12.76,23.92-44.65-2.39-23.12S288.47,256,288.47,256s21.53-43.86,35.09-54.22,25.52-24.72,6.38-23.12S306,183.4,305.22,183.4s14.35-12,24.72-12.76,3.19-3.19-8.77-14.35-10.37-21.53-10.37-21.53,15.95,14.35,27.11,16.75,21.53,4,21.53,4c-.8,2.39,9.57,35.88,35.88,63.79,18.12,19.22,34.73,19.15,43.32,17.25,6.56-2.93,12-5.06,16.11-7,1.55-11.82,4.95-26.54,12.34-39,15.15-25.52,38.28-51,36.68-60.6s-7.18,3.19-7.18,3.19,1.59-22.33,12.76-31.9,16.75,5.58,16.75,5.58l-5.58-19.93s7.18,12.76,13.56,26.31-17.54,35.88-17.54,35.88c-1.25.42-7.29,5.63-12.54,14.14,17.06-11.44,37.42-16,51.41-5.53-2.15-4.19-3.08-7.71,1-6.22,8.77,3.19,12.76,3.19,12.76,3.19s-5.58-12.76-.8-10.37c4.09,2,12.25-5.82,17.53-21.09a82.79,82.79,0,0,0,2.41-8.41c2.81-12.17-2.35-34.24-7.1-50.39-.9-.37-2.87-2.62-6.46-7.82-15.95-23.12-71-55-71-55s52.63,42.26,32.69,31.9S432,6.38,432,6.38s68.58,15.15,86.92,31.1,17.54,20.73-14.35,8.77a206.3,206.3,0,0,0-59.81-12.76S492.61,47,471.08,46.25s-56.62.8-56.62.8S463.9,75,440,67.78s-67,4-67,4,52.63-1.59,35.09,5.58-23.12,0-47,6.38-33.49,12.76-33.49,12.76,63-12,42.26-2.39a173.55,173.55,0,0,1-50.24,15.15c-15.15,2.39-21.53,3.19-21.53,3.19s28.71,1.59,14.35,8-42.26,38.28-42.26,38.28,11.16-8,19.14-6.38,4.78-1.59-4.78,12.76a112.13,112.13,0,0,0-13.56,28.71s43.86-48.64,31.9-26.31c-10.33,19.29-21.26,43.92-23.52,48.72,3.44-5.3,27-33,18.74-10.45-8.77,23.92-16.75,19.14-20.73,45.45s-4.78,28.71-4.78,28.71,29.5-65.39,19.94-43.06-15.95,35.09-15.15,62.2,1.59,50.24,1.59,45.45,5.58-61.4,9.57-64.59c2.93-2.35-1,10.83-.8,30C288.28,305,316,249.27,333.12,236.83Z"/><path class="cls-7" d="M339.5,325.34c10.37-26.31,23.92-54.22,5.58-27.11s-32.69,72.56-32.69,72.56S318,307,337.11,288.66s31.1-39.87,6.38-16.75-47.84,55.82-47.84,55.82,18.34-46.25,36.68-62.2,45.45-43.06,12.76-17.54-56.59,64.55-57.41,62.2a116.35,116.35,0,0,0,2.39,22.33c6.38,30.3,8,39.07,7.18,34.29s-3.19-35.09,5.58-34.29,7.18,8,3.19,31.9c-2.9,17.4-5.38,29.31-6.21,33,1.49-3.56,11.73-16.38,24.83-30.83,2.6-6.67,5.45-13.48,8.56-20.27A165.15,165.15,0,0,1,339.5,325.34Z"/><path class="cls-7" d="M574.74,44.65s3.13,8.43,6.46,19.79C584.32,65.73,574.74,44.65,574.74,44.65Z"/><path class="cls-7" d="M299.81,397.39a2.89,2.89,0,0,0-.17.51C299.42,399,299.5,398.76,299.81,397.39Z"/><path class="cls-7" d="M279.3,216.18a4,4,0,0,0-.4.71C278.79,217.22,278.94,216.94,279.3,216.18Z"/><path class="cls-6" d="M727.84,226.86c-7.18-8.37-8.37-26.31-8.37-26.31s-1.2,4.78-3.59,21.53,13.16,27.51,16.75,28.71C732.62,250.78,735,235.23,727.84,226.86Z"/><path class="cls-8" d="M970.65,488.81c.48,0,.38-1-1-3.38C970.21,487.74,970.37,488.81,970.65,488.81Z"/><path class="cls-8" d="M863,357.24l-14.35-10.76c-14.35-10.76-19.14-2.39-31.1-8.37,4.78,2.39,75.35,90.9,84.92,108.85s13.16,39.47,28.71,74.16,20.33,34.69,6,19.14-21.53-21.53-21.53-21.53,35.88,58.61,40.67,84.92-7.18,52.63,15.55,80.14l2,2.42c20.94,25.44,24.32,31.07,24.32,31.07s-32.29-62.2-8.37-33.49,32.29,49,31.1,43.06-8.37-62.2-17.94-101.67-14.35-56.22,0-27.51,17.94,35.88,16.75,32.29,9.57-44.26-26.31-98.08S936,444.55,952.71,463.69c10,11.43,14.88,18.17,16.94,21.74-1.87-7.57-8.24-28.64-38.47-70.78a275.54,275.54,0,0,0-48.69-51.77,262.65,262.65,0,0,0-37.27-25.81C854.18,346.56,863,357.24,863,357.24Z"/><path class="cls-6" d="M743.39,204.13c0-3.59,13.16-31.1,13.16-31.1s-13.16,16.75-15.55,8.37-9.57-21.53-9.57-21.53-2.39,3.59-4.78,12-16.75-16.75-16.75-20.33-1.2,3.59,2.39,19.14S743.39,208.45,743.39,204.13Z"/><path class="cls-6" d="M749.37,308.2c-1.2,26.31,13.16,26.31,13.16,26.31,0-7.18-12-44.26-12-49S750.56,281.88,749.37,308.2Z"/><path class="cls-6" d="M835.92,380.32l2-2.75A19.72,19.72,0,0,0,835.92,380.32Z"/><path class="cls-6" d="M809.17,406.68c14.35,16.75,11.16,7.18-1.59,16.75s-19.93,14.35-10.37,15.15,39.87-4,47,12.76a56,56,0,0,1,2.88,8.35c10.75-4,37.14-14.67,36.19-22.3-1.2-9.57-32.29-31.1-44.26-39.47-8.42-5.89-5.58-13.56-3.16-17.59l-4,5.63c-6,8.37-4.78,9.57-20.33-9.57s-55-34.69-55-34.69,13.16,15.55,21.53,23.92-16.75,1.2-20.33-1.2c-2.93-2,2.13,4.09,13.89,14.21C787.4,385.93,801.22,397.4,809.17,406.68Z"/><path class="cls-6" d="M578.72,350.86C566,358,560.38,359.63,560.38,366.8s39.87,27.91,53.43,25.52,31.9-4.78,29.5-11.16S619.39,367.6,601.85,354c-11.73-9.07-26-9.57-34.09-8.91-7.61,3.89-14.08,9-18.54,15.16C567.29,348.3,590.25,344.37,578.72,350.86Z"/><path class="cls-6" d="M713.49,335.71s6-2.39,17.94,1.2S747,334.51,747,334.51s-7.18-3.59-12-19.14l-4.78-15.55s0,28.71-4.78,27.51S713.49,335.71,713.49,335.71Z"/><path class="cls-6" d="M707.9,308.59s-2.39-15.95-30.3-25.52c-10.77-3.69-24.51-2-37.32,1.38-10.26,9.41-23.68,20.15-23.68,20.15s25.12,29.9,50.24,35.88a43.5,43.5,0,0,0,40.67-10.76c3.59-1.2,13.16-19.14,15.55-27.51l.42-1.48c-1.4.81-3.74.55-7.61-2.08A46.24,46.24,0,0,1,707.9,308.59Z"/><path class="cls-6" d="M725.45,293.84l-2,6.89C726.15,299.2,725.45,293.84,725.45,293.84Z"/><path class="cls-6" d="M848.65,346.47,863,357.24s-8.82-10.67-17.78-20.17c-5.43-5.75-10.91-11.07-14.52-13.32-9.57-6-15.55-28.71-7.18-21.53l8.37,7.18s2-18.71-11.07-32a23.68,23.68,0,0,0-12.46,5.69,30.1,30.1,0,0,0-10.1,18.57c-.25,3.67-.27,6.15-.27,6.15s7.58,24.32,19.54,30.3S834.29,335.71,848.65,346.47Z"/><path class="cls-6" d="M693.15,198.15s-3.59-15.55-8.37-22.73-20.33-17.94-20.33-17.94l8.37,17.94C681.19,193.37,693.15,198.15,693.15,198.15Z"/><path class="cls-6" d="M760.13,273.51c-3.59,6,9.57,26.31,9.57,26.31C770.9,287.86,763.72,267.53,760.13,273.51Z"/><path class="cls-6" d="M786.45,324.94c2.39-2.39-3.59-26.31-7.18-16.75C779.27,308.2,784.06,327.33,786.45,324.94Z"/><path class="cls-6" d="M812.76,364.41c1.2-13.16-12-20.33-10.76-13.16C802,351.26,811.57,377.57,812.76,364.41Z"/><path class="cls-6" d="M756.55,247.19c.19,3.58,6-21.53,12-32.29s10.76-20.33,3.59-15.55S755.35,224.47,756.55,247.19Z"/><path class="cls-6" d="M638.13,189.78c-2.39-33.49-27.51-31.1-27.51-31.1s19.14,8.37,9.57,13.16-23.92,9.57-23.92,9.57l12-1.2C620.19,179,638.13,189.78,638.13,189.78Z"/><path class="cls-6" d="M647.7,168.25c-1.2-22.73-14.35-41.86-19.14-44.26a10.35,10.35,0,0,1-1.15-.66c1.1,1.36,3,4.67,4.74,11.43C635.74,149.11,647.93,172.56,647.7,168.25Z"/><path class="cls-6" d="M627.41,123.33c-1-1.25-1.29-.87,0,0Z"/><path class="cls-6" d="M682.39,157.49c-1.2-6-6-25.12-14.35-28.71S683.13,161.2,682.39,157.49Z"/><path class="cls-6" d="M741,286.67c2.39-10.76-6-28.71-6-14.35C735,283.08,738.6,297.43,741,286.67Z"/><path class="cls-7" d="M19.73,1445.47c1.79-5.38,28.71-55.62,26.91-19.73S59.2,1580,59.2,1574.64s17.94-71.76,17.94-26.91c0,36.77,49.42,135,66.25,171.21-8.9-27.38-23.07-83,.13-42,30.5,53.82,32.29,96.88,32.29,89.7s35.88-66.38,39.47-123.79,0-55.62,10.76-12.56,12.56,64.59,12.56,64.59,39.47-52,37.68-152.5-14.35-192-16.15-177.61-1.79,107.64-7.18,64.59,0-138.14,5.38-148.91,1.79,41.26,1.79,41.26,15.33-33.72,27.45-51.57c3.23-15.51,6.93-31.35,9.65-37.32l6-13.16s4.78,31.1,12,70.57,6,80.14,12,52.63,23.92-55,23.92-55-28.71,67-15.55,55,27.51-31.1,27.51-31.1,8.37,20.33,7.18,51.43,17.94,26.31,21.53,21.53c2.82-3.76,23.34-43.66,33.76-71.63,1.17-13.19,1.49-26.17,1.49-38v-35.88s-10.76,87.91-16.15,64.59,0-95.09,0-95.09-13.05,33.78-26.1,55.63c-1.36,32.19-.19,52.22-.19,52.22s-9.48-15.37-21.1-36.13c-1.69-1.83-3.26-4.8-4.77-8.62-15.07-27.51-31.94-61.34-36.33-82-7.36-34.67-9.17,29.41-7.07,47.93,1.1,3.42,1.55,5.16,1.09,4.7s-.8-2.13-1.09-4.7c-5.09-15.79-24.17-67.75-33-108.32.09,29.08,3.87,60.72,5.36,65.17,2.39,7.18-6-10.76-22.73-37.08s3.59,38.28,3.59,38.28S188.4,1094,186,1060.54s-16.75,21.53-16.75,21.53-5.4-72.95-2.14-108.65c-18.47,11.69-43.3,31.85-55.88,61.21-21.53,50.23-26.91,68.17-23.32,61s43.06-50.23,30.5-17.94-34.09,73.56-34.09,73.56,39.47-37.68,23.32-5.38S95.09,1264.27,95.09,1255.3,113,1190.71,113,1224.8s-44.85,71.76-64.59,102.26c-18.6,28.74-29.23,113.25-28.89,118.37C19.57,1445.75,19.63,1445.78,19.73,1445.47Z"/><path class="cls-7" d="M148.91,1732.52c.32-.65-1.81-5.62-5.51-13.58C146.2,1727.55,148.48,1733.38,148.91,1732.52Z"/><path class="cls-7" d="M267.34,1005.52s1-.2,2.86-2.65q-1.65-3.18-3.43-6.18C266.73,1003.69,267.34,1005.52,267.34,1005.52Z"/><path class="cls-6" d="M766.11,263.94c4.78-10.76,3.59-28.71,1.2-17.94C766.49,249.69,761.33,274.7,766.11,263.94Z"/><path class="cls-6" d="M581.91,275.9c12-2.39-9.57,20.33-13.16,23.92s4.78,0,19.14-17.94,27.51-14.35,27.51-14.35-7.18-7.18-14.35-4.78,8.37-15.55,8.37-15.55,0-3.59-16.75,8.37A159.27,159.27,0,0,0,568,278.15q-.64,1.74-1.32,3.5A49.72,49.72,0,0,1,581.91,275.9Z"/><path class="cls-6" d="M485.77,397.08c-1.29,1.67-2.36,3.15-3.24,4.42C483.45,400.21,484.56,398.71,485.77,397.08Z"/><path class="cls-6" d="M482.54,401.5c-.93,1.31-1.66,2.42-2.11,3.23C480.93,403.9,481.63,402.81,482.54,401.5Z"/><path class="cls-6" d="M580.85,186l-.33-.29.14.21Z"/><path class="cls-6" d="M480.25,405.08l.19-.35C479.05,407,479.13,407.32,480.25,405.08Z"/><path class="cls-6" d="M504,163.26c-4.8,7.78-9,18.33-8.19,30.51,1.59,25.52-12,40.67-12,40.67s8.77-31.1,4.78-34.29-6.38,31.9-12.76,54.22c-4.21,14.74-17.45,27-26,33.7-15.54,21.45-35.61,56.54-36.63,59.6-1.2,3.59,12-13.16,25.12-32.29s-9.57,14.35-33.49,70.57-37.08,93.3-39.47,96.88,14.35-14.35,22.73-37.08,13.16-4.78,3.59,17.94-23.92,34.69-23.92,34.69,22.73-16.75,61-51.43,40.67-53.82,64.59-70.57c18.82-13.18,2.1,7.71-7.63,20.71,5.44-7,14.72-17.42,29.16-29.08,31.1-25.12,35.08-60.49,38.28-63.39,5.37-4.88,9.94-13.94,13.47-23q.69-1.76,1.32-3.5a208.44,208.44,0,0,0,6.74-22.58S534.07,305.8,529.29,295s16.75-31.1,23.92-47.84,29.9-38.28,29.9-38.28-25.12,1.2-16.75-6,28.71-12,28.71-12a134.28,134.28,0,0,1-14.23-5,3.73,3.73,0,0,1,1.07,1.37c.41,1.23.12.63-1.26-1.45a94,94,0,0,1-9.51-4.54c-9.32-5.18,4.67.41,9.37,4.33-2.73-4.11-9.37-13.48-22.52-25.86a29.3,29.3,0,0,0-2.6-2.15C541.41,147.3,521,151.82,504,163.26Z"/><path class="cls-6" d="M404.81,313a211.06,211.06,0,0,0-22.64,35.87S396.52,327.52,404.81,313Z"/><path class="cls-6" d="M297.24,525.89a27.36,27.36,0,0,0,1.75-6C297.26,524.77,296.55,526.92,297.24,525.89Z"/><path class="cls-6" d="M310.4,418.24c4.78-19.14,9.57-13.16,3.59,19.14-4.94,26.67-11.51,67.2-15,82.53,4.31-12.06,15-40.93,27-80.14,16.75-55,50.24-107.65,76.55-134,11.72-11.72,9-4.46,2.31,7.19,7.93-10.08,17.67-20.26,28.79-27.53,10.79-7.06,19.13-16.85,25.42-26.63a72.62,72.62,0,0,0,.89-15.64c-1.59-31.9-6.38,8-6.38,8a137,137,0,0,1,1.21-21.61c-4.06,1.9-9.54,4-16.11,7a31.15,31.15,0,0,0,3-.83,8,8,0,0,1,3.09-1.26,20.09,20.09,0,0,1-3.09,1.26c-3.53,2-10.54,7.09-23.23,20.27-20.73,21.53-48.64,30.3-68.58,70.17s-23.12,87.71-25.52,85.32c-1.87-1.87,2.09-37.22,8.84-65.17-3.11,6.79-6,13.59-8.56,20.27-4.92,12.64-9,24.81-12.2,35.59-6.22,20.73-9.49,36.3-10.41,40C299.63,451.73,305.61,437.37,310.4,418.24Z"/><path class="cls-6" d="M806.78,181.41l8.37,2.39s-3.59-12-20.33-12-15.55,10.76-15.55,10.76C782.86,177.82,798.41,179,806.78,181.41Z"/><path class="cls-8" d="M275.71,700.52c-4.25,45.7,55.71,151.84,65.77,171.57-5.4-20-15.65-126.19-2.38-83.06C353.46,835.68,357,919.4,357,919.4s21.53-67,28.71-99.28,12-37.08,13.16-21.53,1.2,50.24,2.39,46.65,15.55-28.71,15.55-75.35,4.78-34.69,16.75,1.2c10.7,32.09,76.88,112,88.18,126.83C513.39,882.3,477.62,793.46,461.11,734c-17.94-64.59-22.73-106.45-22.73-100.47s-7.18,22.73,2.39,63.39-3.59,67-22.73-12-12-159.08-13.16-153.1-19.14,117.22-20.33,131.57-6-20.33-6-44.26,3.59-46.65,2.39-41.86-19.14,128-19.14,128-3.59-22.73-3.59-58.61,8.37-90.9,8.37-90.9-21.53,55-23.92,80.14-7.18,27.51-7.18,27.51-6-8.37,2.39-69.37S357,498.38,357,498.38s-22.73,41.86-34.69,82.53-10.76,52.63-12,40.67,6-82.53,6-82.53-29.9,55-46.65,94.49-19.14,113.63-19.14,113.63S280.5,649.09,275.71,700.52Z"/><path class="cls-8" d="M523.31,900.27c.38.25-.2-.6-1.53-2.35A8.88,8.88,0,0,0,523.31,900.27Z"/><path class="cls-8" d="M341.48,872.08a8.59,8.59,0,0,0,1.21,3.06C343.23,875.68,342.74,874.56,341.48,872.08Z"/><path class="cls-8" d="M169.26,1082.07s14.35-55,16.75-21.53,82.53,135.16,82.53,135.16-20.33-64.59-3.59-38.28,25.12,44.26,22.73,37.08c-1.48-4.45-5.27-36.09-5.36-65.17-4.16-19.19-6-35.83-3-44.87,10.76-32.29-40.67,40.67-41.86,44.26s2.39-15.55,21.53-63.39,41.86-57.41,41.86-57.41-2.39,3.59-7.18,23.92c-3.13,13.3-3.19,34.29.83,39.84,12.18-23.87,30.12-55.84,35.05-80.5,6-29.9,10.76-47.84,7.18-40.67S320,990,315.18,999.54s-10.76-2.39-4.78-43.06,9.57-67,9.57-67-25.12,47.84-35.88,81.34c-6.41,19.94-11.12,28.43-13.89,32-1.88,2.45-2.86,2.65-2.86,2.65s-.61-1.83-.57-8.82c.05-10,1.42-30.51,7.75-71.31,10.76-69.37,17.94-105.26,17.94-105.26s-25.12,49-33.49,82.53l-8.37,33.49s0-29.9,3.59-96.88S235,735.2,235,735.2s4.78,92.1-8.37,108.85-8.37,22.73-10.76-41.86S218.3,722,218.3,722c-3.05,1.83-12.33,10.21-22.44,22.42-9.7,11.72-20.16,27-26.6,43.37-13.16,33.49-14.35,40.67-14.35,40.67s29.9-44.26,23.92-14.35-37.08,68.18-33.49,67,40.67-33.49,25.12,0-17.94,93.3-17.94,93.3,23.92-39.47,16.75-14.35a77,77,0,0,0-2.14,13.35C163.86,1009.13,169.26,1082.07,169.26,1082.07Z"/><path class="cls-7" d="M687.17,130c-1.59-4,4-15.15,4-15.15s3.19,2.39,7.18,12,2.39,0,4.78-9.57a33.63,33.63,0,0,1,1.08-3.38c4.2-11.37,16.46-33.3,16.46-33.3a122.22,122.22,0,0,0-6.38,32.69c0,.58,0,1.14-.06,1.69-.47,16.16,3.51,20.56,11.23,18.25,5.16-1.55,8.65-10.1,10.47-16,1-3.19,1.49-5.58,1.49-5.58s-.15,2.38-.15,5.73c0,7.46.78,19.73,5.73,21.38,7.18,2.39,4.78-8.77,4.78-8.77s4-1.59,9.57,10.37,10.37-1.59,10.37-1.59-4.78,14.35,19.14,2.39c6-3,12.8-5.9,19.62-8.56,20.39-7.95,41-13.77,41-13.77s-6.38,2.39-31.9,13.56c-1.72.75-3.29,1.48-4.75,2.19-20.28,9.81-16.66,15.41-4,16.15a38.24,38.24,0,0,1,9.49,2.44l-9.49-5.63s17.54,4.78,27.11,5.58S806,138,806,138a366.05,366.05,0,0,0,46.25,0c26.31-1.59,38.28,28.71,38.28,28.71s-10.37-3.19-24.72-14.35c-13.29-10.33-6.76.52,19.59,19.9q3.17,2.33,6.73,4.82c24.18,16.93,33.23,37.51,36.2,46.48,16.87,12.08,29.13,18.91,30.78,18.91,2.39,0-7.18-6.38-19.94-22.33s-4-35.88-4.78-48.64,16.75,11.16,19.94,14.35-8.77-18.34-16.75-34.29-5.58-23.12,8-16.75,15.15,23.92,15.95,27.11-2.39-40.67-10.37-49.44S971,119.61,971,119.61s-7.18-8.77-15.95-13.56,45.45-15.95,45.45-15.95a61.63,61.63,0,0,1-18.34-1.59c-9.57-2.39-51.83-8.77-67-14.35s23.12,1.59,23.12,1.59-3.19-2.39-17.54-9.57-62.2-10.37-69.37-14.35,30.3-1.59,30.3-1.59-59-13.56-71.77-11.16,14.35-12.76,14.35-12.76-35.88,12.76-23.12,1.59S842.66,4.78,842.66,4.78s-43.06,4.78-57.41,11.16S806.78,0,806.78,0,780.47,3.19,755,21.53,729.43,47,715.08,53.43,736.61,30.3,736.61,30.3s-6.38-.8-27.91,14.35-19.14,27.11-25.52,37.48S688,55.82,688,55.82s-21.53,20.73-16.75,43.86c.43,2.1.92,4.06,1.45,5.9C677.94,124,687.17,130,687.17,130Zm95.69-22.33s30.3-27.91,47.84-23.92c9.76,2.22,14.83,3.45,17,4a1.73,1.73,0,0,1,.55,0c1.06.35,1.18.39-.55,0-6,.39-53,13.58-38.52,13.58C824.32,101.27,865,110,865,110s-36.68-.8-59,8.77-40.67,10.37-40.67,10.37,28.71-6.38,33.49-12.76-16.75-1.59-36.68,4c-7,1.95-11.68,3.51-14.89,4.71l-6.64,3.26s.68-1,6.64-3.26Z"/><path class="cls-7" d="M915.85,1031.28l-1.67,19.38C915.58,1048.66,916,1041.39,915.85,1031.28Z"/><path class="cls-7" d="M769.7,1354.79s22.73,46.65,39.47,13.16a474.34,474.34,0,0,0,26.31-64.59l2.39,59.81c1.2,29.9,12,51.43,17.94,71.77s10.76-74.16,9.57-98.08,12,41.86,26.31,98.08c5.33-5.6,8.92-52.25,7.12-91.72s0-44.85,7.18-34.09,12.56,19.73,12.56,19.73,12.56-16.15,9-62.79c-.21-2.76-.4-5.28-.58-7.6-2.75-37-.26-20.58,14.93-12.14,16.15,9,34.09,35.88,32.29,30.5s-23.32-75.35-1.79-52,37.68,62.79,37.68,62.79-7.18-48.44-10.76-75.35,12.56,5.38,16.15,5.38,14.35,9-10.76-64.59c-19.23-56.33-58.46-128.44-75.78-159.13a194.79,194.79,0,0,1-.12,28.36c-4.78,63.39-19.14,106.45-20.33,107.65s0-12-7.18-46.65-10.76-4.78-19.14,61-38.28,102.86-40.67,106.45,0-9.57-1.2-38.28,2.39-33.49-12,0-53.82,111.24-53.82,111.24-2.39-21.53-2.39-49c0-22.69-11.39,59.6-14.71,94.49,2,20.72,4.58,45.25,7.08,64.17C767.45,1387.4,769.7,1354.79,769.7,1354.79Z"/><path class="cls-7" d="M1194.85,1691.26c5.38-5.38-64.59-9-107.64-28.7s-30.5-46.65-19.73-77.15,19.73,26.91,19.73,26.91,12.56-50.23-21.53-95.09-26.91-50.23-25.12-78.94,9,9,10.76,19.73,5.38-10.76,10.76-75.35a199.2,199.2,0,0,0,.52-25.1c-2.08-48.7-22-75.37-22-75.37s1.79,41.26-5.38,77.15-39.47-48.44-39.47-48.44,19.73,64.59,17.94,91.5-28.7-43.06-34.09-50.23c-4.39-5.86.78,3.84,13.57,41.77,2.87,8.53,6.13,18.47,9.75,30,19.74,62.79,17.94,70,12.56,109.44s-25.12-73.56-25.12-80.73-3.59,14.35-3.59,75.35,12.56,73.56,23.32,114.82-43.06-30.5-43.06-30.5,19.74,70,68.17,111.23c.89.76,1.8,1.48,2.72,2.19q2.41,1.85,4.92,3.44c49.14,31.19,125.12-9.21,125.12-9.21s-10.76-1.79-28.7-10.76S1189.47,1696.64,1194.85,1691.26Z"/><path class="cls-9" d="M798.28,301.65a30.1,30.1,0,0,1,10.1-18.57,23.68,23.68,0,0,1,12.46-5.69,28.42,28.42,0,0,1,12.91,1.33c.61.22,1,.37,1,.37s-1.77-2.18-4.24-4.85a71.89,71.89,0,0,0-6.53-6.31,16.28,16.28,0,0,0-5.18-3.19c-.81-.23-1.17-.43-1.22-.6-.27-1,10.79-1,10.79-1A174.48,174.48,0,0,0,814.5,248.6c-3.4-3.06-6.61-5.39-8.51-5.39-5.58,0,3.19-6.38,3.19-6.38s-13.56-4-19.93,4-1.59-12.76-1.59-12.76-12.76,11.16-13.56,37.48S798,307.8,798,307.8A26.56,26.56,0,0,1,798.28,301.65Z"/><path class="cls-9" d="M629.76,279.09c-10.37,8-27.91,20.73-27.91,20.73a195,195,0,0,1,38.43-15.36c12.81-3.42,26.55-5.07,37.32-1.38,27.91,9.57,30.3,25.52,30.3,25.52a46.24,46.24,0,0,0,8-9.93,43.9,43.9,0,0,0,6.39-18.77c1.59-17.54-8.77-37.48-8.77-37.48s-2.39,17.54-5.58,3.19c-1.5-6.73-11.06-13.64-20.79-19.07a191.15,191.15,0,0,0-22.27-10.43s12.76,7.18-13.56,12.76a54,54,0,0,0-22.71,10.62,48.72,48.72,0,0,0-13.17,15.7s38.28-2.39,23.12,4-40.67,31.9-40.67,31.9S640.12,271.12,629.76,279.09Z"/><path class="cls-9" d="M345.09,248c32.69-25.52,5.58,1.59-12.76,17.54s-36.68,62.2-36.68,62.2,23.12-32.69,47.84-55.82,12.76-1.59-6.38,16.75-24.72,82.13-24.72,82.13,14.35-45.45,32.69-72.56,4.78.8-5.58,27.11a165.15,165.15,0,0,0-6.31,20.95c-6.75,28-10.71,63.31-8.84,65.17,2.39,2.39,5.58-45.45,25.52-85.32S397.71,277.5,418.45,256c12.69-13.18,19.69-18.28,23.23-20.27a31.15,31.15,0,0,1-3,.83c-8.58,1.91-25.19,2-43.32-17.25-26.31-27.91-36.68-61.4-35.88-63.79,0,0-10.37-1.59-21.53-4s-27.11-16.75-27.11-16.75-1.59,10.37,10.37,21.53,19.14,13.56,8.77,14.35-25.52,12.76-24.72,12.76,5.58-3.19,24.72-4.78,7.18,12.76-6.38,23.12S288.47,256,288.47,256s15.95-20.73,42.26-42.26,19.94,10.37,2.39,23.12C316,249.27,288.28,305,287.67,309.9a.75.75,0,0,0,0,.28h0C288.5,312.54,312.41,273.5,345.09,248Z"/><path class="cls-9" d="M441.67,235.7a20.09,20.09,0,0,0,3.09-1.26A8,8,0,0,0,441.67,235.7Z"/><path class="cls-9" d="M475.86,254.37c6.38-22.33,8.77-57.41,12.76-54.22s-4.78,34.29-4.78,34.29,13.56-15.15,12-40.67C495,181.58,499.18,171,504,163.26c5.25-8.51,11.29-13.73,12.54-14.14,0,0,23.92-22.33,17.54-35.88s-13.56-26.31-13.56-26.31l5.58,19.93s-5.58-15.15-16.75-5.58-12.76,31.9-12.76,31.9,5.58-12.76,7.18-3.19-21.53,35.09-36.68,60.6c-7.39,12.45-10.79,27.17-12.34,39a137,137,0,0,0-1.21,21.61s4.78-39.87,6.38-8a72.62,72.62,0,0,1-.89,15.64c-3.7,22.17-16.65,34.6-16.65,34.6s3.14-1.94,7.53-5.37C458.41,281.41,471.65,269.11,475.86,254.37Z"/><path class="cls-9" d="M892.1,177q-3.55-2.49-6.73-4.82C859,152.82,852.5,142,865.79,152.3c14.35,11.16,24.72,14.35,24.72,14.35s-12-30.3-38.28-28.71A366.05,366.05,0,0,1,806,138s37.48,15.95,27.91,15.15-27.11-5.58-27.11-5.58l9.49,5.63,16,9.52c1.72.57,1,1.56,12.84,9.17,4.65,3,11.23,7,20.65,12.36,33.49,19.14,63.79,43.86,63.79,43.86a42,42,0,0,0-1.28-4.55C925.34,214.53,916.29,194,892.1,177Z"/><path class="cls-9" d="M848.25,87.71a1.73,1.73,0,0,0-.55,0C849.42,88.11,849.31,88.07,848.25,87.71Z"/><path class="cls-9" d="M740.6,128.38l6.64-3.26C741.28,127.37,740.6,128.38,740.6,128.38Z"/><path class="cls-9" d="M747.24,125.12c3.2-1.21,7.92-2.76,14.89-4.71,19.94-5.58,41.47-10.37,36.68-4s-33.49,12.76-33.49,12.76,18.34-.8,40.67-10.37S865,110,865,110s-40.67-8.77-55.82-8.77c-14.52,0,32.49-13.19,38.52-13.58-2.17-.52-7.23-1.75-17-4-17.54-4-47.84,23.92-47.84,23.92Z"/><path class="cls-9" d="M432,493.59c-15.95,38.28-7.18,89.31-7.18,89.31s5.58-22.33,17.54-42.26,22.33-16.75,7.18,12.76-14.35,54.22-14.35,54.22,4.78-7.18,8.77-21.53,15.95-22.33,9.57.8-1.59,82.93-1.59,82.93,13.56-38.28,24.72-72.56,4.78,13.56-3.19,62.2S471.08,732,471.08,732s9.57-32.69,15.15-59.81,16.75-30.3,9.57,8S499,755.94,499,755.94s7.18-63,9.57-75.75,2.39.8,4.78,48.64,26.31,40.67,42.26,87.71c11.69,34.47,1.54,77.5-5.66,98,10.26-21.21,30.19-67.72,20.81-116.39-12.76-66.18-.8-71,14.35-16.75,14.9,53.32,77.6,137.47,82,145.57-3.71-8.17-47-106.41-60.43-161.52-14.35-59-1.59-60.6,6.38-39.07s32.69,54.22,32.69,54.22a278.67,278.67,0,0,1-8.77-39.07c-3.19-21.53,8.77-3.19,40.67,62.2,12.23,25.06,26.32,49.42,39.06,69.93a462.7,462.7,0,0,1-27.9,38.52S702.69,897.5,719,877.38c19.46,31,35.2,52.39,35.2,52.39s-14-31.53-26.27-63.69c13.54-17.59,27.26-37.61,35-55.12,19.14-43.06,50.24-138,59-118s-12.76,73.36-12.76,73.36l15.15-19.93c15.15-19.94,14.35-60.6,15.15-85.32s31.9-8,33.49,31.1-19.94,71-20.73,73.36S873,748,880.94,703.31s-15.15-44.65-4.78-43.06,15.95,35.09,16.75,39.87-.8-51-11.16-73.36c-9.88-21.28-22.65-42.55-23.83-44.49-.21.43-2.24,2-14.45,7.81-16.75,8-55,4-90.11-4.78S684.78,552.6,676,549.41s8.77,2.39,32.69,8.77,40.12-5.85,42.26-4.78c3.19,1.59,65.39-29.5,82.13-51,13.87-17.83,17.34-29.64,14-42.69a56,56,0,0,0-2.88-8.35c-7.18-16.75-37.48-12-47-12.76s-2.39-5.58,10.37-15.15,15.95,0,1.59-16.75c-8-9.28-21.78-20.75-37.54-28.06-12.69-5.89-26.65-9.08-39.81-6.23-29.5,6.38-51-14.35-68.58-19.93S630.56,325.34,621.78,319s-60.6,27.11-60.6,27.11a47.59,47.59,0,0,1,6.58-.94c8.14-.66,22.36-.16,34.09,8.91,17.54,13.56,39.07,20.73,41.46,27.11s-15.95,8.77-29.5,11.16S560.38,374,560.38,366.8,566,358,578.72,350.86c11.53-6.48-11.44-2.55-29.51,9.44a66.5,66.5,0,0,0-5.58,4.12c-18.34,15.15-23.92,43.06-55,55-14.08,5.41-28.47,17.2-40,28.85C450,449.71,443.46,466.09,432,493.59Zm311.78,315c.31,14.07-8.08,33-18.4,50.92-8.27-22.09-15.26-43.49-15.89-54.11C707.9,778.26,743,772.68,743.79,808.57Z"/><path class="cls-9" d="M544.44,926.58c.64,0,2.87-4.5,5.5-12C546.24,922.22,543.8,926.58,544.44,926.58Z"/><path class="cls-9" d="M857.82,582.1l.1.16C858,582.1,857.82,582.1,857.82,582.1Z"/><path class="cls-9" d="M667.24,927.38c0-.09-.1-.21-.17-.35C667.32,927.61,667.39,927.75,667.24,927.38Z"/><path class="cls-9" d="M442.29,454.92c-10.52,11.56-17.46,21.68-17.46,23.52C424.83,482.32,431.63,469.58,442.29,454.92Z"/><path class="cls-9" d="M443.17,453.72l-.88,1.2c2-2.18,4.1-4.41,6.31-6.64C448.06,447.72,446.31,449.46,443.17,453.72Z"/><path class="cls-9" d="M388.15,1217.23c6-58.61-3.59-132.77-3.59-132.77s-1.2,80.14-14.35,87.32-25.12-8.37-17.94-53.82,25.12-98.08,25.12-98.08-34.69,40.67-46.65,69.37-15.55,34.69-14.35,25.12,2.39-40.67,14.35-63.39a288.15,288.15,0,0,1,25.12-39.47s-38.28,26.31-51.43,52.63c-4.55,9.1-7.81,10.47-9.93,7.54-4-5.55-4-26.53-.83-39.84,4.78-20.33,7.18-23.92,7.18-23.92s-22.73,9.57-41.86,57.41-22.73,67-21.53,63.39,52.63-76.55,41.86-44.26c-3,9-1.15,25.68,3,44.87,8.8,40.56,27.89,92.52,33,108.32-2.1-18.52-.28-82.61,7.07-47.93,4.39,20.69,21.26,54.51,36.33,82,1.62,3,3.22,5.84,4.77,8.62,11.62,20.76,21.1,36.13,21.1,36.13s-1.17-20,.19-52.22C385.33,1250.6,386.36,1234.72,388.15,1217.23Z"/><path class="cls-9" d="M315.29,1237.66c.29,2.56.66,4.26,1.09,4.7S316.39,1241.08,315.29,1237.66Z"/><path class="cls-9" d="M886,996.61a5.84,5.84,0,0,0-.27-.65Z"/><path class="cls-9" d="M772.09,1274.65c0,27.51,2.39,49,2.39,49s39.47-77.75,53.82-111.24,10.76-28.71,12,0-1.2,41.86,1.2,38.28,32.29-40.67,40.67-106.45,12-95.69,19.14-61,6,47.84,7.18,46.65,15.55-44.26,20.33-107.65a194.79,194.79,0,0,0,.12-28.36c-3.16-45-21.65-68.53-21.65-68.53s8,70.42,8.6,105.89c.17,10.11-.27,17.38-1.67,19.38-.79,1.12-1.88.58-3.34-2.07-12-21.82-23-47.61-24.84-52,1.32,3.58,6.48,23.11-6.26,87.86-14.35,73-20.33,68.18-22.73,45.45s-29.9-101.67-29.9-101.67,14.35,101.67,9.57,124.39-13.16,28.71-14.35,10.76a333,333,0,0,1,0-37.08s-7.18,19.14-20.33,64.59-27.51,74.16-27.51,49,2.39-89.71,2.39-89.71-20.33,64.59-23.92,98.08S735,1205.27,735,1205.27c-3.59,4.78-14.35,34.69,0,94.49s22.73,93.3,21.53,83.73c-.21-1.68.13-7,.84-14.36C760.7,1334.25,772.09,1252,772.09,1274.65Z"/><path class="cls-9" d="M882,1679.34a3.74,3.74,0,0,0,.12.79C882.36,1680.78,882.29,1680.43,882,1679.34Z"/><path class="cls-9" d="M871.37,1643c3.91,11.73,9.41,31.43,10.64,36.29-.52-6.54,4.62-42.93-1.08-79.35-6-38.28-12-82.53-3.59-56.22s53.82,70.57,53.82,70.57-40.67-67-47.84-99.28-1.2-49,6-31.1,9.57,39.47,9.57,39.47,7.18-32.29-7.18-88.51-27.51-122-26.31-98.08-3.59,118.41-9.57,98.08-16.75-41.86-17.94-71.77l-2.39-59.81a474.34,474.34,0,0,1-26.31,64.59c-16.75,33.49-39.47-13.16-39.47-13.16s-2.26,32.61-5.24,78.52c-3.52,54.15-8,126.8-11.06,186.29-1.94,38.26-3.26,71.08-3.29,90,0,11.91.47,18.34,1.64,17.17,8.37-8.37,17.94-32.29,31.1-28.71s13.16,3.59,34.69,3.59,21.53,4.78,29.9,7.18,12,4.78,16.75-9.57c.13-.39.25-.81.37-1.26C868.85,1681.92,866.72,1629.08,871.37,1643Z"/><path class="cls-9" d="M433.6,1277c.43-3.86,0-2.15,0,0Z"/><path class="cls-9" d="M444.36,1373.92c-6,6-29.9,14.35-20.33-16.75s9.57-76.55,9.57-80.14h0c-.29,2.58-1,7.65-2.39,16.75-.77,4.88-2.86,11.63-5.71,19.27-10.42,28-30.94,67.87-33.76,71.63-3.59,4.78-22.73,9.57-21.53-21.53s-7.18-51.43-7.18-51.43-14.35,19.14-27.51,31.1,15.55-55,15.55-55-17.94,27.51-23.92,55-4.78-13.16-12-52.63-12-70.57-12-70.57l-6,13.16c-2.72,6-6.42,21.81-9.65,37.32-3.89,18.65-7.1,36.84-7.1,36.84s4.78-8.37,9.57-32.29,16.75,21.53,19.14,81.34,28.71,119.61,28.71,119.61-8.37-74.16,3.59-102.86,23.92-6,14.35,32.29,0,50.24,0,61,2.39-15.55,7.18-39.47c2.41-12.07,6.36-16.83,14.12-18.58s18.93-.55,36.11-.55c18.89,0,26.42-9.93,29.37-19A38.94,38.94,0,0,0,444.36,1373.92Z"/><path class="cls-10" d="M900.08,505.55c0-2.52-18.34,53.43-42.26,76.55s-95.89,10.76-124.59-1.2S653.48,546,671,549.21s77.95.2,105.86-12.56,53.23-23.52,46-39.47-1-38.67,19.74-39.47S900.08,507.95,900.08,505.55Z"/><path d="M677.6,518.31s39.07,19.94,70.17,25.52,108.45,4.78,115.62,4,14,3.19,14,3.19a437,437,0,0,1-61.8,11.16C779.67,566.16,648.9,519.91,677.6,518.31Z"/><path d="M873.76,520.7s-45.45-31.1-42.26-55.82,47-35.09,71.77-20.73S924.8,471.26,916,489.6,879.35,527.08,873.76,520.7Z"/><path d="M687.77,315.37s-3-23.92-23.32-29.9-44.26,20.33-44.26,20.33a60.69,60.69,0,0,0,28.11,20.93C666.84,333.31,685.38,322.55,687.77,315.37Z"/><path d="M805,292.65s-6,15.55,2.39,25.72,10.76,9.57,10.76,9.57,5.38-26.91,2.39-37.08S805,292.65,805,292.65Z"/><circle class="cls-11" cx="648" cy="298.33" r="6.28"/><circle class="cls-11" cx="665.34" cy="310.89" r="3.89"/><circle class="cls-11" cx="810.97" cy="298.63" r="3.97" transform="translate(118.35 815.47) rotate(-56.95)"/><circle class="cls-11" cx="815.82" cy="311.25" r="2.46" transform="translate(109.98 825.28) rotate(-56.95)"/></g></g></svg>