<svg xmlns="http://www.w3.org/2000/svg" viewBox="0 0 1279.13 1904.51"><defs><style>.cls-1{fill:none;}.cls-2{fill:#e9dcd7;}.cls-3{fill:#f3e8e3;}.cls-4{fill:#d7b590;}.cls-5{fill:#dfbf98;}.cls-6{fill:#fff;}.cls-7{fill:#9f7568;}</style></defs><title>SHIBA INU 1</title><g id="Layer_2" data-name="Layer 2"><g id="Layer_1-2" data-name="Layer 1"><path class="cls-1" d="M1137.25,1555.43a22.27,22.27,0,0,0-.5-2.35C1136.92,1553.87,1137.09,1554.66,1137.25,1555.43Z"/><path class="cls-2" d="M480.32,1703.09c15.59,1.46,69.6,5.95,92.55.31-25-18.39-51.27-41.32-75.81-64.65C492.1,1660,486.41,1681.78,480.32,1703.09Z"/><path class="cls-2" d="M88.92,1197.71c14.34,95.31,47,318.15,36.43,389.84-13.38,91-32.12,107.08-64.25,131.17s-83,56.22-50.86,69.6,141.88,8,157.94-16.06,75-203.45,83-278.41c4.32-40.29,9.4-75.16,12.36-100.88C205,1347.68,127,1283.38,88.92,1197.71Z"/><path class="cls-2" d="M834.75,1855.25c21.42-18.74-2.68-56.22-2.68-64.25,0-6.29,23-10.94,16.22-19.11l-.16.37s-33.27-2.66-75.93-8c-38.28,21.75-99.81,62.52-87.36,93.65,14.74,36.85,117.42,26.35,165.24,3.68C836.81,1861.22,830.26,1859.18,834.75,1855.25Z"/><path class="cls-3" d="M366.28,1231.52c24.09-72.28,45.51-101.73,56.22-163.3s-16.06-34.8-53.54-32.12S478.71,880.83,526.9,835.33s58.89-88.34,34.8-104.4-168.65,61.57-182,61.57,21.42-48.19,40.15-64.25-2.68-26.77-21.42-24.09,40.15-16.06,104.4-56.22,72.28-104.4,72.28-104.4C572.4,527.47,543,490,513.51,473.93s-53.54,2.68-77.63,8,5.35-10.71,10.71-29.45-42.83,2.68-64.25-8a15.8,15.8,0,0,1-4.93-4.09c2.73,71.5,7.22,85.6,2.45,98.18,10.56,18.58,22.26,32.18,8.11,49.46-6.07,7.42-18.93,15.28-35.16,22.16-1.45.67-3,1.29-4.53,1.86-31.73,12.61-74.33,21.22-104.86,16.13-37.53-6.26-76.28-32-89.68-68.7-.24-.26-.49-.52-.72-.79l.5.18a80.19,80.19,0,0,1-4.46-33.07c4-54.21,29.83-65.26,29.83-65.26s18.74-34.8,56.22-72.28l2.73-2.75c-22.28,5.6-44.64,1.77-61.62.07-26.77-2.68-24.09-10.71-37.48-34.8s-42.83-2.68-53.54,16.06c-5.32,9.32-10.64,4.07-13.34-8.15C58.2,384.09,43.48,424,45,484.64c2.68,104.4,24.09,107.08,8,195.42s-8,342.65,18.74,465.79a267.9,267.9,0,0,0,17.11,51.86c38,85.67,116.07,150,174.61,195.27,6.89,5.33,13.51,10.41,19.77,15.21,46.93,36.1,67.08,61.24,85.9,86.93C363.42,1385.09,351.8,1275,366.28,1231.52Z"/><path class="cls-3" d="M848.29,1771.9c-1.88-2.25-6-4.77-13.54-7.66-34.8-13.38-85.66-88.34-53.54-198.1,19.22-65.66,78.67-107.36,123.34-130.28-17.28-1.18-35.24-2.31-53.74-3.57-117.79-8-219.51,53.54-249,53.54s-37.48-107.08-50.86-139.2-24.09,131.17-42.83,238.25c-3,17.19-6.78,35.35-11.1,53.87,24.55,23.33,50.78,46.26,75.81,64.65,24.14,17.73,47.16,31.23,66.45,36.75,37.58,10.74,90,18.78,132.87,24.14,42.66,5.32,75.93,8,75.93,8Z"/><path class="cls-2" d="M312.74,492.67c-53.54-45.51-133.85-32.12-133.85-32.12s-25.82,11.05-29.83,65.26a80.19,80.19,0,0,0,4.46,33.07c4.26,1.51,35.48,12.5,51.25,15,17,2.68,24.09,2.68,24.09,2.68a273.09,273.09,0,0,0,46.4,27.66c26.77,12.49,33,12.49,48.19,3.57s52.65-31.23,44.62-11.6c-2.51,6.13-8.07,10.7-15.26,14C369,603.33,381.9,595.46,388,588c14.15-17.29,2.45-30.89-8.11-49.46l-.19.49C374.31,552.46,366.28,538.18,312.74,492.67Zm-8,33.91C298.46,546.21,231.54,556,231.54,556c-2.68-1.78-34.8-30.34-26.77-62.46s50-25,75-12.49S311,506.95,304.71,526.58Z"/><path class="cls-2" d="M296.68,617.6c-24.09-1.78-67.82-30.34-67.82-30.34s-55.69-7-75.13-27.76c13.4,36.7,52.15,62.45,89.68,68.7,30.53,5.09,73.13-3.52,104.86-16.13C332.69,617.74,311.73,618.71,296.68,617.6Z"/><path class="cls-4" d="M1230.94,1560.79c18.74,0,48.19-10.71,48.19-10.71s-32.12-13.38-16.06-32.12,2.68-88.34,2.68-88.34A127.64,127.64,0,0,0,1255,1451c-5.35,13.38-2.68-24.09-16.06-93.69s-24.09-88.34-24.09-88.34-2.68,10.71-2.68,32.12-13.38,2.68-24.09-37.48-34.8-61.57-34.8-61.57-5.35,34.8-18.74,10.71-45.51-69.6-45.51-69.6-2.68,16.06,0,48.19-13.38,24.09-13.38,24.09,0-13.38-13.38,8c-9.27,14.83-17.25,43.76-21.28,60.17,72.14,130.52,92.53,247.43,95.75,268.42,39.52,65.26,43.32,59.58,43.32,59.58s-18.74-26.77,0-26.77,42.83-8,42.83-8l-8-2.68C1206.85,1571.49,1212.2,1560.79,1230.94,1560.79Z"/><path class="cls-4" d="M1099.77,1488.51c-29.34-38.36-102.43-46.29-195.22-52.64-44.67,22.92-104.12,64.62-123.34,130.28-32.12,109.76,18.74,184.71,53.54,198.1,7.53,2.89,11.67,5.41,13.54,7.66,6.8,8.16-16.22,12.81-16.22,19.11,0,8,24.09,45.51,2.68,64.25-4.48,3.92,2.06,6,15.33,6.36,50.13,1.47,196.27-20.67,206.86-54.54,13.38-42.83-2.68-83,26.77-112.43s66.92-72.28,53.54-139.2c-.16-.78-.33-1.56-.5-2.35C1135.06,1546.41,1127.95,1525.36,1099.77,1488.51Z"/><path class="cls-4" d="M178.89,460.55s80.31-13.38,133.85,32.12,61.57,59.79,66.92,46.4l.19-.49c4.78-12.58.28-26.68-2.45-98.18-16.89-20.1-18.94-93.37-16.48-135.12,2.68-45.51-53.54,26.77-85.66,58.89a79.14,79.14,0,0,1-37.43,21.35l-2.73,2.75C197.63,425.75,178.89,460.55,178.89,460.55Z"/><path class="cls-5" d="M1024.81,1255.61c-93.69-155.26-251.64-380.13-321.24-433.67s-48.19-40.15-75-88.34-42.83-80.31-40.15-128.49,24.09-141.88,21.42-174,80.31-182,53.54-232.9S502.8,219.62,502.8,219.62s-93.69-75-176.68-64.25c0,0-16.06-149.91-72.28-155.26S136.06,187.5,136.06,211.59,85.19,270.48,74.49,308c-5.38,18.85-5.35,38.37-2.63,50.74s8,17.47,13.34,8.15c10.71-18.74,40.15-40.15,53.54-16.06s10.71,32.12,37.48,34.8c17,1.7,39.34,5.53,61.62-.07a79.14,79.14,0,0,0,37.43-21.35c32.12-32.12,88.34-104.4,85.66-58.89-2.46,41.75-.4,115,16.48,135.12a15.8,15.8,0,0,0,4.93,4.09c21.42,10.71,69.6-10.71,64.25,8s-34.8,34.8-10.71,29.45,48.19-24.09,77.63-8,58.89,53.54,61.57,69.6c0,0-8,64.25-72.28,104.4s-123.14,58.89-104.4,56.22,40.15,8,21.42,24.09-53.54,64.25-40.15,64.25,157.94-77.63,182-61.57,13.38,58.89-34.8,104.4S331.48,1038.78,369,1036.1s64.25-29.45,53.54,32.12-32.12,91-56.22,163.3c-14.48,43.43-2.86,153.57,2.92,263.61,3.83,73.07,5.09,146.1-5.59,199.51C336.83,1828.48,213.69,1844.55,240.46,1882s147.23,24.09,174-10.71c17.53-22.79,44.25-92.65,65.86-168.23,6.09-21.3,11.78-43.06,16.74-64.34,4.32-18.51,8.09-36.67,11.1-53.87C526.9,1477.8,537.6,1314.5,551,1346.63s21.42,139.2,50.86,139.2,131.17-61.57,249-53.54c18.49,1.26,36.46,2.39,53.74,3.57,92.79,6.35,165.89,14.28,195.22,52.64,28.18,36.85,35.29,57.9,37,64.58a22.27,22.27,0,0,1,.5,2.35s-.15-1.17-.49-3.36c-3.22-21-23.61-137.89-95.75-268.42Q1033.31,1269.72,1024.81,1255.61ZM521.54,258c7.14-23.2,91-72.28,120.46-61.57s6.25,118.68-7.14,133.85S601,351.69,589.36,352.58s1.78-7.14,1.78-7.14-16.06-1.78-25-5.35,5.35-7.14,5.35-7.14-12.49,2.68-26.77-6.25S520.23,262.26,521.54,258ZM166.4,137.53c2.68-18.74,57.11-107.08,91-106.19s43.72,117.79,43.72,117.79c-3.57,11.6-75.85,44.62-83,45.51s-17.85-1.78-20.52-10.71-7.14-24.09-7.14-24.09.89,3.57,1.78,16.06-3.57,8.92-6.25-1.78S163.72,156.27,166.4,137.53ZM197.63,316s22.31-4.46,42.83,8.92,7.14,43.72,7.14,43.72-12.49,4.46-33-10.71S197.63,316,197.63,316ZM386.8,417.72s7.14-25,33-24.09,33,26.77,33,26.77S418,454.3,386.8,417.72Z"/><path d="M279.72,481.07c-25-12.49-66.92-19.63-75,12.49s24.09,60.68,26.77,62.46c0,0,66.92-9.82,73.17-29.45S304.71,493.57,279.72,481.07Z"/><path d="M368.06,596.18c8-19.63-29.45,2.68-44.62,11.6s-21.42,8.92-48.19-3.57a273.09,273.09,0,0,1-46.4-27.66s-7.14,0-24.09-2.68c-15.78-2.49-47-13.48-51.25-15l-.5-.18c.23.27.48.53.72.79,19.43,20.8,75.13,27.76,75.13,27.76s43.72,28.55,67.82,30.34c15.05,1.11,36,.14,51.6-5.53,1.57-.57,3.08-1.19,4.53-1.86C360,606.88,365.55,602.32,368.06,596.18Z"/><path d="M419.82,393.62c-25.88-.89-33,24.09-33,24.09,31.23,36.59,66,2.68,66,2.68S445.69,394.52,419.82,393.62Zm-4.58,20a7.58,7.58,0,1,1,5.56-9.17A7.58,7.58,0,0,1,415.23,413.58Zm13.57,14.13a4,4,0,1,1,2.94-4.86A4,4,0,0,1,428.8,427.71Z"/><path d="M247.6,368.64s13.38-30.34-7.14-43.72S197.63,316,197.63,316s-3.57,26.77,17,41.94S247.6,368.64,247.6,368.64Zm-24.54-26.77a7.58,7.58,0,1,1,7.58-7.59A7.58,7.58,0,0,1,223.06,341.87Zm9.82,17a4,4,0,1,1,4-4A4,4,0,0,1,232.87,358.82Z"/><circle class="cls-6" cx="223.06" cy="334.29" r="7.58"/><circle class="cls-6" cx="232.87" cy="354.81" r="4.02"/><circle class="cls-6" cx="413.43" cy="406.21" r="7.58" transform="translate(-84.76 110.01) rotate(-13.76)"/><path class="cls-3" d="M192.27,175.9c-.89-12.49-1.78-16.06-1.78-16.06S195,175,197.63,183.93s13.38,11.6,20.52,10.71,79.42-33.91,83-45.51c0,0-9.82-116.89-43.72-117.79s-88.34,87.45-91,106.19,17,25.88,19.63,36.59S193.17,188.39,192.27,175.9ZM243.14,53.65c26.77-1.78,37.48,43.72,33,60.68S257.41,109,257.41,109s8.92,17.85,8,27.66-18.74-3.57-21.42-5.35,5.35,13.38,3.57,18.74-23.2-17-23.2-17,7.14,17.85,13.38,34.8-6.25-2.68-8.92-4.46S236,185.71,236,185.71s-4.46,4.46-10.71,0-3.57-9.82-3.57-9.82-6.25,13.38-8.92,7.14-5.35-24.09-5.35-24.09-.89,8.92-.89,15.17S195,155.37,192.27,134,216.37,55.43,243.14,53.65Z"/><path class="cls-3" d="M544.74,326.7c14.28,8.92,26.77,6.25,26.77,6.25s-14.28,3.57-5.35,7.14,25,5.35,25,5.35-13.38,8-1.78,7.14,32.12-7.14,45.51-22.31S671.45,207.13,642,196.42,528.68,234.79,521.54,258C520.23,262.26,530.46,317.78,544.74,326.7Zm4.46-71.39c14.28-1.78,26.77-2.68,26.77-2.68s-9.82-2.68-16.06-6.25,10.71-25.88,40.15-37.48,41,15.17,38.37,40.15-25,76.74-35.69,80.31S601,314.21,601,314.21s-11.6,16.06-18.74,17.85,4.46-13.38,4.46-13.38-.89-2.68-10.71,1.78-26.77,1.78-20.52-7.14,25.88-8.92,27.66-11.6-5.35-2.68-15.17-7.14,6.25-4.46,6.25-4.46-25.88-22.31-28.55-21.42C545.63,268.7,534.93,257.1,549.2,255.31Z"/><circle class="cls-6" cx="427.84" cy="423.81" r="4.02" transform="translate(-88.53 113.94) rotate(-13.76)"/><path class="cls-7" d="M206.55,174.11c0-6.25.89-15.17.89-15.17s2.68,17.85,5.35,24.09,8.92-7.14,8.92-7.14-2.68,5.35,3.57,9.82,10.71,0,10.71,0-9.82-24.09-7.14-22.31,15.17,21.42,8.92,4.46-13.38-34.8-13.38-34.8,21.42,22.31,23.2,17-6.25-20.52-3.57-18.74,20.52,15.17,21.42,5.35-8-27.66-8-27.66,14.28,22.31,18.74,5.35-6.25-62.46-33-60.68S189.6,112.54,192.27,134,206.55,180.36,206.55,174.11Z"/><path class="cls-7" d="M574.19,290.11s-16.06,0-6.25,4.46,17,4.46,15.17,7.14-21.42,2.68-27.66,11.6,10.71,11.6,20.52,7.14,10.71-1.78,10.71-1.78-11.6,15.17-4.46,13.38S601,314.21,601,314.21s-8.92,18.74,1.78,15.17,33-55.32,35.69-80.31-8.92-51.75-38.37-40.15-46.4,33.91-40.15,37.48S576,252.64,576,252.64s-12.49.89-26.77,2.68-3.57,13.38-3.57,13.38C548.31,267.81,574.19,290.11,574.19,290.11Z"/></g></g></svg>